<svg id="visual" viewBox="0 0 960 540" width="960" height="540" xmlns="http://www.w3.org/2000/svg" xmlns:xlink="http://www.w3.org/1999/xlink" version="1.1"><g stroke-width="1" stroke-linejoin="bevel"><path d="M490 235.4L530 317.6L531 217.4Z" fill="#10468f" stroke="#10468f"></path><path d="M634 188.3L550 191.3L531 217.4Z" fill="#5258c6" stroke="#5258c6"></path><path d="M531 217.4L446 161.3L490 235.4Z" fill="#775edf" stroke="#775edf"></path><path d="M490 235.4L479 342.6L530 317.6Z" fill="#4154b9" stroke="#4154b9"></path><path d="M630 345.7L644 308.6L530 317.6Z" fill="#775edf" stroke="#775edf"></path><path d="M530 317.6L644 308.6L531 217.4Z" fill="#3150ab" stroke="#3150ab"></path><path d="M539 422.7L630 345.7L530 317.6Z" fill="#4154b9" stroke="#4154b9"></path><path d="M357 280.6L438 362.7L479 342.6Z" fill="#775edf" stroke="#775edf"></path><path d="M479 342.6L539 422.7L530 317.6Z" fill="#b362ff" stroke="#b362ff"></path><path d="M644 308.6L634 188.3L531 217.4Z" fill="#9e61f5" stroke="#9e61f5"></path><path d="M550 191.3L446 161.3L531 217.4Z" fill="#004181" stroke="#004181"></path><path d="M490 235.4L357 280.6L479 342.6Z" fill="#3150ab" stroke="#3150ab"></path><path d="M479 110.1L446 161.3L550 191.3Z" fill="#645bd3" stroke="#645bd3"></path><path d="M634 188.3L547 117.1L550 191.3Z" fill="#004181" stroke="#004181"></path><path d="M444 421.9L539 422.7L479 342.6Z" fill="#9e61f5" stroke="#9e61f5"></path><path d="M644 308.6L674 211.4L634 188.3Z" fill="#645bd3" stroke="#645bd3"></path><path d="M634 188.3L667 108.1L547 117.1Z" fill="#b362ff" stroke="#b362ff"></path><path d="M446 161.3L382 211.4L490 235.4Z" fill="#4154b9" stroke="#4154b9"></path><path d="M547 117.1L479 110.1L550 191.3Z" fill="#8a60ea" stroke="#8a60ea"></path><path d="M446 161.3L367 144.3L382 211.4Z" fill="#3150ab" stroke="#3150ab"></path><path d="M382 211.4L357 280.6L490 235.4Z" fill="#8a60ea" stroke="#8a60ea"></path><path d="M363 393.7L444 421.9L438 362.7Z" fill="#775edf" stroke="#775edf"></path><path d="M438 362.7L444 421.9L479 342.6Z" fill="#3150ab" stroke="#3150ab"></path><path d="M367 144.3L335 229.4L382 211.4Z" fill="#775edf" stroke="#775edf"></path><path d="M382 211.4L335 229.4L357 280.6Z" fill="#3150ab" stroke="#3150ab"></path><path d="M779 384.7L729 272.6L644 308.6Z" fill="#b362ff" stroke="#b362ff"></path><path d="M644 308.6L729 272.6L674 211.4Z" fill="#5258c6" stroke="#5258c6"></path><path d="M779 384.7L644 308.6L630 345.7Z" fill="#5258c6" stroke="#5258c6"></path><path d="M368 95.1L367 144.3L446 161.3Z" fill="#9e61f5" stroke="#9e61f5"></path><path d="M335 229.4L325 289.6L357 280.6Z" fill="#214b9d" stroke="#214b9d"></path><path d="M357 280.6L363 393.7L438 362.7Z" fill="#9e61f5" stroke="#9e61f5"></path><path d="M325 289.6L363 393.7L357 280.6Z" fill="#8a60ea" stroke="#8a60ea"></path><path d="M683 119.3L634 188.3L674 211.4Z" fill="#9e61f5" stroke="#9e61f5"></path><path d="M683 119.3L667 108.1L634 188.3Z" fill="#3150ab" stroke="#3150ab"></path><path d="M547 117.1L461 0L479 110.1Z" fill="#9e61f5" stroke="#9e61f5"></path><path d="M758 243.4L683 119.3L674 211.4Z" fill="#214b9d" stroke="#214b9d"></path><path d="M444 421.9L523 483.9L539 422.7Z" fill="#214b9d" stroke="#214b9d"></path><path d="M539 422.7L612 470.9L630 345.7Z" fill="#645bd3" stroke="#645bd3"></path><path d="M447 540L523 483.9L444 421.9Z" fill="#9e61f5" stroke="#9e61f5"></path><path d="M523 483.9L612 470.9L539 422.7Z" fill="#214b9d" stroke="#214b9d"></path><path d="M830 252.4L758 243.4L831 329.6Z" fill="#10468f" stroke="#10468f"></path><path d="M729 272.6L758 243.4L674 211.4Z" fill="#214b9d" stroke="#214b9d"></path><path d="M363 393.7L389 455.9L444 421.9Z" fill="#775edf" stroke="#775edf"></path><path d="M479 110.1L368 95.1L446 161.3Z" fill="#4154b9" stroke="#4154b9"></path><path d="M367 144.3L305 132.3L335 229.4Z" fill="#10468f" stroke="#10468f"></path><path d="M415 0L368 95.1L479 110.1Z" fill="#4154b9" stroke="#4154b9"></path><path d="M325 289.6L317 401.7L363 393.7Z" fill="#b362ff" stroke="#b362ff"></path><path d="M363 393.7L317 401.7L389 455.9Z" fill="#10468f" stroke="#10468f"></path><path d="M368 95.1L345 94.1L367 144.3Z" fill="#5258c6" stroke="#5258c6"></path><path d="M246 201.4L249 305.6L325 289.6Z" fill="#9e61f5" stroke="#9e61f5"></path><path d="M683 119.3L697 71.1L667 108.1Z" fill="#3150ab" stroke="#3150ab"></path><path d="M667 108.1L581 0L547 117.1Z" fill="#5258c6" stroke="#5258c6"></path><path d="M368 95.1L415 0L345 94.1Z" fill="#10468f" stroke="#10468f"></path><path d="M803 47.1L697 71.1L683 119.3Z" fill="#b362ff" stroke="#b362ff"></path><path d="M345 94.1L305 132.3L367 144.3Z" fill="#9e61f5" stroke="#9e61f5"></path><path d="M325 289.6L268 387.7L317 401.7Z" fill="#5258c6" stroke="#5258c6"></path><path d="M612 470.9L740 426.7L630 345.7Z" fill="#9e61f5" stroke="#9e61f5"></path><path d="M447 540L524 540L523 483.9Z" fill="#645bd3" stroke="#645bd3"></path><path d="M523 483.9L524 540L612 470.9Z" fill="#8a60ea" stroke="#8a60ea"></path><path d="M612 470.9L721 467.9L740 426.7Z" fill="#b362ff" stroke="#b362ff"></path><path d="M629 0L581 0L667 108.1Z" fill="#9e61f5" stroke="#9e61f5"></path><path d="M581 0L461 0L547 117.1Z" fill="#645bd3" stroke="#645bd3"></path><path d="M740 426.7L779 384.7L630 345.7Z" fill="#645bd3" stroke="#645bd3"></path><path d="M660 540L721 467.9L612 470.9Z" fill="#8a60ea" stroke="#8a60ea"></path><path d="M740 426.7L808 431.9L779 384.7Z" fill="#8a60ea" stroke="#8a60ea"></path><path d="M246 201.4L325 289.6L335 229.4Z" fill="#3150ab" stroke="#3150ab"></path><path d="M389 455.9L447 540L444 421.9Z" fill="#9e61f5" stroke="#9e61f5"></path><path d="M436 540L447 540L389 455.9Z" fill="#3150ab" stroke="#3150ab"></path><path d="M697 71.1L629 0L667 108.1Z" fill="#4154b9" stroke="#4154b9"></path><path d="M249 305.6L268 387.7L325 289.6Z" fill="#8a60ea" stroke="#8a60ea"></path><path d="M317 401.7L291 490.9L389 455.9Z" fill="#9e61f5" stroke="#9e61f5"></path><path d="M296 540L436 540L389 455.9Z" fill="#8a60ea" stroke="#8a60ea"></path><path d="M305 132.3L246 201.4L335 229.4Z" fill="#5258c6" stroke="#5258c6"></path><path d="M186 146.3L211 183.3L305 132.3Z" fill="#775edf" stroke="#775edf"></path><path d="M305 132.3L211 183.3L246 201.4Z" fill="#5258c6" stroke="#5258c6"></path><path d="M461 0L415 0L479 110.1Z" fill="#9e61f5" stroke="#9e61f5"></path><path d="M831 329.6L758 243.4L729 272.6Z" fill="#5258c6" stroke="#5258c6"></path><path d="M758 243.4L834 158.3L683 119.3Z" fill="#b362ff" stroke="#b362ff"></path><path d="M524 540L660 540L612 470.9Z" fill="#645bd3" stroke="#645bd3"></path><path d="M779 384.7L831 329.6L729 272.6Z" fill="#4154b9" stroke="#4154b9"></path><path d="M808 431.9L831 329.6L779 384.7Z" fill="#645bd3" stroke="#645bd3"></path><path d="M660 540L702 540L721 467.9Z" fill="#9e61f5" stroke="#9e61f5"></path><path d="M721 467.9L808 431.9L740 426.7Z" fill="#004181" stroke="#004181"></path><path d="M810 540L808 431.9L721 467.9Z" fill="#645bd3" stroke="#645bd3"></path><path d="M830 252.4L834 158.3L758 243.4Z" fill="#004181" stroke="#004181"></path><path d="M697 71.1L754 0L629 0Z" fill="#10468f" stroke="#10468f"></path><path d="M852 104.1L834 158.3L913 141.3Z" fill="#214b9d" stroke="#214b9d"></path><path d="M205 474.9L291 490.9L268 387.7Z" fill="#9e61f5" stroke="#9e61f5"></path><path d="M268 387.7L291 490.9L317 401.7Z" fill="#4154b9" stroke="#4154b9"></path><path d="M246 67.1L305 132.3L345 94.1Z" fill="#004181" stroke="#004181"></path><path d="M246 201.4L187 265.6L249 305.6Z" fill="#b362ff" stroke="#b362ff"></path><path d="M249 305.6L133 396.7L268 387.7Z" fill="#775edf" stroke="#775edf"></path><path d="M211 183.3L187 265.6L246 201.4Z" fill="#8a60ea" stroke="#8a60ea"></path><path d="M300 0L246 67.1L345 94.1Z" fill="#b362ff" stroke="#b362ff"></path><path d="M803 47.1L754 0L697 71.1Z" fill="#10468f" stroke="#10468f"></path><path d="M415 0L300 0L345 94.1Z" fill="#4154b9" stroke="#4154b9"></path><path d="M834 158.3L803 47.1L683 119.3Z" fill="#9e61f5" stroke="#9e61f5"></path><path d="M803 47.1L764 0L754 0Z" fill="#775edf" stroke="#775edf"></path><path d="M213 540L296 540L291 490.9Z" fill="#4154b9" stroke="#4154b9"></path><path d="M291 490.9L296 540L389 455.9Z" fill="#b362ff" stroke="#b362ff"></path><path d="M834 158.3L852 104.1L803 47.1Z" fill="#004181" stroke="#004181"></path><path d="M803 47.1L853 0L764 0Z" fill="#9e61f5" stroke="#9e61f5"></path><path d="M911 271.4L834 158.3L830 252.4Z" fill="#8a60ea" stroke="#8a60ea"></path><path d="M211 183.3L148 241.4L187 265.6Z" fill="#645bd3" stroke="#645bd3"></path><path d="M246 67.1L186 146.3L305 132.3Z" fill="#4154b9" stroke="#4154b9"></path><path d="M186 146.3L148 241.4L211 183.3Z" fill="#775edf" stroke="#775edf"></path><path d="M133 396.7L205 474.9L268 387.7Z" fill="#9e61f5" stroke="#9e61f5"></path><path d="M913 301.6L830 252.4L831 329.6Z" fill="#645bd3" stroke="#645bd3"></path><path d="M913 301.6L911 271.4L830 252.4Z" fill="#8a60ea" stroke="#8a60ea"></path><path d="M133 396.7L249 305.6L187 265.6Z" fill="#5258c6" stroke="#5258c6"></path><path d="M906 348.7L913 301.6L831 329.6Z" fill="#4154b9" stroke="#4154b9"></path><path d="M885 419.9L906 348.7L831 329.6Z" fill="#214b9d" stroke="#214b9d"></path><path d="M885 419.9L831 329.6L808 431.9Z" fill="#004181" stroke="#004181"></path><path d="M843 540L885 419.9L808 431.9Z" fill="#4154b9" stroke="#4154b9"></path><path d="M702 540L810 540L721 467.9Z" fill="#645bd3" stroke="#645bd3"></path><path d="M186 146.3L58 190.3L148 241.4Z" fill="#3150ab" stroke="#3150ab"></path><path d="M246 67.1L164 119.1L186 146.3Z" fill="#4154b9" stroke="#4154b9"></path><path d="M183 0L164 119.1L246 67.1Z" fill="#9e61f5" stroke="#9e61f5"></path><path d="M911 271.4L913 141.3L834 158.3Z" fill="#8a60ea" stroke="#8a60ea"></path><path d="M852 104.1L853 0L803 47.1Z" fill="#214b9d" stroke="#214b9d"></path><path d="M960 228.4L913 141.3L911 271.4Z" fill="#214b9d" stroke="#214b9d"></path><path d="M300 0L215 0L246 67.1Z" fill="#645bd3" stroke="#645bd3"></path><path d="M86 350.6L133 396.7L187 265.6Z" fill="#8a60ea" stroke="#8a60ea"></path><path d="M810 540L843 540L808 431.9Z" fill="#775edf" stroke="#775edf"></path><path d="M177 540L213 540L205 474.9Z" fill="#3150ab" stroke="#3150ab"></path><path d="M205 474.9L213 540L291 490.9Z" fill="#004181" stroke="#004181"></path><path d="M960 54.1L853 0L852 104.1Z" fill="#775edf" stroke="#775edf"></path><path d="M58 190.3L105 254.4L148 241.4Z" fill="#b362ff" stroke="#b362ff"></path><path d="M148 241.4L105 254.4L187 265.6Z" fill="#3150ab" stroke="#3150ab"></path><path d="M58 190.3L186 146.3L164 119.1Z" fill="#214b9d" stroke="#214b9d"></path><path d="M960 347.6L960 228.4L913 301.6Z" fill="#10468f" stroke="#10468f"></path><path d="M913 301.6L960 228.4L911 271.4Z" fill="#b362ff" stroke="#b362ff"></path><path d="M913 141.3L960 54.1L852 104.1Z" fill="#004181" stroke="#004181"></path><path d="M960 347.6L913 301.6L906 348.7Z" fill="#214b9d" stroke="#214b9d"></path><path d="M960 347.6L906 348.7L960 410.7Z" fill="#9e61f5" stroke="#9e61f5"></path><path d="M215 0L183 0L246 67.1Z" fill="#9e61f5" stroke="#9e61f5"></path><path d="M960 410.7L906 348.7L885 419.9Z" fill="#775edf" stroke="#775edf"></path><path d="M960 228.4L960 182.3L913 141.3Z" fill="#214b9d" stroke="#214b9d"></path><path d="M136 502.9L177 540L205 474.9Z" fill="#775edf" stroke="#775edf"></path><path d="M105 254.4L86 350.6L187 265.6Z" fill="#214b9d" stroke="#214b9d"></path><path d="M133 396.7L136 502.9L205 474.9Z" fill="#5258c6" stroke="#5258c6"></path><path d="M960 501.9L960 410.7L885 419.9Z" fill="#8a60ea" stroke="#8a60ea"></path><path d="M52 469.9L136 502.9L133 396.7Z" fill="#8a60ea" stroke="#8a60ea"></path><path d="M0 285.6L76 372.7L86 350.6Z" fill="#5258c6" stroke="#5258c6"></path><path d="M86 350.6L76 372.7L133 396.7Z" fill="#4154b9" stroke="#4154b9"></path><path d="M79 49.1L58 190.3L164 119.1Z" fill="#10468f" stroke="#10468f"></path><path d="M105 254.4L0 285.6L86 350.6Z" fill="#004181" stroke="#004181"></path><path d="M960 182.3L960 54.1L913 141.3Z" fill="#9e61f5" stroke="#9e61f5"></path><path d="M843 540L960 501.9L885 419.9Z" fill="#4154b9" stroke="#4154b9"></path><path d="M183 0L79 49.1L164 119.1Z" fill="#4154b9" stroke="#4154b9"></path><path d="M960 54.1L960 0L853 0Z" fill="#4154b9" stroke="#4154b9"></path><path d="M843 540L960 540L960 501.9Z" fill="#5258c6" stroke="#5258c6"></path><path d="M0 392.7L52 469.9L76 372.7Z" fill="#10468f" stroke="#10468f"></path><path d="M76 372.7L52 469.9L133 396.7Z" fill="#5258c6" stroke="#5258c6"></path><path d="M136 502.9L65 540L177 540Z" fill="#775edf" stroke="#775edf"></path><path d="M58 190.3L0 270.4L105 254.4Z" fill="#645bd3" stroke="#645bd3"></path><path d="M0 130.3L0 270.4L58 190.3Z" fill="#4154b9" stroke="#4154b9"></path><path d="M0 270.4L0 285.6L105 254.4Z" fill="#10468f" stroke="#10468f"></path><path d="M0 485.9L65 540L52 469.9Z" fill="#214b9d" stroke="#214b9d"></path><path d="M52 469.9L65 540L136 502.9Z" fill="#5258c6" stroke="#5258c6"></path><path d="M0 285.6L0 392.7L76 372.7Z" fill="#214b9d" stroke="#214b9d"></path><path d="M183 0L54 0L79 49.1Z" fill="#645bd3" stroke="#645bd3"></path><path d="M79 49.1L0 130.3L58 190.3Z" fill="#004181" stroke="#004181"></path><path d="M0 69.1L0 130.3L79 49.1Z" fill="#775edf" stroke="#775edf"></path><path d="M54 0L0 69.1L79 49.1Z" fill="#004181" stroke="#004181"></path><path d="M0 392.7L0 485.9L52 469.9Z" fill="#5258c6" stroke="#5258c6"></path><path d="M54 0L0 0L0 69.1Z" fill="#214b9d" stroke="#214b9d"></path><path d="M0 485.9L0 540L65 540Z" fill="#10468f" stroke="#10468f"></path></g></svg>