<svg id="visual" viewBox="0 0 1920 1080" width="1920" height="1080" xmlns="http://www.w3.org/2000/svg" xmlns:xlink="http://www.w3.org/1999/xlink" version="1.1"><g stroke-width="1" stroke-linejoin="bevel"><path d="M903.5 540L903.5 432L790.6 540Z" fill="#008597" stroke="#008597"></path><path d="M790.6 432L790.6 540L903.5 432Z" fill="#008597" stroke="#008597"></path><path d="M790.6 540L903.5 648L903.5 540Z" fill="#001122" stroke="#001122"></path><path d="M790.6 648L903.5 648L790.6 540Z" fill="#008597" stroke="#008597"></path><path d="M903.5 432L790.6 324L790.6 432Z" fill="#00d399" stroke="#00d399"></path><path d="M903.5 324L790.6 324L903.5 432Z" fill="#006b82" stroke="#006b82"></path><path d="M677.6 432L677.6 540L790.6 432Z" fill="#001122" stroke="#001122"></path><path d="M790.6 432L677.6 540L790.6 540Z" fill="#02536b" stroke="#02536b"></path><path d="M790.6 540L677.6 540L790.6 648Z" fill="#006b82" stroke="#006b82"></path><path d="M790.6 324L677.6 432L790.6 432Z" fill="#00baaa" stroke="#00baaa"></path><path d="M1016.5 648L1016.5 540L903.5 540Z" fill="#02536b" stroke="#02536b"></path><path d="M903.5 540L1016.5 432L903.5 432Z" fill="#02536b" stroke="#02536b"></path><path d="M903.5 432L1016.5 324L903.5 324Z" fill="#00baaa" stroke="#00baaa"></path><path d="M1016.5 540L1016.5 432L903.5 540Z" fill="#02536b" stroke="#02536b"></path><path d="M790.6 324L677.6 324L677.6 432Z" fill="#00d399" stroke="#00d399"></path><path d="M677.6 540L677.6 648L790.6 648Z" fill="#05263a" stroke="#05263a"></path><path d="M903.5 648L1016.5 648L903.5 540Z" fill="#008597" stroke="#008597"></path><path d="M1016.5 432L1016.5 324L903.5 432Z" fill="#00d399" stroke="#00d399"></path><path d="M790.6 756L903.5 756L903.5 648Z" fill="#00d399" stroke="#00d399"></path><path d="M903.5 648L1016.5 756L1016.5 648Z" fill="#001122" stroke="#001122"></path><path d="M790.6 756L903.5 648L790.6 648Z" fill="#00baaa" stroke="#00baaa"></path><path d="M1016.5 216L903.5 216L903.5 324Z" fill="#053b52" stroke="#053b52"></path><path d="M903.5 324L790.6 216L790.6 324Z" fill="#006b82" stroke="#006b82"></path><path d="M790.6 324L790.6 216L677.6 324Z" fill="#053b52" stroke="#053b52"></path><path d="M903.5 216L790.6 216L903.5 324Z" fill="#05263a" stroke="#05263a"></path><path d="M677.6 648L790.6 756L790.6 648Z" fill="#006b82" stroke="#006b82"></path><path d="M677.6 324L564.7 432L677.6 432Z" fill="#05263a" stroke="#05263a"></path><path d="M677.6 432L564.7 432L677.6 540Z" fill="#001122" stroke="#001122"></path><path d="M677.6 540L564.7 540L677.6 648Z" fill="#00baaa" stroke="#00baaa"></path><path d="M564.7 432L564.7 540L677.6 540Z" fill="#006b82" stroke="#006b82"></path><path d="M1129.4 540L1129.4 432L1016.5 432Z" fill="#053b52" stroke="#053b52"></path><path d="M1016.5 432L1129.4 324L1016.5 324Z" fill="#00ea78" stroke="#00ea78"></path><path d="M1129.4 540L1016.5 432L1016.5 540Z" fill="#053b52" stroke="#053b52"></path><path d="M1129.4 648L1129.4 540L1016.5 540Z" fill="#006b82" stroke="#006b82"></path><path d="M790.6 216L677.6 216L677.6 324Z" fill="#05263a" stroke="#05263a"></path><path d="M677.6 324L564.7 324L564.7 432Z" fill="#00ff3e" stroke="#00ff3e"></path><path d="M564.7 648L677.6 756L677.6 648Z" fill="#00a0a9" stroke="#00a0a9"></path><path d="M677.6 648L677.6 756L790.6 756Z" fill="#053b52" stroke="#053b52"></path><path d="M1129.4 216L1016.5 216L1016.5 324Z" fill="#006b82" stroke="#006b82"></path><path d="M1016.5 324L1016.5 216L903.5 324Z" fill="#02536b" stroke="#02536b"></path><path d="M903.5 756L1016.5 756L903.5 648Z" fill="#053b52" stroke="#053b52"></path><path d="M1016.5 648L1129.4 648L1016.5 540Z" fill="#00ff3e" stroke="#00ff3e"></path><path d="M564.7 540L564.7 648L677.6 648Z" fill="#00ff3e" stroke="#00ff3e"></path><path d="M677.6 216L564.7 324L677.6 324Z" fill="#00a0a9" stroke="#00a0a9"></path><path d="M1129.4 432L1129.4 324L1016.5 432Z" fill="#006b82" stroke="#006b82"></path><path d="M1129.4 756L1129.4 648L1016.5 648Z" fill="#00ea78" stroke="#00ea78"></path><path d="M790.6 864L903.5 864L903.5 756Z" fill="#006b82" stroke="#006b82"></path><path d="M903.5 756L1016.5 864L1016.5 756Z" fill="#00d399" stroke="#00d399"></path><path d="M790.6 864L903.5 756L790.6 756Z" fill="#00baaa" stroke="#00baaa"></path><path d="M677.6 756L790.6 864L790.6 756Z" fill="#053b52" stroke="#053b52"></path><path d="M1016.5 108L903.5 108L903.5 216Z" fill="#05263a" stroke="#05263a"></path><path d="M903.5 216L790.6 108L790.6 216Z" fill="#05263a" stroke="#05263a"></path><path d="M790.6 216L790.6 108L677.6 216Z" fill="#00baaa" stroke="#00baaa"></path><path d="M903.5 108L790.6 108L903.5 216Z" fill="#00d399" stroke="#00d399"></path><path d="M564.7 648L564.7 756L677.6 756Z" fill="#00ff3e" stroke="#00ff3e"></path><path d="M677.6 756L677.6 864L790.6 864Z" fill="#001122" stroke="#001122"></path><path d="M677.6 216L564.7 216L564.7 324Z" fill="#006b82" stroke="#006b82"></path><path d="M677.6 108L564.7 216L677.6 216Z" fill="#00ff3e" stroke="#00ff3e"></path><path d="M1129.4 864L1129.4 756L1016.5 756Z" fill="#00a0a9" stroke="#00a0a9"></path><path d="M1016.5 756L1129.4 756L1016.5 648Z" fill="#02536b" stroke="#02536b"></path><path d="M1129.4 324L1129.4 216L1016.5 324Z" fill="#05263a" stroke="#05263a"></path><path d="M1016.5 216L1016.5 108L903.5 216Z" fill="#001122" stroke="#001122"></path><path d="M451.8 432L451.8 540L564.7 540Z" fill="#05263a" stroke="#05263a"></path><path d="M564.7 540L451.8 648L564.7 648Z" fill="#001122" stroke="#001122"></path><path d="M564.7 648L451.8 756L564.7 756Z" fill="#05263a" stroke="#05263a"></path><path d="M451.8 432L564.7 540L564.7 432Z" fill="#00d399" stroke="#00d399"></path><path d="M451.8 432L564.7 432L451.8 324Z" fill="#00d399" stroke="#00d399"></path><path d="M451.8 324L564.7 432L564.7 324Z" fill="#00ff3e" stroke="#00ff3e"></path><path d="M1242.4 648L1129.4 540L1129.4 648Z" fill="#00baaa" stroke="#00baaa"></path><path d="M1242.4 648L1242.4 540L1129.4 540Z" fill="#00baaa" stroke="#00baaa"></path><path d="M1129.4 540L1242.4 432L1129.4 432Z" fill="#02536b" stroke="#02536b"></path><path d="M1129.4 432L1242.4 324L1129.4 324Z" fill="#006b82" stroke="#006b82"></path><path d="M1129.4 324L1242.4 216L1129.4 216Z" fill="#053b52" stroke="#053b52"></path><path d="M1242.4 540L1242.4 432L1129.4 540Z" fill="#00a0a9" stroke="#00a0a9"></path><path d="M564.7 756L677.6 864L677.6 756Z" fill="#001122" stroke="#001122"></path><path d="M790.6 108L677.6 108L677.6 216Z" fill="#053b52" stroke="#053b52"></path><path d="M903.5 864L1016.5 864L903.5 756Z" fill="#00d399" stroke="#00d399"></path><path d="M1129.4 108L1016.5 108L1016.5 216Z" fill="#053b52" stroke="#053b52"></path><path d="M451.8 216L564.7 324L564.7 216Z" fill="#00d399" stroke="#00d399"></path><path d="M451.8 216L451.8 324L564.7 324Z" fill="#02536b" stroke="#02536b"></path><path d="M1242.4 432L1242.4 324L1129.4 432Z" fill="#00ea78" stroke="#00ea78"></path><path d="M1242.4 756L1242.4 648L1129.4 648Z" fill="#006b82" stroke="#006b82"></path><path d="M451.8 540L451.8 648L564.7 540Z" fill="#02536b" stroke="#02536b"></path><path d="M564.7 756L564.7 864L677.6 864Z" fill="#00d399" stroke="#00d399"></path><path d="M677.6 108L564.7 108L564.7 216Z" fill="#00baaa" stroke="#00baaa"></path><path d="M451.8 864L564.7 864L564.7 756Z" fill="#00ea78" stroke="#00ea78"></path><path d="M1016.5 864L1129.4 864L1016.5 756Z" fill="#001122" stroke="#001122"></path><path d="M1129.4 756L1242.4 756L1129.4 648Z" fill="#02536b" stroke="#02536b"></path><path d="M1242.4 108L1129.4 108L1129.4 216Z" fill="#00ea78" stroke="#00ea78"></path><path d="M1129.4 216L1129.4 108L1016.5 216Z" fill="#02536b" stroke="#02536b"></path><path d="M1242.4 324L1242.4 216L1129.4 324Z" fill="#05263a" stroke="#05263a"></path><path d="M451.8 108L451.8 216L564.7 216Z" fill="#053b52" stroke="#053b52"></path><path d="M451.8 648L451.8 756L564.7 648Z" fill="#00ff3e" stroke="#00ff3e"></path><path d="M1242.4 864L1242.4 756L1129.4 756Z" fill="#00a0a9" stroke="#00a0a9"></path><path d="M903.5 0L790.6 0L790.6 108Z" fill="#008597" stroke="#008597"></path><path d="M790.6 108L790.6 0L677.6 108Z" fill="#02536b" stroke="#02536b"></path><path d="M677.6 108L677.6 0L564.7 108Z" fill="#001122" stroke="#001122"></path><path d="M903.5 0L790.6 108L903.5 108Z" fill="#00baaa" stroke="#00baaa"></path><path d="M903.5 0L903.5 108L1016.5 0Z" fill="#053b52" stroke="#053b52"></path><path d="M1016.5 0L903.5 108L1016.5 108Z" fill="#006b82" stroke="#006b82"></path><path d="M677.6 864L790.6 972L790.6 864Z" fill="#006b82" stroke="#006b82"></path><path d="M790.6 864L903.5 972L903.5 864Z" fill="#00d399" stroke="#00d399"></path><path d="M903.5 864L1016.5 972L1016.5 864Z" fill="#001122" stroke="#001122"></path><path d="M1016.5 864L1129.4 972L1129.4 864Z" fill="#053b52" stroke="#053b52"></path><path d="M677.6 972L790.6 972L677.6 864Z" fill="#00ff3e" stroke="#00ff3e"></path><path d="M790.6 972L903.5 972L790.6 864Z" fill="#00a0a9" stroke="#00a0a9"></path><path d="M451.8 324L338.8 432L451.8 432Z" fill="#00baaa" stroke="#00baaa"></path><path d="M451.8 432L338.8 432L451.8 540Z" fill="#05263a" stroke="#05263a"></path><path d="M451.8 540L338.8 540L451.8 648Z" fill="#053b52" stroke="#053b52"></path><path d="M451.8 648L338.8 648L451.8 756Z" fill="#00a0a9" stroke="#00a0a9"></path><path d="M338.8 324L338.8 432L451.8 324Z" fill="#00ea78" stroke="#00ea78"></path><path d="M338.8 432L338.8 540L451.8 540Z" fill="#05263a" stroke="#05263a"></path><path d="M1355.3 540L1355.3 432L1242.4 432Z" fill="#008597" stroke="#008597"></path><path d="M1242.4 432L1355.3 324L1242.4 324Z" fill="#006b82" stroke="#006b82"></path><path d="M1242.4 324L1355.3 216L1242.4 216Z" fill="#00d399" stroke="#00d399"></path><path d="M1355.3 540L1242.4 432L1242.4 540Z" fill="#02536b" stroke="#02536b"></path><path d="M1355.3 540L1242.4 540L1355.3 648Z" fill="#00a0a9" stroke="#00a0a9"></path><path d="M1355.3 648L1242.4 540L1242.4 648Z" fill="#008597" stroke="#008597"></path><path d="M790.6 0L677.6 0L677.6 108Z" fill="#00baaa" stroke="#00baaa"></path><path d="M564.7 108L451.8 108L564.7 216Z" fill="#053b52" stroke="#053b52"></path><path d="M564.7 972L677.6 972L564.7 864Z" fill="#05263a" stroke="#05263a"></path><path d="M564.7 864L677.6 972L677.6 864Z" fill="#001122" stroke="#001122"></path><path d="M903.5 972L1016.5 972L903.5 864Z" fill="#00a0a9" stroke="#00a0a9"></path><path d="M1129.4 0L1016.5 0L1016.5 108Z" fill="#00ea78" stroke="#00ea78"></path><path d="M451.8 216L338.8 324L451.8 324Z" fill="#053b52" stroke="#053b52"></path><path d="M1355.3 432L1355.3 324L1242.4 432Z" fill="#053b52" stroke="#053b52"></path><path d="M1242.4 216L1242.4 108L1129.4 216Z" fill="#006b82" stroke="#006b82"></path><path d="M338.8 540L338.8 648L451.8 648Z" fill="#008597" stroke="#008597"></path><path d="M1355.3 756L1242.4 648L1242.4 756Z" fill="#001122" stroke="#001122"></path><path d="M1355.3 756L1355.3 648L1242.4 648Z" fill="#00baaa" stroke="#00baaa"></path><path d="M1242.4 972L1242.4 864L1129.4 864Z" fill="#00d399" stroke="#00d399"></path><path d="M1129.4 864L1242.4 864L1129.4 756Z" fill="#00ea78" stroke="#00ea78"></path><path d="M451.8 0L451.8 108L564.7 108Z" fill="#008597" stroke="#008597"></path><path d="M451.8 216L338.8 216L338.8 324Z" fill="#00d399" stroke="#00d399"></path><path d="M1355.3 108L1242.4 108L1242.4 216Z" fill="#008597" stroke="#008597"></path><path d="M1129.4 108L1129.4 0L1016.5 108Z" fill="#00ea78" stroke="#00ea78"></path><path d="M338.8 756L451.8 864L451.8 756Z" fill="#00d399" stroke="#00d399"></path><path d="M451.8 756L451.8 864L564.7 756Z" fill="#008597" stroke="#008597"></path><path d="M451.8 972L564.7 972L564.7 864Z" fill="#02536b" stroke="#02536b"></path><path d="M677.6 0L564.7 0L564.7 108Z" fill="#053b52" stroke="#053b52"></path><path d="M1016.5 972L1129.4 972L1016.5 864Z" fill="#00ff3e" stroke="#00ff3e"></path><path d="M1242.4 0L1129.4 0L1129.4 108Z" fill="#00a0a9" stroke="#00a0a9"></path><path d="M1355.3 324L1355.3 216L1242.4 324Z" fill="#001122" stroke="#001122"></path><path d="M1242.4 108L1242.4 0L1129.4 108Z" fill="#006b82" stroke="#006b82"></path><path d="M451.8 108L338.8 216L451.8 216Z" fill="#001122" stroke="#001122"></path><path d="M1355.3 864L1355.3 756L1242.4 756Z" fill="#05263a" stroke="#05263a"></path><path d="M1355.3 864L1242.4 756L1242.4 864Z" fill="#00d399" stroke="#00d399"></path><path d="M338.8 648L338.8 756L451.8 756Z" fill="#053b52" stroke="#053b52"></path><path d="M677.6 972L790.6 1080L790.6 972Z" fill="#00a0a9" stroke="#00a0a9"></path><path d="M790.6 972L903.5 1080L903.5 972Z" fill="#00ff3e" stroke="#00ff3e"></path><path d="M903.5 972L1016.5 1080L1016.5 972Z" fill="#008597" stroke="#008597"></path><path d="M1016.5 972L1129.4 1080L1129.4 972Z" fill="#05263a" stroke="#05263a"></path><path d="M677.6 1080L790.6 1080L677.6 972Z" fill="#00ea78" stroke="#00ea78"></path><path d="M790.6 1080L903.5 1080L790.6 972Z" fill="#05263a" stroke="#05263a"></path><path d="M564.7 1080L677.6 1080L564.7 972Z" fill="#02536b" stroke="#02536b"></path><path d="M564.7 972L677.6 1080L677.6 972Z" fill="#00ea78" stroke="#00ea78"></path><path d="M903.5 1080L1016.5 1080L903.5 972Z" fill="#053b52" stroke="#053b52"></path><path d="M225.9 324L225.9 432L338.8 324Z" fill="#05263a" stroke="#05263a"></path><path d="M338.8 324L225.9 432L338.8 432Z" fill="#00ff3e" stroke="#00ff3e"></path><path d="M338.8 432L225.9 432L338.8 540Z" fill="#001122" stroke="#001122"></path><path d="M338.8 540L225.9 540L338.8 648Z" fill="#00ea78" stroke="#00ea78"></path><path d="M338.8 648L225.9 648L338.8 756Z" fill="#008597" stroke="#008597"></path><path d="M225.9 432L225.9 540L338.8 540Z" fill="#02536b" stroke="#02536b"></path><path d="M1355.3 540L1468.2 432L1355.3 432Z" fill="#00d399" stroke="#00d399"></path><path d="M1355.3 432L1468.2 324L1355.3 324Z" fill="#02536b" stroke="#02536b"></path><path d="M1355.3 324L1468.2 216L1355.3 216Z" fill="#00baaa" stroke="#00baaa"></path><path d="M1468.2 648L1468.2 540L1355.3 540Z" fill="#05263a" stroke="#05263a"></path><path d="M1468.2 648L1355.3 540L1355.3 648Z" fill="#00ea78" stroke="#00ea78"></path><path d="M1468.2 540L1468.2 432L1355.3 540Z" fill="#001122" stroke="#001122"></path><path d="M1355.3 0L1242.4 0L1242.4 108Z" fill="#00a0a9" stroke="#00a0a9"></path><path d="M564.7 0L451.8 0L564.7 108Z" fill="#05263a" stroke="#05263a"></path><path d="M451.8 108L338.8 108L338.8 216Z" fill="#00d399" stroke="#00d399"></path><path d="M451.8 864L451.8 972L564.7 864Z" fill="#00a0a9" stroke="#00a0a9"></path><path d="M338.8 864L451.8 972L451.8 864Z" fill="#00baaa" stroke="#00baaa"></path><path d="M1242.4 1080L1242.4 972L1129.4 972Z" fill="#00baaa" stroke="#00baaa"></path><path d="M1129.4 972L1242.4 972L1129.4 864Z" fill="#00d399" stroke="#00d399"></path><path d="M1355.3 216L1355.3 108L1242.4 216Z" fill="#00ff3e" stroke="#00ff3e"></path><path d="M1468.2 108L1355.3 108L1355.3 216Z" fill="#00baaa" stroke="#00baaa"></path><path d="M1355.3 972L1355.3 864L1242.4 864Z" fill="#00d399" stroke="#00d399"></path><path d="M1468.2 756L1468.2 648L1355.3 648Z" fill="#02536b" stroke="#02536b"></path><path d="M225.9 756L338.8 864L338.8 756Z" fill="#00baaa" stroke="#00baaa"></path><path d="M338.8 756L338.8 864L451.8 864Z" fill="#006b82" stroke="#006b82"></path><path d="M451.8 0L338.8 108L451.8 108Z" fill="#006b82" stroke="#006b82"></path><path d="M338.8 216L225.9 324L338.8 324Z" fill="#053b52" stroke="#053b52"></path><path d="M225.9 216L225.9 324L338.8 216Z" fill="#008597" stroke="#008597"></path><path d="M225.9 540L225.9 648L338.8 648Z" fill="#001122" stroke="#001122"></path><path d="M1468.2 432L1468.2 324L1355.3 432Z" fill="#001122" stroke="#001122"></path><path d="M1468.2 756L1355.3 648L1355.3 756Z" fill="#00ea78" stroke="#00ea78"></path><path d="M451.8 1080L564.7 1080L564.7 972Z" fill="#001122" stroke="#001122"></path><path d="M1016.5 1080L1129.4 1080L1016.5 972Z" fill="#00ea78" stroke="#00ea78"></path><path d="M1242.4 972L1355.3 972L1242.4 864Z" fill="#053b52" stroke="#053b52"></path><path d="M338.8 108L225.9 216L338.8 216Z" fill="#02536b" stroke="#02536b"></path><path d="M225.9 648L225.9 756L338.8 756Z" fill="#008597" stroke="#008597"></path><path d="M1468.2 324L1468.2 216L1355.3 324Z" fill="#00d399" stroke="#00d399"></path><path d="M1468.2 864L1468.2 756L1355.3 756Z" fill="#00baaa" stroke="#00baaa"></path><path d="M1468.2 864L1355.3 756L1355.3 864Z" fill="#00ea78" stroke="#00ea78"></path><path d="M225.9 864L338.8 972L338.8 864Z" fill="#008597" stroke="#008597"></path><path d="M338.8 864L338.8 972L451.8 972Z" fill="#00a0a9" stroke="#00a0a9"></path><path d="M451.8 972L451.8 1080L564.7 972Z" fill="#00d399" stroke="#00d399"></path><path d="M1355.3 1080L1355.3 972L1242.4 972Z" fill="#008597" stroke="#008597"></path><path d="M451.8 0L338.8 0L338.8 108Z" fill="#00baaa" stroke="#00baaa"></path><path d="M338.8 108L225.9 108L225.9 216Z" fill="#008597" stroke="#008597"></path><path d="M1468.2 0L1355.3 0L1355.3 108Z" fill="#001122" stroke="#001122"></path><path d="M1355.3 108L1355.3 0L1242.4 108Z" fill="#00a0a9" stroke="#00a0a9"></path><path d="M1129.4 1080L1242.4 1080L1129.4 972Z" fill="#00baaa" stroke="#00baaa"></path><path d="M338.8 972L451.8 1080L451.8 972Z" fill="#00d399" stroke="#00d399"></path><path d="M1468.2 972L1468.2 864L1355.3 864Z" fill="#008597" stroke="#008597"></path><path d="M225.9 756L225.9 864L338.8 864Z" fill="#05263a" stroke="#05263a"></path><path d="M1468.2 216L1468.2 108L1355.3 216Z" fill="#006b82" stroke="#006b82"></path><path d="M338.8 0L225.9 108L338.8 108Z" fill="#053b52" stroke="#053b52"></path><path d="M1468.2 540L1581.2 432L1468.2 432Z" fill="#05263a" stroke="#05263a"></path><path d="M1468.2 432L1581.2 324L1468.2 324Z" fill="#00a0a9" stroke="#00a0a9"></path><path d="M1468.2 324L1581.2 216L1468.2 216Z" fill="#00d399" stroke="#00d399"></path><path d="M1468.2 216L1581.2 108L1468.2 108Z" fill="#05263a" stroke="#05263a"></path><path d="M1581.2 648L1581.2 540L1468.2 540Z" fill="#00ea78" stroke="#00ea78"></path><path d="M1581.2 648L1468.2 540L1468.2 648Z" fill="#008597" stroke="#008597"></path><path d="M1581.2 648L1468.2 648L1581.2 756Z" fill="#00a0a9" stroke="#00a0a9"></path><path d="M112.9 324L112.9 432L225.9 324Z" fill="#02536b" stroke="#02536b"></path><path d="M225.9 324L112.9 432L225.9 432Z" fill="#00a0a9" stroke="#00a0a9"></path><path d="M225.9 432L112.9 432L225.9 540Z" fill="#00baaa" stroke="#00baaa"></path><path d="M225.9 540L112.9 540L225.9 648Z" fill="#00baaa" stroke="#00baaa"></path><path d="M225.9 648L112.9 648L225.9 756Z" fill="#00baaa" stroke="#00baaa"></path><path d="M225.9 756L112.9 756L225.9 864Z" fill="#02536b" stroke="#02536b"></path><path d="M112.9 324L225.9 324L225.9 216Z" fill="#00d399" stroke="#00d399"></path><path d="M112.9 432L112.9 540L225.9 540Z" fill="#00baaa" stroke="#00baaa"></path><path d="M1581.2 540L1581.2 432L1468.2 540Z" fill="#02536b" stroke="#02536b"></path><path d="M112.9 216L112.9 324L225.9 216Z" fill="#02536b" stroke="#02536b"></path><path d="M1581.2 432L1581.2 324L1468.2 432Z" fill="#053b52" stroke="#053b52"></path><path d="M112.9 540L112.9 648L225.9 648Z" fill="#006b82" stroke="#006b82"></path><path d="M1581.2 756L1468.2 648L1468.2 756Z" fill="#02536b" stroke="#02536b"></path><path d="M1242.4 1080L1355.3 1080L1242.4 972Z" fill="#00a0a9" stroke="#00a0a9"></path><path d="M1355.3 972L1468.2 972L1355.3 864Z" fill="#00ea78" stroke="#00ea78"></path><path d="M338.8 972L338.8 1080L451.8 1080Z" fill="#00ff3e" stroke="#00ff3e"></path><path d="M225.9 972L338.8 1080L338.8 972Z" fill="#00d399" stroke="#00d399"></path><path d="M112.9 648L112.9 756L225.9 756Z" fill="#053b52" stroke="#053b52"></path><path d="M225.9 864L225.9 972L338.8 972Z" fill="#05263a" stroke="#05263a"></path><path d="M1581.2 864L1468.2 756L1468.2 864Z" fill="#008597" stroke="#008597"></path><path d="M1581.2 864L1581.2 756L1468.2 756Z" fill="#006b82" stroke="#006b82"></path><path d="M225.9 108L112.9 216L225.9 216Z" fill="#02536b" stroke="#02536b"></path><path d="M1581.2 324L1581.2 216L1468.2 324Z" fill="#006b82" stroke="#006b82"></path><path d="M1468.2 1080L1468.2 972L1355.3 972Z" fill="#00ea78" stroke="#00ea78"></path><path d="M112.9 864L225.9 972L225.9 864Z" fill="#00a0a9" stroke="#00a0a9"></path><path d="M1468.2 108L1468.2 0L1355.3 108Z" fill="#053b52" stroke="#053b52"></path><path d="M1581.2 0L1468.2 0L1468.2 108Z" fill="#05263a" stroke="#05263a"></path><path d="M338.8 0L225.9 0L225.9 108Z" fill="#00a0a9" stroke="#00a0a9"></path><path d="M225.9 108L112.9 108L112.9 216Z" fill="#00baaa" stroke="#00baaa"></path><path d="M1581.2 972L1581.2 864L1468.2 864Z" fill="#00baaa" stroke="#00baaa"></path><path d="M225.9 0L112.9 108L225.9 108Z" fill="#00a0a9" stroke="#00a0a9"></path><path d="M1581.2 216L1581.2 108L1468.2 216Z" fill="#00ea78" stroke="#00ea78"></path><path d="M112.9 756L112.9 864L225.9 864Z" fill="#001122" stroke="#001122"></path><path d="M1694.1 540L1694.1 432L1581.2 432Z" fill="#053b52" stroke="#053b52"></path><path d="M1581.2 432L1694.1 324L1581.2 324Z" fill="#05263a" stroke="#05263a"></path><path d="M1581.2 324L1694.1 216L1581.2 216Z" fill="#00ff3e" stroke="#00ff3e"></path><path d="M1581.2 216L1694.1 108L1581.2 108Z" fill="#008597" stroke="#008597"></path><path d="M1694.1 540L1581.2 432L1581.2 540Z" fill="#008597" stroke="#008597"></path><path d="M1694.1 540L1581.2 540L1694.1 648Z" fill="#008597" stroke="#008597"></path><path d="M1581.2 540L1581.2 648L1694.1 648Z" fill="#00ea78" stroke="#00ea78"></path><path d="M0 324L0 432L112.9 324Z" fill="#00d399" stroke="#00d399"></path><path d="M112.9 324L0 432L112.9 432Z" fill="#053b52" stroke="#053b52"></path><path d="M112.9 432L0 432L112.9 540Z" fill="#00a0a9" stroke="#00a0a9"></path><path d="M112.9 540L0 540L112.9 648Z" fill="#00d399" stroke="#00d399"></path><path d="M112.9 648L0 648L112.9 756Z" fill="#00ff3e" stroke="#00ff3e"></path><path d="M112.9 756L0 756L112.9 864Z" fill="#00ff3e" stroke="#00ff3e"></path><path d="M0 324L112.9 324L112.9 216Z" fill="#006b82" stroke="#006b82"></path><path d="M1694.1 648L1581.2 648L1694.1 756Z" fill="#02536b" stroke="#02536b"></path><path d="M0 432L0 540L112.9 540Z" fill="#053b52" stroke="#053b52"></path><path d="M112.9 972L225.9 1080L225.9 972Z" fill="#00d399" stroke="#00d399"></path><path d="M225.9 972L225.9 1080L338.8 1080Z" fill="#006b82" stroke="#006b82"></path><path d="M1355.3 1080L1468.2 1080L1355.3 972Z" fill="#05263a" stroke="#05263a"></path><path d="M1468.2 972L1581.2 972L1468.2 864Z" fill="#00ea78" stroke="#00ea78"></path><path d="M1694.1 756L1581.2 756L1694.1 864Z" fill="#00baaa" stroke="#00baaa"></path><path d="M1694.1 756L1581.2 648L1581.2 756Z" fill="#001122" stroke="#001122"></path><path d="M0 540L0 648L112.9 648Z" fill="#00baaa" stroke="#00baaa"></path><path d="M1694.1 432L1694.1 324L1581.2 432Z" fill="#00baaa" stroke="#00baaa"></path><path d="M0 216L0 324L112.9 216Z" fill="#053b52" stroke="#053b52"></path><path d="M1581.2 1080L1581.2 972L1468.2 972Z" fill="#02536b" stroke="#02536b"></path><path d="M0 864L112.9 972L112.9 864Z" fill="#001122" stroke="#001122"></path><path d="M112.9 864L112.9 972L225.9 972Z" fill="#00ff3e" stroke="#00ff3e"></path><path d="M1694.1 0L1581.2 0L1581.2 108Z" fill="#05263a" stroke="#05263a"></path><path d="M1581.2 108L1581.2 0L1468.2 108Z" fill="#00ea78" stroke="#00ea78"></path><path d="M225.9 0L112.9 0L112.9 108Z" fill="#053b52" stroke="#053b52"></path><path d="M112.9 108L0 216L112.9 216Z" fill="#05263a" stroke="#05263a"></path><path d="M1694.1 324L1694.1 216L1581.2 324Z" fill="#00a0a9" stroke="#00a0a9"></path><path d="M0 648L0 756L112.9 756Z" fill="#00ea78" stroke="#00ea78"></path><path d="M1694.1 864L1581.2 756L1581.2 864Z" fill="#053b52" stroke="#053b52"></path><path d="M0 108L0 216L112.9 108Z" fill="#05263a" stroke="#05263a"></path><path d="M1694.1 216L1694.1 108L1581.2 216Z" fill="#053b52" stroke="#053b52"></path><path d="M1694.1 972L1581.2 864L1581.2 972Z" fill="#00ea78" stroke="#00ea78"></path><path d="M1694.1 972L1694.1 864L1581.2 864Z" fill="#00ea78" stroke="#00ea78"></path><path d="M112.9 0L0 108L112.9 108Z" fill="#053b52" stroke="#053b52"></path><path d="M0 756L0 864L112.9 864Z" fill="#001122" stroke="#001122"></path><path d="M1468.2 1080L1581.2 1080L1468.2 972Z" fill="#00ff3e" stroke="#00ff3e"></path><path d="M0 972L112.9 1080L112.9 972Z" fill="#05263a" stroke="#05263a"></path><path d="M112.9 972L112.9 1080L225.9 1080Z" fill="#00a0a9" stroke="#00a0a9"></path><path d="M1807.1 540L1807.1 432L1694.1 432Z" fill="#05263a" stroke="#05263a"></path><path d="M1694.1 432L1807.1 324L1694.1 324Z" fill="#001122" stroke="#001122"></path><path d="M1694.1 324L1807.1 216L1694.1 216Z" fill="#053b52" stroke="#053b52"></path><path d="M1694.1 216L1807.1 108L1694.1 108Z" fill="#00a0a9" stroke="#00a0a9"></path><path d="M1807.1 540L1694.1 432L1694.1 540Z" fill="#00d399" stroke="#00d399"></path><path d="M1807.1 540L1694.1 540L1807.1 648Z" fill="#00baaa" stroke="#00baaa"></path><path d="M1694.1 540L1694.1 648L1807.1 648Z" fill="#05263a" stroke="#05263a"></path><path d="M1807.1 648L1694.1 648L1807.1 756Z" fill="#00baaa" stroke="#00baaa"></path><path d="M1807.1 432L1807.1 324L1694.1 432Z" fill="#00d399" stroke="#00d399"></path><path d="M1807.1 756L1694.1 648L1694.1 756Z" fill="#00baaa" stroke="#00baaa"></path><path d="M1694.1 1080L1694.1 972L1581.2 972Z" fill="#00a0a9" stroke="#00a0a9"></path><path d="M1807.1 864L1807.1 756L1694.1 756Z" fill="#00ea78" stroke="#00ea78"></path><path d="M112.9 0L0 0L0 108Z" fill="#008597" stroke="#008597"></path><path d="M0 864L0 972L112.9 972Z" fill="#00d399" stroke="#00d399"></path><path d="M1807.1 0L1694.1 0L1694.1 108Z" fill="#02536b" stroke="#02536b"></path><path d="M1694.1 108L1694.1 0L1581.2 108Z" fill="#001122" stroke="#001122"></path><path d="M1807.1 324L1807.1 216L1694.1 324Z" fill="#00ff3e" stroke="#00ff3e"></path><path d="M1807.1 864L1694.1 756L1694.1 864Z" fill="#00d399" stroke="#00d399"></path><path d="M1807.1 972L1807.1 864L1694.1 864Z" fill="#00ea78" stroke="#00ea78"></path><path d="M1807.1 216L1807.1 108L1694.1 216Z" fill="#006b82" stroke="#006b82"></path><path d="M1581.2 1080L1694.1 1080L1581.2 972Z" fill="#001122" stroke="#001122"></path><path d="M1694.1 972L1807.1 972L1694.1 864Z" fill="#02536b" stroke="#02536b"></path><path d="M0 972L0 1080L112.9 1080Z" fill="#00ff3e" stroke="#00ff3e"></path><path d="M1920 540L1920 432L1807.1 432Z" fill="#00ff3e" stroke="#00ff3e"></path><path d="M1807.1 432L1920 324L1807.1 324Z" fill="#00baaa" stroke="#00baaa"></path><path d="M1807.1 324L1920 216L1807.1 216Z" fill="#006b82" stroke="#006b82"></path><path d="M1807.1 216L1920 108L1807.1 108Z" fill="#008597" stroke="#008597"></path><path d="M1920 540L1807.1 432L1807.1 540Z" fill="#00a0a9" stroke="#00a0a9"></path><path d="M1920 540L1807.1 540L1920 648Z" fill="#00d399" stroke="#00d399"></path><path d="M1807.1 540L1807.1 648L1920 648Z" fill="#006b82" stroke="#006b82"></path><path d="M1920 648L1807.1 648L1920 756Z" fill="#053b52" stroke="#053b52"></path><path d="M1920 0L1807.1 0L1807.1 108Z" fill="#05263a" stroke="#05263a"></path><path d="M1807.1 108L1807.1 0L1694.1 108Z" fill="#00a0a9" stroke="#00a0a9"></path><path d="M1807.1 1080L1807.1 972L1694.1 972Z" fill="#00d399" stroke="#00d399"></path><path d="M1920 756L1807.1 648L1807.1 756Z" fill="#008597" stroke="#008597"></path><path d="M1920 432L1920 324L1807.1 432Z" fill="#00ea78" stroke="#00ea78"></path><path d="M1920 756L1807.1 756L1920 864Z" fill="#008597" stroke="#008597"></path><path d="M1920 324L1920 216L1807.1 324Z" fill="#053b52" stroke="#053b52"></path><path d="M1920 864L1807.1 756L1807.1 864Z" fill="#05263a" stroke="#05263a"></path><path d="M1694.1 1080L1807.1 1080L1694.1 972Z" fill="#00ea78" stroke="#00ea78"></path><path d="M1920 972L1920 864L1807.1 864Z" fill="#00ff3e" stroke="#00ff3e"></path><path d="M1920 972L1807.1 864L1807.1 972Z" fill="#02536b" stroke="#02536b"></path><path d="M1920 216L1920 108L1807.1 216Z" fill="#053b52" stroke="#053b52"></path><path d="M1920 108L1920 0L1807.1 108Z" fill="#006b82" stroke="#006b82"></path><path d="M1920 1080L1920 972L1807.1 972Z" fill="#008597" stroke="#008597"></path><path d="M1807.1 1080L1920 1080L1807.1 972Z" fill="#006b82" stroke="#006b82"></path></g></svg>