<svg id="visual" viewBox="0 0 960 540" width="960" height="540" xmlns="http://www.w3.org/2000/svg" xmlns:xlink="http://www.w3.org/1999/xlink" version="1.1"><g stroke-width="1" stroke-linejoin="bevel"><path d="M481 268.6L536 276.6L561 224.4Z" fill="#004181" stroke="#004181"></path><path d="M561 224.4L477 195.3L481 268.6Z" fill="#4154b9" stroke="#4154b9"></path><path d="M477 195.3L456 217.4L481 268.6Z" fill="#645bd3" stroke="#645bd3"></path><path d="M477 195.3L435 213.4L456 217.4Z" fill="#214b9d" stroke="#214b9d"></path><path d="M456 217.4L435 213.4L481 268.6Z" fill="#004181" stroke="#004181"></path><path d="M607 314.6L599 189.4L561 224.4Z" fill="#214b9d" stroke="#214b9d"></path><path d="M561 224.4L555 114.3L477 195.3Z" fill="#645bd3" stroke="#645bd3"></path><path d="M435 213.4L426 307.6L481 268.6Z" fill="#5258c6" stroke="#5258c6"></path><path d="M481 268.6L473 365.7L536 276.6Z" fill="#9e61f5" stroke="#9e61f5"></path><path d="M473 365.7L607 314.6L536 276.6Z" fill="#b362ff" stroke="#b362ff"></path><path d="M536 276.6L607 314.6L561 224.4Z" fill="#004181" stroke="#004181"></path><path d="M599 189.4L555 114.3L561 224.4Z" fill="#10468f" stroke="#10468f"></path><path d="M477 195.3L413 154.3L435 213.4Z" fill="#645bd3" stroke="#645bd3"></path><path d="M496 99.1L413 154.3L477 195.3Z" fill="#3150ab" stroke="#3150ab"></path><path d="M435 213.4L353 271.4L426 307.6Z" fill="#9e61f5" stroke="#9e61f5"></path><path d="M555 114.3L496 99.1L477 195.3Z" fill="#8a60ea" stroke="#8a60ea"></path><path d="M426 307.6L473 365.7L481 268.6Z" fill="#645bd3" stroke="#645bd3"></path><path d="M692 265.4L649 159.3L599 189.4Z" fill="#3150ab" stroke="#3150ab"></path><path d="M599 189.4L601 105.1L555 114.3Z" fill="#004181" stroke="#004181"></path><path d="M649 159.3L601 105.1L599 189.4Z" fill="#645bd3" stroke="#645bd3"></path><path d="M555 114.3L551 0L496 99.1Z" fill="#004181" stroke="#004181"></path><path d="M336 164.3L353 271.4L435 213.4Z" fill="#10468f" stroke="#10468f"></path><path d="M426 307.6L376 373.7L473 365.7Z" fill="#645bd3" stroke="#645bd3"></path><path d="M607 314.6L692 265.4L599 189.4Z" fill="#004181" stroke="#004181"></path><path d="M692 265.4L684 149.3L649 159.3Z" fill="#4154b9" stroke="#4154b9"></path><path d="M649 159.3L672 76.1L601 105.1Z" fill="#8a60ea" stroke="#8a60ea"></path><path d="M453 426.9L524 424.7L473 365.7Z" fill="#214b9d" stroke="#214b9d"></path><path d="M473 365.7L524 424.7L607 314.6Z" fill="#b362ff" stroke="#b362ff"></path><path d="M607 314.6L702 301.6L692 265.4Z" fill="#10468f" stroke="#10468f"></path><path d="M302 119.1L336 164.3L413 154.3Z" fill="#775edf" stroke="#775edf"></path><path d="M413 154.3L336 164.3L435 213.4Z" fill="#775edf" stroke="#775edf"></path><path d="M336 164.3L326 289.6L353 271.4Z" fill="#645bd3" stroke="#645bd3"></path><path d="M353 271.4L376 373.7L426 307.6Z" fill="#3150ab" stroke="#3150ab"></path><path d="M326 289.6L376 373.7L353 271.4Z" fill="#645bd3" stroke="#645bd3"></path><path d="M665 389.7L702 301.6L607 314.6Z" fill="#10468f" stroke="#10468f"></path><path d="M812 131.3L728 94.1L684 149.3Z" fill="#645bd3" stroke="#645bd3"></path><path d="M376 373.7L453 426.9L473 365.7Z" fill="#4154b9" stroke="#4154b9"></path><path d="M472 0L413 54.1L496 99.1Z" fill="#775edf" stroke="#775edf"></path><path d="M496 99.1L413 54.1L413 154.3Z" fill="#004181" stroke="#004181"></path><path d="M524 424.7L665 389.7L607 314.6Z" fill="#214b9d" stroke="#214b9d"></path><path d="M684 149.3L672 76.1L649 159.3Z" fill="#214b9d" stroke="#214b9d"></path><path d="M601 105.1L551 0L555 114.3Z" fill="#214b9d" stroke="#214b9d"></path><path d="M326 289.6L331 380.7L376 373.7Z" fill="#10468f" stroke="#10468f"></path><path d="M376 373.7L407 489.9L453 426.9Z" fill="#214b9d" stroke="#214b9d"></path><path d="M618 0L551 0L601 105.1Z" fill="#9e61f5" stroke="#9e61f5"></path><path d="M551 0L472 0L496 99.1Z" fill="#214b9d" stroke="#214b9d"></path><path d="M413 54.1L302 119.1L413 154.3Z" fill="#645bd3" stroke="#645bd3"></path><path d="M336 164.3L228 265.4L326 289.6Z" fill="#775edf" stroke="#775edf"></path><path d="M264 445.9L331 442.9L331 380.7Z" fill="#4154b9" stroke="#4154b9"></path><path d="M338 0L302 119.1L413 54.1Z" fill="#775edf" stroke="#775edf"></path><path d="M663 435.9L683 413.7L665 389.7Z" fill="#3150ab" stroke="#3150ab"></path><path d="M665 389.7L683 413.7L702 301.6Z" fill="#4154b9" stroke="#4154b9"></path><path d="M595 476.9L665 389.7L524 424.7Z" fill="#5258c6" stroke="#5258c6"></path><path d="M595 476.9L663 435.9L665 389.7Z" fill="#4154b9" stroke="#4154b9"></path><path d="M684 149.3L728 94.1L672 76.1Z" fill="#5258c6" stroke="#5258c6"></path><path d="M672 76.1L618 0L601 105.1Z" fill="#9e61f5" stroke="#9e61f5"></path><path d="M811 202.4L684 149.3L692 265.4Z" fill="#214b9d" stroke="#214b9d"></path><path d="M543 540L595 476.9L524 424.7Z" fill="#3150ab" stroke="#3150ab"></path><path d="M683 0L618 0L672 76.1Z" fill="#645bd3" stroke="#645bd3"></path><path d="M331 442.9L407 489.9L376 373.7Z" fill="#775edf" stroke="#775edf"></path><path d="M482 540L543 540L524 424.7Z" fill="#9e61f5" stroke="#9e61f5"></path><path d="M228 304.6L331 380.7L326 289.6Z" fill="#004181" stroke="#004181"></path><path d="M331 380.7L331 442.9L376 373.7Z" fill="#8a60ea" stroke="#8a60ea"></path><path d="M472 0L359 0L413 54.1Z" fill="#004181" stroke="#004181"></path><path d="M224 122.3L336 164.3L302 119.1Z" fill="#214b9d" stroke="#214b9d"></path><path d="M224 122.3L228 265.4L336 164.3Z" fill="#775edf" stroke="#775edf"></path><path d="M728 94.1L683 0L672 76.1Z" fill="#b362ff" stroke="#b362ff"></path><path d="M359 0L338 0L413 54.1Z" fill="#8a60ea" stroke="#8a60ea"></path><path d="M338 0L276 63.1L302 119.1Z" fill="#8a60ea" stroke="#8a60ea"></path><path d="M228 265.4L228 304.6L326 289.6Z" fill="#b362ff" stroke="#b362ff"></path><path d="M823 282.6L692 265.4L702 301.6Z" fill="#214b9d" stroke="#214b9d"></path><path d="M823 282.6L811 202.4L692 265.4Z" fill="#645bd3" stroke="#645bd3"></path><path d="M728 94.1L766 0L683 0Z" fill="#9e61f5" stroke="#9e61f5"></path><path d="M482 540L524 424.7L453 426.9Z" fill="#5258c6" stroke="#5258c6"></path><path d="M595 476.9L677 502.9L663 435.9Z" fill="#4154b9" stroke="#4154b9"></path><path d="M407 489.9L482 540L453 426.9Z" fill="#645bd3" stroke="#645bd3"></path><path d="M389 540L482 540L407 489.9Z" fill="#5258c6" stroke="#5258c6"></path><path d="M276 63.1L224 122.3L302 119.1Z" fill="#b362ff" stroke="#b362ff"></path><path d="M228 265.4L194 271.6L228 304.6Z" fill="#004181" stroke="#004181"></path><path d="M773 424.7L823 282.6L702 301.6Z" fill="#214b9d" stroke="#214b9d"></path><path d="M773 424.7L702 301.6L683 413.7Z" fill="#10468f" stroke="#10468f"></path><path d="M654 540L677 502.9L595 476.9Z" fill="#5258c6" stroke="#5258c6"></path><path d="M663 435.9L677 502.9L683 413.7Z" fill="#775edf" stroke="#775edf"></path><path d="M853 97.1L812 131.3L871 142.3Z" fill="#5258c6" stroke="#5258c6"></path><path d="M811 202.4L812 131.3L684 149.3Z" fill="#775edf" stroke="#775edf"></path><path d="M853 97.1L811 113.1L812 131.3Z" fill="#3150ab" stroke="#3150ab"></path><path d="M812 131.3L811 113.1L728 94.1Z" fill="#3150ab" stroke="#3150ab"></path><path d="M677 502.9L773 424.7L683 413.7Z" fill="#9e61f5" stroke="#9e61f5"></path><path d="M164 195.4L194 271.6L228 265.4Z" fill="#b362ff" stroke="#b362ff"></path><path d="M228 304.6L209 346.7L331 380.7Z" fill="#9e61f5" stroke="#9e61f5"></path><path d="M194 271.6L209 346.7L228 304.6Z" fill="#10468f" stroke="#10468f"></path><path d="M209 346.7L264 445.9L331 380.7Z" fill="#b362ff" stroke="#b362ff"></path><path d="M331 442.9L389 540L407 489.9Z" fill="#4154b9" stroke="#4154b9"></path><path d="M285 540L389 540L331 442.9Z" fill="#4154b9" stroke="#4154b9"></path><path d="M543 540L654 540L595 476.9Z" fill="#8a60ea" stroke="#8a60ea"></path><path d="M738 540L804 463.9L773 424.7Z" fill="#775edf" stroke="#775edf"></path><path d="M811 113.1L766 0L728 94.1Z" fill="#3150ab" stroke="#3150ab"></path><path d="M224 122.3L164 195.4L228 265.4Z" fill="#3150ab" stroke="#3150ab"></path><path d="M194 271.6L148 366.7L209 346.7Z" fill="#b362ff" stroke="#b362ff"></path><path d="M916 265.6L867 260.4L920 353.7Z" fill="#9e61f5" stroke="#9e61f5"></path><path d="M823 282.6L867 260.4L811 202.4Z" fill="#8a60ea" stroke="#8a60ea"></path><path d="M871 142.3L812 131.3L811 202.4Z" fill="#004181" stroke="#004181"></path><path d="M811 113.1L840 0L766 0Z" fill="#9e61f5" stroke="#9e61f5"></path><path d="M867 260.4L871 142.3L811 202.4Z" fill="#10468f" stroke="#10468f"></path><path d="M738 540L773 424.7L677 502.9Z" fill="#8a60ea" stroke="#8a60ea"></path><path d="M773 424.7L920 353.7L823 282.6Z" fill="#004181" stroke="#004181"></path><path d="M338 0L223 0L276 63.1Z" fill="#775edf" stroke="#775edf"></path><path d="M276 63.1L223 0L224 122.3Z" fill="#b362ff" stroke="#b362ff"></path><path d="M224 122.3L136 170.3L164 195.4Z" fill="#b362ff" stroke="#b362ff"></path><path d="M654 540L738 540L677 502.9Z" fill="#004181" stroke="#004181"></path><path d="M241 540L285 540L264 445.9Z" fill="#004181" stroke="#004181"></path><path d="M264 445.9L285 540L331 442.9Z" fill="#5258c6" stroke="#5258c6"></path><path d="M150 72.1L136 170.3L224 122.3Z" fill="#775edf" stroke="#775edf"></path><path d="M105 286.6L148 366.7L194 271.6Z" fill="#004181" stroke="#004181"></path><path d="M209 346.7L148 366.7L264 445.9Z" fill="#775edf" stroke="#775edf"></path><path d="M105 286.6L194 271.6L97 255.4Z" fill="#4154b9" stroke="#4154b9"></path><path d="M223 0L150 72.1L224 122.3Z" fill="#10468f" stroke="#10468f"></path><path d="M960 48.1L840 0L853 97.1Z" fill="#004181" stroke="#004181"></path><path d="M853 97.1L840 0L811 113.1Z" fill="#775edf" stroke="#775edf"></path><path d="M920 353.7L867 260.4L823 282.6Z" fill="#214b9d" stroke="#214b9d"></path><path d="M867 260.4L916 265.6L871 142.3Z" fill="#4154b9" stroke="#4154b9"></path><path d="M871 142.3L960 48.1L853 97.1Z" fill="#8a60ea" stroke="#8a60ea"></path><path d="M165 492.9L241 540L264 445.9Z" fill="#9e61f5" stroke="#9e61f5"></path><path d="M97 255.4L194 271.6L164 195.4Z" fill="#b362ff" stroke="#b362ff"></path><path d="M97 255.4L164 195.4L136 170.3Z" fill="#8a60ea" stroke="#8a60ea"></path><path d="M738 540L794 540L804 463.9Z" fill="#004181" stroke="#004181"></path><path d="M804 463.9L920 353.7L773 424.7Z" fill="#214b9d" stroke="#214b9d"></path><path d="M57 160.3L97 255.4L136 170.3Z" fill="#4154b9" stroke="#4154b9"></path><path d="M904 461.9L920 353.7L804 463.9Z" fill="#214b9d" stroke="#214b9d"></path><path d="M148 366.7L165 492.9L264 445.9Z" fill="#9e61f5" stroke="#9e61f5"></path><path d="M72 471.9L165 492.9L148 366.7Z" fill="#004181" stroke="#004181"></path><path d="M960 335.6L960 226.4L916 265.6Z" fill="#8a60ea" stroke="#8a60ea"></path><path d="M916 265.6L960 226.4L871 142.3Z" fill="#4154b9" stroke="#4154b9"></path><path d="M223 0L131 0L150 72.1Z" fill="#9e61f5" stroke="#9e61f5"></path><path d="M150 72.1L57 160.3L136 170.3Z" fill="#10468f" stroke="#10468f"></path><path d="M960 226.4L960 171.3L871 142.3Z" fill="#645bd3" stroke="#645bd3"></path><path d="M912 540L904 461.9L804 463.9Z" fill="#10468f" stroke="#10468f"></path><path d="M920 353.7L960 335.6L916 265.6Z" fill="#775edf" stroke="#775edf"></path><path d="M0 270.4L71 346.7L105 286.6Z" fill="#10468f" stroke="#10468f"></path><path d="M105 286.6L71 346.7L148 366.7Z" fill="#9e61f5" stroke="#9e61f5"></path><path d="M0 270.4L105 286.6L97 255.4Z" fill="#214b9d" stroke="#214b9d"></path><path d="M960 348.7L960 335.6L920 353.7Z" fill="#004181" stroke="#004181"></path><path d="M960 424.9L960 348.7L920 353.7Z" fill="#4154b9" stroke="#4154b9"></path><path d="M77 42.1L57 160.3L150 72.1Z" fill="#004181" stroke="#004181"></path><path d="M131 0L113 0L150 72.1Z" fill="#8a60ea" stroke="#8a60ea"></path><path d="M114 540L153 540L165 492.9Z" fill="#4154b9" stroke="#4154b9"></path><path d="M165 492.9L153 540L241 540Z" fill="#5258c6" stroke="#5258c6"></path><path d="M113 0L77 42.1L150 72.1Z" fill="#8a60ea" stroke="#8a60ea"></path><path d="M960 171.3L960 48.1L871 142.3Z" fill="#4154b9" stroke="#4154b9"></path><path d="M960 540L960 424.9L904 461.9Z" fill="#10468f" stroke="#10468f"></path><path d="M904 461.9L960 424.9L920 353.7Z" fill="#214b9d" stroke="#214b9d"></path><path d="M794 540L912 540L804 463.9Z" fill="#004181" stroke="#004181"></path><path d="M0 354.7L72 471.9L71 346.7Z" fill="#10468f" stroke="#10468f"></path><path d="M71 346.7L72 471.9L148 366.7Z" fill="#775edf" stroke="#775edf"></path><path d="M960 48.1L960 0L840 0Z" fill="#214b9d" stroke="#214b9d"></path><path d="M72 471.9L114 540L165 492.9Z" fill="#4154b9" stroke="#4154b9"></path><path d="M57 160.3L0 270.4L97 255.4Z" fill="#3150ab" stroke="#3150ab"></path><path d="M0 116.3L0 270.4L57 160.3Z" fill="#775edf" stroke="#775edf"></path><path d="M0 270.4L0 321.6L71 346.7Z" fill="#5258c6" stroke="#5258c6"></path><path d="M0 98.1L57 160.3L77 42.1Z" fill="#4154b9" stroke="#4154b9"></path><path d="M0 98.1L0 116.3L57 160.3Z" fill="#4154b9" stroke="#4154b9"></path><path d="M0 321.6L0 354.7L71 346.7Z" fill="#8a60ea" stroke="#8a60ea"></path><path d="M0 0L0 98.1L77 42.1Z" fill="#775edf" stroke="#775edf"></path><path d="M912 540L960 540L904 461.9Z" fill="#004181" stroke="#004181"></path><path d="M113 0L0 0L77 42.1Z" fill="#214b9d" stroke="#214b9d"></path><path d="M0 354.7L0 490.9L72 471.9Z" fill="#9e61f5" stroke="#9e61f5"></path><path d="M72 471.9L0 540L114 540Z" fill="#004181" stroke="#004181"></path><path d="M0 490.9L0 540L72 471.9Z" fill="#214b9d" stroke="#214b9d"></path></g></svg>