<svg id="visual" viewBox="0 0 1920 1080" width="1920" height="1080" xmlns="http://www.w3.org/2000/svg" xmlns:xlink="http://www.w3.org/1999/xlink" version="1.1"><g stroke-width="1" stroke-linejoin="bevel"><path d="M999.5 498L986.5 447L931.5 422Z" fill="#00ff27" stroke="#00ff27"></path><path d="M931.5 422L897.5 553L999.5 498Z" fill="#00ff27" stroke="#00ff27"></path><path d="M897.5 553L987.5 608L999.5 498Z" fill="#00d496" stroke="#00d496"></path><path d="M1115.4 429L1006.5 368L986.5 447Z" fill="#00a0a9" stroke="#00a0a9"></path><path d="M986.5 447L1006.5 368L931.5 422Z" fill="#001122" stroke="#001122"></path><path d="M1006.5 368L941.5 343L931.5 422Z" fill="#00a0a9" stroke="#00a0a9"></path><path d="M931.5 422L795.6 526L897.5 553Z" fill="#05263a" stroke="#05263a"></path><path d="M785.6 429L795.6 526L931.5 422Z" fill="#008597" stroke="#008597"></path><path d="M897.5 553L896.5 681L987.5 608Z" fill="#00ff27" stroke="#00ff27"></path><path d="M787.6 355L785.6 429L931.5 422Z" fill="#00d496" stroke="#00d496"></path><path d="M1141.4 523L1115.4 429L999.5 498Z" fill="#006b82" stroke="#006b82"></path><path d="M999.5 498L1115.4 429L986.5 447Z" fill="#001122" stroke="#001122"></path><path d="M743.6 614L896.5 681L897.5 553Z" fill="#053b52" stroke="#053b52"></path><path d="M941.5 343L787.6 355L931.5 422Z" fill="#00d496" stroke="#00d496"></path><path d="M1151.4 610L1141.4 523L987.5 608Z" fill="#006b82" stroke="#006b82"></path><path d="M987.5 608L1141.4 523L999.5 498Z" fill="#02536b" stroke="#02536b"></path><path d="M661.6 545L743.6 614L795.6 526Z" fill="#053b52" stroke="#053b52"></path><path d="M795.6 526L743.6 614L897.5 553Z" fill="#001122" stroke="#001122"></path><path d="M661.6 545L795.6 526L785.6 429Z" fill="#00bba9" stroke="#00bba9"></path><path d="M1005.5 748L1151.4 610L987.5 608Z" fill="#00eb6f" stroke="#00eb6f"></path><path d="M812.6 191L720.6 350L787.6 355Z" fill="#00eb6f" stroke="#00eb6f"></path><path d="M787.6 355L720.6 350L785.6 429Z" fill="#00bba9" stroke="#00bba9"></path><path d="M1151.4 610L1195.4 517L1141.4 523Z" fill="#008597" stroke="#008597"></path><path d="M1141.4 523L1203.4 464L1115.4 429Z" fill="#008597" stroke="#008597"></path><path d="M1008.5 180L881.5 224L941.5 343Z" fill="#00bba9" stroke="#00bba9"></path><path d="M941.5 343L881.5 224L787.6 355Z" fill="#00a0a9" stroke="#00a0a9"></path><path d="M1008.5 180L941.5 343L1006.5 368Z" fill="#053b52" stroke="#053b52"></path><path d="M1195.4 517L1203.4 464L1141.4 523Z" fill="#001122" stroke="#001122"></path><path d="M1115.4 429L1146.4 306L1006.5 368Z" fill="#05263a" stroke="#05263a"></path><path d="M935.5 783L1005.5 748L896.5 681Z" fill="#05263a" stroke="#05263a"></path><path d="M896.5 681L1005.5 748L987.5 608Z" fill="#02536b" stroke="#02536b"></path><path d="M1199.4 369L1146.4 306L1115.4 429Z" fill="#00eb6f" stroke="#00eb6f"></path><path d="M637.6 438L661.6 545L785.6 429Z" fill="#00eb6f" stroke="#00eb6f"></path><path d="M1203.4 464L1199.4 369L1115.4 429Z" fill="#05263a" stroke="#05263a"></path><path d="M781.6 762L896.5 681L743.6 614Z" fill="#05263a" stroke="#05263a"></path><path d="M781.6 762L935.5 783L896.5 681Z" fill="#00eb6f" stroke="#00eb6f"></path><path d="M720.6 350L637.6 438L785.6 429Z" fill="#00d496" stroke="#00d496"></path><path d="M1234.4 752L1217.4 620L1151.4 610Z" fill="#05263a" stroke="#05263a"></path><path d="M1151.4 610L1217.4 620L1195.4 517Z" fill="#00ff27" stroke="#00ff27"></path><path d="M1195.4 517L1313.3 463L1203.4 464Z" fill="#00ff27" stroke="#00ff27"></path><path d="M1203.4 464L1313.3 463L1199.4 369Z" fill="#053b52" stroke="#053b52"></path><path d="M684.6 684L781.6 762L743.6 614Z" fill="#00eb6f" stroke="#00eb6f"></path><path d="M1146.4 306L1008.5 180L1006.5 368Z" fill="#00bba9" stroke="#00bba9"></path><path d="M637.6 761L684.6 684L564.7 716Z" fill="#00bba9" stroke="#00bba9"></path><path d="M661.6 545L684.6 684L743.6 614Z" fill="#053b52" stroke="#053b52"></path><path d="M946.5 98L812.6 191L881.5 224Z" fill="#00a0a9" stroke="#00a0a9"></path><path d="M881.5 224L812.6 191L787.6 355Z" fill="#00ff27" stroke="#00ff27"></path><path d="M720.6 350L534.7 277L637.6 438Z" fill="#00eb6f" stroke="#00eb6f"></path><path d="M526.7 516L607.7 469L534.7 277Z" fill="#00bba9" stroke="#00bba9"></path><path d="M637.6 438L607.7 469L661.6 545Z" fill="#00bba9" stroke="#00bba9"></path><path d="M1271.4 258L1112.4 187L1146.4 306Z" fill="#00d496" stroke="#00d496"></path><path d="M1146.4 306L1112.4 187L1008.5 180Z" fill="#00bba9" stroke="#00bba9"></path><path d="M1022.5 886L1121.4 789L1005.5 748Z" fill="#02536b" stroke="#02536b"></path><path d="M1005.5 748L1121.4 789L1151.4 610Z" fill="#001122" stroke="#001122"></path><path d="M1360.3 519L1195.4 517L1217.4 620Z" fill="#008597" stroke="#008597"></path><path d="M1360.3 519L1313.3 463L1195.4 517Z" fill="#006b82" stroke="#006b82"></path><path d="M1199.4 369L1271.4 258L1146.4 306Z" fill="#006b82" stroke="#006b82"></path><path d="M703.6 851L834.6 854L781.6 762Z" fill="#00a0a9" stroke="#00a0a9"></path><path d="M781.6 762L834.6 854L935.5 783Z" fill="#00ff27" stroke="#00ff27"></path><path d="M935.5 783L1022.5 886L1005.5 748Z" fill="#00ff27" stroke="#00ff27"></path><path d="M972.5 82L946.5 98L1008.5 180Z" fill="#00a0a9" stroke="#00a0a9"></path><path d="M1008.5 180L946.5 98L881.5 224Z" fill="#00ff27" stroke="#00ff27"></path><path d="M790.6 110L683.6 183L812.6 191Z" fill="#006b82" stroke="#006b82"></path><path d="M812.6 191L683.6 183L720.6 350Z" fill="#053b52" stroke="#053b52"></path><path d="M1121.4 789L1234.4 752L1151.4 610Z" fill="#00d496" stroke="#00d496"></path><path d="M946.5 98L790.6 110L812.6 191Z" fill="#02536b" stroke="#02536b"></path><path d="M564.7 716L684.6 684L661.6 545Z" fill="#00d496" stroke="#00d496"></path><path d="M684.6 684L637.6 761L781.6 762Z" fill="#053b52" stroke="#053b52"></path><path d="M1146.4 128L972.5 82L1008.5 180Z" fill="#008597" stroke="#008597"></path><path d="M946.5 98L926.5 0L790.6 110Z" fill="#00a0a9" stroke="#00a0a9"></path><path d="M1372.3 304L1271.4 258L1199.4 369Z" fill="#00a0a9" stroke="#00a0a9"></path><path d="M1112.4 187L1146.4 128L1008.5 180Z" fill="#053b52" stroke="#053b52"></path><path d="M858.5 892L1022.5 886L935.5 783Z" fill="#008597" stroke="#008597"></path><path d="M1121.4 789L1240.4 885L1234.4 752Z" fill="#00ff27" stroke="#00ff27"></path><path d="M534.7 277L607.7 469L637.6 438Z" fill="#001122" stroke="#001122"></path><path d="M607.7 469L526.7 516L661.6 545Z" fill="#02536b" stroke="#02536b"></path><path d="M771.6 974L858.5 892L834.6 854Z" fill="#02536b" stroke="#02536b"></path><path d="M834.6 854L858.5 892L935.5 783Z" fill="#05263a" stroke="#05263a"></path><path d="M1237.4 148L1146.4 128L1112.4 187Z" fill="#053b52" stroke="#053b52"></path><path d="M1022.5 886L1104.4 874L1121.4 789Z" fill="#008597" stroke="#008597"></path><path d="M1347.3 647L1360.3 519L1217.4 620Z" fill="#00bba9" stroke="#00bba9"></path><path d="M1313.3 463L1372.3 304L1199.4 369Z" fill="#053b52" stroke="#053b52"></path><path d="M637.6 761L703.6 851L781.6 762Z" fill="#00eb6f" stroke="#00eb6f"></path><path d="M631.6 107L583.7 236L683.6 183Z" fill="#00bba9" stroke="#00bba9"></path><path d="M683.6 183L583.7 236L720.6 350Z" fill="#053b52" stroke="#053b52"></path><path d="M519.7 684L564.7 716L661.6 545Z" fill="#00d496" stroke="#00d496"></path><path d="M637.6 761L563.7 890L703.6 851Z" fill="#053b52" stroke="#053b52"></path><path d="M1377.3 784L1347.3 647L1234.4 752Z" fill="#00eb6f" stroke="#00eb6f"></path><path d="M1234.4 752L1347.3 647L1217.4 620Z" fill="#006b82" stroke="#006b82"></path><path d="M407.8 462L492.8 543L526.7 516Z" fill="#00eb6f" stroke="#00eb6f"></path><path d="M487.8 627L519.7 684L661.6 545Z" fill="#006b82" stroke="#006b82"></path><path d="M583.7 236L534.7 277L720.6 350Z" fill="#02536b" stroke="#02536b"></path><path d="M1394.3 204L1237.4 148L1271.4 258Z" fill="#001122" stroke="#001122"></path><path d="M1271.4 258L1237.4 148L1112.4 187Z" fill="#008597" stroke="#008597"></path><path d="M990.5 0L926.5 0L972.5 82Z" fill="#05263a" stroke="#05263a"></path><path d="M487.8 627L661.6 545L526.7 516Z" fill="#05263a" stroke="#05263a"></path><path d="M675.6 988L771.6 974L703.6 851Z" fill="#00ff27" stroke="#00ff27"></path><path d="M1022.5 886L1113.4 953L1104.4 874Z" fill="#053b52" stroke="#053b52"></path><path d="M893.5 956L997.5 948L1022.5 886Z" fill="#008597" stroke="#008597"></path><path d="M893.5 956L1022.5 886L858.5 892Z" fill="#001122" stroke="#001122"></path><path d="M492.8 543L487.8 627L526.7 516Z" fill="#00bba9" stroke="#00bba9"></path><path d="M771.6 974L893.5 956L858.5 892Z" fill="#02536b" stroke="#02536b"></path><path d="M1490.2 457L1372.3 304L1313.3 463Z" fill="#008597" stroke="#008597"></path><path d="M673.6 0L631.6 107L790.6 110Z" fill="#008597" stroke="#008597"></path><path d="M790.6 110L631.6 107L683.6 183Z" fill="#00eb6f" stroke="#00eb6f"></path><path d="M583.7 236L483.8 199L534.7 277Z" fill="#00eb6f" stroke="#00eb6f"></path><path d="M990.5 0L972.5 82L1151.4 0Z" fill="#008597" stroke="#008597"></path><path d="M972.5 82L926.5 0L946.5 98Z" fill="#00eb6f" stroke="#00eb6f"></path><path d="M1151.4 0L972.5 82L1146.4 128Z" fill="#00ff27" stroke="#00ff27"></path><path d="M971.5 1080L1113.4 953L997.5 948Z" fill="#00bba9" stroke="#00bba9"></path><path d="M997.5 948L1113.4 953L1022.5 886Z" fill="#02536b" stroke="#02536b"></path><path d="M1104.4 874L1240.4 885L1121.4 789Z" fill="#008597" stroke="#008597"></path><path d="M1113.4 953L1240.4 885L1104.4 874Z" fill="#00eb6f" stroke="#00eb6f"></path><path d="M563.7 890L637.6 761L564.7 716Z" fill="#00d496" stroke="#00d496"></path><path d="M703.6 851L771.6 974L834.6 854Z" fill="#00ff27" stroke="#00ff27"></path><path d="M893.5 956L971.5 1080L997.5 948Z" fill="#05263a" stroke="#05263a"></path><path d="M926.5 0L757.6 0L790.6 110Z" fill="#001122" stroke="#001122"></path><path d="M410.8 289L407.8 462L534.7 277Z" fill="#05263a" stroke="#05263a"></path><path d="M534.7 277L407.8 462L526.7 516Z" fill="#00eb6f" stroke="#00eb6f"></path><path d="M492.8 543L382.8 510L487.8 627Z" fill="#00d496" stroke="#00d496"></path><path d="M1377.3 784L1443.2 636L1347.3 647Z" fill="#05263a" stroke="#05263a"></path><path d="M1347.3 647L1443.2 636L1360.3 519Z" fill="#00a0a9" stroke="#00a0a9"></path><path d="M1360.3 519L1490.2 457L1313.3 463Z" fill="#00bba9" stroke="#00bba9"></path><path d="M1358.3 823L1377.3 784L1234.4 752Z" fill="#02536b" stroke="#02536b"></path><path d="M1231.4 0L1151.4 0L1146.4 128Z" fill="#006b82" stroke="#006b82"></path><path d="M1231.4 0L1146.4 128L1237.4 148Z" fill="#00eb6f" stroke="#00eb6f"></path><path d="M479.8 84L483.8 199L631.6 107Z" fill="#02536b" stroke="#02536b"></path><path d="M631.6 107L483.8 199L583.7 236Z" fill="#00a0a9" stroke="#00a0a9"></path><path d="M673.6 0L600.7 66L631.6 107Z" fill="#001122" stroke="#001122"></path><path d="M1469.2 314L1394.3 204L1372.3 304Z" fill="#02536b" stroke="#02536b"></path><path d="M1372.3 304L1394.3 204L1271.4 258Z" fill="#00ff27" stroke="#00ff27"></path><path d="M1311.3 1002L1358.3 823L1240.4 885Z" fill="#008597" stroke="#008597"></path><path d="M1240.4 885L1358.3 823L1234.4 752Z" fill="#00bba9" stroke="#00bba9"></path><path d="M435.8 767L564.7 716L519.7 684Z" fill="#00a0a9" stroke="#00a0a9"></path><path d="M435.8 767L563.7 890L564.7 716Z" fill="#053b52" stroke="#053b52"></path><path d="M435.8 767L519.7 684L487.8 627Z" fill="#05263a" stroke="#05263a"></path><path d="M1443.2 636L1482.2 544L1360.3 519Z" fill="#00d496" stroke="#00d496"></path><path d="M323.8 408L382.8 510L407.8 462Z" fill="#00eb6f" stroke="#00eb6f"></path><path d="M407.8 462L382.8 510L492.8 543Z" fill="#02536b" stroke="#02536b"></path><path d="M757.6 0L673.6 0L790.6 110Z" fill="#00eb6f" stroke="#00eb6f"></path><path d="M1482.2 544L1490.2 457L1360.3 519Z" fill="#006b82" stroke="#006b82"></path><path d="M1113.4 953L1232.4 959L1240.4 885Z" fill="#001122" stroke="#001122"></path><path d="M1142.4 1080L1232.4 959L1113.4 953Z" fill="#02536b" stroke="#02536b"></path><path d="M483.8 199L410.8 289L534.7 277Z" fill="#02536b" stroke="#02536b"></path><path d="M1490.2 457L1469.2 314L1372.3 304Z" fill="#053b52" stroke="#053b52"></path><path d="M563.7 890L675.6 988L703.6 851Z" fill="#00eb6f" stroke="#00eb6f"></path><path d="M859.5 1080L971.5 1080L893.5 956Z" fill="#00a0a9" stroke="#00a0a9"></path><path d="M1347.3 68L1231.4 0L1237.4 148Z" fill="#006b82" stroke="#006b82"></path><path d="M311.8 738L435.8 767L487.8 627Z" fill="#053b52" stroke="#053b52"></path><path d="M363.8 208L410.8 289L483.8 199Z" fill="#001122" stroke="#001122"></path><path d="M363.8 208L375.8 311L410.8 289Z" fill="#008597" stroke="#008597"></path><path d="M410.8 289L375.8 311L407.8 462Z" fill="#02536b" stroke="#02536b"></path><path d="M1394.3 204L1347.3 68L1237.4 148Z" fill="#00eb6f" stroke="#00eb6f"></path><path d="M1434.2 145L1347.3 68L1394.3 204Z" fill="#006b82" stroke="#006b82"></path><path d="M1469.2 314L1445.2 185L1394.3 204Z" fill="#02536b" stroke="#02536b"></path><path d="M859.5 1080L893.5 956L771.6 974Z" fill="#05263a" stroke="#05263a"></path><path d="M743.6 1080L859.5 1080L771.6 974Z" fill="#00a0a9" stroke="#00a0a9"></path><path d="M1445.2 185L1434.2 145L1394.3 204Z" fill="#05263a" stroke="#05263a"></path><path d="M1482.2 544L1540.2 530L1490.2 457Z" fill="#00bba9" stroke="#00bba9"></path><path d="M1490.2 457L1576.2 402L1469.2 314Z" fill="#001122" stroke="#001122"></path><path d="M1469.2 314L1559.2 181L1445.2 185Z" fill="#006b82" stroke="#006b82"></path><path d="M1445.2 185L1559.2 181L1434.2 145Z" fill="#00d496" stroke="#00d496"></path><path d="M1586.2 613L1540.2 530L1482.2 544Z" fill="#006b82" stroke="#006b82"></path><path d="M1586.2 613L1482.2 544L1443.2 636Z" fill="#00d496" stroke="#00d496"></path><path d="M1462.2 794L1443.2 636L1377.3 784Z" fill="#02536b" stroke="#02536b"></path><path d="M536.7 0L479.8 84L600.7 66Z" fill="#001122" stroke="#001122"></path><path d="M600.7 66L479.8 84L631.6 107Z" fill="#02536b" stroke="#02536b"></path><path d="M1491.2 908L1462.2 794L1358.3 823Z" fill="#006b82" stroke="#006b82"></path><path d="M1358.3 823L1462.2 794L1377.3 784Z" fill="#00d496" stroke="#00d496"></path><path d="M206.9 355L323.8 408L375.8 311Z" fill="#008597" stroke="#008597"></path><path d="M375.8 311L323.8 408L407.8 462Z" fill="#00bba9" stroke="#00bba9"></path><path d="M382.8 510L307.8 602L487.8 627Z" fill="#001122" stroke="#001122"></path><path d="M563.7 890L599.7 1010L675.6 988Z" fill="#053b52" stroke="#053b52"></path><path d="M675.6 988L743.6 1080L771.6 974Z" fill="#00a0a9" stroke="#00a0a9"></path><path d="M477.8 942L599.7 1010L563.7 890Z" fill="#001122" stroke="#001122"></path><path d="M684.6 1080L743.6 1080L675.6 988Z" fill="#053b52" stroke="#053b52"></path><path d="M971.5 1080L1142.4 1080L1113.4 953Z" fill="#05263a" stroke="#05263a"></path><path d="M1232.4 959L1311.3 1002L1240.4 885Z" fill="#001122" stroke="#001122"></path><path d="M673.6 0L536.7 0L600.7 66Z" fill="#00bba9" stroke="#00bba9"></path><path d="M326.8 821L450.8 893L435.8 767Z" fill="#00eb6f" stroke="#00eb6f"></path><path d="M435.8 767L450.8 893L563.7 890Z" fill="#00bba9" stroke="#00bba9"></path><path d="M300.8 146L363.8 208L479.8 84Z" fill="#008597" stroke="#008597"></path><path d="M479.8 84L363.8 208L483.8 199Z" fill="#00bba9" stroke="#00bba9"></path><path d="M245.9 468L307.8 602L382.8 510Z" fill="#008597" stroke="#008597"></path><path d="M1225.4 1080L1311.3 1002L1232.4 959Z" fill="#05263a" stroke="#05263a"></path><path d="M1480.2 0L1352.3 0L1347.3 68Z" fill="#02536b" stroke="#02536b"></path><path d="M1347.3 68L1352.3 0L1231.4 0Z" fill="#02536b" stroke="#02536b"></path><path d="M518.7 1080L684.6 1080L599.7 1010Z" fill="#02536b" stroke="#02536b"></path><path d="M599.7 1010L684.6 1080L675.6 988Z" fill="#00d496" stroke="#00d496"></path><path d="M450.8 893L477.8 942L563.7 890Z" fill="#05263a" stroke="#05263a"></path><path d="M1540.2 530L1576.2 402L1490.2 457Z" fill="#02536b" stroke="#02536b"></path><path d="M1576.2 402L1572.2 321L1469.2 314Z" fill="#02536b" stroke="#02536b"></path><path d="M1434.2 145L1480.2 0L1347.3 68Z" fill="#00d496" stroke="#00d496"></path><path d="M1142.4 1080L1225.4 1080L1232.4 959Z" fill="#053b52" stroke="#053b52"></path><path d="M1577.2 798L1586.2 613L1443.2 636Z" fill="#053b52" stroke="#053b52"></path><path d="M1540.2 530L1657.1 497L1576.2 402Z" fill="#006b82" stroke="#006b82"></path><path d="M307.8 602L311.8 738L487.8 627Z" fill="#001122" stroke="#001122"></path><path d="M450.8 893L366.8 937L477.8 942Z" fill="#00a0a9" stroke="#00a0a9"></path><path d="M206.9 355L245.9 468L323.8 408Z" fill="#053b52" stroke="#053b52"></path><path d="M323.8 408L245.9 468L382.8 510Z" fill="#053b52" stroke="#053b52"></path><path d="M307.8 602L255.9 680L311.8 738Z" fill="#00a0a9" stroke="#00a0a9"></path><path d="M215.9 740L326.8 821L311.8 738Z" fill="#008597" stroke="#008597"></path><path d="M311.8 738L326.8 821L435.8 767Z" fill="#00a0a9" stroke="#00a0a9"></path><path d="M1572.2 321L1559.2 181L1469.2 314Z" fill="#00ff27" stroke="#00ff27"></path><path d="M1482.2 972L1358.3 823L1311.3 1002Z" fill="#00bba9" stroke="#00bba9"></path><path d="M1482.2 972L1491.2 908L1358.3 823Z" fill="#05263a" stroke="#05263a"></path><path d="M1462.2 794L1577.2 798L1443.2 636Z" fill="#05263a" stroke="#05263a"></path><path d="M536.7 0L427.8 0L479.8 84Z" fill="#053b52" stroke="#053b52"></path><path d="M192.9 239L206.9 355L375.8 311Z" fill="#00ff27" stroke="#00ff27"></path><path d="M153.9 559L255.9 680L307.8 602Z" fill="#001122" stroke="#001122"></path><path d="M1579.2 822L1577.2 798L1462.2 794Z" fill="#00a0a9" stroke="#00a0a9"></path><path d="M365.8 0L300.8 146L479.8 84Z" fill="#00ff27" stroke="#00ff27"></path><path d="M1586.2 613L1657.1 497L1540.2 530Z" fill="#001122" stroke="#001122"></path><path d="M1576.2 402L1697.1 351L1572.2 321Z" fill="#001122" stroke="#001122"></path><path d="M1572.2 321L1728.1 248L1559.2 181Z" fill="#001122" stroke="#001122"></path><path d="M1682.1 687L1657.1 497L1586.2 613Z" fill="#053b52" stroke="#053b52"></path><path d="M477.8 942L518.7 1080L599.7 1010Z" fill="#008597" stroke="#008597"></path><path d="M439.8 1080L518.7 1080L477.8 942Z" fill="#053b52" stroke="#053b52"></path><path d="M252.9 895L366.8 937L326.8 821Z" fill="#00eb6f" stroke="#00eb6f"></path><path d="M326.8 821L366.8 937L450.8 893Z" fill="#00bba9" stroke="#00bba9"></path><path d="M1491.2 908L1579.2 822L1462.2 794Z" fill="#008597" stroke="#008597"></path><path d="M1577.2 798L1682.1 687L1586.2 613Z" fill="#00d496" stroke="#00d496"></path><path d="M1401.3 1080L1482.2 972L1311.3 1002Z" fill="#00d496" stroke="#00d496"></path><path d="M1491.2 908L1606.2 982L1579.2 822Z" fill="#00bba9" stroke="#00bba9"></path><path d="M1550.2 67L1480.2 0L1434.2 145Z" fill="#02536b" stroke="#02536b"></path><path d="M192.9 239L375.8 311L363.8 208Z" fill="#00bba9" stroke="#00bba9"></path><path d="M245.9 468L188.9 512L307.8 602Z" fill="#006b82" stroke="#006b82"></path><path d="M1559.2 181L1550.2 67L1434.2 145Z" fill="#00a0a9" stroke="#00a0a9"></path><path d="M1570.2 0L1550.2 67L1733.1 0Z" fill="#00eb6f" stroke="#00eb6f"></path><path d="M206.9 355L188.9 512L245.9 468Z" fill="#00ff27" stroke="#00ff27"></path><path d="M427.8 0L365.8 0L479.8 84Z" fill="#053b52" stroke="#053b52"></path><path d="M300.8 146L192.9 239L363.8 208Z" fill="#00d496" stroke="#00d496"></path><path d="M1225.4 1080L1401.3 1080L1311.3 1002Z" fill="#00ff27" stroke="#00ff27"></path><path d="M80.9 639L215.9 740L255.9 680Z" fill="#001122" stroke="#001122"></path><path d="M255.9 680L215.9 740L311.8 738Z" fill="#053b52" stroke="#053b52"></path><path d="M366.8 937L439.8 1080L477.8 942Z" fill="#00d496" stroke="#00d496"></path><path d="M381.8 1080L439.8 1080L366.8 937Z" fill="#008597" stroke="#008597"></path><path d="M1700.1 711L1577.2 798L1723.1 858Z" fill="#02536b" stroke="#02536b"></path><path d="M1700.1 711L1682.1 687L1577.2 798Z" fill="#00ff27" stroke="#00ff27"></path><path d="M1734.1 466L1697.1 351L1657.1 497Z" fill="#001122" stroke="#001122"></path><path d="M1657.1 497L1697.1 351L1576.2 402Z" fill="#02536b" stroke="#02536b"></path><path d="M213.9 71L192.9 239L300.8 146Z" fill="#00ff27" stroke="#00ff27"></path><path d="M65.9 457L153.9 559L188.9 512Z" fill="#053b52" stroke="#053b52"></path><path d="M188.9 512L153.9 559L307.8 602Z" fill="#006b82" stroke="#006b82"></path><path d="M65.9 457L188.9 512L206.9 355Z" fill="#00eb6f" stroke="#00eb6f"></path><path d="M1401.3 1080L1458.2 1080L1482.2 972Z" fill="#001122" stroke="#001122"></path><path d="M1482.2 972L1606.2 982L1491.2 908Z" fill="#008597" stroke="#008597"></path><path d="M253.9 961L252.9 895L124.9 881Z" fill="#006b82" stroke="#006b82"></path><path d="M215.9 740L252.9 895L326.8 821Z" fill="#00ff27" stroke="#00ff27"></path><path d="M1723.1 858L1577.2 798L1579.2 822Z" fill="#02536b" stroke="#02536b"></path><path d="M1779.1 657L1734.1 466L1657.1 497Z" fill="#006b82" stroke="#006b82"></path><path d="M1779.1 657L1657.1 497L1682.1 687Z" fill="#00ff27" stroke="#00ff27"></path><path d="M1738.1 115L1550.2 67L1559.2 181Z" fill="#00eb6f" stroke="#00eb6f"></path><path d="M1550.2 67L1570.2 0L1480.2 0Z" fill="#00eb6f" stroke="#00eb6f"></path><path d="M253.9 961L381.8 1080L366.8 937Z" fill="#001122" stroke="#001122"></path><path d="M1846.1 551L1761.1 425L1734.1 466Z" fill="#006b82" stroke="#006b82"></path><path d="M1734.1 466L1761.1 425L1697.1 351Z" fill="#00a0a9" stroke="#00a0a9"></path><path d="M1697.1 351L1728.1 248L1572.2 321Z" fill="#00ff27" stroke="#00ff27"></path><path d="M1804.1 305L1728.1 248L1697.1 351Z" fill="#008597" stroke="#008597"></path><path d="M124.9 881L252.9 895L215.9 740Z" fill="#00d496" stroke="#00d496"></path><path d="M252.9 895L253.9 961L366.8 937Z" fill="#00bba9" stroke="#00bba9"></path><path d="M365.8 0L213.9 71L300.8 146Z" fill="#00d496" stroke="#00d496"></path><path d="M1571.2 1080L1606.2 982L1482.2 972Z" fill="#02536b" stroke="#02536b"></path><path d="M115.9 241L103.9 335L192.9 239Z" fill="#053b52" stroke="#053b52"></path><path d="M192.9 239L103.9 335L206.9 355Z" fill="#05263a" stroke="#05263a"></path><path d="M89.9 103L115.9 241L192.9 239Z" fill="#053b52" stroke="#053b52"></path><path d="M1827.1 750L1779.1 657L1700.1 711Z" fill="#00bba9" stroke="#00bba9"></path><path d="M1700.1 711L1779.1 657L1682.1 687Z" fill="#02536b" stroke="#02536b"></path><path d="M0 532L80.9 639L153.9 559Z" fill="#02536b" stroke="#02536b"></path><path d="M153.9 559L80.9 639L255.9 680Z" fill="#00a0a9" stroke="#00a0a9"></path><path d="M1458.2 1080L1571.2 1080L1482.2 972Z" fill="#053b52" stroke="#053b52"></path><path d="M1606.2 982L1723.1 858L1579.2 822Z" fill="#02536b" stroke="#02536b"></path><path d="M0 532L65.9 457L0 392Z" fill="#00a0a9" stroke="#00a0a9"></path><path d="M103.9 335L65.9 457L206.9 355Z" fill="#00a0a9" stroke="#00a0a9"></path><path d="M1760.1 854L1723.1 858L1798.1 975Z" fill="#00ff27" stroke="#00ff27"></path><path d="M80.9 639L109.9 773L215.9 740Z" fill="#00eb6f" stroke="#00eb6f"></path><path d="M1815.1 113L1738.1 115L1728.1 248Z" fill="#02536b" stroke="#02536b"></path><path d="M1728.1 248L1738.1 115L1559.2 181Z" fill="#00a0a9" stroke="#00a0a9"></path><path d="M1804.1 305L1697.1 351L1761.1 425Z" fill="#053b52" stroke="#053b52"></path><path d="M365.8 0L195.9 0L213.9 71Z" fill="#00d496" stroke="#00d496"></path><path d="M213.9 71L89.9 103L192.9 239Z" fill="#00bba9" stroke="#00bba9"></path><path d="M1920 389L1804.1 305L1761.1 425Z" fill="#053b52" stroke="#053b52"></path><path d="M109.9 773L124.9 881L215.9 740Z" fill="#00bba9" stroke="#00bba9"></path><path d="M253.9 961L255.9 1080L381.8 1080Z" fill="#001122" stroke="#001122"></path><path d="M0 909L124.9 881L109.9 773Z" fill="#05263a" stroke="#05263a"></path><path d="M78.9 972L255.9 1080L253.9 961Z" fill="#001122" stroke="#001122"></path><path d="M1723.1 858L1760.1 854L1700.1 711Z" fill="#00eb6f" stroke="#00eb6f"></path><path d="M1737.1 1007L1723.1 858L1606.2 982Z" fill="#00eb6f" stroke="#00eb6f"></path><path d="M1920 565L1846.1 551L1920 623Z" fill="#001122" stroke="#001122"></path><path d="M1779.1 657L1846.1 551L1734.1 466Z" fill="#00eb6f" stroke="#00eb6f"></path><path d="M1571.2 1080L1649.1 1080L1606.2 982Z" fill="#00ff27" stroke="#00ff27"></path><path d="M95.9 0L89.9 103L213.9 71Z" fill="#008597" stroke="#008597"></path><path d="M0 358L0 392L103.9 335Z" fill="#008597" stroke="#008597"></path><path d="M1920 741L1827.1 750L1920 861Z" fill="#053b52" stroke="#053b52"></path><path d="M1760.1 854L1827.1 750L1700.1 711Z" fill="#00d496" stroke="#00d496"></path><path d="M1815.1 113L1733.1 0L1738.1 115Z" fill="#053b52" stroke="#053b52"></path><path d="M1738.1 115L1733.1 0L1550.2 67Z" fill="#00ff27" stroke="#00ff27"></path><path d="M65.9 457L0 532L153.9 559Z" fill="#053b52" stroke="#053b52"></path><path d="M80.9 639L0 725L109.9 773Z" fill="#00eb6f" stroke="#00eb6f"></path><path d="M0 392L65.9 457L103.9 335Z" fill="#008597" stroke="#008597"></path><path d="M0 358L103.9 335L0 239Z" fill="#00ff27" stroke="#00ff27"></path><path d="M1920 348L1851.1 261L1804.1 305Z" fill="#00d496" stroke="#00d496"></path><path d="M1804.1 305L1851.1 261L1728.1 248Z" fill="#05263a" stroke="#05263a"></path><path d="M0 239L103.9 335L115.9 241Z" fill="#00bba9" stroke="#00bba9"></path><path d="M0 532L0 666L80.9 639Z" fill="#02536b" stroke="#02536b"></path><path d="M1649.1 1080L1737.1 1007L1606.2 982Z" fill="#00eb6f" stroke="#00eb6f"></path><path d="M1851.1 261L1815.1 113L1728.1 248Z" fill="#008597" stroke="#008597"></path><path d="M0 666L0 725L80.9 639Z" fill="#00bba9" stroke="#00bba9"></path><path d="M124.9 881L78.9 972L253.9 961Z" fill="#00d496" stroke="#00d496"></path><path d="M89.9 103L0 239L115.9 241Z" fill="#00eb6f" stroke="#00eb6f"></path><path d="M195.9 0L95.9 0L213.9 71Z" fill="#00ff27" stroke="#00ff27"></path><path d="M89.9 103L0 68L0 239Z" fill="#05263a" stroke="#05263a"></path><path d="M0 909L78.9 972L124.9 881Z" fill="#006b82" stroke="#006b82"></path><path d="M1920 623L1846.1 551L1779.1 657Z" fill="#008597" stroke="#008597"></path><path d="M1846.1 551L1920 389L1761.1 425Z" fill="#001122" stroke="#001122"></path><path d="M1920 623L1779.1 657L1827.1 750Z" fill="#008597" stroke="#008597"></path><path d="M1920 565L1920 389L1846.1 551Z" fill="#006b82" stroke="#006b82"></path><path d="M1851.1 261L1920 149L1815.1 113Z" fill="#00d496" stroke="#00d496"></path><path d="M1811.1 1080L1798.1 975L1737.1 1007Z" fill="#00a0a9" stroke="#00a0a9"></path><path d="M1737.1 1007L1798.1 975L1723.1 858Z" fill="#006b82" stroke="#006b82"></path><path d="M1920 741L1920 623L1827.1 750Z" fill="#00bba9" stroke="#00bba9"></path><path d="M1920 389L1920 348L1804.1 305Z" fill="#05263a" stroke="#05263a"></path><path d="M1920 348L1920 253L1851.1 261Z" fill="#053b52" stroke="#053b52"></path><path d="M1815.1 113L1824.1 0L1733.1 0Z" fill="#053b52" stroke="#053b52"></path><path d="M1920 0L1824.1 0L1815.1 113Z" fill="#05263a" stroke="#05263a"></path><path d="M1920 861L1827.1 750L1760.1 854Z" fill="#00bba9" stroke="#00bba9"></path><path d="M95.9 0L0 68L89.9 103Z" fill="#00ff27" stroke="#00ff27"></path><path d="M0 725L0 909L109.9 773Z" fill="#006b82" stroke="#006b82"></path><path d="M0 909L0 941L78.9 972Z" fill="#02536b" stroke="#02536b"></path><path d="M78.9 972L75.9 1080L255.9 1080Z" fill="#00ff27" stroke="#00ff27"></path><path d="M1920 253L1920 149L1851.1 261Z" fill="#00bba9" stroke="#00bba9"></path><path d="M0 1080L75.9 1080L78.9 972Z" fill="#00d496" stroke="#00d496"></path><path d="M1798.1 975L1920 861L1760.1 854Z" fill="#00ff27" stroke="#00ff27"></path><path d="M95.9 0L0 0L0 68Z" fill="#00a0a9" stroke="#00a0a9"></path><path d="M1649.1 1080L1811.1 1080L1737.1 1007Z" fill="#00a0a9" stroke="#00a0a9"></path><path d="M1798.1 975L1920 957L1920 861Z" fill="#053b52" stroke="#053b52"></path><path d="M1920 1080L1920 957L1798.1 975Z" fill="#001122" stroke="#001122"></path><path d="M1920 149L1920 0L1815.1 113Z" fill="#053b52" stroke="#053b52"></path><path d="M0 941L0 1080L78.9 972Z" fill="#006b82" stroke="#006b82"></path><path d="M1811.1 1080L1920 1080L1798.1 975Z" fill="#00a0a9" stroke="#00a0a9"></path></g></svg>