<svg id="visual" viewBox="0 0 1920 1080" width="1920" height="1080" xmlns="http://www.w3.org/2000/svg" xmlns:xlink="http://www.w3.org/1999/xlink" version="1.1"><g stroke-width="1" stroke-linejoin="bevel"><path d="M1022.5 549L1133.4 641L1121.4 546Z" fill="#00ff3e" stroke="#00ff3e"></path><path d="M1022.5 549L1022.5 659L1133.4 641Z" fill="#00a0a9" stroke="#00a0a9"></path><path d="M900.5 746L1014.5 756L1022.5 659Z" fill="#00ff3e" stroke="#00ff3e"></path><path d="M1022.5 659L1128.4 765L1133.4 641Z" fill="#02536b" stroke="#02536b"></path><path d="M1022.5 549L909.5 640L1022.5 659Z" fill="#053b52" stroke="#053b52"></path><path d="M1014.5 756L1128.4 765L1022.5 659Z" fill="#00ff3e" stroke="#00ff3e"></path><path d="M1244.4 744L1240.4 657L1133.4 641Z" fill="#00d399" stroke="#00d399"></path><path d="M1133.4 641L1248.4 551L1121.4 546Z" fill="#00ff3e" stroke="#00ff3e"></path><path d="M1240.4 657L1248.4 551L1133.4 641Z" fill="#053b52" stroke="#053b52"></path><path d="M1240.4 436L1136.4 426L1121.4 546Z" fill="#00ea78" stroke="#00ea78"></path><path d="M1121.4 546L1025.5 420L1022.5 549Z" fill="#001122" stroke="#001122"></path><path d="M1022.5 549L891.5 542L909.5 640Z" fill="#001122" stroke="#001122"></path><path d="M1136.4 426L1025.5 420L1121.4 546Z" fill="#00d399" stroke="#00d399"></path><path d="M900.5 443L891.5 542L1022.5 549Z" fill="#053b52" stroke="#053b52"></path><path d="M1128.4 765L1244.4 744L1133.4 641Z" fill="#02536b" stroke="#02536b"></path><path d="M1354.3 640L1346.3 550L1248.4 551Z" fill="#00baaa" stroke="#00baaa"></path><path d="M783.6 639L900.5 746L909.5 640Z" fill="#02536b" stroke="#02536b"></path><path d="M909.5 640L900.5 746L1022.5 659Z" fill="#05263a" stroke="#05263a"></path><path d="M1025.5 420L900.5 443L1022.5 549Z" fill="#001122" stroke="#001122"></path><path d="M1248.4 551L1240.4 436L1121.4 546Z" fill="#001122" stroke="#001122"></path><path d="M1014.5 756L1128.4 852L1128.4 765Z" fill="#00a0a9" stroke="#00a0a9"></path><path d="M1128.4 765L1245.4 862L1244.4 744Z" fill="#053b52" stroke="#053b52"></path><path d="M1004.5 862L1128.4 852L1014.5 756Z" fill="#00a0a9" stroke="#00a0a9"></path><path d="M897.5 857L1004.5 862L1014.5 756Z" fill="#00ff3e" stroke="#00ff3e"></path><path d="M1354.3 640L1248.4 551L1240.4 657Z" fill="#006b82" stroke="#006b82"></path><path d="M1248.4 551L1346.3 550L1240.4 436Z" fill="#053b52" stroke="#053b52"></path><path d="M1353.3 745L1354.3 640L1240.4 657Z" fill="#00ff3e" stroke="#00ff3e"></path><path d="M1233.4 314L1130.4 319L1136.4 426Z" fill="#008597" stroke="#008597"></path><path d="M1136.4 426L1130.4 319L1025.5 420Z" fill="#02536b" stroke="#02536b"></path><path d="M1025.5 420L902.5 328L900.5 443Z" fill="#053b52" stroke="#053b52"></path><path d="M1130.4 319L1006.5 317L1025.5 420Z" fill="#00baaa" stroke="#00baaa"></path><path d="M779.6 548L783.6 639L891.5 542Z" fill="#006b82" stroke="#006b82"></path><path d="M891.5 542L783.6 639L909.5 640Z" fill="#053b52" stroke="#053b52"></path><path d="M900.5 746L897.5 857L1014.5 756Z" fill="#00baaa" stroke="#00baaa"></path><path d="M787.6 435L891.5 542L900.5 443Z" fill="#02536b" stroke="#02536b"></path><path d="M787.6 435L779.6 548L891.5 542Z" fill="#006b82" stroke="#006b82"></path><path d="M782.6 857L897.5 857L900.5 746Z" fill="#05263a" stroke="#05263a"></path><path d="M1128.4 852L1245.4 862L1128.4 765Z" fill="#053b52" stroke="#053b52"></path><path d="M1244.4 744L1353.3 745L1240.4 657Z" fill="#053b52" stroke="#053b52"></path><path d="M1137.4 969L1245.4 862L1128.4 852Z" fill="#00ff3e" stroke="#00ff3e"></path><path d="M1245.4 862L1353.3 745L1244.4 744Z" fill="#00ea78" stroke="#00ea78"></path><path d="M1006.5 317L902.5 328L1025.5 420Z" fill="#00ea78" stroke="#00ea78"></path><path d="M1355.3 421L1233.4 314L1240.4 436Z" fill="#02536b" stroke="#02536b"></path><path d="M1240.4 436L1233.4 314L1136.4 426Z" fill="#008597" stroke="#008597"></path><path d="M1130.4 319L1023.5 217L1006.5 317Z" fill="#00a0a9" stroke="#00a0a9"></path><path d="M677.6 651L778.6 746L783.6 639Z" fill="#053b52" stroke="#053b52"></path><path d="M783.6 639L778.6 746L900.5 746Z" fill="#00d399" stroke="#00d399"></path><path d="M902.5 328L787.6 435L900.5 443Z" fill="#00ff3e" stroke="#00ff3e"></path><path d="M1472.2 549L1355.3 421L1346.3 550Z" fill="#00baaa" stroke="#00baaa"></path><path d="M1346.3 550L1355.3 421L1240.4 436Z" fill="#006b82" stroke="#006b82"></path><path d="M1024.5 973L1128.4 852L1004.5 862Z" fill="#00baaa" stroke="#00baaa"></path><path d="M1024.5 973L1137.4 969L1128.4 852Z" fill="#006b82" stroke="#006b82"></path><path d="M904.5 979L1024.5 973L1004.5 862Z" fill="#053b52" stroke="#053b52"></path><path d="M1129.4 206L1023.5 217L1130.4 319Z" fill="#00ea78" stroke="#00ea78"></path><path d="M1006.5 317L905.5 226L902.5 328Z" fill="#008597" stroke="#008597"></path><path d="M1249.4 969L1355.3 865L1245.4 862Z" fill="#053b52" stroke="#053b52"></path><path d="M1245.4 862L1355.3 865L1353.3 745Z" fill="#00ea78" stroke="#00ea78"></path><path d="M1353.3 745L1462.2 654L1354.3 640Z" fill="#00a0a9" stroke="#00a0a9"></path><path d="M1354.3 640L1472.2 549L1346.3 550Z" fill="#00baaa" stroke="#00baaa"></path><path d="M778.6 746L782.6 857L900.5 746Z" fill="#006b82" stroke="#006b82"></path><path d="M897.5 857L904.5 979L1004.5 862Z" fill="#00d399" stroke="#00d399"></path><path d="M1460.2 749L1462.2 654L1353.3 745Z" fill="#05263a" stroke="#05263a"></path><path d="M1355.3 421L1364.3 334L1233.4 314Z" fill="#02536b" stroke="#02536b"></path><path d="M1233.4 314L1129.4 206L1130.4 319Z" fill="#053b52" stroke="#053b52"></path><path d="M1474.2 420L1364.3 334L1355.3 421Z" fill="#006b82" stroke="#006b82"></path><path d="M787.6 435L682.6 534L779.6 548Z" fill="#00ff3e" stroke="#00ff3e"></path><path d="M779.6 548L677.6 651L783.6 639Z" fill="#00ff3e" stroke="#00ff3e"></path><path d="M778.6 746L680.6 744L782.6 857Z" fill="#00ff3e" stroke="#00ff3e"></path><path d="M1253.4 217L1129.4 206L1233.4 314Z" fill="#02536b" stroke="#02536b"></path><path d="M902.5 328L785.6 325L787.6 435Z" fill="#00baaa" stroke="#00baaa"></path><path d="M787.6 435L686.6 438L682.6 534Z" fill="#02536b" stroke="#02536b"></path><path d="M792.6 224L785.6 325L902.5 328Z" fill="#001122" stroke="#001122"></path><path d="M682.6 534L677.6 651L779.6 548Z" fill="#00baaa" stroke="#00baaa"></path><path d="M1462.2 654L1472.2 549L1354.3 640Z" fill="#00a0a9" stroke="#00a0a9"></path><path d="M1241.4 1080L1249.4 969L1137.4 969Z" fill="#006b82" stroke="#006b82"></path><path d="M1137.4 969L1249.4 969L1245.4 862Z" fill="#006b82" stroke="#006b82"></path><path d="M792.6 224L905.5 226L903.5 108Z" fill="#02536b" stroke="#02536b"></path><path d="M1023.5 217L905.5 226L1006.5 317Z" fill="#00a0a9" stroke="#00a0a9"></path><path d="M1355.3 865L1460.2 749L1353.3 745Z" fill="#02536b" stroke="#02536b"></path><path d="M1462.2 654L1578.2 641L1472.2 549Z" fill="#053b52" stroke="#053b52"></path><path d="M798.6 978L904.5 979L897.5 857Z" fill="#02536b" stroke="#02536b"></path><path d="M1024.5 973L1120.4 1080L1137.4 969Z" fill="#00ea78" stroke="#00ea78"></path><path d="M677.6 651L680.6 744L778.6 746Z" fill="#008597" stroke="#008597"></path><path d="M785.6 325L686.6 438L787.6 435Z" fill="#00d399" stroke="#00d399"></path><path d="M682.6 534L574.7 638L677.6 651Z" fill="#00a0a9" stroke="#00a0a9"></path><path d="M1343.3 224L1253.4 217L1233.4 314Z" fill="#00ff3e" stroke="#00ff3e"></path><path d="M1472.2 549L1474.2 420L1355.3 421Z" fill="#05263a" stroke="#05263a"></path><path d="M1364.3 334L1343.3 224L1233.4 314Z" fill="#05263a" stroke="#05263a"></path><path d="M1457.2 205L1343.3 224L1364.3 334Z" fill="#00ff3e" stroke="#00ff3e"></path><path d="M1119.4 99L1010.5 114L1129.4 206Z" fill="#00a0a9" stroke="#00a0a9"></path><path d="M1249.4 969L1358.3 970L1355.3 865Z" fill="#001122" stroke="#001122"></path><path d="M1355.3 865L1474.2 856L1460.2 749Z" fill="#00d399" stroke="#00d399"></path><path d="M1364.3 1080L1358.3 970L1249.4 969Z" fill="#02536b" stroke="#02536b"></path><path d="M782.6 857L798.6 978L897.5 857Z" fill="#00baaa" stroke="#00baaa"></path><path d="M681.6 977L798.6 978L782.6 857Z" fill="#00a0a9" stroke="#00a0a9"></path><path d="M1010.5 114L905.5 226L1023.5 217Z" fill="#00a0a9" stroke="#00a0a9"></path><path d="M905.5 226L792.6 224L902.5 328Z" fill="#001122" stroke="#001122"></path><path d="M785.6 325L681.6 312L686.6 438Z" fill="#00ea78" stroke="#00ea78"></path><path d="M1474.2 420L1463.2 330L1364.3 334Z" fill="#00a0a9" stroke="#00a0a9"></path><path d="M1456.2 973L1474.2 856L1355.3 865Z" fill="#001122" stroke="#001122"></path><path d="M1580.2 755L1578.2 641L1462.2 654Z" fill="#00baaa" stroke="#00baaa"></path><path d="M1472.2 549L1589.2 441L1474.2 420Z" fill="#00ff3e" stroke="#00ff3e"></path><path d="M573.7 863L678.6 874L680.6 744Z" fill="#006b82" stroke="#006b82"></path><path d="M680.6 744L678.6 874L782.6 857Z" fill="#001122" stroke="#001122"></path><path d="M1026.5 1080L1024.5 973L904.5 979Z" fill="#05263a" stroke="#05263a"></path><path d="M1026.5 1080L1120.4 1080L1024.5 973Z" fill="#00d399" stroke="#00d399"></path><path d="M892.5 1080L1026.5 1080L904.5 979Z" fill="#001122" stroke="#001122"></path><path d="M792.6 224L681.6 312L785.6 325Z" fill="#05263a" stroke="#05263a"></path><path d="M556.7 536L574.7 638L682.6 534Z" fill="#006b82" stroke="#006b82"></path><path d="M1119.4 99L1129.4 206L1244.4 96Z" fill="#008597" stroke="#008597"></path><path d="M1129.4 206L1010.5 114L1023.5 217Z" fill="#001122" stroke="#001122"></path><path d="M556.7 536L682.6 534L686.6 438Z" fill="#00d399" stroke="#00d399"></path><path d="M677.6 651L574.7 638L680.6 744Z" fill="#001122" stroke="#001122"></path><path d="M1244.4 96L1129.4 206L1253.4 217Z" fill="#053b52" stroke="#053b52"></path><path d="M1580.2 755L1462.2 654L1460.2 749Z" fill="#006b82" stroke="#006b82"></path><path d="M1474.2 420L1591.2 325L1463.2 330Z" fill="#00a0a9" stroke="#00a0a9"></path><path d="M1120.4 1080L1241.4 1080L1137.4 969Z" fill="#006b82" stroke="#006b82"></path><path d="M796.6 1080L892.5 1080L798.6 978Z" fill="#00baaa" stroke="#00baaa"></path><path d="M798.6 978L892.5 1080L904.5 979Z" fill="#001122" stroke="#001122"></path><path d="M555.7 427L556.7 536L686.6 438Z" fill="#00ea78" stroke="#00ea78"></path><path d="M1010.5 114L903.5 108L905.5 226Z" fill="#00a0a9" stroke="#00a0a9"></path><path d="M792.6 224L665.6 210L681.6 312Z" fill="#00ff3e" stroke="#00ff3e"></path><path d="M1007.5 0L903.5 108L1010.5 114Z" fill="#00baaa" stroke="#00baaa"></path><path d="M1578.2 641L1591.2 541L1472.2 549Z" fill="#00ea78" stroke="#00ea78"></path><path d="M1580.2 859L1580.2 755L1474.2 856Z" fill="#006b82" stroke="#006b82"></path><path d="M1474.2 856L1580.2 755L1460.2 749Z" fill="#00baaa" stroke="#00baaa"></path><path d="M1690.1 644L1687.1 543L1591.2 541Z" fill="#053b52" stroke="#053b52"></path><path d="M1343.3 224L1244.4 96L1253.4 217Z" fill="#001122" stroke="#001122"></path><path d="M1366.3 96L1244.4 96L1343.3 224Z" fill="#006b82" stroke="#006b82"></path><path d="M1364.3 1080L1456.2 973L1358.3 970Z" fill="#00ff3e" stroke="#00ff3e"></path><path d="M1358.3 970L1456.2 973L1355.3 865Z" fill="#05263a" stroke="#05263a"></path><path d="M449.8 658L561.7 758L574.7 638Z" fill="#008597" stroke="#008597"></path><path d="M574.7 638L561.7 758L680.6 744Z" fill="#05263a" stroke="#05263a"></path><path d="M1591.2 541L1589.2 441L1472.2 549Z" fill="#00ea78" stroke="#00ea78"></path><path d="M1463.2 330L1457.2 205L1364.3 334Z" fill="#00ea78" stroke="#00ea78"></path><path d="M566.7 974L681.6 977L678.6 874Z" fill="#00d399" stroke="#00d399"></path><path d="M678.6 874L681.6 977L782.6 857Z" fill="#05263a" stroke="#05263a"></path><path d="M563.7 329L555.7 427L686.6 438Z" fill="#05263a" stroke="#05263a"></path><path d="M563.7 329L686.6 438L681.6 312Z" fill="#008597" stroke="#008597"></path><path d="M1592.2 205L1457.2 205L1463.2 330Z" fill="#008597" stroke="#008597"></path><path d="M681.6 977L796.6 1080L798.6 978Z" fill="#053b52" stroke="#053b52"></path><path d="M1241.4 1080L1364.3 1080L1249.4 969Z" fill="#05263a" stroke="#05263a"></path><path d="M681.6 110L665.6 210L792.6 224Z" fill="#02536b" stroke="#02536b"></path><path d="M561.7 758L573.7 863L680.6 744Z" fill="#001122" stroke="#001122"></path><path d="M1576.2 971L1580.2 859L1474.2 856Z" fill="#00ff3e" stroke="#00ff3e"></path><path d="M1690.1 644L1591.2 541L1578.2 641Z" fill="#00baaa" stroke="#00baaa"></path><path d="M1576.2 971L1474.2 856L1456.2 973Z" fill="#00d399" stroke="#00d399"></path><path d="M902.5 0L790.6 100L903.5 108Z" fill="#02536b" stroke="#02536b"></path><path d="M903.5 108L790.6 100L792.6 224Z" fill="#00ea78" stroke="#00ea78"></path><path d="M1007.5 0L1010.5 114L1119.4 99Z" fill="#053b52" stroke="#053b52"></path><path d="M665.6 210L563.7 329L681.6 312Z" fill="#00baaa" stroke="#00baaa"></path><path d="M1457.2 205L1366.3 96L1343.3 224Z" fill="#008597" stroke="#008597"></path><path d="M1691.1 439L1591.2 325L1589.2 441Z" fill="#006b82" stroke="#006b82"></path><path d="M1589.2 441L1591.2 325L1474.2 420Z" fill="#00ea78" stroke="#00ea78"></path><path d="M1457.2 205L1471.2 107L1366.3 96Z" fill="#00d399" stroke="#00d399"></path><path d="M1232.4 0L1133.4 0L1244.4 96Z" fill="#00ff3e" stroke="#00ff3e"></path><path d="M1244.4 96L1133.4 0L1119.4 99Z" fill="#008597" stroke="#008597"></path><path d="M1133.4 0L1007.5 0L1119.4 99Z" fill="#00d399" stroke="#00d399"></path><path d="M1690.1 644L1578.2 641L1580.2 755Z" fill="#00a0a9" stroke="#00a0a9"></path><path d="M1591.2 541L1687.1 543L1589.2 441Z" fill="#00ff3e" stroke="#00ff3e"></path><path d="M1683.1 759L1690.1 644L1580.2 755Z" fill="#00a0a9" stroke="#00a0a9"></path><path d="M1352.3 0L1232.4 0L1244.4 96Z" fill="#00baaa" stroke="#00baaa"></path><path d="M1007.5 0L902.5 0L903.5 108Z" fill="#00ea78" stroke="#00ea78"></path><path d="M790.6 100L681.6 110L792.6 224Z" fill="#053b52" stroke="#053b52"></path><path d="M1477.2 1080L1576.2 971L1456.2 973Z" fill="#001122" stroke="#001122"></path><path d="M1580.2 859L1683.1 759L1580.2 755Z" fill="#00ea78" stroke="#00ea78"></path><path d="M556.7 536L449.8 658L574.7 638Z" fill="#008597" stroke="#008597"></path><path d="M561.7 758L441.8 862L573.7 863Z" fill="#001122" stroke="#001122"></path><path d="M444.8 542L449.8 658L556.7 536Z" fill="#006b82" stroke="#006b82"></path><path d="M444.8 542L556.7 536L452.8 431Z" fill="#001122" stroke="#001122"></path><path d="M681.6 977L670.6 1080L796.6 1080Z" fill="#053b52" stroke="#053b52"></path><path d="M566.7 974L670.6 1080L681.6 977Z" fill="#001122" stroke="#001122"></path><path d="M566.7 974L678.6 874L573.7 863Z" fill="#00ea78" stroke="#00ea78"></path><path d="M1364.3 1080L1477.2 1080L1456.2 973Z" fill="#00baaa" stroke="#00baaa"></path><path d="M781.6 0L681.6 110L790.6 100Z" fill="#001122" stroke="#001122"></path><path d="M665.6 210L552.7 205L563.7 329Z" fill="#00a0a9" stroke="#00a0a9"></path><path d="M441.8 862L566.7 974L573.7 863Z" fill="#008597" stroke="#008597"></path><path d="M1686.1 875L1683.1 759L1580.2 859Z" fill="#006b82" stroke="#006b82"></path><path d="M452.8 431L555.7 427L454.8 314Z" fill="#05263a" stroke="#05263a"></path><path d="M452.8 431L556.7 536L555.7 427Z" fill="#001122" stroke="#001122"></path><path d="M1585.2 118L1471.2 107L1457.2 205Z" fill="#02536b" stroke="#02536b"></path><path d="M1366.3 96L1352.3 0L1244.4 96Z" fill="#00baaa" stroke="#00baaa"></path><path d="M1687.1 543L1691.1 439L1589.2 441Z" fill="#02536b" stroke="#02536b"></path><path d="M1591.2 325L1592.2 205L1463.2 330Z" fill="#006b82" stroke="#006b82"></path><path d="M1703.1 334L1691.1 439L1800.1 435Z" fill="#006b82" stroke="#006b82"></path><path d="M454.8 314L555.7 427L563.7 329Z" fill="#008597" stroke="#008597"></path><path d="M1690.1 212L1592.2 205L1591.2 325Z" fill="#00baaa" stroke="#00baaa"></path><path d="M337.8 746L440.8 763L449.8 658Z" fill="#053b52" stroke="#053b52"></path><path d="M449.8 658L440.8 763L561.7 758Z" fill="#00d399" stroke="#00d399"></path><path d="M556.7 99L552.7 205L665.6 210Z" fill="#05263a" stroke="#05263a"></path><path d="M1479.2 0L1352.3 0L1366.3 96Z" fill="#008597" stroke="#008597"></path><path d="M1479.2 0L1366.3 96L1471.2 107Z" fill="#00ff3e" stroke="#00ff3e"></path><path d="M902.5 0L781.6 0L790.6 100Z" fill="#00ff3e" stroke="#00ff3e"></path><path d="M681.6 110L556.7 99L665.6 210Z" fill="#00baaa" stroke="#00baaa"></path><path d="M1576.2 971L1686.1 875L1580.2 859Z" fill="#00d399" stroke="#00d399"></path><path d="M1683.1 759L1800.1 654L1690.1 644Z" fill="#00ea78" stroke="#00ea78"></path><path d="M1698.1 966L1686.1 875L1576.2 971Z" fill="#00baaa" stroke="#00baaa"></path><path d="M552.7 205L454.8 314L563.7 329Z" fill="#05263a" stroke="#05263a"></path><path d="M452.8 431L349.8 532L444.8 542Z" fill="#00d399" stroke="#00d399"></path><path d="M1806.1 544L1691.1 439L1687.1 543Z" fill="#00d399" stroke="#00d399"></path><path d="M1691.1 439L1703.1 334L1591.2 325Z" fill="#053b52" stroke="#053b52"></path><path d="M1806.1 544L1687.1 543L1690.1 644Z" fill="#05263a" stroke="#05263a"></path><path d="M440.8 763L441.8 862L561.7 758Z" fill="#00a0a9" stroke="#00a0a9"></path><path d="M566.7 974L565.7 1080L670.6 1080Z" fill="#00a0a9" stroke="#00a0a9"></path><path d="M450.8 1080L565.7 1080L566.7 974Z" fill="#001122" stroke="#001122"></path><path d="M1690.1 212L1585.2 118L1592.2 205Z" fill="#00ea78" stroke="#00ea78"></path><path d="M1592.2 205L1585.2 118L1457.2 205Z" fill="#00ff3e" stroke="#00ff3e"></path><path d="M1477.2 1080L1590.2 1080L1576.2 971Z" fill="#008597" stroke="#008597"></path><path d="M781.6 0L677.6 0L681.6 110Z" fill="#00a0a9" stroke="#00a0a9"></path><path d="M552.7 205L449.8 224L454.8 314Z" fill="#00ea78" stroke="#00ea78"></path><path d="M572.7 0L556.7 99L681.6 110Z" fill="#00ff3e" stroke="#00ff3e"></path><path d="M1590.2 1080L1698.1 966L1576.2 971Z" fill="#001122" stroke="#001122"></path><path d="M1816.1 763L1800.1 654L1683.1 759Z" fill="#02536b" stroke="#02536b"></path><path d="M1577.2 0L1479.2 0L1471.2 107Z" fill="#006b82" stroke="#006b82"></path><path d="M336.8 433L349.8 532L452.8 431Z" fill="#05263a" stroke="#05263a"></path><path d="M444.8 542L344.8 649L449.8 658Z" fill="#00ff3e" stroke="#00ff3e"></path><path d="M440.8 763L334.8 871L441.8 862Z" fill="#00d399" stroke="#00d399"></path><path d="M336.8 433L452.8 431L334.8 334Z" fill="#00ea78" stroke="#00ea78"></path><path d="M444.8 101L449.8 224L552.7 205Z" fill="#00ff3e" stroke="#00ff3e"></path><path d="M1816.1 763L1683.1 759L1803.1 864Z" fill="#00a0a9" stroke="#00a0a9"></path><path d="M1796.1 331L1690.1 212L1703.1 334Z" fill="#053b52" stroke="#053b52"></path><path d="M1703.1 334L1690.1 212L1591.2 325Z" fill="#00d399" stroke="#00d399"></path><path d="M1585.2 118L1577.2 0L1471.2 107Z" fill="#008597" stroke="#008597"></path><path d="M349.8 532L344.8 649L444.8 542Z" fill="#00baaa" stroke="#00baaa"></path><path d="M334.8 871L444.8 980L441.8 862Z" fill="#00ff3e" stroke="#00ff3e"></path><path d="M441.8 862L444.8 980L566.7 974Z" fill="#00ea78" stroke="#00ea78"></path><path d="M1800.1 654L1806.1 544L1690.1 644Z" fill="#00d399" stroke="#00d399"></path><path d="M1806.1 544L1800.1 435L1691.1 439Z" fill="#006b82" stroke="#006b82"></path><path d="M221.9 656L337.8 746L344.8 649Z" fill="#00a0a9" stroke="#00a0a9"></path><path d="M344.8 649L337.8 746L449.8 658Z" fill="#00baaa" stroke="#00baaa"></path><path d="M334.8 334L452.8 431L454.8 314Z" fill="#00baaa" stroke="#00baaa"></path><path d="M349.8 532L234.9 535L344.8 649Z" fill="#05263a" stroke="#05263a"></path><path d="M1803.1 864L1683.1 759L1686.1 875Z" fill="#00a0a9" stroke="#00a0a9"></path><path d="M1800.1 654L1920 644L1806.1 544Z" fill="#053b52" stroke="#053b52"></path><path d="M1809.1 213L1796.1 331L1920 312Z" fill="#001122" stroke="#001122"></path><path d="M1800.1 435L1796.1 331L1703.1 334Z" fill="#001122" stroke="#001122"></path><path d="M1797.1 974L1803.1 864L1698.1 966Z" fill="#02536b" stroke="#02536b"></path><path d="M1698.1 966L1803.1 864L1686.1 875Z" fill="#006b82" stroke="#006b82"></path><path d="M1590.2 1080L1689.1 1080L1698.1 966Z" fill="#00a0a9" stroke="#00a0a9"></path><path d="M677.6 0L572.7 0L681.6 110Z" fill="#02536b" stroke="#02536b"></path><path d="M556.7 99L444.8 101L552.7 205Z" fill="#05263a" stroke="#05263a"></path><path d="M1696.1 104L1585.2 118L1690.1 212Z" fill="#00a0a9" stroke="#00a0a9"></path><path d="M1696.1 104L1577.2 0L1585.2 118Z" fill="#02536b" stroke="#02536b"></path><path d="M449.8 224L334.8 334L454.8 314Z" fill="#001122" stroke="#001122"></path><path d="M329.8 976L334.8 871L227.9 968Z" fill="#00ea78" stroke="#00ea78"></path><path d="M328.8 214L334.8 334L449.8 224Z" fill="#00a0a9" stroke="#00a0a9"></path><path d="M330.8 1080L450.8 1080L444.8 980Z" fill="#00d399" stroke="#00d399"></path><path d="M444.8 980L450.8 1080L566.7 974Z" fill="#00baaa" stroke="#00baaa"></path><path d="M337.8 746L334.8 871L440.8 763Z" fill="#02536b" stroke="#02536b"></path><path d="M334.8 871L337.8 746L226.9 857Z" fill="#00ff3e" stroke="#00ff3e"></path><path d="M1801.1 114L1696.1 104L1690.1 212Z" fill="#05263a" stroke="#05263a"></path><path d="M457.8 0L444.8 101L556.7 99Z" fill="#00d399" stroke="#00d399"></path><path d="M1689.1 1080L1797.1 974L1698.1 966Z" fill="#001122" stroke="#001122"></path><path d="M1920 758L1920 644L1816.1 763Z" fill="#00ff3e" stroke="#00ff3e"></path><path d="M1920 420L1796.1 331L1800.1 435Z" fill="#02536b" stroke="#02536b"></path><path d="M1796.1 331L1809.1 213L1690.1 212Z" fill="#00ff3e" stroke="#00ff3e"></path><path d="M1920 543L1800.1 435L1806.1 544Z" fill="#00baaa" stroke="#00baaa"></path><path d="M234.9 535L349.8 532L336.8 433Z" fill="#00ff3e" stroke="#00ff3e"></path><path d="M334.8 871L329.8 976L444.8 980Z" fill="#00baaa" stroke="#00baaa"></path><path d="M338.8 108L328.8 214L449.8 224Z" fill="#008597" stroke="#008597"></path><path d="M234.9 422L234.9 535L336.8 433Z" fill="#008597" stroke="#008597"></path><path d="M234.9 422L336.8 433L334.8 334Z" fill="#00baaa" stroke="#00baaa"></path><path d="M1920 758L1816.1 763L1920 858Z" fill="#006b82" stroke="#006b82"></path><path d="M1816.1 763L1920 644L1800.1 654Z" fill="#00ff3e" stroke="#00ff3e"></path><path d="M1920 644L1920 543L1806.1 544Z" fill="#00baaa" stroke="#00baaa"></path><path d="M234.9 535L221.9 656L344.8 649Z" fill="#05263a" stroke="#05263a"></path><path d="M234.9 328L234.9 422L334.8 334Z" fill="#008597" stroke="#008597"></path><path d="M234.9 535L104.9 647L221.9 656Z" fill="#008597" stroke="#008597"></path><path d="M444.8 101L338.8 108L449.8 224Z" fill="#02536b" stroke="#02536b"></path><path d="M572.7 0L457.8 0L556.7 99Z" fill="#053b52" stroke="#053b52"></path><path d="M1920 858L1816.1 763L1803.1 864Z" fill="#00ea78" stroke="#00ea78"></path><path d="M1810.1 0L1696.1 0L1696.1 104Z" fill="#00a0a9" stroke="#00a0a9"></path><path d="M1696.1 104L1696.1 0L1577.2 0Z" fill="#00baaa" stroke="#00baaa"></path><path d="M1920 543L1920 420L1800.1 435Z" fill="#00a0a9" stroke="#00a0a9"></path><path d="M1809.1 213L1801.1 114L1690.1 212Z" fill="#05263a" stroke="#05263a"></path><path d="M221.9 656L222.9 760L337.8 746Z" fill="#053b52" stroke="#053b52"></path><path d="M1920 104L1801.1 114L1809.1 213Z" fill="#00d399" stroke="#00d399"></path><path d="M1689.1 1080L1811.1 1080L1797.1 974Z" fill="#00ea78" stroke="#00ea78"></path><path d="M1920 976L1920 858L1803.1 864Z" fill="#008597" stroke="#008597"></path><path d="M328.8 214L234.9 328L334.8 334Z" fill="#00ea78" stroke="#00ea78"></path><path d="M103.9 530L104.9 647L234.9 535Z" fill="#053b52" stroke="#053b52"></path><path d="M230.9 209L234.9 328L328.8 214Z" fill="#001122" stroke="#001122"></path><path d="M223.9 1080L330.8 1080L329.8 976Z" fill="#006b82" stroke="#006b82"></path><path d="M329.8 976L330.8 1080L444.8 980Z" fill="#00ea78" stroke="#00ea78"></path><path d="M347.8 0L338.8 108L444.8 101Z" fill="#00ea78" stroke="#00ea78"></path><path d="M222.9 760L226.9 857L337.8 746Z" fill="#00ff3e" stroke="#00ff3e"></path><path d="M1920 976L1803.1 864L1797.1 974Z" fill="#00baaa" stroke="#00baaa"></path><path d="M1920 420L1920 312L1796.1 331Z" fill="#008597" stroke="#008597"></path><path d="M226.9 857L227.9 968L334.8 871Z" fill="#008597" stroke="#008597"></path><path d="M114.9 861L227.9 968L226.9 857Z" fill="#00ea78" stroke="#00ea78"></path><path d="M1920 312L1920 226L1809.1 213Z" fill="#05263a" stroke="#05263a"></path><path d="M1801.1 114L1810.1 0L1696.1 104Z" fill="#00d399" stroke="#00d399"></path><path d="M1811.1 1080L1920 976L1797.1 974Z" fill="#006b82" stroke="#006b82"></path><path d="M338.8 108L230.9 209L328.8 214Z" fill="#00ff3e" stroke="#00ff3e"></path><path d="M114.9 443L234.9 535L234.9 422Z" fill="#00ea78" stroke="#00ea78"></path><path d="M457.8 0L347.8 0L444.8 101Z" fill="#00ff3e" stroke="#00ff3e"></path><path d="M338.8 108L233.9 96L230.9 209Z" fill="#008597" stroke="#008597"></path><path d="M1920 104L1810.1 0L1801.1 114Z" fill="#008597" stroke="#008597"></path><path d="M221.9 656L106.9 756L222.9 760Z" fill="#02536b" stroke="#02536b"></path><path d="M222.9 760L114.9 861L226.9 857Z" fill="#00baaa" stroke="#00baaa"></path><path d="M114.9 443L234.9 422L110.9 334Z" fill="#008597" stroke="#008597"></path><path d="M110.9 334L234.9 422L234.9 328Z" fill="#053b52" stroke="#053b52"></path><path d="M114.9 443L103.9 530L234.9 535Z" fill="#008597" stroke="#008597"></path><path d="M1811.1 1080L1920 1080L1920 976Z" fill="#00baaa" stroke="#00baaa"></path><path d="M123.9 982L223.9 1080L227.9 968Z" fill="#00ff3e" stroke="#00ff3e"></path><path d="M227.9 968L223.9 1080L329.8 976Z" fill="#053b52" stroke="#053b52"></path><path d="M104.9 647L106.9 756L221.9 656Z" fill="#001122" stroke="#001122"></path><path d="M347.8 0L233.9 96L338.8 108Z" fill="#00d399" stroke="#00d399"></path><path d="M123.9 208L110.9 334L234.9 328Z" fill="#053b52" stroke="#053b52"></path><path d="M1920 226L1920 104L1809.1 213Z" fill="#05263a" stroke="#05263a"></path><path d="M106.9 756L114.9 861L222.9 760Z" fill="#00d399" stroke="#00d399"></path><path d="M123.9 208L234.9 328L230.9 209Z" fill="#00d399" stroke="#00d399"></path><path d="M0 548L104.9 647L103.9 530Z" fill="#05263a" stroke="#05263a"></path><path d="M114.9 861L123.9 982L227.9 968Z" fill="#00a0a9" stroke="#00a0a9"></path><path d="M112.9 1080L123.9 982L0 1080Z" fill="#00baaa" stroke="#00baaa"></path><path d="M117.9 112L123.9 208L230.9 209Z" fill="#02536b" stroke="#02536b"></path><path d="M1920 104L1920 0L1810.1 0Z" fill="#00d399" stroke="#00d399"></path><path d="M347.8 0L221.9 0L233.9 96Z" fill="#001122" stroke="#001122"></path><path d="M233.9 96L117.9 112L230.9 209Z" fill="#05263a" stroke="#05263a"></path><path d="M119.9 0L117.9 112L233.9 96Z" fill="#00d399" stroke="#00d399"></path><path d="M0 427L114.9 443L110.9 334Z" fill="#00a0a9" stroke="#00a0a9"></path><path d="M0 548L103.9 530L0 427Z" fill="#00ea78" stroke="#00ea78"></path><path d="M0 965L123.9 982L114.9 861Z" fill="#00baaa" stroke="#00baaa"></path><path d="M123.9 982L112.9 1080L223.9 1080Z" fill="#00d399" stroke="#00d399"></path><path d="M104.9 647L0 648L106.9 756Z" fill="#00d399" stroke="#00d399"></path><path d="M106.9 756L0 757L114.9 861Z" fill="#001122" stroke="#001122"></path><path d="M0 548L0 648L104.9 647Z" fill="#00d399" stroke="#00d399"></path><path d="M103.9 530L114.9 443L0 427Z" fill="#02536b" stroke="#02536b"></path><path d="M0 427L110.9 334L0 334Z" fill="#008597" stroke="#008597"></path><path d="M0 648L0 757L106.9 756Z" fill="#00a0a9" stroke="#00a0a9"></path><path d="M0 334L110.9 334L0 213Z" fill="#00ea78" stroke="#00ea78"></path><path d="M0 213L110.9 334L123.9 208Z" fill="#00baaa" stroke="#00baaa"></path><path d="M0 757L0 871L114.9 861Z" fill="#053b52" stroke="#053b52"></path><path d="M221.9 0L119.9 0L233.9 96Z" fill="#02536b" stroke="#02536b"></path><path d="M117.9 112L0 213L123.9 208Z" fill="#00baaa" stroke="#00baaa"></path><path d="M0 871L0 965L114.9 861Z" fill="#053b52" stroke="#053b52"></path><path d="M0 114L0 213L117.9 112Z" fill="#05263a" stroke="#05263a"></path><path d="M0 965L0 1080L123.9 982Z" fill="#001122" stroke="#001122"></path><path d="M0 0L0 114L117.9 112Z" fill="#02536b" stroke="#02536b"></path><path d="M119.9 0L0 0L117.9 112Z" fill="#053b52" stroke="#053b52"></path></g></svg>