<svg id="visual" viewBox="0 0 960 540" width="960" height="540" xmlns="http://www.w3.org/2000/svg" xmlns:xlink="http://www.w3.org/1999/xlink" version="1.1"><g stroke-width="1" stroke-linejoin="bevel"><path d="M533 254.4L526 303.6L641 310.6Z" fill="#004181" stroke="#004181"></path><path d="M641 310.6L598 200.4L533 254.4Z" fill="#b362ff" stroke="#b362ff"></path><path d="M440 218.4L489 335.6L526 303.6Z" fill="#775edf" stroke="#775edf"></path><path d="M526 303.6L576 411.7L641 310.6Z" fill="#775edf" stroke="#775edf"></path><path d="M707 193.3L619 177.3L598 200.4Z" fill="#b362ff" stroke="#b362ff"></path><path d="M471 170.3L440 218.4L533 254.4Z" fill="#b362ff" stroke="#b362ff"></path><path d="M514 407.7L576 411.7L526 303.6Z" fill="#5258c6" stroke="#5258c6"></path><path d="M576 411.7L611 421.7L641 310.6Z" fill="#b362ff" stroke="#b362ff"></path><path d="M489 335.6L514 407.7L526 303.6Z" fill="#214b9d" stroke="#214b9d"></path><path d="M576 411.7L542 477.9L611 421.7Z" fill="#10468f" stroke="#10468f"></path><path d="M379 436.9L513 421.9L514 407.7Z" fill="#8a60ea" stroke="#8a60ea"></path><path d="M514 407.7L513 421.9L576 411.7Z" fill="#775edf" stroke="#775edf"></path><path d="M762 244.4L707 193.3L641 310.6Z" fill="#775edf" stroke="#775edf"></path><path d="M641 310.6L707 193.3L598 200.4Z" fill="#214b9d" stroke="#214b9d"></path><path d="M471 170.3L533 254.4L598 200.4Z" fill="#645bd3" stroke="#645bd3"></path><path d="M533 254.4L440 218.4L526 303.6Z" fill="#4154b9" stroke="#4154b9"></path><path d="M489 335.6L379 436.9L514 407.7Z" fill="#5258c6" stroke="#5258c6"></path><path d="M633 93.1L571 127.3L619 177.3Z" fill="#645bd3" stroke="#645bd3"></path><path d="M619 177.3L571 127.3L598 200.4Z" fill="#9e61f5" stroke="#9e61f5"></path><path d="M571 127.3L471 170.3L598 200.4Z" fill="#5258c6" stroke="#5258c6"></path><path d="M611 421.7L730 363.7L641 310.6Z" fill="#9e61f5" stroke="#9e61f5"></path><path d="M542 477.9L644 443.9L611 421.7Z" fill="#8a60ea" stroke="#8a60ea"></path><path d="M611 421.7L696 437.9L730 363.7Z" fill="#775edf" stroke="#775edf"></path><path d="M471 170.3L434 209.4L440 218.4Z" fill="#4154b9" stroke="#4154b9"></path><path d="M440 218.4L386 339.6L489 335.6Z" fill="#b362ff" stroke="#b362ff"></path><path d="M730 363.7L751 343.6L641 310.6Z" fill="#645bd3" stroke="#645bd3"></path><path d="M571 127.3L534 116.1L471 170.3Z" fill="#9e61f5" stroke="#9e61f5"></path><path d="M751 343.6L762 244.4L641 310.6Z" fill="#b362ff" stroke="#b362ff"></path><path d="M644 443.9L696 437.9L611 421.7Z" fill="#9e61f5" stroke="#9e61f5"></path><path d="M730 363.7L776 336.6L751 343.6Z" fill="#5258c6" stroke="#5258c6"></path><path d="M513 421.9L542 477.9L576 411.7Z" fill="#5258c6" stroke="#5258c6"></path><path d="M644 443.9L607 540L696 437.9Z" fill="#5258c6" stroke="#5258c6"></path><path d="M840 393.7L776 336.6L730 363.7Z" fill="#004181" stroke="#004181"></path><path d="M751 343.6L776 336.6L762 244.4Z" fill="#9e61f5" stroke="#9e61f5"></path><path d="M779 112.1L633 93.1L707 193.3Z" fill="#5258c6" stroke="#5258c6"></path><path d="M707 193.3L633 93.1L619 177.3Z" fill="#4154b9" stroke="#4154b9"></path><path d="M571 127.3L553 0L534 116.1Z" fill="#645bd3" stroke="#645bd3"></path><path d="M350 292.6L386 339.6L440 218.4Z" fill="#10468f" stroke="#10468f"></path><path d="M513 421.9L499 540L542 477.9Z" fill="#8a60ea" stroke="#8a60ea"></path><path d="M882 230.4L787 188.4L762 244.4Z" fill="#b362ff" stroke="#b362ff"></path><path d="M762 244.4L787 188.4L707 193.3Z" fill="#775edf" stroke="#775edf"></path><path d="M534 116.1L493 77.1L471 170.3Z" fill="#10468f" stroke="#10468f"></path><path d="M471 170.3L359 120.3L434 209.4Z" fill="#775edf" stroke="#775edf"></path><path d="M553 0L493 77.1L534 116.1Z" fill="#8a60ea" stroke="#8a60ea"></path><path d="M434 209.4L350 292.6L440 218.4Z" fill="#9e61f5" stroke="#9e61f5"></path><path d="M304 195.4L350 292.6L434 209.4Z" fill="#9e61f5" stroke="#9e61f5"></path><path d="M543 540L607 540L542 477.9Z" fill="#214b9d" stroke="#214b9d"></path><path d="M542 477.9L607 540L644 443.9Z" fill="#004181" stroke="#004181"></path><path d="M358 413.7L379 436.9L386 339.6Z" fill="#4154b9" stroke="#4154b9"></path><path d="M386 339.6L379 436.9L489 335.6Z" fill="#4154b9" stroke="#4154b9"></path><path d="M499 540L543 540L542 477.9Z" fill="#10468f" stroke="#10468f"></path><path d="M326 348.7L358 413.7L386 339.6Z" fill="#5258c6" stroke="#5258c6"></path><path d="M882 230.4L798 138.3L787 188.4Z" fill="#645bd3" stroke="#645bd3"></path><path d="M787 188.4L779 112.1L707 193.3Z" fill="#b362ff" stroke="#b362ff"></path><path d="M798 138.3L779 112.1L787 188.4Z" fill="#b362ff" stroke="#b362ff"></path><path d="M350 292.6L326 348.7L386 339.6Z" fill="#004181" stroke="#004181"></path><path d="M410 540L499 540L513 421.9Z" fill="#004181" stroke="#004181"></path><path d="M696 437.9L840 393.7L730 363.7Z" fill="#9e61f5" stroke="#9e61f5"></path><path d="M776 336.6L869 338.6L762 244.4Z" fill="#004181" stroke="#004181"></path><path d="M827 493.9L840 393.7L696 437.9Z" fill="#214b9d" stroke="#214b9d"></path><path d="M779 112.1L714 38.1L633 93.1Z" fill="#9e61f5" stroke="#9e61f5"></path><path d="M633 93.1L553 0L571 127.3Z" fill="#214b9d" stroke="#214b9d"></path><path d="M391 69.1L359 120.3L471 170.3Z" fill="#8a60ea" stroke="#8a60ea"></path><path d="M350 292.6L236 256.4L326 348.7Z" fill="#b362ff" stroke="#b362ff"></path><path d="M714 38.1L613 0L633 93.1Z" fill="#5258c6" stroke="#5258c6"></path><path d="M493 77.1L391 69.1L471 170.3Z" fill="#8a60ea" stroke="#8a60ea"></path><path d="M613 0L553 0L633 93.1Z" fill="#b362ff" stroke="#b362ff"></path><path d="M866 357.7L869 338.6L776 336.6Z" fill="#214b9d" stroke="#214b9d"></path><path d="M840 393.7L866 357.7L776 336.6Z" fill="#5258c6" stroke="#5258c6"></path><path d="M389 0L391 69.1L493 77.1Z" fill="#b362ff" stroke="#b362ff"></path><path d="M277 138.3L304 195.4L359 120.3Z" fill="#8a60ea" stroke="#8a60ea"></path><path d="M359 120.3L304 195.4L434 209.4Z" fill="#4154b9" stroke="#4154b9"></path><path d="M553 0L511 0L493 77.1Z" fill="#b362ff" stroke="#b362ff"></path><path d="M869 338.6L882 230.4L762 244.4Z" fill="#10468f" stroke="#10468f"></path><path d="M829 0L749 0L779 112.1Z" fill="#3150ab" stroke="#3150ab"></path><path d="M607 540L756 540L696 437.9Z" fill="#004181" stroke="#004181"></path><path d="M840 393.7L867 484.9L866 357.7Z" fill="#b362ff" stroke="#b362ff"></path><path d="M343 502.9L410 540L379 436.9Z" fill="#3150ab" stroke="#3150ab"></path><path d="M379 436.9L410 540L513 421.9Z" fill="#004181" stroke="#004181"></path><path d="M343 502.9L379 436.9L358 413.7Z" fill="#214b9d" stroke="#214b9d"></path><path d="M756 540L827 493.9L696 437.9Z" fill="#214b9d" stroke="#214b9d"></path><path d="M249 395.7L343 502.9L358 413.7Z" fill="#3150ab" stroke="#3150ab"></path><path d="M249 395.7L358 413.7L326 348.7Z" fill="#4154b9" stroke="#4154b9"></path><path d="M779 112.1L749 0L714 38.1Z" fill="#3150ab" stroke="#3150ab"></path><path d="M714 38.1L749 0L613 0Z" fill="#3150ab" stroke="#3150ab"></path><path d="M829 0L779 112.1L918 48.1Z" fill="#004181" stroke="#004181"></path><path d="M278 110.1L277 138.3L359 120.3Z" fill="#3150ab" stroke="#3150ab"></path><path d="M304 195.4L236 256.4L350 292.6Z" fill="#9e61f5" stroke="#9e61f5"></path><path d="M845 540L867 484.9L827 493.9Z" fill="#b362ff" stroke="#b362ff"></path><path d="M827 493.9L867 484.9L840 393.7Z" fill="#775edf" stroke="#775edf"></path><path d="M960 344.7L960 298.6L869 338.6Z" fill="#9e61f5" stroke="#9e61f5"></path><path d="M960 255.4L922 190.3L882 230.4Z" fill="#9e61f5" stroke="#9e61f5"></path><path d="M756 540L822 540L827 493.9Z" fill="#9e61f5" stroke="#9e61f5"></path><path d="M511 0L389 0L493 77.1Z" fill="#4154b9" stroke="#4154b9"></path><path d="M391 69.1L278 110.1L359 120.3Z" fill="#8a60ea" stroke="#8a60ea"></path><path d="M235 151.3L236 256.4L304 195.4Z" fill="#b362ff" stroke="#b362ff"></path><path d="M960 298.6L882 230.4L869 338.6Z" fill="#775edf" stroke="#775edf"></path><path d="M882 230.4L922 190.3L798 138.3Z" fill="#5258c6" stroke="#5258c6"></path><path d="M197 327.6L249 395.7L326 348.7Z" fill="#004181" stroke="#004181"></path><path d="M352 0L278 110.1L391 69.1Z" fill="#645bd3" stroke="#645bd3"></path><path d="M277 138.3L235 151.3L304 195.4Z" fill="#004181" stroke="#004181"></path><path d="M822 540L845 540L827 493.9Z" fill="#3150ab" stroke="#3150ab"></path><path d="M389 0L352 0L391 69.1Z" fill="#8a60ea" stroke="#8a60ea"></path><path d="M278 110.1L235 151.3L277 138.3Z" fill="#b362ff" stroke="#b362ff"></path><path d="M169 127.3L235 151.3L198 62.1Z" fill="#8a60ea" stroke="#8a60ea"></path><path d="M960 344.7L866 357.7L960 487.9Z" fill="#5258c6" stroke="#5258c6"></path><path d="M960 344.7L869 338.6L866 357.7Z" fill="#645bd3" stroke="#645bd3"></path><path d="M960 298.6L960 255.4L882 230.4Z" fill="#5258c6" stroke="#5258c6"></path><path d="M960 128.3L798 138.3L922 190.3Z" fill="#004181" stroke="#004181"></path><path d="M918 48.1L779 112.1L798 138.3Z" fill="#9e61f5" stroke="#9e61f5"></path><path d="M960 487.9L866 357.7L867 484.9Z" fill="#214b9d" stroke="#214b9d"></path><path d="M236 256.4L197 327.6L326 348.7Z" fill="#b362ff" stroke="#b362ff"></path><path d="M156 312.6L197 327.6L236 256.4Z" fill="#775edf" stroke="#775edf"></path><path d="M216 478.9L281 540L343 502.9Z" fill="#10468f" stroke="#10468f"></path><path d="M343 502.9L281 540L410 540Z" fill="#5258c6" stroke="#5258c6"></path><path d="M216 478.9L343 502.9L249 395.7Z" fill="#b362ff" stroke="#b362ff"></path><path d="M960 255.4L960 128.3L922 190.3Z" fill="#004181" stroke="#004181"></path><path d="M960 128.3L918 48.1L798 138.3Z" fill="#5258c6" stroke="#5258c6"></path><path d="M136 424.9L216 478.9L249 395.7Z" fill="#5258c6" stroke="#5258c6"></path><path d="M960 128.3L960 103.1L918 48.1Z" fill="#4154b9" stroke="#4154b9"></path><path d="M169 127.3L172 205.4L235 151.3Z" fill="#10468f" stroke="#10468f"></path><path d="M235 151.3L172 205.4L236 256.4Z" fill="#775edf" stroke="#775edf"></path><path d="M197 327.6L159 373.7L249 395.7Z" fill="#3150ab" stroke="#3150ab"></path><path d="M960 540L960 487.9L867 484.9Z" fill="#5258c6" stroke="#5258c6"></path><path d="M960 0L903 0L918 48.1Z" fill="#b362ff" stroke="#b362ff"></path><path d="M918 48.1L903 0L829 0Z" fill="#4154b9" stroke="#4154b9"></path><path d="M172 205.4L156 312.6L236 256.4Z" fill="#004181" stroke="#004181"></path><path d="M156 312.6L159 373.7L197 327.6Z" fill="#775edf" stroke="#775edf"></path><path d="M198 62.1L235 151.3L278 110.1Z" fill="#9e61f5" stroke="#9e61f5"></path><path d="M62 232.4L90 334.6L156 312.6Z" fill="#4154b9" stroke="#4154b9"></path><path d="M219 0L198 62.1L278 110.1Z" fill="#9e61f5" stroke="#9e61f5"></path><path d="M845 540L960 540L867 484.9Z" fill="#10468f" stroke="#10468f"></path><path d="M216 478.9L209 540L281 540Z" fill="#214b9d" stroke="#214b9d"></path><path d="M159 540L209 540L216 478.9Z" fill="#9e61f5" stroke="#9e61f5"></path><path d="M352 0L219 0L278 110.1Z" fill="#10468f" stroke="#10468f"></path><path d="M198 62.1L118 111.1L169 127.3Z" fill="#10468f" stroke="#10468f"></path><path d="M113 434.9L136 424.9L90 334.6Z" fill="#5258c6" stroke="#5258c6"></path><path d="M159 373.7L136 424.9L249 395.7Z" fill="#8a60ea" stroke="#8a60ea"></path><path d="M136 424.9L159 373.7L90 334.6Z" fill="#5258c6" stroke="#5258c6"></path><path d="M960 103.1L960 0L918 48.1Z" fill="#775edf" stroke="#775edf"></path><path d="M219 0L194 0L198 62.1Z" fill="#3150ab" stroke="#3150ab"></path><path d="M90 334.6L159 373.7L156 312.6Z" fill="#8a60ea" stroke="#8a60ea"></path><path d="M136 424.9L159 540L216 478.9Z" fill="#3150ab" stroke="#3150ab"></path><path d="M113 434.9L159 540L136 424.9Z" fill="#10468f" stroke="#10468f"></path><path d="M62 232.4L156 312.6L172 205.4Z" fill="#3150ab" stroke="#3150ab"></path><path d="M118 111.1L172 205.4L169 127.3Z" fill="#10468f" stroke="#10468f"></path><path d="M110 0L118 111.1L198 62.1Z" fill="#3150ab" stroke="#3150ab"></path><path d="M118 111.1L62 232.4L172 205.4Z" fill="#10468f" stroke="#10468f"></path><path d="M90 334.6L43 367.7L113 434.9Z" fill="#3150ab" stroke="#3150ab"></path><path d="M0 307.6L43 367.7L90 334.6Z" fill="#3150ab" stroke="#3150ab"></path><path d="M113 434.9L71 540L159 540Z" fill="#645bd3" stroke="#645bd3"></path><path d="M194 0L110 0L198 62.1Z" fill="#214b9d" stroke="#214b9d"></path><path d="M118 111.1L39 147.3L62 232.4Z" fill="#5258c6" stroke="#5258c6"></path><path d="M110 0L76 60.1L118 111.1Z" fill="#4154b9" stroke="#4154b9"></path><path d="M62 232.4L0 307.6L90 334.6Z" fill="#004181" stroke="#004181"></path><path d="M76 60.1L39 147.3L118 111.1Z" fill="#b362ff" stroke="#b362ff"></path><path d="M0 465.9L71 540L113 434.9Z" fill="#5258c6" stroke="#5258c6"></path><path d="M0 245.4L0 307.6L62 232.4Z" fill="#775edf" stroke="#775edf"></path><path d="M43 367.7L0 397.7L113 434.9Z" fill="#5258c6" stroke="#5258c6"></path><path d="M0 179.3L0 245.4L62 232.4Z" fill="#b362ff" stroke="#b362ff"></path><path d="M0 105.1L0 179.3L39 147.3Z" fill="#004181" stroke="#004181"></path><path d="M39 147.3L0 179.3L62 232.4Z" fill="#5258c6" stroke="#5258c6"></path><path d="M0 105.1L39 147.3L76 60.1Z" fill="#4154b9" stroke="#4154b9"></path><path d="M0 307.6L0 397.7L43 367.7Z" fill="#5258c6" stroke="#5258c6"></path><path d="M0 397.7L0 465.9L113 434.9Z" fill="#b362ff" stroke="#b362ff"></path><path d="M0 0L0 105.1L76 60.1Z" fill="#004181" stroke="#004181"></path><path d="M0 465.9L0 540L71 540Z" fill="#9e61f5" stroke="#9e61f5"></path><path d="M110 0L0 0L76 60.1Z" fill="#5258c6" stroke="#5258c6"></path></g></svg>