<svg id="visual" viewBox="0 0 1920 1080" width="1920" height="1080" xmlns="http://www.w3.org/2000/svg" xmlns:xlink="http://www.w3.org/1999/xlink" version="1.1"><g stroke-width="1" stroke-linejoin="bevel"><path d="M1027.5 551L1003.5 646L1122.4 648Z" fill="#05263a" stroke="#05263a"></path><path d="M1122.4 648L1124.4 521L1027.5 551Z" fill="#00d399" stroke="#00d399"></path><path d="M1003.5 646L1007.5 739L1122.4 648Z" fill="#00baaa" stroke="#00baaa"></path><path d="M1007.5 739L1146.4 749L1122.4 648Z" fill="#006b82" stroke="#006b82"></path><path d="M1122.4 648L1245.4 522L1124.4 521Z" fill="#053b52" stroke="#053b52"></path><path d="M887.5 550L892.5 655L1003.5 646Z" fill="#001122" stroke="#001122"></path><path d="M1003.5 646L892.5 655L1007.5 739Z" fill="#02536b" stroke="#02536b"></path><path d="M1146.4 749L1241.4 664L1122.4 648Z" fill="#00ff3e" stroke="#00ff3e"></path><path d="M908.5 448L887.5 550L1027.5 551Z" fill="#02536b" stroke="#02536b"></path><path d="M1027.5 551L887.5 550L1003.5 646Z" fill="#006b82" stroke="#006b82"></path><path d="M1124.4 521L1014.5 415L1027.5 551Z" fill="#00ea78" stroke="#00ea78"></path><path d="M1241.4 664L1245.4 522L1122.4 648Z" fill="#00d399" stroke="#00d399"></path><path d="M1124.4 521L1132.4 415L1014.5 415Z" fill="#006b82" stroke="#006b82"></path><path d="M1236.4 434L1132.4 415L1124.4 521Z" fill="#00a0a9" stroke="#00a0a9"></path><path d="M892.5 655L915.5 771L1007.5 739Z" fill="#053b52" stroke="#053b52"></path><path d="M1007.5 739L1128.4 863L1146.4 749Z" fill="#008597" stroke="#008597"></path><path d="M1228.4 852L1241.4 746L1146.4 749Z" fill="#00ea78" stroke="#00ea78"></path><path d="M1146.4 749L1241.4 746L1241.4 664Z" fill="#00ff3e" stroke="#00ff3e"></path><path d="M1367.3 636L1350.3 521L1245.4 522Z" fill="#008597" stroke="#008597"></path><path d="M1014.5 415L908.5 448L1027.5 551Z" fill="#00baaa" stroke="#00baaa"></path><path d="M1245.4 522L1236.4 434L1124.4 521Z" fill="#00ff3e" stroke="#00ff3e"></path><path d="M1002.5 880L1128.4 863L1007.5 739Z" fill="#02536b" stroke="#02536b"></path><path d="M887.5 550L801.6 648L892.5 655Z" fill="#053b52" stroke="#053b52"></path><path d="M892.5 655L796.6 737L915.5 771Z" fill="#00ff3e" stroke="#00ff3e"></path><path d="M786.6 553L801.6 648L887.5 550Z" fill="#00ff3e" stroke="#00ff3e"></path><path d="M890.5 869L1002.5 880L915.5 771Z" fill="#006b82" stroke="#006b82"></path><path d="M915.5 771L1002.5 880L1007.5 739Z" fill="#02536b" stroke="#02536b"></path><path d="M1144.4 310L1033.5 330L1132.4 415Z" fill="#00a0a9" stroke="#00a0a9"></path><path d="M1132.4 415L1033.5 330L1014.5 415Z" fill="#00baaa" stroke="#00baaa"></path><path d="M1014.5 415L891.5 323L908.5 448Z" fill="#00d399" stroke="#00d399"></path><path d="M806.6 441L887.5 550L908.5 448Z" fill="#02536b" stroke="#02536b"></path><path d="M806.6 441L786.6 553L887.5 550Z" fill="#053b52" stroke="#053b52"></path><path d="M1128.4 863L1228.4 852L1146.4 749Z" fill="#05263a" stroke="#05263a"></path><path d="M1227.4 951L1228.4 852L1128.4 863Z" fill="#00a0a9" stroke="#00a0a9"></path><path d="M680.6 739L796.6 737L801.6 648Z" fill="#05263a" stroke="#05263a"></path><path d="M801.6 648L796.6 737L892.5 655Z" fill="#05263a" stroke="#05263a"></path><path d="M1367.3 636L1245.4 522L1241.4 664Z" fill="#00ff3e" stroke="#00ff3e"></path><path d="M1245.4 522L1352.3 438L1236.4 434Z" fill="#00baaa" stroke="#00baaa"></path><path d="M1367.3 636L1241.4 664L1341.3 744Z" fill="#05263a" stroke="#05263a"></path><path d="M1341.3 744L1241.4 664L1241.4 746Z" fill="#006b82" stroke="#006b82"></path><path d="M891.5 323L806.6 441L908.5 448Z" fill="#00d399" stroke="#00d399"></path><path d="M1228.4 852L1341.3 744L1241.4 746Z" fill="#006b82" stroke="#006b82"></path><path d="M796.6 737L890.5 869L915.5 771Z" fill="#006b82" stroke="#006b82"></path><path d="M1247.4 326L1132.4 415L1236.4 434Z" fill="#006b82" stroke="#006b82"></path><path d="M1247.4 326L1144.4 310L1132.4 415Z" fill="#00d399" stroke="#00d399"></path><path d="M1005.5 226L891.5 323L1033.5 330Z" fill="#02536b" stroke="#02536b"></path><path d="M1033.5 330L891.5 323L1014.5 415Z" fill="#00ea78" stroke="#00ea78"></path><path d="M1448.2 427L1352.3 438L1350.3 521Z" fill="#00ff3e" stroke="#00ff3e"></path><path d="M1350.3 521L1352.3 438L1245.4 522Z" fill="#006b82" stroke="#006b82"></path><path d="M1352.3 438L1247.4 326L1236.4 434Z" fill="#05263a" stroke="#05263a"></path><path d="M1000.5 980L1126.4 956L1002.5 880Z" fill="#05263a" stroke="#05263a"></path><path d="M1002.5 880L1126.4 956L1128.4 863Z" fill="#00baaa" stroke="#00baaa"></path><path d="M1228.4 852L1373.3 876L1341.3 744Z" fill="#008597" stroke="#008597"></path><path d="M796.6 737L805.6 880L890.5 869Z" fill="#00d399" stroke="#00d399"></path><path d="M898.5 991L1000.5 980L1002.5 880Z" fill="#006b82" stroke="#006b82"></path><path d="M898.5 991L1002.5 880L890.5 869Z" fill="#008597" stroke="#008597"></path><path d="M1346.3 972L1227.4 951L1232.4 1080Z" fill="#053b52" stroke="#053b52"></path><path d="M1126.4 956L1227.4 951L1128.4 863Z" fill="#05263a" stroke="#05263a"></path><path d="M670.6 525L677.6 628L786.6 553Z" fill="#006b82" stroke="#006b82"></path><path d="M786.6 553L677.6 628L801.6 648Z" fill="#00baaa" stroke="#00baaa"></path><path d="M796.6 737L675.6 877L805.6 880Z" fill="#00d399" stroke="#00d399"></path><path d="M1140.4 223L1033.5 330L1144.4 310Z" fill="#05263a" stroke="#05263a"></path><path d="M1140.4 223L1005.5 226L1033.5 330Z" fill="#05263a" stroke="#05263a"></path><path d="M891.5 323L792.6 326L806.6 441Z" fill="#053b52" stroke="#053b52"></path><path d="M806.6 441L670.6 525L786.6 553Z" fill="#008597" stroke="#008597"></path><path d="M808.6 198L792.6 326L891.5 323Z" fill="#00baaa" stroke="#00baaa"></path><path d="M1254.4 210L1140.4 223L1144.4 310Z" fill="#001122" stroke="#001122"></path><path d="M1487.2 643L1456.2 555L1367.3 636Z" fill="#00baaa" stroke="#00baaa"></path><path d="M1367.3 636L1456.2 555L1350.3 521Z" fill="#00baaa" stroke="#00baaa"></path><path d="M1487.2 643L1367.3 636L1485.2 736Z" fill="#00ea78" stroke="#00ea78"></path><path d="M696.6 420L670.6 525L806.6 441Z" fill="#053b52" stroke="#053b52"></path><path d="M675.6 877L680.6 739L549.7 756Z" fill="#00d399" stroke="#00d399"></path><path d="M677.6 628L680.6 739L801.6 648Z" fill="#00ea78" stroke="#00ea78"></path><path d="M1227.4 951L1373.3 876L1228.4 852Z" fill="#008597" stroke="#008597"></path><path d="M792.6 326L696.6 420L806.6 441Z" fill="#006b82" stroke="#006b82"></path><path d="M776.6 957L898.5 991L805.6 880Z" fill="#00baaa" stroke="#00baaa"></path><path d="M805.6 880L898.5 991L890.5 869Z" fill="#00a0a9" stroke="#00a0a9"></path><path d="M1485.2 736L1367.3 636L1341.3 744Z" fill="#00a0a9" stroke="#00a0a9"></path><path d="M1456.2 555L1448.2 427L1350.3 521Z" fill="#006b82" stroke="#006b82"></path><path d="M1352.3 438L1374.3 318L1247.4 326Z" fill="#00baaa" stroke="#00baaa"></path><path d="M1247.4 326L1254.4 210L1144.4 310Z" fill="#00baaa" stroke="#00baaa"></path><path d="M1482.2 327L1448.2 427L1574.2 441Z" fill="#001122" stroke="#001122"></path><path d="M1448.2 427L1374.3 318L1352.3 438Z" fill="#006b82" stroke="#006b82"></path><path d="M1373.3 876L1485.2 736L1341.3 744Z" fill="#008597" stroke="#008597"></path><path d="M1374.3 318L1254.4 210L1247.4 326Z" fill="#00ff3e" stroke="#00ff3e"></path><path d="M921.5 100L888.5 200L1005.5 226Z" fill="#00a0a9" stroke="#00a0a9"></path><path d="M1132.4 128L1005.5 226L1140.4 223Z" fill="#008597" stroke="#008597"></path><path d="M1005.5 226L888.5 200L891.5 323Z" fill="#05263a" stroke="#05263a"></path><path d="M792.6 326L688.6 317L696.6 420Z" fill="#006b82" stroke="#006b82"></path><path d="M675.6 877L776.6 957L805.6 880Z" fill="#006b82" stroke="#006b82"></path><path d="M1227.4 951L1346.3 972L1373.3 876Z" fill="#001122" stroke="#001122"></path><path d="M1373.3 876L1462.2 878L1485.2 736Z" fill="#006b82" stroke="#006b82"></path><path d="M1130.4 1080L1227.4 951L1126.4 956Z" fill="#00d399" stroke="#00d399"></path><path d="M1130.4 1080L1126.4 956L1000.5 980Z" fill="#008597" stroke="#008597"></path><path d="M584.7 665L680.6 739L677.6 628Z" fill="#053b52" stroke="#053b52"></path><path d="M680.6 739L675.6 877L796.6 737Z" fill="#053b52" stroke="#053b52"></path><path d="M916.5 1080L1000.5 980L898.5 991Z" fill="#05263a" stroke="#05263a"></path><path d="M916.5 1080L1008.5 1080L1000.5 980Z" fill="#00d399" stroke="#00d399"></path><path d="M1008.5 1080L1130.4 1080L1000.5 980Z" fill="#053b52" stroke="#053b52"></path><path d="M678.6 220L688.6 317L792.6 326Z" fill="#053b52" stroke="#053b52"></path><path d="M577.7 442L571.7 542L670.6 525Z" fill="#00d399" stroke="#00d399"></path><path d="M1485.2 955L1462.2 878L1373.3 876Z" fill="#00baaa" stroke="#00baaa"></path><path d="M571.7 542L677.6 628L670.6 525Z" fill="#00ea78" stroke="#00ea78"></path><path d="M571.7 542L584.7 665L677.6 628Z" fill="#02536b" stroke="#02536b"></path><path d="M888.5 200L808.6 198L891.5 323Z" fill="#00d399" stroke="#00d399"></path><path d="M1254.4 210L1132.4 128L1140.4 223Z" fill="#008597" stroke="#008597"></path><path d="M888.5 200L808.6 108L808.6 198Z" fill="#00a0a9" stroke="#00a0a9"></path><path d="M791.6 1080L898.5 991L776.6 957Z" fill="#02536b" stroke="#02536b"></path><path d="M791.6 1080L916.5 1080L898.5 991Z" fill="#001122" stroke="#001122"></path><path d="M577.7 442L670.6 525L696.6 420Z" fill="#00a0a9" stroke="#00a0a9"></path><path d="M1130.4 1080L1232.4 1080L1227.4 951Z" fill="#001122" stroke="#001122"></path><path d="M1346.3 972L1485.2 955L1373.3 876Z" fill="#00ff3e" stroke="#00ff3e"></path><path d="M1132.4 128L1013.5 113L1005.5 226Z" fill="#02536b" stroke="#02536b"></path><path d="M1448.2 427L1482.2 327L1374.3 318Z" fill="#02536b" stroke="#02536b"></path><path d="M1374.3 318L1361.3 199L1254.4 210Z" fill="#006b82" stroke="#006b82"></path><path d="M1254.4 210L1242.4 95L1132.4 128Z" fill="#02536b" stroke="#02536b"></path><path d="M1574.2 441L1448.2 427L1456.2 555Z" fill="#02536b" stroke="#02536b"></path><path d="M1456.2 199L1361.3 199L1374.3 318Z" fill="#00ea78" stroke="#00ea78"></path><path d="M1485.2 736L1574.2 633L1487.2 643Z" fill="#00d399" stroke="#00d399"></path><path d="M1487.2 643L1574.2 633L1456.2 555Z" fill="#001122" stroke="#001122"></path><path d="M1591.2 738L1574.2 633L1485.2 736Z" fill="#05263a" stroke="#05263a"></path><path d="M579.7 325L577.7 442L696.6 420Z" fill="#006b82" stroke="#006b82"></path><path d="M1011.5 0L921.5 100L1013.5 113Z" fill="#001122" stroke="#001122"></path><path d="M1013.5 113L921.5 100L1005.5 226Z" fill="#001122" stroke="#001122"></path><path d="M1574.2 633L1592.2 540L1456.2 555Z" fill="#006b82" stroke="#006b82"></path><path d="M461.8 640L549.7 756L584.7 665Z" fill="#053b52" stroke="#053b52"></path><path d="M584.7 665L549.7 756L680.6 739Z" fill="#053b52" stroke="#053b52"></path><path d="M461.8 640L584.7 665L571.7 542Z" fill="#00baaa" stroke="#00baaa"></path><path d="M1592.2 540L1574.2 441L1456.2 555Z" fill="#001122" stroke="#001122"></path><path d="M580.7 961L677.6 990L675.6 877Z" fill="#00a0a9" stroke="#00a0a9"></path><path d="M675.6 877L677.6 990L776.6 957Z" fill="#001122" stroke="#001122"></path><path d="M677.6 990L791.6 1080L776.6 957Z" fill="#00baaa" stroke="#00baaa"></path><path d="M1599.2 848L1591.2 738L1485.2 736Z" fill="#00ea78" stroke="#00ea78"></path><path d="M1699.1 627L1681.1 533L1592.2 540Z" fill="#008597" stroke="#008597"></path><path d="M1450.2 1080L1485.2 955L1346.3 972Z" fill="#00d399" stroke="#00d399"></path><path d="M1462.2 878L1599.2 848L1485.2 736Z" fill="#00a0a9" stroke="#00a0a9"></path><path d="M1361.3 199L1242.4 95L1254.4 210Z" fill="#05263a" stroke="#05263a"></path><path d="M1123.4 0L1011.5 0L1013.5 113Z" fill="#053b52" stroke="#053b52"></path><path d="M808.6 198L678.6 220L792.6 326Z" fill="#053b52" stroke="#053b52"></path><path d="M688.6 317L579.7 325L696.6 420Z" fill="#00ff3e" stroke="#00ff3e"></path><path d="M676.6 94L678.6 220L808.6 198Z" fill="#00baaa" stroke="#00baaa"></path><path d="M1232.4 1080L1352.3 1080L1346.3 972Z" fill="#053b52" stroke="#053b52"></path><path d="M678.6 220L579.7 325L688.6 317Z" fill="#00d399" stroke="#00d399"></path><path d="M577.7 442L467.8 540L571.7 542Z" fill="#00baaa" stroke="#00baaa"></path><path d="M921.5 100L808.6 108L888.5 200Z" fill="#00ea78" stroke="#00ea78"></path><path d="M1482.2 327L1456.2 199L1374.3 318Z" fill="#00a0a9" stroke="#00a0a9"></path><path d="M1361.3 199L1374.3 108L1242.4 95Z" fill="#00ff3e" stroke="#00ff3e"></path><path d="M1598.2 206L1456.2 199L1482.2 327Z" fill="#001122" stroke="#001122"></path><path d="M549.7 756L561.7 884L675.6 877Z" fill="#00a0a9" stroke="#00a0a9"></path><path d="M1485.2 955L1599.2 848L1462.2 878Z" fill="#05263a" stroke="#05263a"></path><path d="M1699.1 627L1592.2 540L1574.2 633Z" fill="#00ff3e" stroke="#00ff3e"></path><path d="M1571.2 974L1599.2 848L1485.2 955Z" fill="#00ff3e" stroke="#00ff3e"></path><path d="M1456.2 199L1374.3 108L1361.3 199Z" fill="#001122" stroke="#001122"></path><path d="M561.7 884L580.7 961L675.6 877Z" fill="#00d399" stroke="#00d399"></path><path d="M677.6 990L674.6 1080L791.6 1080Z" fill="#006b82" stroke="#006b82"></path><path d="M431.8 421L467.8 540L577.7 442Z" fill="#001122" stroke="#001122"></path><path d="M549.7 756L465.8 860L561.7 884Z" fill="#00a0a9" stroke="#00a0a9"></path><path d="M561.7 884L430.8 958L580.7 961Z" fill="#001122" stroke="#001122"></path><path d="M467.8 540L461.8 640L571.7 542Z" fill="#00a0a9" stroke="#00a0a9"></path><path d="M1697.1 420L1596.2 322L1574.2 441Z" fill="#001122" stroke="#001122"></path><path d="M1574.2 441L1596.2 322L1482.2 327Z" fill="#006b82" stroke="#006b82"></path><path d="M1456.2 199L1473.2 108L1374.3 108Z" fill="#00baaa" stroke="#00baaa"></path><path d="M1681.1 533L1574.2 441L1592.2 540Z" fill="#00baaa" stroke="#00baaa"></path><path d="M1352.3 1080L1450.2 1080L1346.3 972Z" fill="#05263a" stroke="#05263a"></path><path d="M553.7 1080L674.6 1080L677.6 990Z" fill="#02536b" stroke="#02536b"></path><path d="M1123.4 0L1132.4 128L1242.4 95Z" fill="#053b52" stroke="#053b52"></path><path d="M1123.4 0L1013.5 113L1132.4 128Z" fill="#00ea78" stroke="#00ea78"></path><path d="M921.5 100L889.5 0L808.6 108Z" fill="#006b82" stroke="#006b82"></path><path d="M1226.4 0L1123.4 0L1242.4 95Z" fill="#008597" stroke="#008597"></path><path d="M1699.1 627L1574.2 633L1591.2 738Z" fill="#00ea78" stroke="#00ea78"></path><path d="M1450.2 1080L1571.2 974L1485.2 955Z" fill="#00ea78" stroke="#00ea78"></path><path d="M1688.1 741L1699.1 627L1591.2 738Z" fill="#00ea78" stroke="#00ea78"></path><path d="M1353.3 0L1226.4 0L1242.4 95Z" fill="#00a0a9" stroke="#00a0a9"></path><path d="M1011.5 0L889.5 0L921.5 100Z" fill="#00d399" stroke="#00d399"></path><path d="M808.6 108L676.6 94L808.6 198Z" fill="#001122" stroke="#001122"></path><path d="M1688.1 741L1591.2 738L1599.2 848Z" fill="#02536b" stroke="#02536b"></path><path d="M1709.1 871L1688.1 741L1599.2 848Z" fill="#00ff3e" stroke="#00ff3e"></path><path d="M351.8 647L431.8 739L461.8 640Z" fill="#008597" stroke="#008597"></path><path d="M461.8 640L431.8 739L549.7 756Z" fill="#001122" stroke="#001122"></path><path d="M780.6 0L676.6 94L808.6 108Z" fill="#006b82" stroke="#006b82"></path><path d="M678.6 220L549.7 210L579.7 325Z" fill="#006b82" stroke="#006b82"></path><path d="M465.8 317L431.8 421L577.7 442Z" fill="#00a0a9" stroke="#00a0a9"></path><path d="M431.8 739L465.8 860L549.7 756Z" fill="#001122" stroke="#001122"></path><path d="M580.7 961L553.7 1080L677.6 990Z" fill="#00d399" stroke="#00d399"></path><path d="M1598.2 206L1473.2 108L1456.2 199Z" fill="#00baaa" stroke="#00baaa"></path><path d="M1374.3 108L1353.3 0L1242.4 95Z" fill="#00ea78" stroke="#00ea78"></path><path d="M581.7 127L549.7 210L678.6 220Z" fill="#00baaa" stroke="#00baaa"></path><path d="M465.8 317L577.7 442L579.7 325Z" fill="#00baaa" stroke="#00baaa"></path><path d="M467.8 540L351.8 647L461.8 640Z" fill="#008597" stroke="#008597"></path><path d="M1681.1 533L1697.1 420L1574.2 441Z" fill="#001122" stroke="#001122"></path><path d="M1596.2 322L1598.2 206L1482.2 327Z" fill="#00baaa" stroke="#00baaa"></path><path d="M1796.1 417L1697.1 420L1681.1 533Z" fill="#00ea78" stroke="#00ea78"></path><path d="M549.7 210L465.8 317L579.7 325Z" fill="#00baaa" stroke="#00baaa"></path><path d="M1673.1 225L1598.2 206L1596.2 322Z" fill="#00ff3e" stroke="#00ff3e"></path><path d="M889.5 0L780.6 0L808.6 108Z" fill="#00d399" stroke="#00d399"></path><path d="M1465.2 0L1353.3 0L1374.3 108Z" fill="#00baaa" stroke="#00baaa"></path><path d="M1465.2 0L1374.3 108L1473.2 108Z" fill="#02536b" stroke="#02536b"></path><path d="M676.6 94L581.7 127L678.6 220Z" fill="#00a0a9" stroke="#00a0a9"></path><path d="M549.7 210L459.8 227L465.8 317Z" fill="#053b52" stroke="#053b52"></path><path d="M546.7 0L581.7 127L676.6 94Z" fill="#00ff3e" stroke="#00ff3e"></path><path d="M1697.1 420L1685.1 314L1596.2 322Z" fill="#00ff3e" stroke="#00ff3e"></path><path d="M459.8 1080L553.7 1080L580.7 961Z" fill="#00baaa" stroke="#00baaa"></path><path d="M1707.1 951L1709.1 871L1599.2 848Z" fill="#00a0a9" stroke="#00a0a9"></path><path d="M1815.1 647L1787.1 559L1699.1 627Z" fill="#00a0a9" stroke="#00a0a9"></path><path d="M1699.1 627L1787.1 559L1681.1 533Z" fill="#008597" stroke="#008597"></path><path d="M1707.1 951L1599.2 848L1571.2 974Z" fill="#00d399" stroke="#00d399"></path><path d="M1450.2 1080L1580.2 1080L1571.2 974Z" fill="#006b82" stroke="#006b82"></path><path d="M325.8 537L351.8 647L467.8 540Z" fill="#00baaa" stroke="#00baaa"></path><path d="M324.8 870L430.8 958L465.8 860Z" fill="#00ea78" stroke="#00ea78"></path><path d="M465.8 860L430.8 958L561.7 884Z" fill="#00d399" stroke="#00d399"></path><path d="M325.8 537L467.8 540L431.8 421Z" fill="#00ea78" stroke="#00ea78"></path><path d="M444.8 93L459.8 227L549.7 210Z" fill="#053b52" stroke="#053b52"></path><path d="M465.8 317L343.8 415L431.8 421Z" fill="#02536b" stroke="#02536b"></path><path d="M780.6 0L688.6 0L676.6 94Z" fill="#006b82" stroke="#006b82"></path><path d="M581.7 127L444.8 93L549.7 210Z" fill="#00baaa" stroke="#00baaa"></path><path d="M1685.1 314L1673.1 225L1596.2 322Z" fill="#008597" stroke="#008597"></path><path d="M1598.2 206L1592.2 111L1473.2 108Z" fill="#00ea78" stroke="#00ea78"></path><path d="M324.8 870L465.8 860L431.8 739Z" fill="#00d399" stroke="#00d399"></path><path d="M1815.1 647L1699.1 627L1688.1 741Z" fill="#00ff3e" stroke="#00ff3e"></path><path d="M1697.1 420L1795.1 324L1685.1 314Z" fill="#05263a" stroke="#05263a"></path><path d="M1685.1 314L1787.1 229L1673.1 225Z" fill="#00baaa" stroke="#00baaa"></path><path d="M1673.1 225L1592.2 111L1598.2 206Z" fill="#00ea78" stroke="#00ea78"></path><path d="M1688.1 1080L1707.1 951L1571.2 974Z" fill="#05263a" stroke="#05263a"></path><path d="M1810.1 741L1815.1 647L1688.1 741Z" fill="#00ea78" stroke="#00ea78"></path><path d="M1592.2 0L1465.2 0L1473.2 108Z" fill="#00ea78" stroke="#00ea78"></path><path d="M343.8 415L325.8 537L431.8 421Z" fill="#00ea78" stroke="#00ea78"></path><path d="M319.8 313L343.8 415L465.8 317Z" fill="#05263a" stroke="#05263a"></path><path d="M1810.1 741L1688.1 741L1709.1 871Z" fill="#001122" stroke="#001122"></path><path d="M1787.1 559L1796.1 417L1681.1 533Z" fill="#00d399" stroke="#00d399"></path><path d="M1920 533L1796.1 417L1787.1 559Z" fill="#00baaa" stroke="#00baaa"></path><path d="M1816.1 853L1810.1 741L1709.1 871Z" fill="#00ff3e" stroke="#00ff3e"></path><path d="M235.9 745L317.8 764L351.8 647Z" fill="#001122" stroke="#001122"></path><path d="M351.8 647L317.8 764L431.8 739Z" fill="#00ea78" stroke="#00ea78"></path><path d="M341.8 971L459.8 1080L430.8 958Z" fill="#00ff3e" stroke="#00ff3e"></path><path d="M430.8 958L459.8 1080L580.7 961Z" fill="#053b52" stroke="#053b52"></path><path d="M1580.2 1080L1688.1 1080L1571.2 974Z" fill="#00a0a9" stroke="#00a0a9"></path><path d="M1707.1 951L1816.1 853L1709.1 871Z" fill="#05263a" stroke="#05263a"></path><path d="M317.8 764L324.8 870L431.8 739Z" fill="#00ea78" stroke="#00ea78"></path><path d="M1920 317L1795.1 324L1796.1 417Z" fill="#00a0a9" stroke="#00a0a9"></path><path d="M1796.1 417L1795.1 324L1697.1 420Z" fill="#00d399" stroke="#00d399"></path><path d="M1681.1 0L1592.2 0L1592.2 111Z" fill="#008597" stroke="#008597"></path><path d="M1820.1 991L1816.1 853L1707.1 951Z" fill="#053b52" stroke="#053b52"></path><path d="M1810.1 741L1920 653L1815.1 647Z" fill="#00ff3e" stroke="#00ff3e"></path><path d="M688.6 0L546.7 0L676.6 94Z" fill="#00d399" stroke="#00d399"></path><path d="M459.8 227L319.8 313L465.8 317Z" fill="#00baaa" stroke="#00baaa"></path><path d="M328.8 199L319.8 313L459.8 227Z" fill="#006b82" stroke="#006b82"></path><path d="M208.9 442L221.9 550L325.8 537Z" fill="#008597" stroke="#008597"></path><path d="M204.9 655L235.9 745L351.8 647Z" fill="#001122" stroke="#001122"></path><path d="M324.8 870L341.8 971L430.8 958Z" fill="#05263a" stroke="#05263a"></path><path d="M546.7 0L444.8 93L581.7 127Z" fill="#00ff3e" stroke="#00ff3e"></path><path d="M1713.1 101L1592.2 111L1673.1 225Z" fill="#05263a" stroke="#05263a"></path><path d="M1592.2 111L1592.2 0L1473.2 108Z" fill="#00baaa" stroke="#00baaa"></path><path d="M1795.1 324L1787.1 229L1685.1 314Z" fill="#00baaa" stroke="#00baaa"></path><path d="M1787.1 229L1713.1 101L1673.1 225Z" fill="#053b52" stroke="#053b52"></path><path d="M317.8 764L210.9 875L324.8 870Z" fill="#00a0a9" stroke="#00a0a9"></path><path d="M324.8 870L230.9 982L341.8 971Z" fill="#00ff3e" stroke="#00ff3e"></path><path d="M221.9 550L351.8 647L325.8 537Z" fill="#00baaa" stroke="#00baaa"></path><path d="M358.8 113L328.8 199L459.8 227Z" fill="#006b82" stroke="#006b82"></path><path d="M208.9 442L325.8 537L343.8 415Z" fill="#05263a" stroke="#05263a"></path><path d="M208.9 442L343.8 415L319.8 313Z" fill="#053b52" stroke="#053b52"></path><path d="M1796.1 1080L1820.1 991L1707.1 951Z" fill="#008597" stroke="#008597"></path><path d="M1920 752L1920 653L1810.1 741Z" fill="#02536b" stroke="#02536b"></path><path d="M444.8 93L358.8 113L459.8 227Z" fill="#008597" stroke="#008597"></path><path d="M546.7 0L467.8 0L444.8 93Z" fill="#05263a" stroke="#05263a"></path><path d="M1920 752L1810.1 741L1816.1 853Z" fill="#053b52" stroke="#053b52"></path><path d="M1815.1 647L1920 533L1787.1 559Z" fill="#008597" stroke="#008597"></path><path d="M1795.1 324L1920 232L1787.1 229Z" fill="#05263a" stroke="#05263a"></path><path d="M221.9 550L204.9 655L351.8 647Z" fill="#02536b" stroke="#02536b"></path><path d="M1920 653L1920 533L1815.1 647Z" fill="#00baaa" stroke="#00baaa"></path><path d="M321.8 0L358.8 113L444.8 93Z" fill="#05263a" stroke="#05263a"></path><path d="M1920 884L1920 752L1816.1 853Z" fill="#001122" stroke="#001122"></path><path d="M1791.1 0L1681.1 0L1713.1 101Z" fill="#00baaa" stroke="#00baaa"></path><path d="M1713.1 101L1681.1 0L1592.2 111Z" fill="#053b52" stroke="#053b52"></path><path d="M1688.1 1080L1796.1 1080L1707.1 951Z" fill="#00d399" stroke="#00d399"></path><path d="M1820.1 991L1920 884L1816.1 853Z" fill="#00ea78" stroke="#00ea78"></path><path d="M216.9 304L208.9 442L319.8 313Z" fill="#00ff3e" stroke="#00ff3e"></path><path d="M221.9 550L118.9 644L204.9 655Z" fill="#00ea78" stroke="#00ea78"></path><path d="M216.9 304L319.8 313L234.9 233Z" fill="#02536b" stroke="#02536b"></path><path d="M1920 533L1920 431L1796.1 417Z" fill="#00baaa" stroke="#00baaa"></path><path d="M1787.1 229L1818.1 107L1713.1 101Z" fill="#006b82" stroke="#006b82"></path><path d="M230.9 982L319.8 1080L341.8 971Z" fill="#05263a" stroke="#05263a"></path><path d="M341.8 971L319.8 1080L459.8 1080Z" fill="#053b52" stroke="#053b52"></path><path d="M210.9 875L317.8 764L235.9 745Z" fill="#00d399" stroke="#00d399"></path><path d="M127.9 847L210.9 875L235.9 745Z" fill="#008597" stroke="#008597"></path><path d="M1920 983L1920 884L1820.1 991Z" fill="#053b52" stroke="#053b52"></path><path d="M234.9 233L319.8 313L328.8 199Z" fill="#02536b" stroke="#02536b"></path><path d="M1920 431L1920 317L1796.1 417Z" fill="#00ea78" stroke="#00ea78"></path><path d="M1920 232L1818.1 107L1787.1 229Z" fill="#05263a" stroke="#05263a"></path><path d="M221.9 118L328.8 199L358.8 113Z" fill="#001122" stroke="#001122"></path><path d="M221.9 118L234.9 233L328.8 199Z" fill="#05263a" stroke="#05263a"></path><path d="M210.9 875L230.9 982L324.8 870Z" fill="#053b52" stroke="#053b52"></path><path d="M1920 1080L1920 983L1820.1 991Z" fill="#02536b" stroke="#02536b"></path><path d="M1920 317L1920 232L1795.1 324Z" fill="#008597" stroke="#008597"></path><path d="M204.9 655L101.9 755L235.9 745Z" fill="#00a0a9" stroke="#00a0a9"></path><path d="M210.9 875L131.9 991L230.9 982Z" fill="#00baaa" stroke="#00baaa"></path><path d="M109.9 522L118.9 644L221.9 550Z" fill="#05263a" stroke="#05263a"></path><path d="M109.9 522L221.9 550L208.9 442Z" fill="#006b82" stroke="#006b82"></path><path d="M109.9 522L208.9 442L95.9 434Z" fill="#00d399" stroke="#00d399"></path><path d="M1920 0L1791.1 0L1818.1 107Z" fill="#00ea78" stroke="#00ea78"></path><path d="M1818.1 107L1791.1 0L1713.1 101Z" fill="#00d399" stroke="#00d399"></path><path d="M95.9 434L208.9 442L92.9 316Z" fill="#00a0a9" stroke="#00a0a9"></path><path d="M467.8 0L321.8 0L444.8 93Z" fill="#00a0a9" stroke="#00a0a9"></path><path d="M92.9 316L208.9 442L216.9 304Z" fill="#00ea78" stroke="#00ea78"></path><path d="M101.9 755L204.9 655L118.9 644Z" fill="#001122" stroke="#001122"></path><path d="M101.9 755L127.9 847L235.9 745Z" fill="#00d399" stroke="#00d399"></path><path d="M0 654L101.9 755L118.9 644Z" fill="#00ea78" stroke="#00ea78"></path><path d="M131.9 991L208.9 1080L230.9 982Z" fill="#006b82" stroke="#006b82"></path><path d="M230.9 982L208.9 1080L319.8 1080Z" fill="#053b52" stroke="#053b52"></path><path d="M321.8 0L221.9 118L358.8 113Z" fill="#006b82" stroke="#006b82"></path><path d="M1796.1 1080L1920 1080L1820.1 991Z" fill="#00baaa" stroke="#00baaa"></path><path d="M92.9 316L216.9 304L117.9 219Z" fill="#053b52" stroke="#053b52"></path><path d="M0 527L0 654L118.9 644Z" fill="#02536b" stroke="#02536b"></path><path d="M1920 232L1920 100L1818.1 107Z" fill="#02536b" stroke="#02536b"></path><path d="M127.9 847L131.9 991L210.9 875Z" fill="#00ea78" stroke="#00ea78"></path><path d="M0 852L131.9 991L127.9 847Z" fill="#05263a" stroke="#05263a"></path><path d="M117.9 219L216.9 304L234.9 233Z" fill="#001122" stroke="#001122"></path><path d="M0 527L118.9 644L109.9 522Z" fill="#006b82" stroke="#006b82"></path><path d="M91.9 107L117.9 219L221.9 118Z" fill="#008597" stroke="#008597"></path><path d="M221.9 118L117.9 219L234.9 233Z" fill="#02536b" stroke="#02536b"></path><path d="M321.8 0L208.9 0L221.9 118Z" fill="#053b52" stroke="#053b52"></path><path d="M1920 100L1920 0L1818.1 107Z" fill="#008597" stroke="#008597"></path><path d="M0 527L109.9 522L95.9 434Z" fill="#00ea78" stroke="#00ea78"></path><path d="M101.9 755L0 852L127.9 847Z" fill="#053b52" stroke="#053b52"></path><path d="M0 527L95.9 434L0 417Z" fill="#02536b" stroke="#02536b"></path><path d="M0 990L107.9 1080L131.9 991Z" fill="#00a0a9" stroke="#00a0a9"></path><path d="M131.9 991L107.9 1080L208.9 1080Z" fill="#00ff3e" stroke="#00ff3e"></path><path d="M0 417L95.9 434L92.9 316Z" fill="#053b52" stroke="#053b52"></path><path d="M0 654L0 774L101.9 755Z" fill="#008597" stroke="#008597"></path><path d="M0 305L0 417L92.9 316Z" fill="#00ea78" stroke="#00ea78"></path><path d="M0 305L92.9 316L0 234Z" fill="#008597" stroke="#008597"></path><path d="M0 774L0 852L101.9 755Z" fill="#00a0a9" stroke="#00a0a9"></path><path d="M121.9 0L91.9 107L221.9 118Z" fill="#00baaa" stroke="#00baaa"></path><path d="M0 234L92.9 316L117.9 219Z" fill="#00baaa" stroke="#00baaa"></path><path d="M208.9 0L121.9 0L221.9 118Z" fill="#05263a" stroke="#05263a"></path><path d="M91.9 107L0 234L117.9 219Z" fill="#00baaa" stroke="#00baaa"></path><path d="M0 112L0 234L91.9 107Z" fill="#001122" stroke="#001122"></path><path d="M0 852L0 990L131.9 991Z" fill="#006b82" stroke="#006b82"></path><path d="M0 990L0 1080L107.9 1080Z" fill="#001122" stroke="#001122"></path><path d="M0 0L0 112L91.9 107Z" fill="#006b82" stroke="#006b82"></path><path d="M121.9 0L0 0L91.9 107Z" fill="#00ea78" stroke="#00ea78"></path></g></svg>