<svg id="visual" viewBox="0 0 1920 1080" width="1920" height="1080" xmlns="http://www.w3.org/2000/svg" xmlns:xlink="http://www.w3.org/1999/xlink" version="1.1"><g stroke-width="1" stroke-linejoin="bevel"><path d="M1036.5 553L1110.4 515L996.5 459Z" fill="#053b52" stroke="#053b52"></path><path d="M1110.4 515L1137.4 407L996.5 459Z" fill="#006b82" stroke="#006b82"></path><path d="M1005.5 319L910.5 443L996.5 459Z" fill="#053b52" stroke="#053b52"></path><path d="M996.5 459L881.5 518L1036.5 553Z" fill="#00ea78" stroke="#00ea78"></path><path d="M1137.4 407L1124.4 350L996.5 459Z" fill="#00a0a9" stroke="#00a0a9"></path><path d="M1036.5 553L1148.4 632L1110.4 515Z" fill="#00ff3e" stroke="#00ff3e"></path><path d="M1110.4 515L1239.4 412L1137.4 407Z" fill="#00baaa" stroke="#00baaa"></path><path d="M910.5 443L881.5 518L996.5 459Z" fill="#008597" stroke="#008597"></path><path d="M1036.5 553L1042.5 665L1148.4 632Z" fill="#006b82" stroke="#006b82"></path><path d="M886.5 663L1042.5 665L1036.5 553Z" fill="#05263a" stroke="#05263a"></path><path d="M1124.4 350L1005.5 319L996.5 459Z" fill="#00ea78" stroke="#00ea78"></path><path d="M1265.4 556L1239.4 412L1110.4 515Z" fill="#00ff3e" stroke="#00ff3e"></path><path d="M1137.4 407L1244.4 341L1124.4 350Z" fill="#053b52" stroke="#053b52"></path><path d="M1148.4 632L1265.4 556L1110.4 515Z" fill="#00baaa" stroke="#00baaa"></path><path d="M1140.4 750L1221.4 656L1148.4 632Z" fill="#001122" stroke="#001122"></path><path d="M1148.4 632L1221.4 656L1265.4 556Z" fill="#053b52" stroke="#053b52"></path><path d="M1005.5 319L875.5 331L910.5 443Z" fill="#00a0a9" stroke="#00a0a9"></path><path d="M783.6 436L788.6 522L881.5 518Z" fill="#00ff3e" stroke="#00ff3e"></path><path d="M881.5 518L886.5 663L1036.5 553Z" fill="#05263a" stroke="#05263a"></path><path d="M1239.4 412L1244.4 341L1137.4 407Z" fill="#053b52" stroke="#053b52"></path><path d="M1124.4 350L1115.4 221L1005.5 319Z" fill="#00baaa" stroke="#00baaa"></path><path d="M1326.3 295L1244.4 341L1239.4 412Z" fill="#00ea78" stroke="#00ea78"></path><path d="M783.6 436L881.5 518L910.5 443Z" fill="#02536b" stroke="#02536b"></path><path d="M881.5 518L786.6 644L886.5 663Z" fill="#00d399" stroke="#00d399"></path><path d="M923.5 755L1003.5 757L1042.5 665Z" fill="#00d399" stroke="#00d399"></path><path d="M1042.5 665L1140.4 750L1148.4 632Z" fill="#02536b" stroke="#02536b"></path><path d="M875.5 331L783.6 436L910.5 443Z" fill="#00a0a9" stroke="#00a0a9"></path><path d="M1003.5 757L1140.4 750L1042.5 665Z" fill="#00d399" stroke="#00d399"></path><path d="M1244.4 341L1115.4 221L1124.4 350Z" fill="#053b52" stroke="#053b52"></path><path d="M1005.5 319L882.5 201L875.5 331Z" fill="#02536b" stroke="#02536b"></path><path d="M1115.4 221L1000.5 211L1005.5 319Z" fill="#02536b" stroke="#02536b"></path><path d="M882.5 201L811.6 327L875.5 331Z" fill="#053b52" stroke="#053b52"></path><path d="M875.5 331L811.6 327L783.6 436Z" fill="#00d399" stroke="#00d399"></path><path d="M774.6 746L923.5 755L886.5 663Z" fill="#001122" stroke="#001122"></path><path d="M886.5 663L923.5 755L1042.5 665Z" fill="#00a0a9" stroke="#00a0a9"></path><path d="M1140.4 750L1231.4 738L1221.4 656Z" fill="#001122" stroke="#001122"></path><path d="M1334.3 658L1367.3 562L1265.4 556Z" fill="#00a0a9" stroke="#00a0a9"></path><path d="M696.6 666L786.6 644L788.6 522Z" fill="#008597" stroke="#008597"></path><path d="M788.6 522L786.6 644L881.5 518Z" fill="#008597" stroke="#008597"></path><path d="M1334.3 658L1265.4 556L1221.4 656Z" fill="#00ea78" stroke="#00ea78"></path><path d="M1265.4 556L1381.3 457L1239.4 412Z" fill="#02536b" stroke="#02536b"></path><path d="M1231.4 738L1334.3 658L1221.4 656Z" fill="#00ea78" stroke="#00ea78"></path><path d="M1367.3 562L1381.3 457L1265.4 556Z" fill="#006b82" stroke="#006b82"></path><path d="M1244.4 341L1247.4 218L1115.4 221Z" fill="#00d399" stroke="#00d399"></path><path d="M1000.5 211L882.5 201L1005.5 319Z" fill="#00a0a9" stroke="#00a0a9"></path><path d="M1326.3 295L1247.4 218L1244.4 341Z" fill="#00a0a9" stroke="#00a0a9"></path><path d="M1022.5 83L893.5 122L1000.5 211Z" fill="#053b52" stroke="#053b52"></path><path d="M1000.5 211L893.5 122L882.5 201Z" fill="#006b82" stroke="#006b82"></path><path d="M1381.3 457L1326.3 295L1239.4 412Z" fill="#00d399" stroke="#00d399"></path><path d="M907.5 863L1039.5 858L1003.5 757Z" fill="#053b52" stroke="#053b52"></path><path d="M1003.5 757L1039.5 858L1140.4 750Z" fill="#001122" stroke="#001122"></path><path d="M1140.4 750L1254.4 851L1231.4 738Z" fill="#001122" stroke="#001122"></path><path d="M907.5 863L1003.5 757L923.5 755Z" fill="#00d399" stroke="#00d399"></path><path d="M811.6 327L692.6 403L783.6 436Z" fill="#00baaa" stroke="#00baaa"></path><path d="M783.6 436L653.6 514L788.6 522Z" fill="#02536b" stroke="#02536b"></path><path d="M679.6 330L692.6 403L811.6 327Z" fill="#02536b" stroke="#02536b"></path><path d="M696.6 666L774.6 746L786.6 644Z" fill="#001122" stroke="#001122"></path><path d="M786.6 644L774.6 746L886.5 663Z" fill="#00ea78" stroke="#00ea78"></path><path d="M882.5 201L795.6 202L811.6 327Z" fill="#02536b" stroke="#02536b"></path><path d="M1254.4 851L1357.3 733L1231.4 738Z" fill="#02536b" stroke="#02536b"></path><path d="M1231.4 738L1357.3 733L1334.3 658Z" fill="#001122" stroke="#001122"></path><path d="M1449.2 652L1441.2 542L1367.3 562Z" fill="#00d399" stroke="#00d399"></path><path d="M1367.3 562L1441.2 542L1381.3 457Z" fill="#006b82" stroke="#006b82"></path><path d="M1488.2 310L1356.3 243L1326.3 295Z" fill="#02536b" stroke="#02536b"></path><path d="M1326.3 295L1356.3 243L1247.4 218Z" fill="#053b52" stroke="#053b52"></path><path d="M1449.2 652L1367.3 562L1334.3 658Z" fill="#00baaa" stroke="#00baaa"></path><path d="M1381.3 457L1450.2 419L1326.3 295Z" fill="#053b52" stroke="#053b52"></path><path d="M653.6 514L696.6 666L788.6 522Z" fill="#00a0a9" stroke="#00a0a9"></path><path d="M692.6 403L653.6 514L783.6 436Z" fill="#006b82" stroke="#006b82"></path><path d="M774.6 746L907.5 863L923.5 755Z" fill="#053b52" stroke="#053b52"></path><path d="M1022.5 83L1000.5 211L1115.4 221Z" fill="#05263a" stroke="#05263a"></path><path d="M882.5 201L893.5 122L795.6 202Z" fill="#00ea78" stroke="#00ea78"></path><path d="M1022.5 83L1115.4 221L1116.4 83Z" fill="#006b82" stroke="#006b82"></path><path d="M695.6 241L679.6 330L811.6 327Z" fill="#008597" stroke="#008597"></path><path d="M692.6 403L582.7 434L653.6 514Z" fill="#00baaa" stroke="#00baaa"></path><path d="M1441.2 542L1450.2 419L1381.3 457Z" fill="#053b52" stroke="#053b52"></path><path d="M1131.4 948L1137.4 891L1039.5 858Z" fill="#02536b" stroke="#02536b"></path><path d="M1039.5 858L1137.4 891L1140.4 750Z" fill="#008597" stroke="#008597"></path><path d="M1116.4 83L1115.4 221L1253.4 127Z" fill="#00a0a9" stroke="#00a0a9"></path><path d="M1137.4 891L1254.4 851L1140.4 750Z" fill="#00baaa" stroke="#00baaa"></path><path d="M1253.4 127L1115.4 221L1247.4 218Z" fill="#00a0a9" stroke="#00a0a9"></path><path d="M1364.3 136L1253.4 127L1247.4 218Z" fill="#053b52" stroke="#053b52"></path><path d="M696.6 666L704.6 742L774.6 746Z" fill="#00baaa" stroke="#00baaa"></path><path d="M774.6 746L795.6 880L907.5 863Z" fill="#001122" stroke="#001122"></path><path d="M588.7 781L704.6 742L696.6 666Z" fill="#05263a" stroke="#05263a"></path><path d="M1460.2 748L1449.2 652L1357.3 733Z" fill="#008597" stroke="#008597"></path><path d="M1357.3 733L1449.2 652L1334.3 658Z" fill="#00baaa" stroke="#00baaa"></path><path d="M1564.2 340L1488.2 310L1450.2 419Z" fill="#00baaa" stroke="#00baaa"></path><path d="M789.6 112L695.6 241L795.6 202Z" fill="#008597" stroke="#008597"></path><path d="M795.6 202L695.6 241L811.6 327Z" fill="#006b82" stroke="#006b82"></path><path d="M919.5 0L789.6 112L893.5 122Z" fill="#006b82" stroke="#006b82"></path><path d="M893.5 122L789.6 112L795.6 202Z" fill="#053b52" stroke="#053b52"></path><path d="M1033.5 994L1131.4 948L1039.5 858Z" fill="#05263a" stroke="#05263a"></path><path d="M1137.4 891L1222.4 951L1254.4 851Z" fill="#006b82" stroke="#006b82"></path><path d="M704.6 742L795.6 880L774.6 746Z" fill="#02536b" stroke="#02536b"></path><path d="M907.5 863L1033.5 994L1039.5 858Z" fill="#008597" stroke="#008597"></path><path d="M586.7 347L692.6 403L679.6 330Z" fill="#00ff3e" stroke="#00ff3e"></path><path d="M586.7 347L582.7 434L692.6 403Z" fill="#00baaa" stroke="#00baaa"></path><path d="M653.6 514L582.7 567L696.6 666Z" fill="#00ff3e" stroke="#00ff3e"></path><path d="M1557.2 430L1450.2 419L1441.2 542Z" fill="#006b82" stroke="#006b82"></path><path d="M1450.2 419L1488.2 310L1326.3 295Z" fill="#00ea78" stroke="#00ea78"></path><path d="M1356.3 243L1364.3 136L1247.4 218Z" fill="#00ea78" stroke="#00ea78"></path><path d="M1469.2 209L1364.3 136L1356.3 243Z" fill="#00a0a9" stroke="#00a0a9"></path><path d="M1109.4 0L1029.5 0L1116.4 83Z" fill="#00d399" stroke="#00d399"></path><path d="M582.7 434L582.7 567L653.6 514Z" fill="#006b82" stroke="#006b82"></path><path d="M704.6 742L653.6 870L795.6 880Z" fill="#006b82" stroke="#006b82"></path><path d="M1222.4 951L1326.3 888L1254.4 851Z" fill="#008597" stroke="#008597"></path><path d="M1254.4 851L1326.3 888L1357.3 733Z" fill="#00d399" stroke="#00d399"></path><path d="M1326.3 888L1460.2 748L1357.3 733Z" fill="#05263a" stroke="#05263a"></path><path d="M1573.2 559L1557.2 430L1441.2 542Z" fill="#00d399" stroke="#00d399"></path><path d="M571.7 210L586.7 347L679.6 330Z" fill="#00ff3e" stroke="#00ff3e"></path><path d="M571.7 210L679.6 330L695.6 241Z" fill="#00ea78" stroke="#00ea78"></path><path d="M1131.4 948L1222.4 951L1137.4 891Z" fill="#008597" stroke="#008597"></path><path d="M1116.4 83L1029.5 0L1022.5 83Z" fill="#001122" stroke="#001122"></path><path d="M1022.5 83L919.5 0L893.5 122Z" fill="#008597" stroke="#008597"></path><path d="M1109.4 0L1116.4 83L1215.4 0Z" fill="#00baaa" stroke="#00baaa"></path><path d="M1215.4 0L1116.4 83L1253.4 127Z" fill="#001122" stroke="#001122"></path><path d="M887.5 974L1033.5 994L907.5 863Z" fill="#00ff3e" stroke="#00ff3e"></path><path d="M1131.4 948L1100.4 1080L1222.4 951Z" fill="#006b82" stroke="#006b82"></path><path d="M1488.2 310L1469.2 209L1356.3 243Z" fill="#02536b" stroke="#02536b"></path><path d="M1029.5 0L919.5 0L1022.5 83Z" fill="#00ea78" stroke="#00ea78"></path><path d="M1573.2 559L1441.2 542L1449.2 652Z" fill="#00ff3e" stroke="#00ff3e"></path><path d="M1488.2 310L1601.2 202L1469.2 209Z" fill="#006b82" stroke="#006b82"></path><path d="M795.6 880L887.5 974L907.5 863Z" fill="#02536b" stroke="#02536b"></path><path d="M1344.3 0L1215.4 0L1253.4 127Z" fill="#02536b" stroke="#02536b"></path><path d="M1344.3 0L1253.4 127L1364.3 136Z" fill="#008597" stroke="#008597"></path><path d="M478.8 551L557.7 670L582.7 567Z" fill="#00a0a9" stroke="#00a0a9"></path><path d="M582.7 567L557.7 670L696.6 666Z" fill="#00d399" stroke="#00d399"></path><path d="M795.6 880L764.6 967L887.5 974Z" fill="#02536b" stroke="#02536b"></path><path d="M478.8 551L582.7 567L582.7 434Z" fill="#008597" stroke="#008597"></path><path d="M1574.2 672L1573.2 559L1449.2 652Z" fill="#006b82" stroke="#006b82"></path><path d="M1718.1 425L1564.2 340L1557.2 430Z" fill="#02536b" stroke="#02536b"></path><path d="M1557.2 430L1564.2 340L1450.2 419Z" fill="#00ea78" stroke="#00ea78"></path><path d="M557.7 670L588.7 781L696.6 666Z" fill="#05263a" stroke="#05263a"></path><path d="M588.7 781L653.6 870L704.6 742Z" fill="#008597" stroke="#008597"></path><path d="M1596.2 738L1574.2 672L1460.2 748Z" fill="#05263a" stroke="#05263a"></path><path d="M1460.2 748L1574.2 672L1449.2 652Z" fill="#001122" stroke="#001122"></path><path d="M696.6 962L764.6 967L795.6 880Z" fill="#00d399" stroke="#00d399"></path><path d="M887.5 974L1004.5 1080L1033.5 994Z" fill="#00a0a9" stroke="#00a0a9"></path><path d="M656.6 92L695.6 241L789.6 112Z" fill="#008597" stroke="#008597"></path><path d="M656.6 92L571.7 210L695.6 241Z" fill="#02536b" stroke="#02536b"></path><path d="M467.8 414L478.8 551L582.7 434Z" fill="#00a0a9" stroke="#00a0a9"></path><path d="M771.6 0L656.6 92L789.6 112Z" fill="#00a0a9" stroke="#00a0a9"></path><path d="M919.5 0L771.6 0L789.6 112Z" fill="#00ea78" stroke="#00ea78"></path><path d="M1455.2 85L1364.3 136L1469.2 209Z" fill="#00baaa" stroke="#00baaa"></path><path d="M1455.2 85L1344.3 0L1364.3 136Z" fill="#001122" stroke="#001122"></path><path d="M1601.2 112L1455.2 85L1469.2 209Z" fill="#00d399" stroke="#00d399"></path><path d="M1452.2 982L1477.2 877L1326.3 888Z" fill="#001122" stroke="#001122"></path><path d="M1326.3 888L1477.2 877L1460.2 748Z" fill="#00ea78" stroke="#00ea78"></path><path d="M467.8 414L582.7 434L586.7 347Z" fill="#00baaa" stroke="#00baaa"></path><path d="M557.7 670L452.8 741L588.7 781Z" fill="#05263a" stroke="#05263a"></path><path d="M1222.4 951L1361.3 991L1326.3 888Z" fill="#00d399" stroke="#00d399"></path><path d="M1256.4 1080L1361.3 991L1222.4 951Z" fill="#00ea78" stroke="#00ea78"></path><path d="M459.8 333L467.8 414L586.7 347Z" fill="#00a0a9" stroke="#00a0a9"></path><path d="M653.6 870L696.6 962L795.6 880Z" fill="#001122" stroke="#001122"></path><path d="M899.5 1080L1004.5 1080L887.5 974Z" fill="#00baaa" stroke="#00baaa"></path><path d="M586.7 996L696.6 962L653.6 870Z" fill="#00ea78" stroke="#00ea78"></path><path d="M899.5 1080L887.5 974L783.6 1080Z" fill="#001122" stroke="#001122"></path><path d="M1033.5 994L1100.4 1080L1131.4 948Z" fill="#00a0a9" stroke="#00a0a9"></path><path d="M1004.5 1080L1100.4 1080L1033.5 994Z" fill="#00ff3e" stroke="#00ff3e"></path><path d="M1576.2 864L1596.2 738L1460.2 748Z" fill="#053b52" stroke="#053b52"></path><path d="M1678.1 631L1672.1 548L1573.2 559Z" fill="#02536b" stroke="#02536b"></path><path d="M1683.1 237L1601.2 202L1564.2 340Z" fill="#008597" stroke="#008597"></path><path d="M783.6 1080L887.5 974L764.6 967Z" fill="#053b52" stroke="#053b52"></path><path d="M324.8 567L463.8 659L478.8 551Z" fill="#02536b" stroke="#02536b"></path><path d="M478.8 551L463.8 659L557.7 670Z" fill="#00ea78" stroke="#00ea78"></path><path d="M588.7 781L576.7 885L653.6 870Z" fill="#00d399" stroke="#00d399"></path><path d="M571.7 210L459.8 333L586.7 347Z" fill="#053b52" stroke="#053b52"></path><path d="M335.8 667L452.8 741L463.8 659Z" fill="#00ff3e" stroke="#00ff3e"></path><path d="M468.8 199L459.8 333L571.7 210Z" fill="#05263a" stroke="#05263a"></path><path d="M440.8 840L576.7 885L588.7 781Z" fill="#00ea78" stroke="#00ea78"></path><path d="M1672.1 548L1557.2 430L1573.2 559Z" fill="#001122" stroke="#001122"></path><path d="M1564.2 340L1601.2 202L1488.2 310Z" fill="#006b82" stroke="#006b82"></path><path d="M771.6 0L670.6 0L656.6 92Z" fill="#05263a" stroke="#05263a"></path><path d="M656.6 92L547.7 120L571.7 210Z" fill="#00d399" stroke="#00d399"></path><path d="M1678.1 631L1573.2 559L1574.2 672Z" fill="#053b52" stroke="#053b52"></path><path d="M1100.4 1080L1256.4 1080L1222.4 951Z" fill="#053b52" stroke="#053b52"></path><path d="M567.7 0L547.7 120L656.6 92Z" fill="#053b52" stroke="#053b52"></path><path d="M1361.3 991L1452.2 982L1326.3 888Z" fill="#053b52" stroke="#053b52"></path><path d="M1477.2 877L1576.2 864L1460.2 748Z" fill="#00ea78" stroke="#00ea78"></path><path d="M1367.3 1080L1452.2 982L1361.3 991Z" fill="#00a0a9" stroke="#00a0a9"></path><path d="M1605.2 0L1455.2 0L1455.2 85Z" fill="#05263a" stroke="#05263a"></path><path d="M1455.2 85L1455.2 0L1344.3 0Z" fill="#00baaa" stroke="#00baaa"></path><path d="M1700.1 731L1678.1 631L1596.2 738Z" fill="#00baaa" stroke="#00baaa"></path><path d="M1596.2 738L1678.1 631L1574.2 672Z" fill="#00ea78" stroke="#00ea78"></path><path d="M1580.2 971L1576.2 864L1477.2 877Z" fill="#00a0a9" stroke="#00a0a9"></path><path d="M669.6 1080L764.6 967L696.6 962Z" fill="#001122" stroke="#001122"></path><path d="M669.6 1080L783.6 1080L764.6 967Z" fill="#053b52" stroke="#053b52"></path><path d="M463.8 659L452.8 741L557.7 670Z" fill="#00ff3e" stroke="#00ff3e"></path><path d="M326.8 438L478.8 551L467.8 414Z" fill="#00ff3e" stroke="#00ff3e"></path><path d="M547.7 120L468.8 199L571.7 210Z" fill="#00a0a9" stroke="#00a0a9"></path><path d="M1601.2 202L1601.2 112L1469.2 209Z" fill="#00ff3e" stroke="#00ff3e"></path><path d="M1686.1 132L1601.2 112L1601.2 202Z" fill="#00baaa" stroke="#00baaa"></path><path d="M1256.4 1080L1367.3 1080L1361.3 991Z" fill="#053b52" stroke="#053b52"></path><path d="M1452.2 982L1580.2 971L1477.2 877Z" fill="#00ea78" stroke="#00ea78"></path><path d="M1782.1 428L1718.1 425L1672.1 548Z" fill="#00d399" stroke="#00d399"></path><path d="M1672.1 548L1718.1 425L1557.2 430Z" fill="#00ea78" stroke="#00ea78"></path><path d="M1714.1 302L1683.1 237L1564.2 340Z" fill="#008597" stroke="#008597"></path><path d="M445.8 0L466.8 133L547.7 120Z" fill="#00baaa" stroke="#00baaa"></path><path d="M547.7 120L466.8 133L468.8 199Z" fill="#00ea78" stroke="#00ea78"></path><path d="M338.8 295L326.8 438L459.8 333Z" fill="#00ea78" stroke="#00ea78"></path><path d="M442.8 958L586.7 996L576.7 885Z" fill="#008597" stroke="#008597"></path><path d="M576.7 885L586.7 996L653.6 870Z" fill="#001122" stroke="#001122"></path><path d="M1718.1 425L1714.1 302L1564.2 340Z" fill="#006b82" stroke="#006b82"></path><path d="M670.6 0L567.7 0L656.6 92Z" fill="#00a0a9" stroke="#00a0a9"></path><path d="M1680.1 890L1700.1 731L1596.2 738Z" fill="#008597" stroke="#008597"></path><path d="M1834.1 541L1782.1 428L1672.1 548Z" fill="#008597" stroke="#008597"></path><path d="M586.7 996L669.6 1080L696.6 962Z" fill="#00ea78" stroke="#00ea78"></path><path d="M452.8 741L440.8 840L588.7 781Z" fill="#00a0a9" stroke="#00a0a9"></path><path d="M310.8 772L440.8 840L452.8 741Z" fill="#006b82" stroke="#006b82"></path><path d="M326.8 438L467.8 414L459.8 333Z" fill="#00baaa" stroke="#00baaa"></path><path d="M1472.2 1080L1580.2 971L1452.2 982Z" fill="#008597" stroke="#008597"></path><path d="M1576.2 864L1680.1 890L1596.2 738Z" fill="#008597" stroke="#008597"></path><path d="M1367.3 1080L1472.2 1080L1452.2 982Z" fill="#00ea78" stroke="#00ea78"></path><path d="M338.8 295L459.8 333L468.8 199Z" fill="#00d399" stroke="#00d399"></path><path d="M1783.1 215L1686.1 132L1683.1 237Z" fill="#00a0a9" stroke="#00a0a9"></path><path d="M1683.1 237L1686.1 132L1601.2 202Z" fill="#00d399" stroke="#00d399"></path><path d="M1601.2 112L1605.2 0L1455.2 85Z" fill="#00baaa" stroke="#00baaa"></path><path d="M326.8 438L324.8 567L478.8 551Z" fill="#00d399" stroke="#00d399"></path><path d="M1834.1 541L1672.1 548L1678.1 631Z" fill="#02536b" stroke="#02536b"></path><path d="M1718.1 425L1782.1 428L1714.1 302Z" fill="#00ea78" stroke="#00ea78"></path><path d="M1714.1 302L1783.1 215L1683.1 237Z" fill="#00ea78" stroke="#00ea78"></path><path d="M324.8 567L335.8 667L463.8 659Z" fill="#00baaa" stroke="#00baaa"></path><path d="M343.8 192L338.8 295L468.8 199Z" fill="#053b52" stroke="#053b52"></path><path d="M343.8 192L468.8 199L466.8 133Z" fill="#00a0a9" stroke="#00a0a9"></path><path d="M1686.1 132L1605.2 0L1601.2 112Z" fill="#00a0a9" stroke="#00a0a9"></path><path d="M1580.2 971L1680.1 890L1576.2 864Z" fill="#05263a" stroke="#05263a"></path><path d="M1833.1 637L1834.1 541L1678.1 631Z" fill="#00ea78" stroke="#00ea78"></path><path d="M1705.1 973L1680.1 890L1580.2 971Z" fill="#006b82" stroke="#006b82"></path><path d="M586.7 996L578.7 1080L669.6 1080Z" fill="#00d399" stroke="#00d399"></path><path d="M422.8 1080L578.7 1080L586.7 996Z" fill="#008597" stroke="#008597"></path><path d="M442.8 958L576.7 885L440.8 840Z" fill="#008597" stroke="#008597"></path><path d="M324.8 847L442.8 958L440.8 840Z" fill="#053b52" stroke="#053b52"></path><path d="M312.8 101L343.8 192L466.8 133Z" fill="#008597" stroke="#008597"></path><path d="M232.9 435L239.9 542L326.8 438Z" fill="#00baaa" stroke="#00baaa"></path><path d="M1782.1 428L1811.1 318L1714.1 302Z" fill="#00baaa" stroke="#00baaa"></path><path d="M1686.1 132L1720.1 0L1605.2 0Z" fill="#053b52" stroke="#053b52"></path><path d="M1920 422L1811.1 318L1782.1 428Z" fill="#00d399" stroke="#00d399"></path><path d="M567.7 0L445.8 0L547.7 120Z" fill="#00ff3e" stroke="#00ff3e"></path><path d="M1811.1 318L1783.1 215L1714.1 302Z" fill="#053b52" stroke="#053b52"></path><path d="M1809.1 728L1678.1 631L1700.1 731Z" fill="#001122" stroke="#001122"></path><path d="M335.8 667L310.8 772L452.8 741Z" fill="#00a0a9" stroke="#00a0a9"></path><path d="M249.9 672L310.8 772L335.8 667Z" fill="#05263a" stroke="#05263a"></path><path d="M249.9 672L335.8 667L324.8 567Z" fill="#02536b" stroke="#02536b"></path><path d="M1809.1 886L1809.1 728L1700.1 731Z" fill="#00baaa" stroke="#00baaa"></path><path d="M1809.1 728L1833.1 637L1678.1 631Z" fill="#001122" stroke="#001122"></path><path d="M1472.2 1080L1596.2 1080L1580.2 971Z" fill="#02536b" stroke="#02536b"></path><path d="M1680.1 890L1809.1 886L1700.1 731Z" fill="#00ff3e" stroke="#00ff3e"></path><path d="M310.8 772L324.8 847L440.8 840Z" fill="#00a0a9" stroke="#00a0a9"></path><path d="M1596.2 1080L1705.1 973L1580.2 971Z" fill="#006b82" stroke="#006b82"></path><path d="M248.9 322L326.8 438L338.8 295Z" fill="#00baaa" stroke="#00baaa"></path><path d="M326.8 438L239.9 542L324.8 567Z" fill="#00baaa" stroke="#00baaa"></path><path d="M310.8 772L206.9 851L324.8 847Z" fill="#00d399" stroke="#00d399"></path><path d="M206.9 225L338.8 295L343.8 192Z" fill="#00ff3e" stroke="#00ff3e"></path><path d="M206.9 225L248.9 322L338.8 295Z" fill="#00ea78" stroke="#00ea78"></path><path d="M248.9 322L232.9 435L326.8 438Z" fill="#053b52" stroke="#053b52"></path><path d="M239.9 542L249.9 672L324.8 567Z" fill="#001122" stroke="#001122"></path><path d="M1833.1 126L1720.1 0L1686.1 132Z" fill="#00d399" stroke="#00d399"></path><path d="M359.8 0L312.8 101L466.8 133Z" fill="#02536b" stroke="#02536b"></path><path d="M445.8 0L359.8 0L466.8 133Z" fill="#00ff3e" stroke="#00ff3e"></path><path d="M1804.1 952L1809.1 886L1680.1 890Z" fill="#00baaa" stroke="#00baaa"></path><path d="M1920 643L1920 552L1833.1 637Z" fill="#00a0a9" stroke="#00a0a9"></path><path d="M1804.1 952L1680.1 890L1705.1 973Z" fill="#001122" stroke="#001122"></path><path d="M316.8 994L442.8 958L324.8 847Z" fill="#00ea78" stroke="#00ea78"></path><path d="M316.8 994L422.8 1080L442.8 958Z" fill="#05263a" stroke="#05263a"></path><path d="M442.8 958L422.8 1080L586.7 996Z" fill="#053b52" stroke="#053b52"></path><path d="M1920 196L1833.1 126L1783.1 215Z" fill="#008597" stroke="#008597"></path><path d="M1783.1 215L1833.1 126L1686.1 132Z" fill="#00baaa" stroke="#00baaa"></path><path d="M1920 303L1783.1 215L1811.1 318Z" fill="#00ff3e" stroke="#00ff3e"></path><path d="M1833.1 637L1920 552L1834.1 541Z" fill="#05263a" stroke="#05263a"></path><path d="M1834.1 541L1920 422L1782.1 428Z" fill="#00a0a9" stroke="#00a0a9"></path><path d="M1920 643L1833.1 637L1809.1 728Z" fill="#008597" stroke="#008597"></path><path d="M1920 552L1920 422L1834.1 541Z" fill="#006b82" stroke="#006b82"></path><path d="M134.9 621L215.9 745L249.9 672Z" fill="#00baaa" stroke="#00baaa"></path><path d="M249.9 672L215.9 745L310.8 772Z" fill="#00a0a9" stroke="#00a0a9"></path><path d="M134.9 621L249.9 672L239.9 542Z" fill="#05263a" stroke="#05263a"></path><path d="M1596.2 1080L1703.1 1080L1705.1 973Z" fill="#05263a" stroke="#05263a"></path><path d="M1920 775L1920 643L1809.1 728Z" fill="#001122" stroke="#001122"></path><path d="M1785.1 1080L1804.1 952L1705.1 973Z" fill="#001122" stroke="#001122"></path><path d="M1809.1 886L1920 775L1809.1 728Z" fill="#00ff3e" stroke="#00ff3e"></path><path d="M248.9 322L130.9 407L232.9 435Z" fill="#02536b" stroke="#02536b"></path><path d="M232.9 435L102.9 548L239.9 542Z" fill="#001122" stroke="#001122"></path><path d="M211.9 111L206.9 225L343.8 192Z" fill="#00a0a9" stroke="#00a0a9"></path><path d="M211.9 111L343.8 192L312.8 101Z" fill="#00ea78" stroke="#00ea78"></path><path d="M1920 422L1920 303L1811.1 318Z" fill="#006b82" stroke="#006b82"></path><path d="M206.9 851L316.8 994L324.8 847Z" fill="#00ea78" stroke="#00ea78"></path><path d="M1920 83L1803.1 0L1833.1 126Z" fill="#001122" stroke="#001122"></path><path d="M1833.1 126L1803.1 0L1720.1 0Z" fill="#008597" stroke="#008597"></path><path d="M1920 881L1920 775L1809.1 886Z" fill="#00d399" stroke="#00d399"></path><path d="M1920 303L1920 196L1783.1 215Z" fill="#00ea78" stroke="#00ea78"></path><path d="M215.9 745L206.9 851L310.8 772Z" fill="#008597" stroke="#008597"></path><path d="M124.9 782L206.9 851L215.9 745Z" fill="#001122" stroke="#001122"></path><path d="M232.9 0L211.9 111L312.8 101Z" fill="#00d399" stroke="#00d399"></path><path d="M104.9 317L248.9 322L206.9 225Z" fill="#008597" stroke="#008597"></path><path d="M104.9 317L130.9 407L248.9 322Z" fill="#053b52" stroke="#053b52"></path><path d="M102.9 548L134.9 621L239.9 542Z" fill="#006b82" stroke="#006b82"></path><path d="M222.9 1080L321.8 1080L316.8 994Z" fill="#00d399" stroke="#00d399"></path><path d="M316.8 994L321.8 1080L422.8 1080Z" fill="#00ea78" stroke="#00ea78"></path><path d="M1703.1 1080L1785.1 1080L1705.1 973Z" fill="#053b52" stroke="#053b52"></path><path d="M1804.1 952L1920 881L1809.1 886Z" fill="#05263a" stroke="#05263a"></path><path d="M130.9 407L102.9 548L232.9 435Z" fill="#006b82" stroke="#006b82"></path><path d="M134.9 621L124.9 782L215.9 745Z" fill="#00d399" stroke="#00d399"></path><path d="M1920 967L1920 881L1804.1 952Z" fill="#00ea78" stroke="#00ea78"></path><path d="M359.8 0L232.9 0L312.8 101Z" fill="#001122" stroke="#001122"></path><path d="M88.9 231L104.9 317L206.9 225Z" fill="#053b52" stroke="#053b52"></path><path d="M1920 196L1920 83L1833.1 126Z" fill="#02536b" stroke="#02536b"></path><path d="M88.9 231L206.9 225L114.9 107Z" fill="#00ea78" stroke="#00ea78"></path><path d="M0 405L0 556L102.9 548Z" fill="#001122" stroke="#001122"></path><path d="M0 764L124.9 782L134.9 621Z" fill="#00a0a9" stroke="#00a0a9"></path><path d="M206.9 851L220.9 1000L316.8 994Z" fill="#008597" stroke="#008597"></path><path d="M135.9 965L220.9 1000L206.9 851Z" fill="#00baaa" stroke="#00baaa"></path><path d="M1920 1080L1920 967L1804.1 952Z" fill="#00d399" stroke="#00d399"></path><path d="M114.9 107L206.9 225L211.9 111Z" fill="#006b82" stroke="#006b82"></path><path d="M0 405L102.9 548L130.9 407Z" fill="#001122" stroke="#001122"></path><path d="M1920 83L1920 0L1803.1 0Z" fill="#053b52" stroke="#053b52"></path><path d="M124.9 782L111.9 849L206.9 851Z" fill="#00baaa" stroke="#00baaa"></path><path d="M0 764L111.9 849L124.9 782Z" fill="#02536b" stroke="#02536b"></path><path d="M0 628L134.9 621L102.9 548Z" fill="#006b82" stroke="#006b82"></path><path d="M232.9 0L114.9 107L211.9 111Z" fill="#00ff3e" stroke="#00ff3e"></path><path d="M116.9 1080L222.9 1080L220.9 1000Z" fill="#00baaa" stroke="#00baaa"></path><path d="M220.9 1000L222.9 1080L316.8 994Z" fill="#00ff3e" stroke="#00ff3e"></path><path d="M111.9 849L135.9 965L206.9 851Z" fill="#006b82" stroke="#006b82"></path><path d="M1785.1 1080L1920 1080L1804.1 952Z" fill="#00ea78" stroke="#00ea78"></path><path d="M0 405L104.9 317L0 312Z" fill="#001122" stroke="#001122"></path><path d="M0 405L130.9 407L104.9 317Z" fill="#006b82" stroke="#006b82"></path><path d="M111.9 849L0 991L135.9 965Z" fill="#02536b" stroke="#02536b"></path><path d="M0 312L104.9 317L88.9 231Z" fill="#001122" stroke="#001122"></path><path d="M0 556L0 628L102.9 548Z" fill="#05263a" stroke="#05263a"></path><path d="M0 221L0 312L88.9 231Z" fill="#02536b" stroke="#02536b"></path><path d="M232.9 0L93.9 0L114.9 107Z" fill="#00ea78" stroke="#00ea78"></path><path d="M0 119L0 221L88.9 231Z" fill="#00a0a9" stroke="#00a0a9"></path><path d="M0 119L88.9 231L114.9 107Z" fill="#05263a" stroke="#05263a"></path><path d="M0 628L0 764L134.9 621Z" fill="#02536b" stroke="#02536b"></path><path d="M0 991L116.9 1080L135.9 965Z" fill="#006b82" stroke="#006b82"></path><path d="M135.9 965L116.9 1080L220.9 1000Z" fill="#00ea78" stroke="#00ea78"></path><path d="M0 764L0 850L111.9 849Z" fill="#001122" stroke="#001122"></path><path d="M93.9 0L0 119L114.9 107Z" fill="#053b52" stroke="#053b52"></path><path d="M93.9 0L0 0L0 119Z" fill="#00ea78" stroke="#00ea78"></path><path d="M0 850L0 991L111.9 849Z" fill="#00a0a9" stroke="#00a0a9"></path><path d="M0 991L0 1080L116.9 1080Z" fill="#00ff3e" stroke="#00ff3e"></path></g></svg>