<svg id="visual" viewBox="0 0 960 540" width="960" height="540" xmlns="http://www.w3.org/2000/svg" xmlns:xlink="http://www.w3.org/1999/xlink" version="1.1"><g stroke-width="1" stroke-linejoin="bevel"><path d="M461 248.4L401 253.4L432 283.6Z" fill="#775edf" stroke="#775edf"></path><path d="M432 283.6L522 282.6L461 248.4Z" fill="#3150ab" stroke="#3150ab"></path><path d="M509 133.3L368 174.3L461 248.4Z" fill="#004181" stroke="#004181"></path><path d="M461 248.4L368 174.3L401 253.4Z" fill="#10468f" stroke="#10468f"></path><path d="M444 375.7L544 294.6L522 282.6Z" fill="#8a60ea" stroke="#8a60ea"></path><path d="M522 282.6L509 133.3L461 248.4Z" fill="#214b9d" stroke="#214b9d"></path><path d="M368 397.7L444 375.7L432 283.6Z" fill="#775edf" stroke="#775edf"></path><path d="M432 283.6L444 375.7L522 282.6Z" fill="#004181" stroke="#004181"></path><path d="M317 333.6L432 283.6L401 253.4Z" fill="#8a60ea" stroke="#8a60ea"></path><path d="M368 174.3L314 201.4L401 253.4Z" fill="#8a60ea" stroke="#8a60ea"></path><path d="M314 201.4L317 333.6L401 253.4Z" fill="#b362ff" stroke="#b362ff"></path><path d="M588 262.4L509 133.3L522 282.6Z" fill="#10468f" stroke="#10468f"></path><path d="M638 351.7L588 262.4L544 294.6Z" fill="#214b9d" stroke="#214b9d"></path><path d="M544 294.6L588 262.4L522 282.6Z" fill="#5258c6" stroke="#5258c6"></path><path d="M317 333.6L368 397.7L432 283.6Z" fill="#5258c6" stroke="#5258c6"></path><path d="M317 333.6L356 395.7L368 397.7Z" fill="#214b9d" stroke="#214b9d"></path><path d="M394 57.1L303 139.3L368 174.3Z" fill="#775edf" stroke="#775edf"></path><path d="M368 174.3L303 139.3L314 201.4Z" fill="#775edf" stroke="#775edf"></path><path d="M314 201.4L260 314.6L317 333.6Z" fill="#8a60ea" stroke="#8a60ea"></path><path d="M368 397.7L460 422.9L444 375.7Z" fill="#8a60ea" stroke="#8a60ea"></path><path d="M444 375.7L536 402.7L544 294.6Z" fill="#4154b9" stroke="#4154b9"></path><path d="M360 436.9L460 422.9L368 397.7Z" fill="#8a60ea" stroke="#8a60ea"></path><path d="M303 139.3L265 197.4L314 201.4Z" fill="#10468f" stroke="#10468f"></path><path d="M265 197.4L260 314.6L314 201.4Z" fill="#8a60ea" stroke="#8a60ea"></path><path d="M317 333.6L262 377.7L356 395.7Z" fill="#004181" stroke="#004181"></path><path d="M460 422.9L536 402.7L444 375.7Z" fill="#775edf" stroke="#775edf"></path><path d="M262 377.7L360 436.9L356 395.7Z" fill="#775edf" stroke="#775edf"></path><path d="M356 395.7L360 436.9L368 397.7Z" fill="#5258c6" stroke="#5258c6"></path><path d="M509 133.3L448 57.1L368 174.3Z" fill="#4154b9" stroke="#4154b9"></path><path d="M448 57.1L394 57.1L368 174.3Z" fill="#8a60ea" stroke="#8a60ea"></path><path d="M260 314.6L262 377.7L317 333.6Z" fill="#214b9d" stroke="#214b9d"></path><path d="M394 57.1L290 90.1L303 139.3Z" fill="#5258c6" stroke="#5258c6"></path><path d="M303 139.3L235 112.3L265 197.4Z" fill="#5258c6" stroke="#5258c6"></path><path d="M588 262.4L599 117.3L509 133.3Z" fill="#214b9d" stroke="#214b9d"></path><path d="M509 133.3L486 0L448 57.1Z" fill="#8a60ea" stroke="#8a60ea"></path><path d="M599 117.3L591 101.1L509 133.3Z" fill="#4154b9" stroke="#4154b9"></path><path d="M536 402.7L638 351.7L544 294.6Z" fill="#9e61f5" stroke="#9e61f5"></path><path d="M588 262.4L660 179.3L599 117.3Z" fill="#b362ff" stroke="#b362ff"></path><path d="M362 540L393 488.9L360 436.9Z" fill="#3150ab" stroke="#3150ab"></path><path d="M360 436.9L393 488.9L460 422.9Z" fill="#b362ff" stroke="#b362ff"></path><path d="M460 422.9L523 504.9L536 402.7Z" fill="#645bd3" stroke="#645bd3"></path><path d="M536 402.7L654 445.9L638 351.7Z" fill="#004181" stroke="#004181"></path><path d="M638 351.7L669 284.6L588 262.4Z" fill="#b362ff" stroke="#b362ff"></path><path d="M682 265.4L660 179.3L588 262.4Z" fill="#b362ff" stroke="#b362ff"></path><path d="M599 117.3L634 53.1L591 101.1Z" fill="#645bd3" stroke="#645bd3"></path><path d="M290 90.1L235 112.3L303 139.3Z" fill="#775edf" stroke="#775edf"></path><path d="M154 270.6L189 357.7L260 314.6Z" fill="#645bd3" stroke="#645bd3"></path><path d="M260 314.6L189 357.7L262 377.7Z" fill="#3150ab" stroke="#3150ab"></path><path d="M705 269.6L682 265.4L669 284.6Z" fill="#4154b9" stroke="#4154b9"></path><path d="M669 284.6L682 265.4L588 262.4Z" fill="#4154b9" stroke="#4154b9"></path><path d="M448 57.1L406 0L394 57.1Z" fill="#5258c6" stroke="#5258c6"></path><path d="M394 57.1L278 0L290 90.1Z" fill="#5258c6" stroke="#5258c6"></path><path d="M290 90.1L201 78.1L235 112.3Z" fill="#645bd3" stroke="#645bd3"></path><path d="M486 0L406 0L448 57.1Z" fill="#004181" stroke="#004181"></path><path d="M591 101.1L486 0L509 133.3Z" fill="#9e61f5" stroke="#9e61f5"></path><path d="M235 112.3L194 141.3L265 197.4Z" fill="#645bd3" stroke="#645bd3"></path><path d="M154 270.6L260 314.6L265 197.4Z" fill="#b362ff" stroke="#b362ff"></path><path d="M229 492.9L362 540L360 436.9Z" fill="#3150ab" stroke="#3150ab"></path><path d="M484 540L523 504.9L460 422.9Z" fill="#b362ff" stroke="#b362ff"></path><path d="M699 403.7L705 269.6L669 284.6Z" fill="#4154b9" stroke="#4154b9"></path><path d="M682 265.4L713 220.4L660 179.3Z" fill="#b362ff" stroke="#b362ff"></path><path d="M699 403.7L669 284.6L638 351.7Z" fill="#3150ab" stroke="#3150ab"></path><path d="M137 250.4L154 270.6L265 197.4Z" fill="#8a60ea" stroke="#8a60ea"></path><path d="M705 269.6L713 220.4L682 265.4Z" fill="#775edf" stroke="#775edf"></path><path d="M660 179.3L634 53.1L599 117.3Z" fill="#214b9d" stroke="#214b9d"></path><path d="M745 147.3L634 53.1L660 179.3Z" fill="#b362ff" stroke="#b362ff"></path><path d="M591 101.1L588 0L486 0Z" fill="#214b9d" stroke="#214b9d"></path><path d="M362 540L420 540L393 488.9Z" fill="#645bd3" stroke="#645bd3"></path><path d="M393 488.9L484 540L460 422.9Z" fill="#b362ff" stroke="#b362ff"></path><path d="M276 0L201 78.1L290 90.1Z" fill="#645bd3" stroke="#645bd3"></path><path d="M235 112.3L201 78.1L194 141.3Z" fill="#3150ab" stroke="#3150ab"></path><path d="M194 141.3L137 250.4L265 197.4Z" fill="#8a60ea" stroke="#8a60ea"></path><path d="M420 540L484 540L393 488.9Z" fill="#b362ff" stroke="#b362ff"></path><path d="M94 197.4L137 250.4L194 141.3Z" fill="#645bd3" stroke="#645bd3"></path><path d="M154 270.6L80 370.7L189 357.7Z" fill="#775edf" stroke="#775edf"></path><path d="M585 540L654 445.9L523 504.9Z" fill="#4154b9" stroke="#4154b9"></path><path d="M523 504.9L654 445.9L536 402.7Z" fill="#775edf" stroke="#775edf"></path><path d="M229 492.9L360 436.9L262 377.7Z" fill="#775edf" stroke="#775edf"></path><path d="M406 0L278 0L394 57.1Z" fill="#214b9d" stroke="#214b9d"></path><path d="M278 0L276 0L290 90.1Z" fill="#004181" stroke="#004181"></path><path d="M634 53.1L588 0L591 101.1Z" fill="#775edf" stroke="#775edf"></path><path d="M634 53.1L599 0L588 0Z" fill="#5258c6" stroke="#5258c6"></path><path d="M654 445.9L699 403.7L638 351.7Z" fill="#4154b9" stroke="#4154b9"></path><path d="M819 192.3L745 147.3L713 220.4Z" fill="#10468f" stroke="#10468f"></path><path d="M221 540L229 492.9L190 540Z" fill="#645bd3" stroke="#645bd3"></path><path d="M189 357.7L229 492.9L262 377.7Z" fill="#8a60ea" stroke="#8a60ea"></path><path d="M484 540L585 540L523 504.9Z" fill="#8a60ea" stroke="#8a60ea"></path><path d="M654 445.9L746 430.9L699 403.7Z" fill="#214b9d" stroke="#214b9d"></path><path d="M713 220.4L745 147.3L660 179.3Z" fill="#9e61f5" stroke="#9e61f5"></path><path d="M634 53.1L677 0L599 0Z" fill="#5258c6" stroke="#5258c6"></path><path d="M805 268.4L713 220.4L705 269.6Z" fill="#004181" stroke="#004181"></path><path d="M97 77.1L94 197.4L194 141.3Z" fill="#9e61f5" stroke="#9e61f5"></path><path d="M44 293.6L80 370.7L154 270.6Z" fill="#10468f" stroke="#10468f"></path><path d="M741 40.1L677 0L634 53.1Z" fill="#645bd3" stroke="#645bd3"></path><path d="M128 467.9L229 492.9L189 357.7Z" fill="#775edf" stroke="#775edf"></path><path d="M229 492.9L221 540L362 540Z" fill="#5258c6" stroke="#5258c6"></path><path d="M679 540L746 430.9L654 445.9Z" fill="#8a60ea" stroke="#8a60ea"></path><path d="M812 349.7L805 268.4L705 269.6Z" fill="#8a60ea" stroke="#8a60ea"></path><path d="M44 293.6L154 270.6L137 250.4Z" fill="#3150ab" stroke="#3150ab"></path><path d="M90 428.9L128 467.9L189 357.7Z" fill="#b362ff" stroke="#b362ff"></path><path d="M812 349.7L705 269.6L699 403.7Z" fill="#645bd3" stroke="#645bd3"></path><path d="M745 147.3L741 40.1L634 53.1Z" fill="#4154b9" stroke="#4154b9"></path><path d="M128 467.9L190 540L229 492.9Z" fill="#214b9d" stroke="#214b9d"></path><path d="M837 111.1L741 40.1L745 147.3Z" fill="#645bd3" stroke="#645bd3"></path><path d="M137 0L118 44.1L201 78.1Z" fill="#10468f" stroke="#10468f"></path><path d="M201 78.1L97 77.1L194 141.3Z" fill="#4154b9" stroke="#4154b9"></path><path d="M118 44.1L97 77.1L201 78.1Z" fill="#b362ff" stroke="#b362ff"></path><path d="M94 197.4L44 293.6L137 250.4Z" fill="#4154b9" stroke="#4154b9"></path><path d="M585 540L679 540L654 445.9Z" fill="#b362ff" stroke="#b362ff"></path><path d="M80 370.7L90 428.9L189 357.7Z" fill="#3150ab" stroke="#3150ab"></path><path d="M128 467.9L113 540L190 540Z" fill="#5258c6" stroke="#5258c6"></path><path d="M276 0L137 0L201 78.1Z" fill="#004181" stroke="#004181"></path><path d="M118 44.1L50 0L97 77.1Z" fill="#b362ff" stroke="#b362ff"></path><path d="M0 237.4L44 293.6L94 197.4Z" fill="#004181" stroke="#004181"></path><path d="M80 370.7L0 417.7L90 428.9Z" fill="#10468f" stroke="#10468f"></path><path d="M812 349.7L822 267.6L805 268.4Z" fill="#214b9d" stroke="#214b9d"></path><path d="M805 268.4L819 192.3L713 220.4Z" fill="#004181" stroke="#004181"></path><path d="M822 267.6L819 192.3L805 268.4Z" fill="#3150ab" stroke="#3150ab"></path><path d="M842 420.9L812 349.7L746 430.9Z" fill="#10468f" stroke="#10468f"></path><path d="M746 430.9L812 349.7L699 403.7Z" fill="#3150ab" stroke="#3150ab"></path><path d="M0 65.1L42 144.3L97 77.1Z" fill="#10468f" stroke="#10468f"></path><path d="M97 77.1L42 144.3L94 197.4Z" fill="#9e61f5" stroke="#9e61f5"></path><path d="M0 459.9L113 540L90 428.9Z" fill="#4154b9" stroke="#4154b9"></path><path d="M90 428.9L113 540L128 467.9Z" fill="#9e61f5" stroke="#9e61f5"></path><path d="M819 192.3L837 111.1L745 147.3Z" fill="#8a60ea" stroke="#8a60ea"></path><path d="M900 152.3L837 111.1L819 192.3Z" fill="#5258c6" stroke="#5258c6"></path><path d="M0 192.3L0 237.4L94 197.4Z" fill="#10468f" stroke="#10468f"></path><path d="M44 293.6L0 348.6L80 370.7Z" fill="#214b9d" stroke="#214b9d"></path><path d="M0 65.1L0 192.3L42 144.3Z" fill="#645bd3" stroke="#645bd3"></path><path d="M42 144.3L0 192.3L94 197.4Z" fill="#5258c6" stroke="#5258c6"></path><path d="M0 237.4L0 348.6L44 293.6Z" fill="#004181" stroke="#004181"></path><path d="M679 540L768 540L746 430.9Z" fill="#b362ff" stroke="#b362ff"></path><path d="M870 361.7L874 256.4L822 267.6Z" fill="#775edf" stroke="#775edf"></path><path d="M822 267.6L874 256.4L819 192.3Z" fill="#775edf" stroke="#775edf"></path><path d="M870 361.7L822 267.6L812 349.7Z" fill="#3150ab" stroke="#3150ab"></path><path d="M841 460.9L842 420.9L746 430.9Z" fill="#b362ff" stroke="#b362ff"></path><path d="M842 420.9L870 361.7L812 349.7Z" fill="#4154b9" stroke="#4154b9"></path><path d="M137 0L50 0L118 44.1Z" fill="#3150ab" stroke="#3150ab"></path><path d="M768 540L841 460.9L746 430.9Z" fill="#775edf" stroke="#775edf"></path><path d="M960 375.7L914 309.6L870 361.7Z" fill="#214b9d" stroke="#214b9d"></path><path d="M0 348.6L0 417.7L80 370.7Z" fill="#8a60ea" stroke="#8a60ea"></path><path d="M845 0L822 0L837 111.1Z" fill="#775edf" stroke="#775edf"></path><path d="M837 111.1L822 0L741 40.1Z" fill="#775edf" stroke="#775edf"></path><path d="M741 40.1L822 0L677 0Z" fill="#10468f" stroke="#10468f"></path><path d="M50 0L0 65.1L97 77.1Z" fill="#004181" stroke="#004181"></path><path d="M0 417.7L0 459.9L90 428.9Z" fill="#004181" stroke="#004181"></path><path d="M960 230.4L900 152.3L874 256.4Z" fill="#8a60ea" stroke="#8a60ea"></path><path d="M874 256.4L900 152.3L819 192.3Z" fill="#214b9d" stroke="#214b9d"></path><path d="M900 152.3L894 117.1L837 111.1Z" fill="#3150ab" stroke="#3150ab"></path><path d="M894 117.1L845 0L837 111.1Z" fill="#10468f" stroke="#10468f"></path><path d="M870 361.7L914 309.6L874 256.4Z" fill="#5258c6" stroke="#5258c6"></path><path d="M960 319.6L914 309.6L960 375.7Z" fill="#214b9d" stroke="#214b9d"></path><path d="M50 0L0 0L0 65.1Z" fill="#4154b9" stroke="#4154b9"></path><path d="M0 459.9L0 540L113 540Z" fill="#10468f" stroke="#10468f"></path><path d="M768 540L872 540L841 460.9Z" fill="#8a60ea" stroke="#8a60ea"></path><path d="M960 375.7L870 361.7L960 421.9Z" fill="#5258c6" stroke="#5258c6"></path><path d="M960 319.6L960 230.4L914 309.6Z" fill="#645bd3" stroke="#645bd3"></path><path d="M914 309.6L960 230.4L874 256.4Z" fill="#b362ff" stroke="#b362ff"></path><path d="M900 152.3L960 149.3L894 117.1Z" fill="#9e61f5" stroke="#9e61f5"></path><path d="M894 117.1L960 77.1L845 0Z" fill="#10468f" stroke="#10468f"></path><path d="M870 361.7L842 420.9L960 421.9Z" fill="#9e61f5" stroke="#9e61f5"></path><path d="M960 230.4L960 149.3L900 152.3Z" fill="#9e61f5" stroke="#9e61f5"></path><path d="M960 421.9L842 420.9L841 460.9Z" fill="#775edf" stroke="#775edf"></path><path d="M872 540L960 421.9L841 460.9Z" fill="#8a60ea" stroke="#8a60ea"></path><path d="M960 149.3L960 77.1L894 117.1Z" fill="#3150ab" stroke="#3150ab"></path><path d="M960 77.1L960 0L845 0Z" fill="#10468f" stroke="#10468f"></path><path d="M872 540L960 540L960 421.9Z" fill="#645bd3" stroke="#645bd3"></path></g></svg>