<svg id="visual" viewBox="0 0 1920 1080" width="1920" height="1080" xmlns="http://www.w3.org/2000/svg" xmlns:xlink="http://www.w3.org/1999/xlink" version="1.1"><g stroke-width="1" stroke-linejoin="bevel"><path d="M990.5 566L933.5 662L1043.5 623Z" fill="#05263a" stroke="#05263a"></path><path d="M1102.4 745L1116.4 665L1043.5 623Z" fill="#053b52" stroke="#053b52"></path><path d="M1043.5 623L1123.4 573L990.5 566Z" fill="#00d399" stroke="#00d399"></path><path d="M780.6 686L889.5 731L933.5 662Z" fill="#05263a" stroke="#05263a"></path><path d="M933.5 662L1020.5 768L1043.5 623Z" fill="#00ff3e" stroke="#00ff3e"></path><path d="M889.5 731L1020.5 768L933.5 662Z" fill="#001122" stroke="#001122"></path><path d="M1116.4 665L1123.4 573L1043.5 623Z" fill="#00a0a9" stroke="#00a0a9"></path><path d="M867.5 450L878.5 507L996.5 405Z" fill="#053b52" stroke="#053b52"></path><path d="M990.5 566L878.5 507L933.5 662Z" fill="#006b82" stroke="#006b82"></path><path d="M1020.5 768L1102.4 745L1043.5 623Z" fill="#053b52" stroke="#053b52"></path><path d="M996.5 405L878.5 507L990.5 566Z" fill="#05263a" stroke="#05263a"></path><path d="M878.5 507L780.6 686L933.5 662Z" fill="#00a0a9" stroke="#00a0a9"></path><path d="M767.6 515L780.6 686L878.5 507Z" fill="#00ea78" stroke="#00ea78"></path><path d="M1123.4 573L996.5 405L990.5 566Z" fill="#00ff3e" stroke="#00ff3e"></path><path d="M765.6 467L767.6 515L878.5 507Z" fill="#00baaa" stroke="#00baaa"></path><path d="M1272.4 520L1163.4 451L1123.4 573Z" fill="#02536b" stroke="#02536b"></path><path d="M1123.4 573L1163.4 451L996.5 405Z" fill="#008597" stroke="#008597"></path><path d="M1249.4 641L1123.4 573L1116.4 665Z" fill="#008597" stroke="#008597"></path><path d="M886.5 898L1038.5 872L1020.5 768Z" fill="#008597" stroke="#008597"></path><path d="M1020.5 768L1133.4 853L1102.4 745Z" fill="#00baaa" stroke="#00baaa"></path><path d="M886.5 898L1020.5 768L889.5 731Z" fill="#00baaa" stroke="#00baaa"></path><path d="M1213.4 763L1116.4 665L1102.4 745Z" fill="#00baaa" stroke="#00baaa"></path><path d="M1213.4 763L1249.4 641L1116.4 665Z" fill="#00baaa" stroke="#00baaa"></path><path d="M1133.4 853L1213.4 763L1102.4 745Z" fill="#00a0a9" stroke="#00a0a9"></path><path d="M867.5 450L765.6 467L878.5 507Z" fill="#00ff3e" stroke="#00ff3e"></path><path d="M813.6 333L765.6 467L867.5 450Z" fill="#00d399" stroke="#00d399"></path><path d="M1038.5 872L1133.4 853L1020.5 768Z" fill="#006b82" stroke="#006b82"></path><path d="M681.6 749L758.6 786L780.6 686Z" fill="#008597" stroke="#008597"></path><path d="M780.6 686L758.6 786L889.5 731Z" fill="#00ff3e" stroke="#00ff3e"></path><path d="M703.6 552L780.6 686L767.6 515Z" fill="#05263a" stroke="#05263a"></path><path d="M796.6 883L886.5 898L889.5 731Z" fill="#00ff3e" stroke="#00ff3e"></path><path d="M676.6 462L703.6 552L767.6 515Z" fill="#00ea78" stroke="#00ea78"></path><path d="M703.6 552L693.6 651L780.6 686Z" fill="#008597" stroke="#008597"></path><path d="M1163.4 451L1101.4 355L996.5 405Z" fill="#00d399" stroke="#00d399"></path><path d="M996.5 405L940.5 295L867.5 450Z" fill="#006b82" stroke="#006b82"></path><path d="M1101.4 355L1039.5 334L996.5 405Z" fill="#00ea78" stroke="#00ea78"></path><path d="M1249.4 641L1272.4 520L1123.4 573Z" fill="#008597" stroke="#008597"></path><path d="M1163.4 451L1230.4 440L1101.4 355Z" fill="#00baaa" stroke="#00baaa"></path><path d="M1272.4 520L1230.4 440L1163.4 451Z" fill="#00ea78" stroke="#00ea78"></path><path d="M804.6 950L919.5 935L886.5 898Z" fill="#00a0a9" stroke="#00a0a9"></path><path d="M886.5 898L919.5 935L1038.5 872Z" fill="#02536b" stroke="#02536b"></path><path d="M1038.5 872L1098.4 981L1133.4 853Z" fill="#00ea78" stroke="#00ea78"></path><path d="M674.6 842L796.6 883L758.6 786Z" fill="#001122" stroke="#001122"></path><path d="M758.6 786L796.6 883L889.5 731Z" fill="#00d399" stroke="#00d399"></path><path d="M591.7 625L681.6 749L693.6 651Z" fill="#053b52" stroke="#053b52"></path><path d="M693.6 651L681.6 749L780.6 686Z" fill="#00ff3e" stroke="#00ff3e"></path><path d="M1008.5 244L940.5 295L1039.5 334Z" fill="#00ea78" stroke="#00ea78"></path><path d="M1039.5 334L940.5 295L996.5 405Z" fill="#00a0a9" stroke="#00a0a9"></path><path d="M919.5 935L1013.5 959L1038.5 872Z" fill="#006b82" stroke="#006b82"></path><path d="M940.5 295L813.6 333L867.5 450Z" fill="#008597" stroke="#008597"></path><path d="M765.6 467L676.6 462L767.6 515Z" fill="#00baaa" stroke="#00baaa"></path><path d="M1321.3 737L1319.3 677L1249.4 641Z" fill="#006b82" stroke="#006b82"></path><path d="M1249.4 641L1357.3 565L1272.4 520Z" fill="#00baaa" stroke="#00baaa"></path><path d="M1321.3 737L1249.4 641L1213.4 763Z" fill="#05263a" stroke="#05263a"></path><path d="M1269.4 965L1245.4 845L1133.4 853Z" fill="#02536b" stroke="#02536b"></path><path d="M1133.4 853L1245.4 845L1213.4 763Z" fill="#053b52" stroke="#053b52"></path><path d="M662.6 346L676.6 462L765.6 467Z" fill="#02536b" stroke="#02536b"></path><path d="M703.6 552L591.7 625L693.6 651Z" fill="#00ff3e" stroke="#00ff3e"></path><path d="M1245.4 845L1321.3 737L1213.4 763Z" fill="#001122" stroke="#001122"></path><path d="M674.6 842L804.6 950L796.6 883Z" fill="#001122" stroke="#001122"></path><path d="M796.6 883L804.6 950L886.5 898Z" fill="#05263a" stroke="#05263a"></path><path d="M917.5 1080L1001.5 1080L1013.5 959Z" fill="#00ea78" stroke="#00ea78"></path><path d="M1001.5 1080L1098.4 981L1013.5 959Z" fill="#00a0a9" stroke="#00a0a9"></path><path d="M1013.5 959L1098.4 981L1038.5 872Z" fill="#00ea78" stroke="#00ea78"></path><path d="M585.7 791L674.6 842L681.6 749Z" fill="#00ff3e" stroke="#00ff3e"></path><path d="M681.6 749L674.6 842L758.6 786Z" fill="#053b52" stroke="#053b52"></path><path d="M1357.3 565L1318.3 453L1272.4 520Z" fill="#006b82" stroke="#006b82"></path><path d="M1272.4 520L1318.3 453L1230.4 440Z" fill="#006b82" stroke="#006b82"></path><path d="M1230.4 440L1264.4 301L1101.4 355Z" fill="#00d399" stroke="#00d399"></path><path d="M1357.3 565L1249.4 641L1319.3 677Z" fill="#00ea78" stroke="#00ea78"></path><path d="M1456.2 556L1357.3 565L1488.2 658Z" fill="#00d399" stroke="#00d399"></path><path d="M1132.4 209L1008.5 244L1039.5 334Z" fill="#05263a" stroke="#05263a"></path><path d="M940.5 295L927.5 228L813.6 333Z" fill="#05263a" stroke="#05263a"></path><path d="M1132.4 209L1039.5 334L1101.4 355Z" fill="#05263a" stroke="#05263a"></path><path d="M539.7 577L591.7 625L703.6 552Z" fill="#00d399" stroke="#00d399"></path><path d="M1008.5 244L927.5 228L940.5 295Z" fill="#05263a" stroke="#05263a"></path><path d="M813.6 333L662.6 346L765.6 467Z" fill="#053b52" stroke="#053b52"></path><path d="M676.6 462L539.7 577L703.6 552Z" fill="#053b52" stroke="#053b52"></path><path d="M752.6 201L662.6 346L813.6 333Z" fill="#00ff3e" stroke="#00ff3e"></path><path d="M591.7 625L585.7 791L681.6 749Z" fill="#006b82" stroke="#006b82"></path><path d="M705.6 1080L771.6 1080L804.6 950Z" fill="#00ea78" stroke="#00ea78"></path><path d="M1318.3 453L1264.4 301L1230.4 440Z" fill="#001122" stroke="#001122"></path><path d="M662.6 346L589.7 436L676.6 462Z" fill="#02536b" stroke="#02536b"></path><path d="M591.7 625L449.8 678L585.7 791Z" fill="#02536b" stroke="#02536b"></path><path d="M1245.4 845L1373.3 832L1321.3 737Z" fill="#053b52" stroke="#053b52"></path><path d="M1488.2 658L1357.3 565L1319.3 677Z" fill="#02536b" stroke="#02536b"></path><path d="M1269.4 965L1373.3 832L1245.4 845Z" fill="#008597" stroke="#008597"></path><path d="M1264.4 301L1132.4 209L1101.4 355Z" fill="#00baaa" stroke="#00baaa"></path><path d="M1008.5 244L918.5 108L927.5 228Z" fill="#02536b" stroke="#02536b"></path><path d="M1098.4 981L1269.4 965L1133.4 853Z" fill="#00a0a9" stroke="#00a0a9"></path><path d="M589.7 436L539.7 577L676.6 462Z" fill="#02536b" stroke="#02536b"></path><path d="M917.5 1080L1013.5 959L919.5 935Z" fill="#00d399" stroke="#00d399"></path><path d="M1098.4 981L1125.4 1080L1269.4 965Z" fill="#053b52" stroke="#053b52"></path><path d="M804.6 950L917.5 1080L919.5 935Z" fill="#00ea78" stroke="#00ea78"></path><path d="M771.6 1080L917.5 1080L804.6 950Z" fill="#008597" stroke="#008597"></path><path d="M1361.3 303L1258.4 242L1264.4 301Z" fill="#00ff3e" stroke="#00ff3e"></path><path d="M1264.4 301L1258.4 242L1132.4 209Z" fill="#05263a" stroke="#05263a"></path><path d="M1361.3 303L1264.4 301L1318.3 453Z" fill="#05263a" stroke="#05263a"></path><path d="M1001.5 1080L1125.4 1080L1098.4 981Z" fill="#00d399" stroke="#00d399"></path><path d="M1488.2 658L1319.3 677L1321.3 737Z" fill="#008597" stroke="#008597"></path><path d="M1357.3 565L1460.2 440L1318.3 453Z" fill="#008597" stroke="#008597"></path><path d="M918.5 108L752.6 201L927.5 228Z" fill="#00ea78" stroke="#00ea78"></path><path d="M927.5 228L752.6 201L813.6 333Z" fill="#05263a" stroke="#05263a"></path><path d="M464.8 351L486.8 502L589.7 436Z" fill="#05263a" stroke="#05263a"></path><path d="M1429.2 343L1361.3 303L1318.3 453Z" fill="#02536b" stroke="#02536b"></path><path d="M644.6 1004L804.6 950L674.6 842Z" fill="#00baaa" stroke="#00baaa"></path><path d="M452.8 792L527.7 838L585.7 791Z" fill="#053b52" stroke="#053b52"></path><path d="M585.7 791L527.7 838L674.6 842Z" fill="#008597" stroke="#008597"></path><path d="M1493.2 781L1488.2 658L1321.3 737Z" fill="#053b52" stroke="#053b52"></path><path d="M555.7 992L644.6 1004L674.6 842Z" fill="#02536b" stroke="#02536b"></path><path d="M1454.2 976L1439.2 853L1373.3 832Z" fill="#00ff3e" stroke="#00ff3e"></path><path d="M1373.3 832L1493.2 781L1321.3 737Z" fill="#00ff3e" stroke="#00ff3e"></path><path d="M1338.3 1003L1373.3 832L1269.4 965Z" fill="#00ea78" stroke="#00ea78"></path><path d="M589.7 436L486.8 502L539.7 577Z" fill="#00baaa" stroke="#00baaa"></path><path d="M539.7 577L449.8 678L591.7 625Z" fill="#00d399" stroke="#00d399"></path><path d="M565.7 319L589.7 436L662.6 346Z" fill="#00baaa" stroke="#00baaa"></path><path d="M1619.2 466L1460.2 440L1456.2 556Z" fill="#008597" stroke="#008597"></path><path d="M1456.2 556L1460.2 440L1357.3 565Z" fill="#00d399" stroke="#00d399"></path><path d="M1251.4 1080L1338.3 1003L1269.4 965Z" fill="#006b82" stroke="#006b82"></path><path d="M1276.4 112L1105.4 123L1132.4 209Z" fill="#02536b" stroke="#02536b"></path><path d="M1132.4 209L1105.4 123L1008.5 244Z" fill="#00ff3e" stroke="#00ff3e"></path><path d="M1276.4 112L1132.4 209L1258.4 242Z" fill="#00ea78" stroke="#00ea78"></path><path d="M651.6 223L565.7 319L662.6 346Z" fill="#00ea78" stroke="#00ea78"></path><path d="M681.6 124L651.6 223L752.6 201Z" fill="#05263a" stroke="#05263a"></path><path d="M752.6 201L651.6 223L662.6 346Z" fill="#00a0a9" stroke="#00a0a9"></path><path d="M1019.5 74L918.5 108L1008.5 244Z" fill="#006b82" stroke="#006b82"></path><path d="M1125.4 1080L1251.4 1080L1269.4 965Z" fill="#053b52" stroke="#053b52"></path><path d="M1460.2 440L1429.2 343L1318.3 453Z" fill="#02536b" stroke="#02536b"></path><path d="M1361.3 303L1349.3 201L1258.4 242Z" fill="#00d399" stroke="#00d399"></path><path d="M644.6 1004L705.6 1080L804.6 950Z" fill="#053b52" stroke="#053b52"></path><path d="M1562.2 778L1493.2 781L1552.2 880Z" fill="#00ff3e" stroke="#00ff3e"></path><path d="M1439.2 853L1493.2 781L1373.3 832Z" fill="#006b82" stroke="#006b82"></path><path d="M376.8 544L449.8 678L539.7 577Z" fill="#05263a" stroke="#05263a"></path><path d="M527.7 838L555.7 992L674.6 842Z" fill="#00baaa" stroke="#00baaa"></path><path d="M644.6 1004L593.7 1080L705.6 1080Z" fill="#00baaa" stroke="#00baaa"></path><path d="M452.8 792L487.8 843L527.7 838Z" fill="#00a0a9" stroke="#00a0a9"></path><path d="M1105.4 123L1019.5 74L1008.5 244Z" fill="#00baaa" stroke="#00baaa"></path><path d="M449.8 678L452.8 792L585.7 791Z" fill="#02536b" stroke="#02536b"></path><path d="M1488.2 180L1349.3 201L1361.3 303Z" fill="#00ff3e" stroke="#00ff3e"></path><path d="M1118.4 0L1001.5 0L1019.5 74Z" fill="#00d399" stroke="#00d399"></path><path d="M439.8 967L555.7 992L487.8 843Z" fill="#00a0a9" stroke="#00a0a9"></path><path d="M487.8 843L555.7 992L527.7 838Z" fill="#006b82" stroke="#006b82"></path><path d="M764.6 69L681.6 124L752.6 201Z" fill="#00d399" stroke="#00d399"></path><path d="M432.8 240L464.8 351L565.7 319Z" fill="#001122" stroke="#001122"></path><path d="M764.6 69L752.6 201L918.5 108Z" fill="#00baaa" stroke="#00baaa"></path><path d="M535.7 206L565.7 319L651.6 223Z" fill="#053b52" stroke="#053b52"></path><path d="M565.7 319L464.8 351L589.7 436Z" fill="#008597" stroke="#008597"></path><path d="M486.8 502L376.8 544L539.7 577Z" fill="#006b82" stroke="#006b82"></path><path d="M1387.3 1080L1454.2 976L1338.3 1003Z" fill="#05263a" stroke="#05263a"></path><path d="M1338.3 1003L1454.2 976L1373.3 832Z" fill="#00ea78" stroke="#00ea78"></path><path d="M1349.3 201L1276.4 112L1258.4 242Z" fill="#00baaa" stroke="#00baaa"></path><path d="M1493.2 781L1573.2 681L1488.2 658Z" fill="#00a0a9" stroke="#00a0a9"></path><path d="M1488.2 658L1618.2 556L1456.2 556Z" fill="#02536b" stroke="#02536b"></path><path d="M1460.2 440L1556.2 294L1429.2 343Z" fill="#05263a" stroke="#05263a"></path><path d="M1562.2 778L1573.2 681L1493.2 781Z" fill="#02536b" stroke="#02536b"></path><path d="M555.7 992L593.7 1080L644.6 1004Z" fill="#05263a" stroke="#05263a"></path><path d="M440.8 1080L593.7 1080L555.7 992Z" fill="#053b52" stroke="#053b52"></path><path d="M827.6 0L764.6 69L918.5 108Z" fill="#00a0a9" stroke="#00a0a9"></path><path d="M1552.2 880L1493.2 781L1439.2 853Z" fill="#00d399" stroke="#00d399"></path><path d="M464.8 351L417.8 420L486.8 502Z" fill="#00d399" stroke="#00d399"></path><path d="M449.8 678L324.8 736L452.8 792Z" fill="#00baaa" stroke="#00baaa"></path><path d="M1251.4 1080L1387.3 1080L1338.3 1003Z" fill="#008597" stroke="#008597"></path><path d="M417.8 420L376.8 544L486.8 502Z" fill="#008597" stroke="#008597"></path><path d="M362.8 330L338.8 429L417.8 420Z" fill="#00baaa" stroke="#00baaa"></path><path d="M533.7 110L535.7 206L651.6 223Z" fill="#001122" stroke="#001122"></path><path d="M432.8 240L535.7 206L460.8 89Z" fill="#053b52" stroke="#053b52"></path><path d="M1454.2 976L1552.2 880L1439.2 853Z" fill="#00ff3e" stroke="#00ff3e"></path><path d="M1718.1 559L1618.2 556L1732.1 644Z" fill="#00d399" stroke="#00d399"></path><path d="M1569.2 981L1552.2 880L1454.2 976Z" fill="#00d399" stroke="#00d399"></path><path d="M1118.4 0L1019.5 74L1105.4 123Z" fill="#00ff3e" stroke="#00ff3e"></path><path d="M1019.5 74L1001.5 0L918.5 108Z" fill="#00d399" stroke="#00d399"></path><path d="M376.8 544L355.8 652L449.8 678Z" fill="#006b82" stroke="#006b82"></path><path d="M371.8 867L439.8 967L487.8 843Z" fill="#053b52" stroke="#053b52"></path><path d="M1001.5 0L867.5 0L918.5 108Z" fill="#001122" stroke="#001122"></path><path d="M678.6 0L533.7 110L681.6 124Z" fill="#008597" stroke="#008597"></path><path d="M1656.1 772L1573.2 681L1562.2 778Z" fill="#053b52" stroke="#053b52"></path><path d="M1573.2 681L1618.2 556L1488.2 658Z" fill="#00a0a9" stroke="#00a0a9"></path><path d="M1488.2 180L1384.3 126L1349.3 201Z" fill="#00baaa" stroke="#00baaa"></path><path d="M1234.4 0L1118.4 0L1105.4 123Z" fill="#00d399" stroke="#00d399"></path><path d="M371.8 867L487.8 843L452.8 792Z" fill="#05263a" stroke="#05263a"></path><path d="M1349.3 201L1384.3 126L1276.4 112Z" fill="#001122" stroke="#001122"></path><path d="M1276.4 112L1234.4 0L1105.4 123Z" fill="#006b82" stroke="#006b82"></path><path d="M1488.2 180L1361.3 303L1429.2 343Z" fill="#008597" stroke="#008597"></path><path d="M867.5 0L827.6 0L918.5 108Z" fill="#008597" stroke="#008597"></path><path d="M1618.2 556L1619.2 466L1456.2 556Z" fill="#00ea78" stroke="#00ea78"></path><path d="M324.8 736L371.8 867L452.8 792Z" fill="#00ff3e" stroke="#00ff3e"></path><path d="M1619.2 466L1556.2 294L1460.2 440Z" fill="#02536b" stroke="#02536b"></path><path d="M1387.3 1080L1466.2 1080L1454.2 976Z" fill="#006b82" stroke="#006b82"></path><path d="M253.9 761L324.8 736L208.9 665Z" fill="#00ea78" stroke="#00ea78"></path><path d="M355.8 652L324.8 736L449.8 678Z" fill="#00ea78" stroke="#00ea78"></path><path d="M533.7 110L651.6 223L681.6 124Z" fill="#00baaa" stroke="#00baaa"></path><path d="M535.7 206L432.8 240L565.7 319Z" fill="#008597" stroke="#008597"></path><path d="M417.8 420L338.8 429L376.8 544Z" fill="#05263a" stroke="#05263a"></path><path d="M376.8 544L249.9 528L355.8 652Z" fill="#008597" stroke="#008597"></path><path d="M362.8 330L417.8 420L464.8 351Z" fill="#00ff3e" stroke="#00ff3e"></path><path d="M1556.2 294L1488.2 180L1429.2 343Z" fill="#02536b" stroke="#02536b"></path><path d="M1362.3 0L1234.4 0L1276.4 112Z" fill="#00d399" stroke="#00d399"></path><path d="M1362.3 0L1276.4 112L1384.3 126Z" fill="#00ff3e" stroke="#00ff3e"></path><path d="M678.6 0L681.6 124L764.6 69Z" fill="#00a0a9" stroke="#00a0a9"></path><path d="M1466.2 1080L1569.2 981L1454.2 976Z" fill="#00ff3e" stroke="#00ff3e"></path><path d="M1552.2 880L1656.1 772L1562.2 778Z" fill="#05263a" stroke="#05263a"></path><path d="M326.8 232L362.8 330L432.8 240Z" fill="#00baaa" stroke="#00baaa"></path><path d="M432.8 240L362.8 330L464.8 351Z" fill="#05263a" stroke="#05263a"></path><path d="M1732.1 890L1656.1 772L1552.2 880Z" fill="#00ff3e" stroke="#00ff3e"></path><path d="M1618.2 556L1716.1 464L1619.2 466Z" fill="#00a0a9" stroke="#00a0a9"></path><path d="M827.6 0L678.6 0L764.6 69Z" fill="#05263a" stroke="#05263a"></path><path d="M350.8 989L439.8 967L371.8 867Z" fill="#001122" stroke="#001122"></path><path d="M350.8 989L440.8 1080L439.8 967Z" fill="#006b82" stroke="#006b82"></path><path d="M439.8 967L440.8 1080L555.7 992Z" fill="#001122" stroke="#001122"></path><path d="M1556.2 294L1554.2 182L1488.2 180Z" fill="#00ea78" stroke="#00ea78"></path><path d="M1479.2 0L1362.3 0L1384.3 126Z" fill="#006b82" stroke="#006b82"></path><path d="M1689.1 179L1554.2 182L1556.2 294Z" fill="#00a0a9" stroke="#00a0a9"></path><path d="M250.9 889L350.8 989L371.8 867Z" fill="#00d399" stroke="#00d399"></path><path d="M1497.2 99L1384.3 126L1488.2 180Z" fill="#001122" stroke="#001122"></path><path d="M1554.2 182L1497.2 99L1488.2 180Z" fill="#00ff3e" stroke="#00ff3e"></path><path d="M1732.1 644L1618.2 556L1573.2 681Z" fill="#053b52" stroke="#053b52"></path><path d="M1619.2 466L1690.1 330L1556.2 294Z" fill="#008597" stroke="#008597"></path><path d="M222.9 405L249.9 528L338.8 429Z" fill="#00ea78" stroke="#00ea78"></path><path d="M338.8 429L249.9 528L376.8 544Z" fill="#00ff3e" stroke="#00ff3e"></path><path d="M324.8 736L253.9 761L371.8 867Z" fill="#00a0a9" stroke="#00a0a9"></path><path d="M208.9 665L324.8 736L355.8 652Z" fill="#001122" stroke="#001122"></path><path d="M1466.2 1080L1575.2 1080L1569.2 981Z" fill="#006b82" stroke="#006b82"></path><path d="M1719.1 940L1732.1 890L1552.2 880Z" fill="#00baaa" stroke="#00baaa"></path><path d="M1656.1 772L1732.1 644L1573.2 681Z" fill="#00d399" stroke="#00d399"></path><path d="M533.7 110L460.8 89L535.7 206Z" fill="#00d399" stroke="#00d399"></path><path d="M362.8 330L222.9 405L338.8 429Z" fill="#008597" stroke="#008597"></path><path d="M484.8 0L460.8 89L533.7 110Z" fill="#006b82" stroke="#006b82"></path><path d="M1818.1 718L1732.1 644L1656.1 772Z" fill="#00d399" stroke="#00d399"></path><path d="M1773.1 355L1716.1 464L1844.1 438Z" fill="#053b52" stroke="#053b52"></path><path d="M1718.1 559L1716.1 464L1618.2 556Z" fill="#053b52" stroke="#053b52"></path><path d="M239.9 1080L369.8 1080L350.8 989Z" fill="#00ff3e" stroke="#00ff3e"></path><path d="M350.8 989L369.8 1080L440.8 1080Z" fill="#02536b" stroke="#02536b"></path><path d="M315.8 135L326.8 232L432.8 240Z" fill="#00d399" stroke="#00d399"></path><path d="M1716.1 464L1690.1 330L1619.2 466Z" fill="#008597" stroke="#008597"></path><path d="M1570.2 0L1479.2 0L1497.2 99Z" fill="#006b82" stroke="#006b82"></path><path d="M678.6 0L537.7 0L533.7 110Z" fill="#05263a" stroke="#05263a"></path><path d="M460.8 89L315.8 135L432.8 240Z" fill="#02536b" stroke="#02536b"></path><path d="M249.9 528L208.9 665L355.8 652Z" fill="#008597" stroke="#008597"></path><path d="M253.9 761L250.9 889L371.8 867Z" fill="#00ff3e" stroke="#00ff3e"></path><path d="M102.9 565L208.9 665L249.9 528Z" fill="#008597" stroke="#008597"></path><path d="M201.9 966L250.9 889L91.9 853Z" fill="#008597" stroke="#008597"></path><path d="M214.9 287L222.9 405L362.8 330Z" fill="#00d399" stroke="#00d399"></path><path d="M1719.1 940L1552.2 880L1569.2 981Z" fill="#05263a" stroke="#05263a"></path><path d="M1619.2 71L1497.2 99L1554.2 182Z" fill="#00d399" stroke="#00d399"></path><path d="M1497.2 99L1479.2 0L1384.3 126Z" fill="#05263a" stroke="#05263a"></path><path d="M537.7 0L484.8 0L533.7 110Z" fill="#00baaa" stroke="#00baaa"></path><path d="M1708.1 1080L1719.1 940L1569.2 981Z" fill="#00ea78" stroke="#00ea78"></path><path d="M304.8 0L315.8 135L460.8 89Z" fill="#00ff3e" stroke="#00ff3e"></path><path d="M326.8 232L214.9 287L362.8 330Z" fill="#053b52" stroke="#053b52"></path><path d="M1716.1 464L1773.1 355L1690.1 330Z" fill="#008597" stroke="#008597"></path><path d="M1690.1 330L1689.1 179L1556.2 294Z" fill="#02536b" stroke="#02536b"></path><path d="M1834.1 561L1716.1 464L1718.1 559Z" fill="#006b82" stroke="#006b82"></path><path d="M1834.1 561L1718.1 559L1839.1 611Z" fill="#00baaa" stroke="#00baaa"></path><path d="M1772.1 248L1689.1 179L1690.1 330Z" fill="#00a0a9" stroke="#00a0a9"></path><path d="M206.9 199L214.9 287L326.8 232Z" fill="#00d399" stroke="#00d399"></path><path d="M222.9 405L127.9 429L249.9 528Z" fill="#02536b" stroke="#02536b"></path><path d="M1801.1 850L1656.1 772L1732.1 890Z" fill="#053b52" stroke="#053b52"></path><path d="M1801.1 850L1818.1 718L1656.1 772Z" fill="#00ff3e" stroke="#00ff3e"></path><path d="M1689.1 179L1619.2 71L1554.2 182Z" fill="#053b52" stroke="#053b52"></path><path d="M1788.1 997L1801.1 850L1732.1 890Z" fill="#00baaa" stroke="#00baaa"></path><path d="M250.9 889L201.9 966L350.8 989Z" fill="#00ff3e" stroke="#00ff3e"></path><path d="M91.9 853L250.9 889L253.9 761Z" fill="#008597" stroke="#008597"></path><path d="M94.9 730L253.9 761L208.9 665Z" fill="#00d399" stroke="#00d399"></path><path d="M1839.1 611L1718.1 559L1732.1 644Z" fill="#001122" stroke="#001122"></path><path d="M1575.2 1080L1708.1 1080L1569.2 981Z" fill="#00baaa" stroke="#00baaa"></path><path d="M1719.1 940L1788.1 997L1732.1 890Z" fill="#00a0a9" stroke="#00a0a9"></path><path d="M1920 611L1839.1 611L1818.1 718Z" fill="#05263a" stroke="#05263a"></path><path d="M1818.1 718L1839.1 611L1732.1 644Z" fill="#00baaa" stroke="#00baaa"></path><path d="M1619.2 71L1570.2 0L1497.2 99Z" fill="#02536b" stroke="#02536b"></path><path d="M201.9 966L239.9 1080L350.8 989Z" fill="#001122" stroke="#001122"></path><path d="M1773.1 355L1772.1 248L1690.1 330Z" fill="#006b82" stroke="#006b82"></path><path d="M1689.1 179L1725.1 122L1619.2 71Z" fill="#001122" stroke="#001122"></path><path d="M1619.2 71L1681.1 0L1570.2 0Z" fill="#00ff3e" stroke="#00ff3e"></path><path d="M1920 334L1772.1 248L1773.1 355Z" fill="#001122" stroke="#001122"></path><path d="M74.9 352L127.9 429L222.9 405Z" fill="#00d399" stroke="#00d399"></path><path d="M1834.1 561L1844.1 438L1716.1 464Z" fill="#02536b" stroke="#02536b"></path><path d="M1920 443L1844.1 438L1834.1 561Z" fill="#00a0a9" stroke="#00a0a9"></path><path d="M127.9 429L102.9 565L249.9 528Z" fill="#02536b" stroke="#02536b"></path><path d="M315.8 135L206.9 199L326.8 232Z" fill="#00d399" stroke="#00d399"></path><path d="M214.9 287L74.9 352L222.9 405Z" fill="#00ea78" stroke="#00ea78"></path><path d="M202.9 109L206.9 199L315.8 135Z" fill="#00a0a9" stroke="#00a0a9"></path><path d="M1708.1 1080L1788.1 997L1719.1 940Z" fill="#02536b" stroke="#02536b"></path><path d="M1920 779L1920 611L1818.1 718Z" fill="#00baaa" stroke="#00baaa"></path><path d="M89.9 685L94.9 730L208.9 665Z" fill="#05263a" stroke="#05263a"></path><path d="M201.9 966L146.9 1080L239.9 1080Z" fill="#001122" stroke="#001122"></path><path d="M102.9 565L89.9 685L208.9 665Z" fill="#006b82" stroke="#006b82"></path><path d="M1825.1 99L1725.1 122L1772.1 248Z" fill="#02536b" stroke="#02536b"></path><path d="M1772.1 248L1725.1 122L1689.1 179Z" fill="#02536b" stroke="#02536b"></path><path d="M1708.1 1080L1772.1 1080L1788.1 997Z" fill="#008597" stroke="#008597"></path><path d="M0 839L91.9 853L94.9 730Z" fill="#05263a" stroke="#05263a"></path><path d="M94.9 730L91.9 853L253.9 761Z" fill="#00a0a9" stroke="#00a0a9"></path><path d="M484.8 0L304.8 0L460.8 89Z" fill="#00a0a9" stroke="#00a0a9"></path><path d="M304.8 0L202.9 109L315.8 135Z" fill="#00ea78" stroke="#00ea78"></path><path d="M91.9 209L74.9 352L214.9 287Z" fill="#006b82" stroke="#006b82"></path><path d="M1920 779L1818.1 718L1801.1 850Z" fill="#053b52" stroke="#053b52"></path><path d="M1839.1 611L1920 577L1834.1 561Z" fill="#00a0a9" stroke="#00a0a9"></path><path d="M1844.1 438L1920 334L1773.1 355Z" fill="#05263a" stroke="#05263a"></path><path d="M1920 779L1801.1 850L1920 861Z" fill="#05263a" stroke="#05263a"></path><path d="M1771.1 0L1681.1 0L1725.1 122Z" fill="#006b82" stroke="#006b82"></path><path d="M1725.1 122L1681.1 0L1619.2 71Z" fill="#05263a" stroke="#05263a"></path><path d="M1920 611L1920 577L1839.1 611Z" fill="#05263a" stroke="#05263a"></path><path d="M127.9 429L0 510L102.9 565Z" fill="#00a0a9" stroke="#00a0a9"></path><path d="M102.9 565L0 632L89.9 685Z" fill="#001122" stroke="#001122"></path><path d="M0 937L87.9 966L91.9 853Z" fill="#00ff3e" stroke="#00ff3e"></path><path d="M91.9 209L214.9 287L206.9 199Z" fill="#02536b" stroke="#02536b"></path><path d="M1920 861L1801.1 850L1788.1 997Z" fill="#02536b" stroke="#02536b"></path><path d="M87.9 966L146.9 1080L201.9 966Z" fill="#053b52" stroke="#053b52"></path><path d="M1920 577L1920 443L1834.1 561Z" fill="#053b52" stroke="#053b52"></path><path d="M91.9 853L87.9 966L201.9 966Z" fill="#00ff3e" stroke="#00ff3e"></path><path d="M0 724L94.9 730L89.9 685Z" fill="#00baaa" stroke="#00baaa"></path><path d="M1920 997L1920 861L1788.1 997Z" fill="#008597" stroke="#008597"></path><path d="M304.8 0L236.9 0L202.9 109Z" fill="#00baaa" stroke="#00baaa"></path><path d="M115.9 143L91.9 209L206.9 199Z" fill="#053b52" stroke="#053b52"></path><path d="M1920 443L1920 334L1844.1 438Z" fill="#00ea78" stroke="#00ea78"></path><path d="M0 510L0 632L102.9 565Z" fill="#001122" stroke="#001122"></path><path d="M115.9 143L206.9 199L202.9 109Z" fill="#00ff3e" stroke="#00ff3e"></path><path d="M0 396L0 510L127.9 429Z" fill="#006b82" stroke="#006b82"></path><path d="M0 632L0 724L89.9 685Z" fill="#00ea78" stroke="#00ea78"></path><path d="M0 396L127.9 429L74.9 352Z" fill="#001122" stroke="#001122"></path><path d="M137.9 0L115.9 143L202.9 109Z" fill="#008597" stroke="#008597"></path><path d="M1920 212L1825.1 99L1772.1 248Z" fill="#02536b" stroke="#02536b"></path><path d="M0 724L0 839L94.9 730Z" fill="#05263a" stroke="#05263a"></path><path d="M87.9 966L0 1080L146.9 1080Z" fill="#00ff3e" stroke="#00ff3e"></path><path d="M1825.1 99L1771.1 0L1725.1 122Z" fill="#00a0a9" stroke="#00a0a9"></path><path d="M1920 1080L1920 997L1788.1 997Z" fill="#00ff3e" stroke="#00ff3e"></path><path d="M0 356L0 396L74.9 352Z" fill="#00baaa" stroke="#00baaa"></path><path d="M0 356L74.9 352L91.9 209Z" fill="#008597" stroke="#008597"></path><path d="M0 189L0 356L91.9 209Z" fill="#001122" stroke="#001122"></path><path d="M1920 334L1920 212L1772.1 248Z" fill="#00ea78" stroke="#00ea78"></path><path d="M1825.1 99L1920 0L1771.1 0Z" fill="#006b82" stroke="#006b82"></path><path d="M0 839L0 937L91.9 853Z" fill="#053b52" stroke="#053b52"></path><path d="M1772.1 1080L1920 1080L1788.1 997Z" fill="#00baaa" stroke="#00baaa"></path><path d="M236.9 0L137.9 0L202.9 109Z" fill="#00a0a9" stroke="#00a0a9"></path><path d="M115.9 143L0 189L91.9 209Z" fill="#05263a" stroke="#05263a"></path><path d="M0 96L0 189L115.9 143Z" fill="#00d399" stroke="#00d399"></path><path d="M0 937L0 1080L87.9 966Z" fill="#053b52" stroke="#053b52"></path><path d="M1920 212L1920 72L1825.1 99Z" fill="#00ff3e" stroke="#00ff3e"></path><path d="M137.9 0L0 96L115.9 143Z" fill="#008597" stroke="#008597"></path><path d="M1920 72L1920 0L1825.1 99Z" fill="#001122" stroke="#001122"></path><path d="M137.9 0L0 0L0 96Z" fill="#00baaa" stroke="#00baaa"></path></g></svg>