<svg id="visual" viewBox="0 0 1920 1080" width="1920" height="1080" xmlns="http://www.w3.org/2000/svg" xmlns:xlink="http://www.w3.org/1999/xlink" version="1.1"><g stroke-width="1" stroke-linejoin="bevel"><path d="M977.5 563L932.5 498L963.5 599Z" fill="#006b82" stroke="#006b82"></path><path d="M932.5 498L923.5 636L963.5 599Z" fill="#008597" stroke="#008597"></path><path d="M977.5 563L964.5 474L932.5 498Z" fill="#00ea78" stroke="#00ea78"></path><path d="M748.6 414L767.6 501L932.5 498Z" fill="#02536b" stroke="#02536b"></path><path d="M932.5 498L767.6 501L923.5 636Z" fill="#001122" stroke="#001122"></path><path d="M767.6 501L780.6 644L923.5 636Z" fill="#008597" stroke="#008597"></path><path d="M923.5 636L996.5 715L963.5 599Z" fill="#053b52" stroke="#053b52"></path><path d="M963.5 599L1090.4 621L977.5 563Z" fill="#05263a" stroke="#05263a"></path><path d="M911.5 750L996.5 715L923.5 636Z" fill="#00baaa" stroke="#00baaa"></path><path d="M964.5 474L938.5 384L932.5 498Z" fill="#00ea78" stroke="#00ea78"></path><path d="M996.5 715L1090.4 621L963.5 599Z" fill="#008597" stroke="#008597"></path><path d="M977.5 563L1119.4 496L964.5 474Z" fill="#006b82" stroke="#006b82"></path><path d="M964.5 474L1132.4 366L938.5 384Z" fill="#05263a" stroke="#05263a"></path><path d="M780.6 644L911.5 750L923.5 636Z" fill="#006b82" stroke="#006b82"></path><path d="M1090.4 621L1119.4 496L977.5 563Z" fill="#001122" stroke="#001122"></path><path d="M938.5 384L748.6 414L932.5 498Z" fill="#008597" stroke="#008597"></path><path d="M767.6 501L651.6 578L780.6 644Z" fill="#001122" stroke="#001122"></path><path d="M660.6 638L792.6 758L780.6 644Z" fill="#00baaa" stroke="#00baaa"></path><path d="M780.6 644L792.6 758L911.5 750Z" fill="#00d399" stroke="#00d399"></path><path d="M1132.4 366L979.5 308L938.5 384Z" fill="#00baaa" stroke="#00baaa"></path><path d="M938.5 384L805.6 313L748.6 414Z" fill="#05263a" stroke="#05263a"></path><path d="M666.6 421L651.6 578L767.6 501Z" fill="#00ea78" stroke="#00ea78"></path><path d="M651.6 578L660.6 638L780.6 644Z" fill="#00ff3e" stroke="#00ff3e"></path><path d="M979.5 308L912.5 291L938.5 384Z" fill="#05263a" stroke="#05263a"></path><path d="M912.5 291L805.6 313L938.5 384Z" fill="#006b82" stroke="#006b82"></path><path d="M748.6 414L666.6 421L767.6 501Z" fill="#00ff3e" stroke="#00ff3e"></path><path d="M1198.4 458L1172.4 453L1119.4 496Z" fill="#02536b" stroke="#02536b"></path><path d="M1119.4 496L1132.4 366L964.5 474Z" fill="#00ea78" stroke="#00ea78"></path><path d="M693.6 363L666.6 421L748.6 414Z" fill="#05263a" stroke="#05263a"></path><path d="M1172.4 453L1132.4 366L1119.4 496Z" fill="#00baaa" stroke="#00baaa"></path><path d="M805.6 313L693.6 363L748.6 414Z" fill="#02536b" stroke="#02536b"></path><path d="M1271.4 611L1198.4 458L1119.4 496Z" fill="#001122" stroke="#001122"></path><path d="M1172.4 453L1198.4 458L1132.4 366Z" fill="#00baaa" stroke="#00baaa"></path><path d="M979.5 308L901.5 257L912.5 291Z" fill="#02536b" stroke="#02536b"></path><path d="M912.5 291L901.5 257L805.6 313Z" fill="#02536b" stroke="#02536b"></path><path d="M805.6 313L756.6 225L693.6 363Z" fill="#05263a" stroke="#05263a"></path><path d="M995.5 173L901.5 257L979.5 308Z" fill="#00ea78" stroke="#00ea78"></path><path d="M808.6 852L928.5 867L911.5 750Z" fill="#001122" stroke="#001122"></path><path d="M911.5 750L993.5 866L996.5 715Z" fill="#00baaa" stroke="#00baaa"></path><path d="M996.5 715L1170.4 764L1090.4 621Z" fill="#00ff3e" stroke="#00ff3e"></path><path d="M1090.4 621L1271.4 611L1119.4 496Z" fill="#001122" stroke="#001122"></path><path d="M680.6 905L808.6 852L792.6 758Z" fill="#00d399" stroke="#00d399"></path><path d="M792.6 758L808.6 852L911.5 750Z" fill="#00ff3e" stroke="#00ff3e"></path><path d="M928.5 867L993.5 866L911.5 750Z" fill="#001122" stroke="#001122"></path><path d="M993.5 866L1170.4 764L996.5 715Z" fill="#02536b" stroke="#02536b"></path><path d="M651.6 578L585.7 597L660.6 638Z" fill="#02536b" stroke="#02536b"></path><path d="M660.6 638L625.6 789L792.6 758Z" fill="#008597" stroke="#008597"></path><path d="M511.7 547L585.7 597L651.6 578Z" fill="#00a0a9" stroke="#00a0a9"></path><path d="M1204.4 833L1205.4 768L1170.4 764Z" fill="#008597" stroke="#008597"></path><path d="M1170.4 764L1271.4 611L1090.4 621Z" fill="#05263a" stroke="#05263a"></path><path d="M1205.4 768L1271.4 611L1170.4 764Z" fill="#006b82" stroke="#006b82"></path><path d="M525.7 755L625.6 789L660.6 638Z" fill="#053b52" stroke="#053b52"></path><path d="M901.5 257L756.6 225L805.6 313Z" fill="#00a0a9" stroke="#00a0a9"></path><path d="M693.6 363L573.7 347L666.6 421Z" fill="#00a0a9" stroke="#00a0a9"></path><path d="M666.6 421L511.7 547L651.6 578Z" fill="#006b82" stroke="#006b82"></path><path d="M1271.4 611L1282.4 503L1198.4 458Z" fill="#00baaa" stroke="#00baaa"></path><path d="M1198.4 458L1248.4 327L1132.4 366Z" fill="#00d399" stroke="#00d399"></path><path d="M993.5 866L1128.4 885L1170.4 764Z" fill="#05263a" stroke="#05263a"></path><path d="M1009.5 953L1128.4 885L993.5 866Z" fill="#00d399" stroke="#00d399"></path><path d="M680.6 905L780.6 926L808.6 852Z" fill="#001122" stroke="#001122"></path><path d="M808.6 852L898.5 968L928.5 867Z" fill="#00d399" stroke="#00d399"></path><path d="M928.5 867L1009.5 953L993.5 866Z" fill="#006b82" stroke="#006b82"></path><path d="M1102.4 176L979.5 308L1132.4 366Z" fill="#00a0a9" stroke="#00a0a9"></path><path d="M1102.4 176L995.5 173L979.5 308Z" fill="#053b52" stroke="#053b52"></path><path d="M901.5 257L809.6 104L756.6 225Z" fill="#00ff3e" stroke="#00ff3e"></path><path d="M1128.4 885L1204.4 833L1170.4 764Z" fill="#02536b" stroke="#02536b"></path><path d="M1352.3 763L1332.3 598L1271.4 611Z" fill="#053b52" stroke="#053b52"></path><path d="M679.6 215L573.7 347L693.6 363Z" fill="#00baaa" stroke="#00baaa"></path><path d="M511.7 439L511.7 547L666.6 421Z" fill="#05263a" stroke="#05263a"></path><path d="M585.7 597L525.7 755L660.6 638Z" fill="#00baaa" stroke="#00baaa"></path><path d="M898.5 968L1009.5 953L928.5 867Z" fill="#006b82" stroke="#006b82"></path><path d="M1282.4 503L1248.4 327L1198.4 458Z" fill="#006b82" stroke="#006b82"></path><path d="M780.6 926L898.5 968L808.6 852Z" fill="#05263a" stroke="#05263a"></path><path d="M1271.4 611L1325.3 523L1282.4 503Z" fill="#006b82" stroke="#006b82"></path><path d="M1282.4 503L1375.3 478L1248.4 327Z" fill="#00d399" stroke="#00d399"></path><path d="M1332.3 598L1325.3 523L1271.4 611Z" fill="#00ff3e" stroke="#00ff3e"></path><path d="M809.6 104L679.6 215L756.6 225Z" fill="#001122" stroke="#001122"></path><path d="M756.6 225L679.6 215L693.6 363Z" fill="#00d399" stroke="#00d399"></path><path d="M625.6 789L680.6 905L792.6 758Z" fill="#00a0a9" stroke="#00a0a9"></path><path d="M810.6 1080L890.5 1080L898.5 968Z" fill="#05263a" stroke="#05263a"></path><path d="M573.7 347L511.7 439L666.6 421Z" fill="#006b82" stroke="#006b82"></path><path d="M1352.3 763L1271.4 611L1205.4 768Z" fill="#00baaa" stroke="#00baaa"></path><path d="M995.5 173L924.5 136L901.5 257Z" fill="#00ff3e" stroke="#00ff3e"></path><path d="M1219.4 247L1102.4 176L1132.4 366Z" fill="#05263a" stroke="#05263a"></path><path d="M995.5 173L1028.5 142L924.5 136Z" fill="#053b52" stroke="#053b52"></path><path d="M485.8 508L487.8 610L511.7 547Z" fill="#00baaa" stroke="#00baaa"></path><path d="M511.7 547L487.8 610L585.7 597Z" fill="#02536b" stroke="#02536b"></path><path d="M525.7 826L668.6 936L680.6 905Z" fill="#00ff3e" stroke="#00ff3e"></path><path d="M511.7 439L485.8 508L511.7 547Z" fill="#00d399" stroke="#00d399"></path><path d="M1102.4 176L1028.5 142L995.5 173Z" fill="#02536b" stroke="#02536b"></path><path d="M487.8 610L525.7 755L585.7 597Z" fill="#00a0a9" stroke="#00a0a9"></path><path d="M1339.3 209L1219.4 247L1248.4 327Z" fill="#00baaa" stroke="#00baaa"></path><path d="M1248.4 327L1219.4 247L1132.4 366Z" fill="#053b52" stroke="#053b52"></path><path d="M525.7 826L680.6 905L625.6 789Z" fill="#053b52" stroke="#053b52"></path><path d="M680.6 905L668.6 936L780.6 926Z" fill="#00baaa" stroke="#00baaa"></path><path d="M1128.4 885L1138.4 949L1204.4 833Z" fill="#00a0a9" stroke="#00a0a9"></path><path d="M1009.5 953L1138.4 949L1128.4 885Z" fill="#00a0a9" stroke="#00a0a9"></path><path d="M1048.5 1080L1138.4 949L1009.5 953Z" fill="#00baaa" stroke="#00baaa"></path><path d="M573.7 347L475.8 412L511.7 439Z" fill="#00baaa" stroke="#00baaa"></path><path d="M511.7 439L475.8 412L485.8 508Z" fill="#00a0a9" stroke="#00a0a9"></path><path d="M485.8 508L381.8 551L487.8 610Z" fill="#00ea78" stroke="#00ea78"></path><path d="M418.8 358L475.8 412L573.7 347Z" fill="#02536b" stroke="#02536b"></path><path d="M851.5 0L809.6 104L924.5 136Z" fill="#008597" stroke="#008597"></path><path d="M924.5 136L809.6 104L901.5 257Z" fill="#00baaa" stroke="#00baaa"></path><path d="M1441.2 592L1375.3 478L1325.3 523Z" fill="#05263a" stroke="#05263a"></path><path d="M1325.3 523L1375.3 478L1282.4 503Z" fill="#02536b" stroke="#02536b"></path><path d="M478.8 862L525.7 826L418.8 756Z" fill="#05263a" stroke="#05263a"></path><path d="M525.7 755L525.7 826L625.6 789Z" fill="#00ff3e" stroke="#00ff3e"></path><path d="M1316.3 892L1352.3 763L1204.4 833Z" fill="#00ea78" stroke="#00ea78"></path><path d="M1204.4 833L1352.3 763L1205.4 768Z" fill="#00baaa" stroke="#00baaa"></path><path d="M1332.3 598L1441.2 592L1325.3 523Z" fill="#008597" stroke="#008597"></path><path d="M565.7 144L585.7 203L679.6 215Z" fill="#00a0a9" stroke="#00a0a9"></path><path d="M679.6 215L585.7 203L573.7 347Z" fill="#00ff3e" stroke="#00ff3e"></path><path d="M1102.4 176L1142.4 99L1028.5 142Z" fill="#00baaa" stroke="#00baaa"></path><path d="M1048.5 0L851.5 0L924.5 136Z" fill="#053b52" stroke="#053b52"></path><path d="M1219.4 247L1142.4 99L1102.4 176Z" fill="#00baaa" stroke="#00baaa"></path><path d="M1266.4 145L1142.4 99L1219.4 247Z" fill="#00a0a9" stroke="#00a0a9"></path><path d="M1375.3 478L1384.3 344L1248.4 327Z" fill="#05263a" stroke="#05263a"></path><path d="M810.6 1080L898.5 968L780.6 926Z" fill="#05263a" stroke="#05263a"></path><path d="M898.5 968L890.5 1080L1009.5 953Z" fill="#05263a" stroke="#05263a"></path><path d="M1358.3 944L1316.3 892L1288.4 1019Z" fill="#02536b" stroke="#02536b"></path><path d="M1138.4 949L1316.3 892L1204.4 833Z" fill="#006b82" stroke="#006b82"></path><path d="M1464.2 644L1332.3 598L1352.3 763Z" fill="#001122" stroke="#001122"></path><path d="M1464.2 644L1441.2 592L1332.3 598Z" fill="#00baaa" stroke="#00baaa"></path><path d="M1375.3 478L1464.2 462L1384.3 344Z" fill="#02536b" stroke="#02536b"></path><path d="M418.8 756L525.7 826L525.7 755Z" fill="#00a0a9" stroke="#00a0a9"></path><path d="M525.7 826L585.7 997L668.6 936Z" fill="#008597" stroke="#008597"></path><path d="M668.6 936L810.6 1080L780.6 926Z" fill="#006b82" stroke="#006b82"></path><path d="M418.8 756L525.7 755L487.8 610Z" fill="#053b52" stroke="#053b52"></path><path d="M644.6 1080L810.6 1080L668.6 936Z" fill="#05263a" stroke="#05263a"></path><path d="M297.8 430L381.8 551L475.8 412Z" fill="#00a0a9" stroke="#00a0a9"></path><path d="M475.8 412L381.8 551L485.8 508Z" fill="#00ea78" stroke="#00ea78"></path><path d="M346.8 721L418.8 756L487.8 610Z" fill="#00d399" stroke="#00d399"></path><path d="M453.8 184L418.8 358L573.7 347Z" fill="#00a0a9" stroke="#00a0a9"></path><path d="M890.5 1080L1048.5 1080L1009.5 953Z" fill="#001122" stroke="#001122"></path><path d="M637.6 77L565.7 144L679.6 215Z" fill="#00ea78" stroke="#00ea78"></path><path d="M585.7 203L453.8 184L573.7 347Z" fill="#00d399" stroke="#00d399"></path><path d="M1339.3 209L1266.4 145L1219.4 247Z" fill="#02536b" stroke="#02536b"></path><path d="M478.8 862L585.7 997L525.7 826Z" fill="#05263a" stroke="#05263a"></path><path d="M1384.3 344L1339.3 209L1248.4 327Z" fill="#02536b" stroke="#02536b"></path><path d="M809.6 104L637.6 77L679.6 215Z" fill="#006b82" stroke="#006b82"></path><path d="M780.6 0L637.6 77L809.6 104Z" fill="#001122" stroke="#001122"></path><path d="M1439.2 807L1464.2 644L1352.3 763Z" fill="#006b82" stroke="#006b82"></path><path d="M1441.2 592L1464.2 462L1375.3 478Z" fill="#02536b" stroke="#02536b"></path><path d="M1548.2 438L1464.2 462L1441.2 592Z" fill="#05263a" stroke="#05263a"></path><path d="M1384.3 344L1498.2 213L1339.3 209Z" fill="#00baaa" stroke="#00baaa"></path><path d="M1048.5 0L924.5 136L1028.5 142Z" fill="#00ff3e" stroke="#00ff3e"></path><path d="M1048.5 1080L1138.4 1080L1138.4 949Z" fill="#053b52" stroke="#053b52"></path><path d="M851.5 0L780.6 0L809.6 104Z" fill="#00baaa" stroke="#00baaa"></path><path d="M1464.2 462L1449.2 350L1384.3 344Z" fill="#00d399" stroke="#00d399"></path><path d="M1173.4 0L1048.5 0L1142.4 99Z" fill="#00ff3e" stroke="#00ff3e"></path><path d="M1142.4 99L1048.5 0L1028.5 142Z" fill="#00ea78" stroke="#00ea78"></path><path d="M1316.3 892L1439.2 807L1352.3 763Z" fill="#053b52" stroke="#053b52"></path><path d="M1464.2 869L1439.2 807L1316.3 892Z" fill="#00a0a9" stroke="#00a0a9"></path><path d="M256.9 575L331.8 605L381.8 551Z" fill="#00ea78" stroke="#00ea78"></path><path d="M381.8 551L331.8 605L487.8 610Z" fill="#05263a" stroke="#05263a"></path><path d="M418.8 756L298.8 877L478.8 862Z" fill="#008597" stroke="#008597"></path><path d="M528.7 1080L644.6 1080L585.7 997Z" fill="#006b82" stroke="#006b82"></path><path d="M585.7 997L644.6 1080L668.6 936Z" fill="#00baaa" stroke="#00baaa"></path><path d="M1288.4 1019L1316.3 892L1138.4 949Z" fill="#008597" stroke="#008597"></path><path d="M331.8 605L346.8 721L487.8 610Z" fill="#006b82" stroke="#006b82"></path><path d="M478.8 862L467.8 966L585.7 997Z" fill="#00baaa" stroke="#00baaa"></path><path d="M1138.4 1080L1288.4 1019L1138.4 949Z" fill="#008597" stroke="#008597"></path><path d="M565.7 144L453.8 184L585.7 203Z" fill="#00ea78" stroke="#00ea78"></path><path d="M418.8 358L297.8 430L475.8 412Z" fill="#00a0a9" stroke="#00a0a9"></path><path d="M430.8 139L453.8 184L565.7 144Z" fill="#001122" stroke="#001122"></path><path d="M298.8 877L467.8 966L478.8 862Z" fill="#00a0a9" stroke="#00a0a9"></path><path d="M780.6 0L670.6 0L637.6 77Z" fill="#00a0a9" stroke="#00a0a9"></path><path d="M637.6 77L607.7 0L565.7 144Z" fill="#02536b" stroke="#02536b"></path><path d="M1217.4 0L1173.4 0L1142.4 99Z" fill="#006b82" stroke="#006b82"></path><path d="M1217.4 0L1142.4 99L1266.4 145Z" fill="#00d399" stroke="#00d399"></path><path d="M354.8 237L339.8 333L418.8 358Z" fill="#00d399" stroke="#00d399"></path><path d="M339.8 333L297.8 430L418.8 358Z" fill="#008597" stroke="#008597"></path><path d="M331.8 605L231.9 725L346.8 721Z" fill="#00ea78" stroke="#00ea78"></path><path d="M1138.4 1080L1267.4 1080L1288.4 1019Z" fill="#02536b" stroke="#02536b"></path><path d="M1475.2 1080L1477.2 920L1358.3 944Z" fill="#00ff3e" stroke="#00ff3e"></path><path d="M1358.3 944L1464.2 869L1316.3 892Z" fill="#006b82" stroke="#006b82"></path><path d="M1439.2 807L1572.2 704L1464.2 644Z" fill="#00a0a9" stroke="#00a0a9"></path><path d="M1477.2 920L1464.2 869L1358.3 944Z" fill="#00a0a9" stroke="#00a0a9"></path><path d="M1387.3 76L1266.4 145L1339.3 209Z" fill="#00ff3e" stroke="#00ff3e"></path><path d="M1387.3 76L1217.4 0L1266.4 145Z" fill="#006b82" stroke="#006b82"></path><path d="M670.6 0L607.7 0L637.6 77Z" fill="#00d399" stroke="#00d399"></path><path d="M453.8 184L354.8 237L418.8 358Z" fill="#00d399" stroke="#00d399"></path><path d="M420.8 0L430.8 139L565.7 144Z" fill="#00a0a9" stroke="#00a0a9"></path><path d="M430.8 139L354.8 237L453.8 184Z" fill="#001122" stroke="#001122"></path><path d="M235.9 315L248.9 439L297.8 430Z" fill="#053b52" stroke="#053b52"></path><path d="M1464.2 462L1548.2 438L1449.2 350Z" fill="#00d399" stroke="#00d399"></path><path d="M1498.2 213L1421.2 126L1339.3 209Z" fill="#008597" stroke="#008597"></path><path d="M1633.2 588L1548.2 438L1441.2 592Z" fill="#00baaa" stroke="#00baaa"></path><path d="M1633.2 588L1441.2 592L1464.2 644Z" fill="#053b52" stroke="#053b52"></path><path d="M467.8 966L528.7 1080L585.7 997Z" fill="#00d399" stroke="#00d399"></path><path d="M297.8 430L256.9 575L381.8 551Z" fill="#00baaa" stroke="#00baaa"></path><path d="M346.8 721L298.8 877L418.8 756Z" fill="#00baaa" stroke="#00baaa"></path><path d="M467.8 966L446.8 1080L528.7 1080Z" fill="#00a0a9" stroke="#00a0a9"></path><path d="M1498.2 213L1384.3 344L1449.2 350Z" fill="#00ea78" stroke="#00ea78"></path><path d="M1344.3 1080L1358.3 944L1288.4 1019Z" fill="#053b52" stroke="#053b52"></path><path d="M1568.2 834L1572.2 704L1439.2 807Z" fill="#008597" stroke="#008597"></path><path d="M1568.2 834L1439.2 807L1464.2 869Z" fill="#05263a" stroke="#05263a"></path><path d="M235.9 315L297.8 430L339.8 333Z" fill="#02536b" stroke="#02536b"></path><path d="M297.8 430L248.9 439L256.9 575Z" fill="#00baaa" stroke="#00baaa"></path><path d="M1267.4 1080L1344.3 1080L1288.4 1019Z" fill="#00ea78" stroke="#00ea78"></path><path d="M1421.2 126L1387.3 76L1339.3 209Z" fill="#00baaa" stroke="#00baaa"></path><path d="M1623.2 376L1498.2 213L1449.2 350Z" fill="#02536b" stroke="#02536b"></path><path d="M1423.2 0L1383.3 0L1387.3 76Z" fill="#053b52" stroke="#053b52"></path><path d="M235.9 852L298.8 877L346.8 721Z" fill="#00a0a9" stroke="#00a0a9"></path><path d="M299.8 996L446.8 1080L467.8 966Z" fill="#00baaa" stroke="#00baaa"></path><path d="M173.9 617L231.9 725L256.9 575Z" fill="#00ea78" stroke="#00ea78"></path><path d="M256.9 575L231.9 725L331.8 605Z" fill="#053b52" stroke="#053b52"></path><path d="M1683.1 782L1609.2 680L1572.2 704Z" fill="#00baaa" stroke="#00baaa"></path><path d="M1572.2 704L1609.2 680L1464.2 644Z" fill="#006b82" stroke="#006b82"></path><path d="M1548.2 438L1623.2 376L1449.2 350Z" fill="#02536b" stroke="#02536b"></path><path d="M1531.2 967L1568.2 834L1477.2 920Z" fill="#00d399" stroke="#00d399"></path><path d="M1477.2 920L1568.2 834L1464.2 869Z" fill="#00baaa" stroke="#00baaa"></path><path d="M1609.2 680L1633.2 588L1464.2 644Z" fill="#05263a" stroke="#05263a"></path><path d="M354.8 237L235.9 315L339.8 333Z" fill="#008597" stroke="#008597"></path><path d="M248.9 439L173.9 617L256.9 575Z" fill="#00d399" stroke="#00d399"></path><path d="M193.9 245L235.9 315L354.8 237Z" fill="#001122" stroke="#001122"></path><path d="M1423.2 0L1387.3 76L1421.2 126Z" fill="#02536b" stroke="#02536b"></path><path d="M1387.3 76L1383.3 0L1217.4 0Z" fill="#00baaa" stroke="#00baaa"></path><path d="M368.8 0L306.8 150L430.8 139Z" fill="#00a0a9" stroke="#00a0a9"></path><path d="M430.8 139L306.8 150L354.8 237Z" fill="#008597" stroke="#008597"></path><path d="M1737.1 470L1623.2 376L1548.2 438Z" fill="#053b52" stroke="#053b52"></path><path d="M1560.2 117L1423.2 0L1421.2 126Z" fill="#006b82" stroke="#006b82"></path><path d="M231.9 725L235.9 852L346.8 721Z" fill="#00d399" stroke="#00d399"></path><path d="M298.8 877L299.8 996L467.8 966Z" fill="#00a0a9" stroke="#00a0a9"></path><path d="M1475.2 1080L1531.2 967L1477.2 920Z" fill="#00a0a9" stroke="#00a0a9"></path><path d="M161.9 402L173.9 617L248.9 439Z" fill="#05263a" stroke="#05263a"></path><path d="M231.9 725L161.9 806L235.9 852Z" fill="#00ea78" stroke="#00ea78"></path><path d="M607.7 0L420.8 0L565.7 144Z" fill="#00a0a9" stroke="#00a0a9"></path><path d="M195.9 1002L299.8 996L298.8 877Z" fill="#02536b" stroke="#02536b"></path><path d="M1560.2 117L1421.2 126L1498.2 213Z" fill="#001122" stroke="#001122"></path><path d="M1344.3 1080L1475.2 1080L1358.3 944Z" fill="#00a0a9" stroke="#00a0a9"></path><path d="M137.9 314L161.9 402L235.9 315Z" fill="#00ff3e" stroke="#00ff3e"></path><path d="M235.9 315L161.9 402L248.9 439Z" fill="#001122" stroke="#001122"></path><path d="M1737.1 470L1662.1 363L1623.2 376Z" fill="#02536b" stroke="#02536b"></path><path d="M1623.2 376L1608.2 213L1498.2 213Z" fill="#00ff3e" stroke="#00ff3e"></path><path d="M1662.1 363L1608.2 213L1623.2 376Z" fill="#00d399" stroke="#00d399"></path><path d="M420.8 0L368.8 0L430.8 139Z" fill="#00d399" stroke="#00d399"></path><path d="M306.8 150L193.9 245L354.8 237Z" fill="#05263a" stroke="#05263a"></path><path d="M1608.2 213L1560.2 117L1498.2 213Z" fill="#006b82" stroke="#006b82"></path><path d="M202.9 117L193.9 245L306.8 150Z" fill="#00ff3e" stroke="#00ff3e"></path><path d="M1683.1 782L1568.2 834L1724.1 881Z" fill="#05263a" stroke="#05263a"></path><path d="M1683.1 782L1572.2 704L1568.2 834Z" fill="#00d399" stroke="#00d399"></path><path d="M1683.1 782L1691.1 681L1609.2 680Z" fill="#008597" stroke="#008597"></path><path d="M1609.2 680L1691.1 681L1633.2 588Z" fill="#006b82" stroke="#006b82"></path><path d="M1633.2 588L1708.1 548L1548.2 438Z" fill="#02536b" stroke="#02536b"></path><path d="M203.9 1080L322.8 1080L299.8 996Z" fill="#00ea78" stroke="#00ea78"></path><path d="M299.8 996L322.8 1080L446.8 1080Z" fill="#006b82" stroke="#006b82"></path><path d="M99.9 608L161.9 806L173.9 617Z" fill="#00a0a9" stroke="#00a0a9"></path><path d="M173.9 617L161.9 806L231.9 725Z" fill="#00ea78" stroke="#00ea78"></path><path d="M235.9 852L195.9 1002L298.8 877Z" fill="#02536b" stroke="#02536b"></path><path d="M1691.1 681L1708.1 548L1633.2 588Z" fill="#02536b" stroke="#02536b"></path><path d="M1724.1 881L1568.2 834L1531.2 967Z" fill="#001122" stroke="#001122"></path><path d="M1789.1 542L1737.1 470L1708.1 548Z" fill="#00ea78" stroke="#00ea78"></path><path d="M193.9 245L137.9 314L235.9 315Z" fill="#05263a" stroke="#05263a"></path><path d="M62.9 543L99.9 608L173.9 617Z" fill="#02536b" stroke="#02536b"></path><path d="M121.9 175L137.9 314L193.9 245Z" fill="#008597" stroke="#008597"></path><path d="M62.9 543L173.9 617L161.9 402Z" fill="#00ff3e" stroke="#00ff3e"></path><path d="M1789.1 542L1708.1 548L1691.1 681Z" fill="#008597" stroke="#008597"></path><path d="M1708.1 548L1737.1 470L1548.2 438Z" fill="#00a0a9" stroke="#00a0a9"></path><path d="M1662.1 363L1696.1 202L1608.2 213Z" fill="#00ea78" stroke="#00ea78"></path><path d="M1608.2 213L1650.1 56L1560.2 117Z" fill="#00ea78" stroke="#00ea78"></path><path d="M234.9 0L202.9 117L306.8 150Z" fill="#00ff3e" stroke="#00ff3e"></path><path d="M86.9 895L235.9 852L161.9 806Z" fill="#00a0a9" stroke="#00a0a9"></path><path d="M86.9 895L195.9 1002L235.9 852Z" fill="#00d399" stroke="#00d399"></path><path d="M0 407L62.9 543L161.9 402Z" fill="#00ff3e" stroke="#00ff3e"></path><path d="M0 852L86.9 895L161.9 806Z" fill="#00a0a9" stroke="#00a0a9"></path><path d="M1762.1 309L1696.1 202L1662.1 363Z" fill="#001122" stroke="#001122"></path><path d="M1560.2 117L1616.2 0L1423.2 0Z" fill="#006b82" stroke="#006b82"></path><path d="M1726.1 1018L1724.1 881L1531.2 967Z" fill="#001122" stroke="#001122"></path><path d="M1683.1 782L1830.1 760L1691.1 681Z" fill="#006b82" stroke="#006b82"></path><path d="M1475.2 1080L1614.2 1080L1531.2 967Z" fill="#02536b" stroke="#02536b"></path><path d="M1850.1 681L1789.1 542L1691.1 681Z" fill="#00d399" stroke="#00d399"></path><path d="M1737.1 470L1762.1 309L1662.1 363Z" fill="#00ff3e" stroke="#00ff3e"></path><path d="M368.8 0L234.9 0L306.8 150Z" fill="#001122" stroke="#001122"></path><path d="M202.9 117L121.9 175L193.9 245Z" fill="#00ea78" stroke="#00ea78"></path><path d="M0 407L0 586L62.9 543Z" fill="#006b82" stroke="#006b82"></path><path d="M121.9 63L121.9 175L202.9 117Z" fill="#00ea78" stroke="#00ea78"></path><path d="M132.9 1008L203.9 1080L195.9 1002Z" fill="#001122" stroke="#001122"></path><path d="M195.9 1002L203.9 1080L299.8 996Z" fill="#001122" stroke="#001122"></path><path d="M1832.1 384L1762.1 309L1737.1 470Z" fill="#008597" stroke="#008597"></path><path d="M1774.1 188L1650.1 56L1696.1 202Z" fill="#05263a" stroke="#05263a"></path><path d="M1696.1 202L1650.1 56L1608.2 213Z" fill="#00ea78" stroke="#00ea78"></path><path d="M0 703L161.9 806L99.9 608Z" fill="#00a0a9" stroke="#00a0a9"></path><path d="M1650.1 56L1616.2 0L1560.2 117Z" fill="#00baaa" stroke="#00baaa"></path><path d="M86.9 895L132.9 1008L195.9 1002Z" fill="#00ea78" stroke="#00ea78"></path><path d="M1779.1 921L1777.1 859L1724.1 881Z" fill="#00ff3e" stroke="#00ff3e"></path><path d="M1724.1 881L1777.1 859L1683.1 782Z" fill="#00d399" stroke="#00d399"></path><path d="M0 407L161.9 402L137.9 314Z" fill="#05263a" stroke="#05263a"></path><path d="M62.9 543L0 586L99.9 608Z" fill="#006b82" stroke="#006b82"></path><path d="M0 586L0 617L99.9 608Z" fill="#006b82" stroke="#006b82"></path><path d="M0 617L0 703L99.9 608Z" fill="#00ff3e" stroke="#00ff3e"></path><path d="M0 1002L83.9 1080L132.9 1008Z" fill="#02536b" stroke="#02536b"></path><path d="M0 281L0 407L137.9 314Z" fill="#00ff3e" stroke="#00ff3e"></path><path d="M1614.2 1080L1726.1 1018L1531.2 967Z" fill="#00ea78" stroke="#00ea78"></path><path d="M234.9 0L121.9 63L202.9 117Z" fill="#02536b" stroke="#02536b"></path><path d="M121.9 175L0 281L137.9 314Z" fill="#00ea78" stroke="#00ea78"></path><path d="M1789.1 542L1832.1 384L1737.1 470Z" fill="#00ea78" stroke="#00ea78"></path><path d="M1762.1 309L1774.1 188L1696.1 202Z" fill="#001122" stroke="#001122"></path><path d="M1920 473L1832.1 384L1789.1 542Z" fill="#00d399" stroke="#00d399"></path><path d="M1831.1 138L1774.1 188L1920 207Z" fill="#00baaa" stroke="#00baaa"></path><path d="M1650.1 56L1713.1 0L1616.2 0Z" fill="#008597" stroke="#008597"></path><path d="M1726.1 1018L1779.1 921L1724.1 881Z" fill="#008597" stroke="#008597"></path><path d="M1777.1 859L1830.1 760L1683.1 782Z" fill="#00d399" stroke="#00d399"></path><path d="M1920 743L1830.1 760L1920 916Z" fill="#053b52" stroke="#053b52"></path><path d="M1830.1 760L1850.1 681L1691.1 681Z" fill="#00a0a9" stroke="#00a0a9"></path><path d="M1614.2 1080L1705.1 1080L1726.1 1018Z" fill="#053b52" stroke="#053b52"></path><path d="M1726.1 1018L1766.1 1080L1779.1 921Z" fill="#053b52" stroke="#053b52"></path><path d="M0 207L0 281L121.9 175Z" fill="#05263a" stroke="#05263a"></path><path d="M0 703L0 852L161.9 806Z" fill="#053b52" stroke="#053b52"></path><path d="M234.9 0L129.9 0L121.9 63Z" fill="#001122" stroke="#001122"></path><path d="M0 126L0 207L121.9 175Z" fill="#00ea78" stroke="#00ea78"></path><path d="M1774.1 188L1713.1 0L1650.1 56Z" fill="#008597" stroke="#008597"></path><path d="M0 126L121.9 175L121.9 63Z" fill="#00ea78" stroke="#00ea78"></path><path d="M0 1002L132.9 1008L86.9 895Z" fill="#05263a" stroke="#05263a"></path><path d="M132.9 1008L83.9 1080L203.9 1080Z" fill="#053b52" stroke="#053b52"></path><path d="M1705.1 1080L1766.1 1080L1726.1 1018Z" fill="#00a0a9" stroke="#00a0a9"></path><path d="M1920 743L1850.1 681L1830.1 760Z" fill="#05263a" stroke="#05263a"></path><path d="M1920 624L1789.1 542L1850.1 681Z" fill="#05263a" stroke="#05263a"></path><path d="M1920 624L1850.1 681L1920 743Z" fill="#001122" stroke="#001122"></path><path d="M1920 624L1920 561L1789.1 542Z" fill="#05263a" stroke="#05263a"></path><path d="M1920 207L1774.1 188L1762.1 309Z" fill="#00ff3e" stroke="#00ff3e"></path><path d="M1774.1 188L1831.1 138L1713.1 0Z" fill="#053b52" stroke="#053b52"></path><path d="M1830.1 760L1777.1 859L1920 916Z" fill="#02536b" stroke="#02536b"></path><path d="M1920 207L1762.1 309L1832.1 384Z" fill="#00a0a9" stroke="#00a0a9"></path><path d="M1920 561L1920 473L1789.1 542Z" fill="#053b52" stroke="#053b52"></path><path d="M0 0L0 126L121.9 63Z" fill="#05263a" stroke="#05263a"></path><path d="M0 852L0 1002L86.9 895Z" fill="#02536b" stroke="#02536b"></path><path d="M1920 916L1777.1 859L1779.1 921Z" fill="#00ea78" stroke="#00ea78"></path><path d="M1920 473L1920 370L1832.1 384Z" fill="#05263a" stroke="#05263a"></path><path d="M0 1002L0 1080L83.9 1080Z" fill="#001122" stroke="#001122"></path><path d="M1920 370L1920 207L1832.1 384Z" fill="#00d399" stroke="#00d399"></path><path d="M1831.1 138L1843.1 0L1713.1 0Z" fill="#053b52" stroke="#053b52"></path><path d="M1920 990L1920 916L1779.1 921Z" fill="#02536b" stroke="#02536b"></path><path d="M129.9 0L0 0L121.9 63Z" fill="#00ff3e" stroke="#00ff3e"></path><path d="M1920 65L1843.1 0L1831.1 138Z" fill="#00baaa" stroke="#00baaa"></path><path d="M1766.1 1080L1920 990L1779.1 921Z" fill="#00d399" stroke="#00d399"></path><path d="M1920 207L1920 65L1831.1 138Z" fill="#00ea78" stroke="#00ea78"></path><path d="M1766.1 1080L1920 1080L1920 990Z" fill="#006b82" stroke="#006b82"></path><path d="M1920 65L1920 0L1843.1 0Z" fill="#00d399" stroke="#00d399"></path></g></svg>