<svg id="visual" viewBox="0 0 960 540" width="960" height="540" xmlns="http://www.w3.org/2000/svg" xmlns:xlink="http://www.w3.org/1999/xlink" version="1.1"><g stroke-width="1" stroke-linejoin="bevel"><path d="M456 279.6L470 240.4L439 251.4Z" fill="#3150ab" stroke="#3150ab"></path><path d="M368 179.3L376 269.6L439 251.4Z" fill="#645bd3" stroke="#645bd3"></path><path d="M439 251.4L376 269.6L456 279.6Z" fill="#3150ab" stroke="#3150ab"></path><path d="M456 279.6L555 253.4L470 240.4Z" fill="#4154b9" stroke="#4154b9"></path><path d="M435 426.7L495 354.7L456 279.6Z" fill="#5258c6" stroke="#5258c6"></path><path d="M456 279.6L570 312.6L555 253.4Z" fill="#004181" stroke="#004181"></path><path d="M376 269.6L360 288.6L456 279.6Z" fill="#3150ab" stroke="#3150ab"></path><path d="M555 253.4L473 147.3L470 240.4Z" fill="#775edf" stroke="#775edf"></path><path d="M470 240.4L473 147.3L439 251.4Z" fill="#004181" stroke="#004181"></path><path d="M376 269.6L331 273.4L360 288.6Z" fill="#4154b9" stroke="#4154b9"></path><path d="M473 147.3L368 179.3L439 251.4Z" fill="#775edf" stroke="#775edf"></path><path d="M495 354.7L570 312.6L456 279.6Z" fill="#004181" stroke="#004181"></path><path d="M368 179.3L331 273.4L376 269.6Z" fill="#10468f" stroke="#10468f"></path><path d="M472 435.9L539 390.7L495 354.7Z" fill="#004181" stroke="#004181"></path><path d="M495 354.7L539 390.7L570 312.6Z" fill="#645bd3" stroke="#645bd3"></path><path d="M435 426.7L456 279.6L360 288.6Z" fill="#4154b9" stroke="#4154b9"></path><path d="M555 253.4L540 114.3L473 147.3Z" fill="#10468f" stroke="#10468f"></path><path d="M346 41.1L299 145.3L368 179.3Z" fill="#214b9d" stroke="#214b9d"></path><path d="M594 110.1L540 114.3L555 253.4Z" fill="#9e61f5" stroke="#9e61f5"></path><path d="M671 375.7L626 281.6L570 312.6Z" fill="#9e61f5" stroke="#9e61f5"></path><path d="M570 312.6L626 281.6L555 253.4Z" fill="#214b9d" stroke="#214b9d"></path><path d="M323 427.7L435 426.7L360 288.6Z" fill="#5258c6" stroke="#5258c6"></path><path d="M435 426.7L472 435.9L495 354.7Z" fill="#4154b9" stroke="#4154b9"></path><path d="M398 38.1L368 179.3L473 147.3Z" fill="#8a60ea" stroke="#8a60ea"></path><path d="M368 179.3L299 145.3L331 273.4Z" fill="#9e61f5" stroke="#9e61f5"></path><path d="M663 189.3L594 110.1L555 253.4Z" fill="#214b9d" stroke="#214b9d"></path><path d="M520 0L483 53.1L540 114.3Z" fill="#b362ff" stroke="#b362ff"></path><path d="M540 114.3L483 53.1L473 147.3Z" fill="#645bd3" stroke="#645bd3"></path><path d="M721 338.6L673 235.4L626 281.6Z" fill="#10468f" stroke="#10468f"></path><path d="M626 281.6L663 189.3L555 253.4Z" fill="#645bd3" stroke="#645bd3"></path><path d="M673 235.4L663 189.3L626 281.6Z" fill="#4154b9" stroke="#4154b9"></path><path d="M472 435.9L526 463.9L539 390.7Z" fill="#004181" stroke="#004181"></path><path d="M539 390.7L671 375.7L570 312.6Z" fill="#3150ab" stroke="#3150ab"></path><path d="M438 540L526 463.9L472 435.9Z" fill="#10468f" stroke="#10468f"></path><path d="M206 326.6L276 373.7L331 273.4Z" fill="#b362ff" stroke="#b362ff"></path><path d="M331 273.4L276 373.7L360 288.6Z" fill="#b362ff" stroke="#b362ff"></path><path d="M435 426.7L438 540L472 435.9Z" fill="#775edf" stroke="#775edf"></path><path d="M276 373.7L323 427.7L360 288.6Z" fill="#5258c6" stroke="#5258c6"></path><path d="M323 427.7L364 463.9L435 426.7Z" fill="#645bd3" stroke="#645bd3"></path><path d="M483 53.1L398 38.1L473 147.3Z" fill="#775edf" stroke="#775edf"></path><path d="M670 476.9L671 375.7L539 390.7Z" fill="#b362ff" stroke="#b362ff"></path><path d="M239 149.3L224 191.4L299 145.3Z" fill="#775edf" stroke="#775edf"></path><path d="M299 145.3L224 191.4L331 273.4Z" fill="#645bd3" stroke="#645bd3"></path><path d="M398 38.1L346 41.1L368 179.3Z" fill="#645bd3" stroke="#645bd3"></path><path d="M275 62.1L239 149.3L299 145.3Z" fill="#10468f" stroke="#10468f"></path><path d="M269 448.9L344 486.9L323 427.7Z" fill="#214b9d" stroke="#214b9d"></path><path d="M323 427.7L344 486.9L364 463.9Z" fill="#9e61f5" stroke="#9e61f5"></path><path d="M429 540L438 540L435 426.7Z" fill="#4154b9" stroke="#4154b9"></path><path d="M224 191.4L206 326.6L331 273.4Z" fill="#b362ff" stroke="#b362ff"></path><path d="M276 373.7L269 448.9L323 427.7Z" fill="#8a60ea" stroke="#8a60ea"></path><path d="M775 271.4L719 215.4L673 235.4Z" fill="#5258c6" stroke="#5258c6"></path><path d="M673 235.4L719 215.4L663 189.3Z" fill="#645bd3" stroke="#645bd3"></path><path d="M663 189.3L675 75.1L594 110.1Z" fill="#3150ab" stroke="#3150ab"></path><path d="M483 53.1L406 0L398 38.1Z" fill="#4154b9" stroke="#4154b9"></path><path d="M398 38.1L345 0L346 41.1Z" fill="#b362ff" stroke="#b362ff"></path><path d="M520 0L406 0L483 53.1Z" fill="#214b9d" stroke="#214b9d"></path><path d="M612 0L520 0L594 110.1Z" fill="#214b9d" stroke="#214b9d"></path><path d="M594 110.1L520 0L540 114.3Z" fill="#004181" stroke="#004181"></path><path d="M196 423.9L269 448.9L276 373.7Z" fill="#214b9d" stroke="#214b9d"></path><path d="M345 0L275 62.1L346 41.1Z" fill="#3150ab" stroke="#3150ab"></path><path d="M346 41.1L275 62.1L299 145.3Z" fill="#3150ab" stroke="#3150ab"></path><path d="M239 149.3L195 203.4L224 191.4Z" fill="#4154b9" stroke="#4154b9"></path><path d="M224 191.4L195 203.4L206 326.6Z" fill="#4154b9" stroke="#4154b9"></path><path d="M140 134.3L195 203.4L239 149.3Z" fill="#775edf" stroke="#775edf"></path><path d="M671 375.7L721 338.6L626 281.6Z" fill="#9e61f5" stroke="#9e61f5"></path><path d="M429 540L364 463.9L344 486.9Z" fill="#9e61f5" stroke="#9e61f5"></path><path d="M429 540L435 426.7L364 463.9Z" fill="#775edf" stroke="#775edf"></path><path d="M526 463.9L670 476.9L539 390.7Z" fill="#3150ab" stroke="#3150ab"></path><path d="M406 0L345 0L398 38.1Z" fill="#5258c6" stroke="#5258c6"></path><path d="M327 540L429 540L344 486.9Z" fill="#b362ff" stroke="#b362ff"></path><path d="M731 108.1L675 75.1L663 189.3Z" fill="#4154b9" stroke="#4154b9"></path><path d="M719 215.4L732 171.3L663 189.3Z" fill="#8a60ea" stroke="#8a60ea"></path><path d="M775 271.4L732 171.3L719 215.4Z" fill="#10468f" stroke="#10468f"></path><path d="M438 540L521 540L526 463.9Z" fill="#9e61f5" stroke="#9e61f5"></path><path d="M671 375.7L747 379.7L721 338.6Z" fill="#3150ab" stroke="#3150ab"></path><path d="M675 75.1L612 0L594 110.1Z" fill="#214b9d" stroke="#214b9d"></path><path d="M602 540L670 476.9L526 463.9Z" fill="#3150ab" stroke="#3150ab"></path><path d="M151 273.6L174 367.7L206 326.6Z" fill="#8a60ea" stroke="#8a60ea"></path><path d="M206 326.6L174 367.7L276 373.7Z" fill="#10468f" stroke="#10468f"></path><path d="M195 203.4L151 273.6L206 326.6Z" fill="#10468f" stroke="#10468f"></path><path d="M97 227.4L151 273.6L195 203.4Z" fill="#3150ab" stroke="#3150ab"></path><path d="M747 379.7L765 309.6L721 338.6Z" fill="#3150ab" stroke="#3150ab"></path><path d="M721 338.6L765 309.6L673 235.4Z" fill="#004181" stroke="#004181"></path><path d="M174 367.7L196 423.9L276 373.7Z" fill="#8a60ea" stroke="#8a60ea"></path><path d="M269 448.9L327 540L344 486.9Z" fill="#b362ff" stroke="#b362ff"></path><path d="M732 171.3L731 108.1L663 189.3Z" fill="#214b9d" stroke="#214b9d"></path><path d="M675 75.1L697 0L612 0Z" fill="#775edf" stroke="#775edf"></path><path d="M785 117.1L731 108.1L732 171.3Z" fill="#9e61f5" stroke="#9e61f5"></path><path d="M244 540L327 540L269 448.9Z" fill="#3150ab" stroke="#3150ab"></path><path d="M682 478.9L747 379.7L671 375.7Z" fill="#8a60ea" stroke="#8a60ea"></path><path d="M724 540L682 478.9L670 476.9Z" fill="#5258c6" stroke="#5258c6"></path><path d="M670 476.9L682 478.9L671 375.7Z" fill="#3150ab" stroke="#3150ab"></path><path d="M521 540L602 540L526 463.9Z" fill="#004181" stroke="#004181"></path><path d="M874 249.4L775 271.4L873 317.6Z" fill="#8a60ea" stroke="#8a60ea"></path><path d="M765 309.6L775 271.4L673 235.4Z" fill="#10468f" stroke="#10468f"></path><path d="M345 0L258 0L275 62.1Z" fill="#645bd3" stroke="#645bd3"></path><path d="M163 49.1L140 134.3L239 149.3Z" fill="#645bd3" stroke="#645bd3"></path><path d="M770 461.9L781 372.7L747 379.7Z" fill="#9e61f5" stroke="#9e61f5"></path><path d="M747 379.7L781 372.7L765 309.6Z" fill="#645bd3" stroke="#645bd3"></path><path d="M163 49.1L239 149.3L275 62.1Z" fill="#8a60ea" stroke="#8a60ea"></path><path d="M731 108.1L697 0L675 75.1Z" fill="#8a60ea" stroke="#8a60ea"></path><path d="M196 423.9L244 540L269 448.9Z" fill="#004181" stroke="#004181"></path><path d="M823 132.3L785 117.1L732 171.3Z" fill="#9e61f5" stroke="#9e61f5"></path><path d="M731 108.1L783 0L697 0Z" fill="#4154b9" stroke="#4154b9"></path><path d="M823 132.3L732 171.3L775 271.4Z" fill="#9e61f5" stroke="#9e61f5"></path><path d="M183 0L163 49.1L275 62.1Z" fill="#775edf" stroke="#775edf"></path><path d="M53 186.3L97 227.4L140 134.3Z" fill="#775edf" stroke="#775edf"></path><path d="M140 134.3L97 227.4L195 203.4Z" fill="#214b9d" stroke="#214b9d"></path><path d="M151 273.6L85 349.7L174 367.7Z" fill="#004181" stroke="#004181"></path><path d="M174 367.7L51 439.9L196 423.9Z" fill="#775edf" stroke="#775edf"></path><path d="M196 423.9L136 540L244 540Z" fill="#5258c6" stroke="#5258c6"></path><path d="M682 478.9L770 461.9L747 379.7Z" fill="#10468f" stroke="#10468f"></path><path d="M724 540L770 461.9L682 478.9Z" fill="#214b9d" stroke="#214b9d"></path><path d="M258 0L183 0L275 62.1Z" fill="#4154b9" stroke="#4154b9"></path><path d="M37 311.6L85 349.7L151 273.6Z" fill="#004181" stroke="#004181"></path><path d="M874 249.4L823 132.3L775 271.4Z" fill="#775edf" stroke="#775edf"></path><path d="M785 117.1L783 0L731 108.1Z" fill="#4154b9" stroke="#4154b9"></path><path d="M775 271.4L765 309.6L873 317.6Z" fill="#775edf" stroke="#775edf"></path><path d="M602 540L724 540L670 476.9Z" fill="#9e61f5" stroke="#9e61f5"></path><path d="M163 49.1L102 101.1L140 134.3Z" fill="#5258c6" stroke="#5258c6"></path><path d="M97 227.4L37 311.6L151 273.6Z" fill="#b362ff" stroke="#b362ff"></path><path d="M103 0L102 101.1L163 49.1Z" fill="#775edf" stroke="#775edf"></path><path d="M102 101.1L53 186.3L140 134.3Z" fill="#b362ff" stroke="#b362ff"></path><path d="M823 132.3L783 0L785 117.1Z" fill="#8a60ea" stroke="#8a60ea"></path><path d="M873 317.6L765 309.6L781 372.7Z" fill="#645bd3" stroke="#645bd3"></path><path d="M823 132.3L913 54.1L783 0Z" fill="#5258c6" stroke="#5258c6"></path><path d="M905 349.7L873 317.6L781 372.7Z" fill="#214b9d" stroke="#214b9d"></path><path d="M865 449.9L781 372.7L770 461.9Z" fill="#b362ff" stroke="#b362ff"></path><path d="M0 208.4L37 311.6L97 227.4Z" fill="#004181" stroke="#004181"></path><path d="M51 439.9L136 540L196 423.9Z" fill="#214b9d" stroke="#214b9d"></path><path d="M51 439.9L174 367.7L85 349.7Z" fill="#4154b9" stroke="#4154b9"></path><path d="M183 0L103 0L163 49.1Z" fill="#b362ff" stroke="#b362ff"></path><path d="M0 148.3L0 208.4L53 186.3Z" fill="#9e61f5" stroke="#9e61f5"></path><path d="M0 393.7L51 439.9L85 349.7Z" fill="#004181" stroke="#004181"></path><path d="M842 540L865 449.9L770 461.9Z" fill="#4154b9" stroke="#4154b9"></path><path d="M960 285.6L874 249.4L873 317.6Z" fill="#10468f" stroke="#10468f"></path><path d="M960 198.4L887 120.3L874 249.4Z" fill="#b362ff" stroke="#b362ff"></path><path d="M874 249.4L887 120.3L823 132.3Z" fill="#4154b9" stroke="#4154b9"></path><path d="M865 449.9L905 349.7L781 372.7Z" fill="#9e61f5" stroke="#9e61f5"></path><path d="M0 148.3L53 186.3L102 101.1Z" fill="#8a60ea" stroke="#8a60ea"></path><path d="M53 186.3L0 208.4L97 227.4Z" fill="#b362ff" stroke="#b362ff"></path><path d="M37 311.6L0 393.7L85 349.7Z" fill="#b362ff" stroke="#b362ff"></path><path d="M0 208.4L0 317.6L37 311.6Z" fill="#3150ab" stroke="#3150ab"></path><path d="M0 74.1L0 148.3L102 101.1Z" fill="#5258c6" stroke="#5258c6"></path><path d="M724 540L842 540L770 461.9Z" fill="#645bd3" stroke="#645bd3"></path><path d="M960 393.7L960 285.6L905 349.7Z" fill="#004181" stroke="#004181"></path><path d="M0 317.6L0 393.7L37 311.6Z" fill="#214b9d" stroke="#214b9d"></path><path d="M51 439.9L57 540L136 540Z" fill="#b362ff" stroke="#b362ff"></path><path d="M0 393.7L0 426.9L51 439.9Z" fill="#775edf" stroke="#775edf"></path><path d="M0 540L57 540L51 439.9Z" fill="#8a60ea" stroke="#8a60ea"></path><path d="M103 0L0 74.1L102 101.1Z" fill="#9e61f5" stroke="#9e61f5"></path><path d="M960 75.1L913 54.1L887 120.3Z" fill="#8a60ea" stroke="#8a60ea"></path><path d="M887 120.3L913 54.1L823 132.3Z" fill="#3150ab" stroke="#3150ab"></path><path d="M960 393.7L905 349.7L865 449.9Z" fill="#3150ab" stroke="#3150ab"></path><path d="M905 349.7L960 285.6L873 317.6Z" fill="#004181" stroke="#004181"></path><path d="M960 285.6L960 198.4L874 249.4Z" fill="#3150ab" stroke="#3150ab"></path><path d="M960 198.4L960 157.3L887 120.3Z" fill="#645bd3" stroke="#645bd3"></path><path d="M960 0L906 0L913 54.1Z" fill="#10468f" stroke="#10468f"></path><path d="M913 54.1L906 0L783 0Z" fill="#645bd3" stroke="#645bd3"></path><path d="M960 462.9L960 393.7L865 449.9Z" fill="#8a60ea" stroke="#8a60ea"></path><path d="M842 540L898 540L865 449.9Z" fill="#8a60ea" stroke="#8a60ea"></path><path d="M103 0L0 0L0 74.1Z" fill="#b362ff" stroke="#b362ff"></path><path d="M960 157.3L960 75.1L887 120.3Z" fill="#10468f" stroke="#10468f"></path><path d="M0 426.9L0 540L51 439.9Z" fill="#10468f" stroke="#10468f"></path><path d="M898 540L960 462.9L865 449.9Z" fill="#214b9d" stroke="#214b9d"></path><path d="M960 75.1L960 0L913 54.1Z" fill="#b362ff" stroke="#b362ff"></path><path d="M898 540L960 540L960 462.9Z" fill="#5258c6" stroke="#5258c6"></path></g></svg>