<svg id="visual" viewBox="0 0 960 540" width="960" height="540" xmlns="http://www.w3.org/2000/svg" xmlns:xlink="http://www.w3.org/1999/xlink" version="1.1"><g stroke-width="1" stroke-linejoin="bevel"><path d="M449 240.4L417 289.6L465 319.6Z" fill="#214b9d" stroke="#214b9d"></path><path d="M449 240.4L368 228.4L417 289.6Z" fill="#004181" stroke="#004181"></path><path d="M379 385.7L480 381.7L465 319.6Z" fill="#b362ff" stroke="#b362ff"></path><path d="M465 319.6L575 305.6L449 240.4Z" fill="#004181" stroke="#004181"></path><path d="M379 385.7L465 319.6L417 289.6Z" fill="#b362ff" stroke="#b362ff"></path><path d="M561 359.7L575 305.6L465 319.6Z" fill="#775edf" stroke="#775edf"></path><path d="M316 266.6L379 385.7L417 289.6Z" fill="#775edf" stroke="#775edf"></path><path d="M480 381.7L561 359.7L465 319.6Z" fill="#775edf" stroke="#775edf"></path><path d="M368 228.4L316 266.6L417 289.6Z" fill="#645bd3" stroke="#645bd3"></path><path d="M368 228.4L314 265.4L316 266.6Z" fill="#9e61f5" stroke="#9e61f5"></path><path d="M276 274.6L354 418.7L379 385.7Z" fill="#4154b9" stroke="#4154b9"></path><path d="M597 195.4L497 140.3L449 240.4Z" fill="#8a60ea" stroke="#8a60ea"></path><path d="M449 240.4L362 113.3L368 228.4Z" fill="#9e61f5" stroke="#9e61f5"></path><path d="M379 385.7L435 426.9L480 381.7Z" fill="#10468f" stroke="#10468f"></path><path d="M480 381.7L608 447.9L561 359.7Z" fill="#9e61f5" stroke="#9e61f5"></path><path d="M575 305.6L597 195.4L449 240.4Z" fill="#004181" stroke="#004181"></path><path d="M276 274.6L379 385.7L316 266.6Z" fill="#b362ff" stroke="#b362ff"></path><path d="M379 385.7L354 418.7L435 426.9Z" fill="#4154b9" stroke="#4154b9"></path><path d="M575 305.6L613 191.3L597 195.4Z" fill="#5258c6" stroke="#5258c6"></path><path d="M597 195.4L599 150.3L497 140.3Z" fill="#9e61f5" stroke="#9e61f5"></path><path d="M621 189.4L613 191.3L575 305.6Z" fill="#775edf" stroke="#775edf"></path><path d="M276 230.4L276 274.6L314 265.4Z" fill="#645bd3" stroke="#645bd3"></path><path d="M314 265.4L276 274.6L316 266.6Z" fill="#b362ff" stroke="#b362ff"></path><path d="M276 230.4L314 265.4L368 228.4Z" fill="#214b9d" stroke="#214b9d"></path><path d="M302 153.3L276 230.4L368 228.4Z" fill="#8a60ea" stroke="#8a60ea"></path><path d="M709 269.6L621 189.4L575 305.6Z" fill="#b362ff" stroke="#b362ff"></path><path d="M613 191.3L599 150.3L597 195.4Z" fill="#9e61f5" stroke="#9e61f5"></path><path d="M497 140.3L362 113.3L449 240.4Z" fill="#004181" stroke="#004181"></path><path d="M621 189.4L599 150.3L613 191.3Z" fill="#10468f" stroke="#10468f"></path><path d="M497 140.3L370 58.1L362 113.3Z" fill="#4154b9" stroke="#4154b9"></path><path d="M599 150.3L519 94.1L497 140.3Z" fill="#9e61f5" stroke="#9e61f5"></path><path d="M362 113.3L302 153.3L368 228.4Z" fill="#5258c6" stroke="#5258c6"></path><path d="M436 540L466 493.9L435 426.9Z" fill="#9e61f5" stroke="#9e61f5"></path><path d="M435 426.9L466 493.9L480 381.7Z" fill="#3150ab" stroke="#3150ab"></path><path d="M370 58.1L320 108.1L362 113.3Z" fill="#004181" stroke="#004181"></path><path d="M362 113.3L320 108.1L302 153.3Z" fill="#645bd3" stroke="#645bd3"></path><path d="M258 433.9L309 445.9L354 418.7Z" fill="#b362ff" stroke="#b362ff"></path><path d="M353 540L436 540L435 426.9Z" fill="#004181" stroke="#004181"></path><path d="M599 150.3L573 90.1L519 94.1Z" fill="#645bd3" stroke="#645bd3"></path><path d="M519 94.1L370 58.1L497 140.3Z" fill="#214b9d" stroke="#214b9d"></path><path d="M626 56.1L573 90.1L599 150.3Z" fill="#5258c6" stroke="#5258c6"></path><path d="M530 504.9L608 447.9L480 381.7Z" fill="#004181" stroke="#004181"></path><path d="M561 359.7L680 347.6L575 305.6Z" fill="#3150ab" stroke="#3150ab"></path><path d="M608 447.9L643 418.7L561 359.7Z" fill="#004181" stroke="#004181"></path><path d="M643 418.7L680 347.6L561 359.7Z" fill="#10468f" stroke="#10468f"></path><path d="M466 493.9L530 504.9L480 381.7Z" fill="#b362ff" stroke="#b362ff"></path><path d="M483 0L370 58.1L519 94.1Z" fill="#5258c6" stroke="#5258c6"></path><path d="M135 228.4L182 333.6L276 274.6Z" fill="#8a60ea" stroke="#8a60ea"></path><path d="M276 274.6L258 433.9L354 418.7Z" fill="#214b9d" stroke="#214b9d"></path><path d="M302 153.3L235 175.3L276 230.4Z" fill="#5258c6" stroke="#5258c6"></path><path d="M218 67.1L235 175.3L302 153.3Z" fill="#9e61f5" stroke="#9e61f5"></path><path d="M218 67.1L302 153.3L320 108.1Z" fill="#b362ff" stroke="#b362ff"></path><path d="M206 361.7L258 433.9L276 274.6Z" fill="#3150ab" stroke="#3150ab"></path><path d="M436 540L461 540L466 493.9Z" fill="#5258c6" stroke="#5258c6"></path><path d="M680 347.6L709 269.6L575 305.6Z" fill="#b362ff" stroke="#b362ff"></path><path d="M681 104.1L626 56.1L599 150.3Z" fill="#5258c6" stroke="#5258c6"></path><path d="M435 426.9L354 418.7L353 540Z" fill="#004181" stroke="#004181"></path><path d="M466 493.9L461 540L530 504.9Z" fill="#5258c6" stroke="#5258c6"></path><path d="M353 540L354 418.7L309 445.9Z" fill="#4154b9" stroke="#4154b9"></path><path d="M182 333.6L206 361.7L276 274.6Z" fill="#645bd3" stroke="#645bd3"></path><path d="M461 540L535 540L530 504.9Z" fill="#5258c6" stroke="#5258c6"></path><path d="M530 504.9L600 540L608 447.9Z" fill="#8a60ea" stroke="#8a60ea"></path><path d="M608 447.9L706 491.9L643 418.7Z" fill="#5258c6" stroke="#5258c6"></path><path d="M135 228.4L276 274.6L276 230.4Z" fill="#645bd3" stroke="#645bd3"></path><path d="M206 361.7L187 370.7L258 433.9Z" fill="#3150ab" stroke="#3150ab"></path><path d="M208 540L353 540L309 445.9Z" fill="#4154b9" stroke="#4154b9"></path><path d="M694 126.3L599 150.3L621 189.4Z" fill="#3150ab" stroke="#3150ab"></path><path d="M573 90.1L483 0L519 94.1Z" fill="#8a60ea" stroke="#8a60ea"></path><path d="M602 0L483 0L573 90.1Z" fill="#5258c6" stroke="#5258c6"></path><path d="M709 269.6L694 126.3L621 189.4Z" fill="#8a60ea" stroke="#8a60ea"></path><path d="M182 333.6L187 370.7L206 361.7Z" fill="#4154b9" stroke="#4154b9"></path><path d="M258 433.9L208 540L309 445.9Z" fill="#645bd3" stroke="#645bd3"></path><path d="M694 126.3L681 104.1L599 150.3Z" fill="#b362ff" stroke="#b362ff"></path><path d="M483 0L400 0L370 58.1Z" fill="#214b9d" stroke="#214b9d"></path><path d="M370 58.1L261 0L320 108.1Z" fill="#004181" stroke="#004181"></path><path d="M535 540L600 540L530 504.9Z" fill="#10468f" stroke="#10468f"></path><path d="M767 297.6L709 269.6L680 347.6Z" fill="#10468f" stroke="#10468f"></path><path d="M400 0L357 0L370 58.1Z" fill="#5258c6" stroke="#5258c6"></path><path d="M767 297.6L762 250.4L709 269.6Z" fill="#004181" stroke="#004181"></path><path d="M709 269.6L779 206.4L694 126.3Z" fill="#214b9d" stroke="#214b9d"></path><path d="M767 297.6L680 347.6L762 416.7Z" fill="#004181" stroke="#004181"></path><path d="M762 416.7L680 347.6L643 418.7Z" fill="#775edf" stroke="#775edf"></path><path d="M621 0L602 0L626 56.1Z" fill="#4154b9" stroke="#4154b9"></path><path d="M626 56.1L602 0L573 90.1Z" fill="#5258c6" stroke="#5258c6"></path><path d="M261 0L218 67.1L320 108.1Z" fill="#10468f" stroke="#10468f"></path><path d="M235 175.3L135 228.4L276 230.4Z" fill="#b362ff" stroke="#b362ff"></path><path d="M686 0L621 0L626 56.1Z" fill="#8a60ea" stroke="#8a60ea"></path><path d="M686 0L626 56.1L681 104.1Z" fill="#b362ff" stroke="#b362ff"></path><path d="M107 470.9L180 451.9L67 425.7Z" fill="#b362ff" stroke="#b362ff"></path><path d="M187 370.7L180 451.9L258 433.9Z" fill="#775edf" stroke="#775edf"></path><path d="M129 176.3L135 228.4L235 175.3Z" fill="#b362ff" stroke="#b362ff"></path><path d="M182 333.6L75 349.6L187 370.7Z" fill="#8a60ea" stroke="#8a60ea"></path><path d="M600 540L706 491.9L608 447.9Z" fill="#9e61f5" stroke="#9e61f5"></path><path d="M762 250.4L779 206.4L709 269.6Z" fill="#214b9d" stroke="#214b9d"></path><path d="M694 126.3L762 92.1L681 104.1Z" fill="#775edf" stroke="#775edf"></path><path d="M885 252.4L779 206.4L762 250.4Z" fill="#645bd3" stroke="#645bd3"></path><path d="M706 491.9L762 416.7L643 418.7Z" fill="#4154b9" stroke="#4154b9"></path><path d="M885 252.4L807 144.3L779 206.4Z" fill="#214b9d" stroke="#214b9d"></path><path d="M357 0L261 0L370 58.1Z" fill="#9e61f5" stroke="#9e61f5"></path><path d="M128 101.1L129 176.3L235 175.3Z" fill="#214b9d" stroke="#214b9d"></path><path d="M105 195.4L78 93.1L45 189.3Z" fill="#645bd3" stroke="#645bd3"></path><path d="M807 144.3L762 92.1L694 126.3Z" fill="#3150ab" stroke="#3150ab"></path><path d="M180 451.9L208 540L258 433.9Z" fill="#8a60ea" stroke="#8a60ea"></path><path d="M128 101.1L235 175.3L218 67.1Z" fill="#5258c6" stroke="#5258c6"></path><path d="M129 176.3L105 195.4L135 228.4Z" fill="#3150ab" stroke="#3150ab"></path><path d="M135 228.4L75 349.6L182 333.6Z" fill="#214b9d" stroke="#214b9d"></path><path d="M762 92.1L686 0L681 104.1Z" fill="#214b9d" stroke="#214b9d"></path><path d="M107 470.9L200 540L180 451.9Z" fill="#3150ab" stroke="#3150ab"></path><path d="M180 451.9L200 540L208 540Z" fill="#214b9d" stroke="#214b9d"></path><path d="M600 540L721 540L706 491.9Z" fill="#8a60ea" stroke="#8a60ea"></path><path d="M706 491.9L773 479.9L762 416.7Z" fill="#3150ab" stroke="#3150ab"></path><path d="M125 0L128 101.1L218 67.1Z" fill="#10468f" stroke="#10468f"></path><path d="M721 540L773 479.9L706 491.9Z" fill="#645bd3" stroke="#645bd3"></path><path d="M762 416.7L819 386.7L767 297.6Z" fill="#004181" stroke="#004181"></path><path d="M779 206.4L807 144.3L694 126.3Z" fill="#4154b9" stroke="#4154b9"></path><path d="M762 92.1L808 0L686 0Z" fill="#645bd3" stroke="#645bd3"></path><path d="M885 252.4L762 250.4L767 297.6Z" fill="#5258c6" stroke="#5258c6"></path><path d="M773 479.9L819 386.7L762 416.7Z" fill="#5258c6" stroke="#5258c6"></path><path d="M0 283.6L75 349.6L135 228.4Z" fill="#b362ff" stroke="#b362ff"></path><path d="M67 425.7L180 451.9L187 370.7Z" fill="#004181" stroke="#004181"></path><path d="M75 349.6L67 425.7L187 370.7Z" fill="#214b9d" stroke="#214b9d"></path><path d="M78 93.1L105 195.4L129 176.3Z" fill="#3150ab" stroke="#3150ab"></path><path d="M105 195.4L0 283.6L135 228.4Z" fill="#645bd3" stroke="#645bd3"></path><path d="M75 349.6L0 364.7L67 425.7Z" fill="#9e61f5" stroke="#9e61f5"></path><path d="M885 382.7L873 344.6L819 386.7Z" fill="#3150ab" stroke="#3150ab"></path><path d="M819 386.7L873 344.6L767 297.6Z" fill="#775edf" stroke="#775edf"></path><path d="M125 0L78 93.1L128 101.1Z" fill="#645bd3" stroke="#645bd3"></path><path d="M128 101.1L78 93.1L129 176.3Z" fill="#10468f" stroke="#10468f"></path><path d="M873 344.6L885 252.4L767 297.6Z" fill="#8a60ea" stroke="#8a60ea"></path><path d="M261 0L125 0L218 67.1Z" fill="#775edf" stroke="#775edf"></path><path d="M902 427.9L819 386.7L773 479.9Z" fill="#9e61f5" stroke="#9e61f5"></path><path d="M902 427.9L885 382.7L819 386.7Z" fill="#10468f" stroke="#10468f"></path><path d="M873 344.6L960 285.6L885 252.4Z" fill="#4154b9" stroke="#4154b9"></path><path d="M892 50.1L762 92.1L807 144.3Z" fill="#10468f" stroke="#10468f"></path><path d="M892 50.1L808 0L762 92.1Z" fill="#b362ff" stroke="#b362ff"></path><path d="M721 540L827 540L773 479.9Z" fill="#9e61f5" stroke="#9e61f5"></path><path d="M0 192.4L0 283.6L45 189.3Z" fill="#b362ff" stroke="#b362ff"></path><path d="M45 189.3L0 283.6L105 195.4Z" fill="#10468f" stroke="#10468f"></path><path d="M827 540L839 540L773 479.9Z" fill="#004181" stroke="#004181"></path><path d="M0 283.6L0 364.7L75 349.6Z" fill="#214b9d" stroke="#214b9d"></path><path d="M0 470.9L70 540L107 470.9Z" fill="#4154b9" stroke="#4154b9"></path><path d="M0 148.3L45 189.3L78 93.1Z" fill="#214b9d" stroke="#214b9d"></path><path d="M0 148.3L0 192.4L45 189.3Z" fill="#5258c6" stroke="#5258c6"></path><path d="M107 470.9L70 540L200 540Z" fill="#5258c6" stroke="#5258c6"></path><path d="M0 470.9L107 470.9L67 425.7Z" fill="#10468f" stroke="#10468f"></path><path d="M839 540L902 427.9L773 479.9Z" fill="#645bd3" stroke="#645bd3"></path><path d="M960 345.7L960 285.6L873 344.6Z" fill="#4154b9" stroke="#4154b9"></path><path d="M125 0L75 0L78 93.1Z" fill="#8a60ea" stroke="#8a60ea"></path><path d="M0 94.1L0 148.3L78 93.1Z" fill="#4154b9" stroke="#4154b9"></path><path d="M885 252.4L920 163.3L807 144.3Z" fill="#9e61f5" stroke="#9e61f5"></path><path d="M960 196.4L920 163.3L885 252.4Z" fill="#5258c6" stroke="#5258c6"></path><path d="M920 163.3L892 50.1L807 144.3Z" fill="#5258c6" stroke="#5258c6"></path><path d="M75 0L0 94.1L78 93.1Z" fill="#3150ab" stroke="#3150ab"></path><path d="M0 364.7L0 470.9L67 425.7Z" fill="#9e61f5" stroke="#9e61f5"></path><path d="M960 345.7L873 344.6L885 382.7Z" fill="#214b9d" stroke="#214b9d"></path><path d="M920 163.3L960 111.3L892 50.1Z" fill="#3150ab" stroke="#3150ab"></path><path d="M902 427.9L960 345.7L885 382.7Z" fill="#8a60ea" stroke="#8a60ea"></path><path d="M960 472.9L960 345.7L902 427.9Z" fill="#004181" stroke="#004181"></path><path d="M960 285.6L960 196.4L885 252.4Z" fill="#10468f" stroke="#10468f"></path><path d="M0 470.9L0 540L70 540Z" fill="#3150ab" stroke="#3150ab"></path><path d="M960 196.4L960 111.3L920 163.3Z" fill="#214b9d" stroke="#214b9d"></path><path d="M75 0L0 0L0 94.1Z" fill="#8a60ea" stroke="#8a60ea"></path><path d="M839 540L960 472.9L902 427.9Z" fill="#10468f" stroke="#10468f"></path><path d="M960 54.1L919 0L892 50.1Z" fill="#3150ab" stroke="#3150ab"></path><path d="M892 50.1L919 0L808 0Z" fill="#9e61f5" stroke="#9e61f5"></path><path d="M960 111.3L960 54.1L892 50.1Z" fill="#8a60ea" stroke="#8a60ea"></path><path d="M839 540L960 540L960 472.9Z" fill="#214b9d" stroke="#214b9d"></path><path d="M960 54.1L960 0L919 0Z" fill="#214b9d" stroke="#214b9d"></path></g></svg>