<svg id="visual" viewBox="0 0 1920 1080" width="1920" height="1080" xmlns="http://www.w3.org/2000/svg" xmlns:xlink="http://www.w3.org/1999/xlink" version="1.1"><g stroke-width="1" stroke-linejoin="bevel"><path d="M951.5 532L971.5 626L1046.5 608Z" fill="#00d399" stroke="#00d399"></path><path d="M1046.5 608L1112.4 503L951.5 532Z" fill="#00d399" stroke="#00d399"></path><path d="M832.6 602L916.5 690L971.5 626Z" fill="#006b82" stroke="#006b82"></path><path d="M971.5 626L1023.5 807L1046.5 608Z" fill="#008597" stroke="#008597"></path><path d="M951.5 389L840.5 521L951.5 532Z" fill="#05263a" stroke="#05263a"></path><path d="M951.5 532L832.6 602L971.5 626Z" fill="#00d399" stroke="#00d399"></path><path d="M1112.4 503L1007.5 406L951.5 532Z" fill="#05263a" stroke="#05263a"></path><path d="M840.5 521L832.6 602L951.5 532Z" fill="#00ff3e" stroke="#00ff3e"></path><path d="M1007.5 406L951.5 389L951.5 532Z" fill="#00ea78" stroke="#00ea78"></path><path d="M1112.4 503L1143.4 449L1007.5 406Z" fill="#00ea78" stroke="#00ea78"></path><path d="M832.6 602L831.6 682L916.5 690Z" fill="#00ff3e" stroke="#00ff3e"></path><path d="M1072.4 814L1183.4 658L1046.5 608Z" fill="#00baaa" stroke="#00baaa"></path><path d="M1046.5 608L1183.4 658L1112.4 503Z" fill="#053b52" stroke="#053b52"></path><path d="M1112.4 503L1297.4 491L1143.4 449Z" fill="#00baaa" stroke="#00baaa"></path><path d="M953.5 301L896.5 372L951.5 389Z" fill="#00ff3e" stroke="#00ff3e"></path><path d="M951.5 389L896.5 372L840.5 521Z" fill="#00a0a9" stroke="#00a0a9"></path><path d="M1183.4 658L1215.4 627L1112.4 503Z" fill="#006b82" stroke="#006b82"></path><path d="M962.5 866L1023.5 807L916.5 690Z" fill="#00a0a9" stroke="#00a0a9"></path><path d="M916.5 690L1023.5 807L971.5 626Z" fill="#00ff3e" stroke="#00ff3e"></path><path d="M1023.5 807L1072.4 814L1046.5 608Z" fill="#006b82" stroke="#006b82"></path><path d="M1183.4 658L1280.4 732L1215.4 627Z" fill="#00ff3e" stroke="#00ff3e"></path><path d="M831.6 682L844.6 783L916.5 690Z" fill="#00d399" stroke="#00d399"></path><path d="M1023.5 807L962.5 866L1072.4 814Z" fill="#00ea78" stroke="#00ea78"></path><path d="M1074.5 238L953.5 301L1007.5 406Z" fill="#02536b" stroke="#02536b"></path><path d="M1007.5 406L953.5 301L951.5 389Z" fill="#05263a" stroke="#05263a"></path><path d="M844.6 783L962.5 866L916.5 690Z" fill="#00ff3e" stroke="#00ff3e"></path><path d="M782.6 323L720.6 436L896.5 372Z" fill="#00baaa" stroke="#00baaa"></path><path d="M896.5 372L720.6 436L840.5 521Z" fill="#008597" stroke="#008597"></path><path d="M840.5 521L653.6 570L832.6 602Z" fill="#001122" stroke="#001122"></path><path d="M659.6 646L673.6 690L831.6 682Z" fill="#00ff3e" stroke="#00ff3e"></path><path d="M831.6 682L673.6 690L844.6 783Z" fill="#00ff3e" stroke="#00ff3e"></path><path d="M1215.4 627L1297.4 491L1112.4 503Z" fill="#00ea78" stroke="#00ea78"></path><path d="M1143.4 449L1161.4 279L1007.5 406Z" fill="#008597" stroke="#008597"></path><path d="M1297.4 491L1246.4 366L1143.4 449Z" fill="#00ea78" stroke="#00ea78"></path><path d="M844.6 783L925.5 886L962.5 866Z" fill="#00d399" stroke="#00d399"></path><path d="M1184.4 904L1195.4 877L1072.4 814Z" fill="#05263a" stroke="#05263a"></path><path d="M1195.4 877L1280.4 732L1183.4 658Z" fill="#001122" stroke="#001122"></path><path d="M1215.4 627L1328.3 528L1297.4 491Z" fill="#00ea78" stroke="#00ea78"></path><path d="M1195.4 877L1183.4 658L1072.4 814Z" fill="#00ea78" stroke="#00ea78"></path><path d="M953.5 301L782.6 323L896.5 372Z" fill="#001122" stroke="#001122"></path><path d="M1374.3 702L1328.3 528L1215.4 627Z" fill="#00d399" stroke="#00d399"></path><path d="M1297.4 491L1293.4 380L1246.4 366Z" fill="#006b82" stroke="#006b82"></path><path d="M1246.4 366L1161.4 279L1143.4 449Z" fill="#00ea78" stroke="#00ea78"></path><path d="M782.6 323L715.6 382L720.6 436Z" fill="#05263a" stroke="#05263a"></path><path d="M1161.4 279L1074.5 238L1007.5 406Z" fill="#008597" stroke="#008597"></path><path d="M953.5 301L831.6 175L782.6 323Z" fill="#05263a" stroke="#05263a"></path><path d="M505.7 551L653.6 570L512.8 479Z" fill="#006b82" stroke="#006b82"></path><path d="M720.6 436L653.6 570L840.5 521Z" fill="#00d399" stroke="#00d399"></path><path d="M837.6 939L922.5 945L925.5 886Z" fill="#001122" stroke="#001122"></path><path d="M1328.3 528L1333.3 490L1297.4 491Z" fill="#008597" stroke="#008597"></path><path d="M659.6 646L831.6 682L832.6 602Z" fill="#02536b" stroke="#02536b"></path><path d="M653.6 570L659.6 646L832.6 602Z" fill="#00a0a9" stroke="#00a0a9"></path><path d="M1333.3 490L1293.4 380L1297.4 491Z" fill="#053b52" stroke="#053b52"></path><path d="M1246.4 366L1227.4 179L1161.4 279Z" fill="#001122" stroke="#001122"></path><path d="M985.5 950L1072.4 814L962.5 866Z" fill="#001122" stroke="#001122"></path><path d="M1074.5 238L946.5 207L953.5 301Z" fill="#05263a" stroke="#05263a"></path><path d="M922.5 945L985.5 950L925.5 886Z" fill="#008597" stroke="#008597"></path><path d="M925.5 886L985.5 950L962.5 866Z" fill="#008597" stroke="#008597"></path><path d="M837.6 939L925.5 886L844.6 783Z" fill="#006b82" stroke="#006b82"></path><path d="M985.5 950L1184.4 904L1072.4 814Z" fill="#02536b" stroke="#02536b"></path><path d="M1410.3 749L1374.3 702L1280.4 732Z" fill="#008597" stroke="#008597"></path><path d="M1335.3 858L1280.4 732L1195.4 877Z" fill="#00baaa" stroke="#00baaa"></path><path d="M1280.4 732L1374.3 702L1215.4 627Z" fill="#00a0a9" stroke="#00a0a9"></path><path d="M1328.3 528L1424.2 510L1333.3 490Z" fill="#00ea78" stroke="#00ea78"></path><path d="M692.6 852L837.6 939L844.6 783Z" fill="#001122" stroke="#001122"></path><path d="M1078.5 1080L1184.4 904L985.5 950Z" fill="#006b82" stroke="#006b82"></path><path d="M782.6 323L662.6 346L715.6 382Z" fill="#008597" stroke="#008597"></path><path d="M715.6 382L662.6 346L720.6 436Z" fill="#001122" stroke="#001122"></path><path d="M720.6 237L662.6 346L782.6 323Z" fill="#02536b" stroke="#02536b"></path><path d="M1221.4 1014L1202.4 924L1078.5 1080Z" fill="#00baaa" stroke="#00baaa"></path><path d="M1184.4 904L1202.4 924L1195.4 877Z" fill="#00ea78" stroke="#00ea78"></path><path d="M585.7 687L692.6 852L673.6 690Z" fill="#00ea78" stroke="#00ea78"></path><path d="M673.6 690L692.6 852L844.6 783Z" fill="#001122" stroke="#001122"></path><path d="M653.6 570L585.7 687L659.6 646Z" fill="#05263a" stroke="#05263a"></path><path d="M659.6 646L585.7 687L673.6 690Z" fill="#00baaa" stroke="#00baaa"></path><path d="M530.7 670L585.7 687L653.6 570Z" fill="#006b82" stroke="#006b82"></path><path d="M900.5 73L831.6 175L946.5 207Z" fill="#00a0a9" stroke="#00a0a9"></path><path d="M946.5 207L831.6 175L953.5 301Z" fill="#053b52" stroke="#053b52"></path><path d="M1374.3 702L1424.2 510L1328.3 528Z" fill="#02536b" stroke="#02536b"></path><path d="M1333.3 490L1375.3 339L1293.4 380Z" fill="#05263a" stroke="#05263a"></path><path d="M831.6 175L720.6 237L782.6 323Z" fill="#00baaa" stroke="#00baaa"></path><path d="M1202.4 924L1335.3 858L1195.4 877Z" fill="#00a0a9" stroke="#00a0a9"></path><path d="M1374.3 702L1509.2 581L1424.2 510Z" fill="#00ff3e" stroke="#00ff3e"></path><path d="M1440.2 479L1375.3 339L1333.3 490Z" fill="#02536b" stroke="#02536b"></path><path d="M1293.4 380L1375.3 339L1246.4 366Z" fill="#00baaa" stroke="#00baaa"></path><path d="M1161.4 279L1133.4 148L1074.5 238Z" fill="#00d399" stroke="#00d399"></path><path d="M1227.4 179L1133.4 148L1161.4 279Z" fill="#001122" stroke="#001122"></path><path d="M1074.5 238L1065.5 106L946.5 207Z" fill="#006b82" stroke="#006b82"></path><path d="M1335.3 858L1410.3 749L1280.4 732Z" fill="#00a0a9" stroke="#00a0a9"></path><path d="M900.5 73L806.6 165L831.6 175Z" fill="#053b52" stroke="#053b52"></path><path d="M831.6 175L806.6 165L720.6 237Z" fill="#00a0a9" stroke="#00a0a9"></path><path d="M692.6 852L722.6 929L837.6 939Z" fill="#00ff3e" stroke="#00ff3e"></path><path d="M688.6 999L722.6 929L584.7 902Z" fill="#006b82" stroke="#006b82"></path><path d="M1424.2 510L1440.2 479L1333.3 490Z" fill="#008597" stroke="#008597"></path><path d="M1509.2 581L1440.2 479L1424.2 510Z" fill="#05263a" stroke="#05263a"></path><path d="M1327.3 165L1227.4 179L1246.4 366Z" fill="#00d399" stroke="#00d399"></path><path d="M1227.4 179L1148.4 127L1133.4 148Z" fill="#00a0a9" stroke="#00a0a9"></path><path d="M1133.4 148L1065.5 106L1074.5 238Z" fill="#05263a" stroke="#05263a"></path><path d="M1148.4 127L1065.5 106L1133.4 148Z" fill="#00ea78" stroke="#00ea78"></path><path d="M505.7 551L530.7 670L653.6 570Z" fill="#00baaa" stroke="#00baaa"></path><path d="M585.7 687L584.7 902L692.6 852Z" fill="#001122" stroke="#001122"></path><path d="M720.6 237L619.7 267L662.6 346Z" fill="#001122" stroke="#001122"></path><path d="M512.8 479L653.6 570L720.6 436Z" fill="#053b52" stroke="#053b52"></path><path d="M603.7 169L619.7 267L720.6 237Z" fill="#00a0a9" stroke="#00a0a9"></path><path d="M512.8 479L720.6 436L516.7 425Z" fill="#00ff3e" stroke="#00ff3e"></path><path d="M516.7 425L720.6 436L662.6 346Z" fill="#02536b" stroke="#02536b"></path><path d="M1202.4 924L1343.3 1030L1335.3 858Z" fill="#00ea78" stroke="#00ea78"></path><path d="M1078.5 1080L1202.4 924L1184.4 904Z" fill="#00baaa" stroke="#00baaa"></path><path d="M933.5 1080L985.5 950L922.5 945Z" fill="#05263a" stroke="#05263a"></path><path d="M933.5 1080L922.5 945L835.6 1080Z" fill="#053b52" stroke="#053b52"></path><path d="M525.7 275L516.7 425L662.6 346Z" fill="#001122" stroke="#001122"></path><path d="M385.8 578L417.8 693L505.7 551Z" fill="#02536b" stroke="#02536b"></path><path d="M1343.3 1030L1399.2 878L1335.3 858Z" fill="#00baaa" stroke="#00baaa"></path><path d="M1335.3 858L1399.2 878L1410.3 749Z" fill="#008597" stroke="#008597"></path><path d="M1512.2 682L1509.2 581L1374.3 702Z" fill="#001122" stroke="#001122"></path><path d="M1065.5 106L900.5 73L946.5 207Z" fill="#001122" stroke="#001122"></path><path d="M603.7 169L525.7 275L619.7 267Z" fill="#006b82" stroke="#006b82"></path><path d="M1512.2 682L1374.3 702L1410.3 749Z" fill="#001122" stroke="#001122"></path><path d="M1527.2 232L1357.3 148L1375.3 339Z" fill="#05263a" stroke="#05263a"></path><path d="M835.6 1080L922.5 945L837.6 939Z" fill="#00a0a9" stroke="#00a0a9"></path><path d="M933.5 1080L1075.4 1080L985.5 950Z" fill="#006b82" stroke="#006b82"></path><path d="M1075.4 1080L1078.5 1080L985.5 950Z" fill="#006b82" stroke="#006b82"></path><path d="M1375.3 339L1327.3 165L1246.4 366Z" fill="#00baaa" stroke="#00baaa"></path><path d="M1227.4 179L1310.4 68L1148.4 127Z" fill="#00ea78" stroke="#00ea78"></path><path d="M1054.5 0L952.5 0L1065.5 106Z" fill="#00a0a9" stroke="#00a0a9"></path><path d="M1357.3 148L1327.3 165L1375.3 339Z" fill="#05263a" stroke="#05263a"></path><path d="M1477.2 810L1512.2 682L1410.3 749Z" fill="#00d399" stroke="#00d399"></path><path d="M584.7 902L722.6 929L692.6 852Z" fill="#053b52" stroke="#053b52"></path><path d="M722.6 929L688.6 999L837.6 939Z" fill="#02536b" stroke="#02536b"></path><path d="M530.7 670L584.7 902L585.7 687Z" fill="#00baaa" stroke="#00baaa"></path><path d="M688.6 999L835.6 1080L837.6 939Z" fill="#00ea78" stroke="#00ea78"></path><path d="M1399.2 878L1477.2 810L1410.3 749Z" fill="#00d399" stroke="#00d399"></path><path d="M1078.5 1080L1195.4 1080L1221.4 1014Z" fill="#00a0a9" stroke="#00a0a9"></path><path d="M1221.4 1014L1343.3 1030L1202.4 924Z" fill="#00ea78" stroke="#00ea78"></path><path d="M1577.2 870L1603.2 779L1477.2 810Z" fill="#02536b" stroke="#02536b"></path><path d="M1514.2 312L1375.3 339L1440.2 479Z" fill="#00ea78" stroke="#00ea78"></path><path d="M1327.3 165L1310.4 68L1227.4 179Z" fill="#00a0a9" stroke="#00a0a9"></path><path d="M1065.5 106L952.5 0L900.5 73Z" fill="#02536b" stroke="#02536b"></path><path d="M603.7 169L720.6 237L682.6 68Z" fill="#00ff3e" stroke="#00ff3e"></path><path d="M619.7 267L525.7 275L662.6 346Z" fill="#00a0a9" stroke="#00a0a9"></path><path d="M385.8 578L505.7 551L392.8 470Z" fill="#006b82" stroke="#006b82"></path><path d="M682.6 68L720.6 237L806.6 165Z" fill="#05263a" stroke="#05263a"></path><path d="M1054.5 0L1065.5 106L1083.4 0Z" fill="#008597" stroke="#008597"></path><path d="M764.6 0L682.6 68L806.6 165Z" fill="#00ea78" stroke="#00ea78"></path><path d="M1083.4 0L1065.5 106L1148.4 127Z" fill="#05263a" stroke="#05263a"></path><path d="M1195.4 1080L1343.3 1030L1221.4 1014Z" fill="#00ea78" stroke="#00ea78"></path><path d="M1200.4 0L1083.4 0L1148.4 127Z" fill="#001122" stroke="#001122"></path><path d="M1603.2 506L1440.2 479L1509.2 581Z" fill="#001122" stroke="#001122"></path><path d="M1624.2 398L1514.2 312L1440.2 479Z" fill="#006b82" stroke="#006b82"></path><path d="M1333.3 0L1310.4 68L1431.2 66Z" fill="#05263a" stroke="#05263a"></path><path d="M1357.3 148L1310.4 68L1327.3 165Z" fill="#00ea78" stroke="#00ea78"></path><path d="M505.7 551L417.8 693L530.7 670Z" fill="#00ea78" stroke="#00ea78"></path><path d="M530.7 670L384.8 796L584.7 902Z" fill="#00baaa" stroke="#00baaa"></path><path d="M392.8 470L512.8 479L516.7 425Z" fill="#00baaa" stroke="#00baaa"></path><path d="M764.6 0L806.6 165L900.5 73Z" fill="#053b52" stroke="#053b52"></path><path d="M1310.4 68L1200.4 0L1148.4 127Z" fill="#00a0a9" stroke="#00a0a9"></path><path d="M1689.1 563L1509.2 581L1512.2 682Z" fill="#00a0a9" stroke="#00a0a9"></path><path d="M1689.1 563L1603.2 506L1509.2 581Z" fill="#00ea78" stroke="#00ea78"></path><path d="M381.8 253L434.8 332L525.7 275Z" fill="#008597" stroke="#008597"></path><path d="M525.7 275L434.8 332L516.7 425Z" fill="#02536b" stroke="#02536b"></path><path d="M478.8 179L525.7 275L603.7 169Z" fill="#00ea78" stroke="#00ea78"></path><path d="M392.8 470L505.7 551L512.8 479Z" fill="#02536b" stroke="#02536b"></path><path d="M383.8 428L392.8 470L516.7 425Z" fill="#00a0a9" stroke="#00a0a9"></path><path d="M952.5 0L764.6 0L900.5 73Z" fill="#02536b" stroke="#02536b"></path><path d="M411.8 943L535.7 990L584.7 902Z" fill="#00baaa" stroke="#00baaa"></path><path d="M584.7 902L535.7 990L688.6 999Z" fill="#001122" stroke="#001122"></path><path d="M688.6 999L617.6 1080L835.6 1080Z" fill="#053b52" stroke="#053b52"></path><path d="M1606.2 269L1527.2 232L1514.2 312Z" fill="#001122" stroke="#001122"></path><path d="M1514.2 312L1527.2 232L1375.3 339Z" fill="#006b82" stroke="#006b82"></path><path d="M434.8 332L383.8 428L516.7 425Z" fill="#006b82" stroke="#006b82"></path><path d="M294.8 599L333.8 609L385.8 578Z" fill="#053b52" stroke="#053b52"></path><path d="M613.7 1080L617.6 1080L688.6 999Z" fill="#008597" stroke="#008597"></path><path d="M535.7 990L613.7 1080L688.6 999Z" fill="#006b82" stroke="#006b82"></path><path d="M1577.2 870L1477.2 810L1529.2 959Z" fill="#00ff3e" stroke="#00ff3e"></path><path d="M1477.2 810L1603.2 779L1512.2 682Z" fill="#00baaa" stroke="#00baaa"></path><path d="M1603.2 506L1624.2 398L1440.2 479Z" fill="#00ff3e" stroke="#00ff3e"></path><path d="M1709.1 447L1624.2 398L1603.2 506Z" fill="#00baaa" stroke="#00baaa"></path><path d="M538.7 0L478.8 179L603.7 169Z" fill="#008597" stroke="#008597"></path><path d="M434.8 332L359.8 349L383.8 428Z" fill="#053b52" stroke="#053b52"></path><path d="M623.6 0L603.7 169L682.6 68Z" fill="#02536b" stroke="#02536b"></path><path d="M1529.2 959L1477.2 810L1399.2 878Z" fill="#00a0a9" stroke="#00a0a9"></path><path d="M417.8 693L384.8 796L530.7 670Z" fill="#006b82" stroke="#006b82"></path><path d="M345.8 737L384.8 796L417.8 693Z" fill="#00ff3e" stroke="#00ff3e"></path><path d="M333.8 609L417.8 693L385.8 578Z" fill="#00a0a9" stroke="#00a0a9"></path><path d="M1195.4 1080L1408.3 1080L1343.3 1030Z" fill="#008597" stroke="#008597"></path><path d="M1519.2 1000L1529.2 959L1399.2 878Z" fill="#00baaa" stroke="#00baaa"></path><path d="M1519.2 1000L1399.2 878L1343.3 1030Z" fill="#053b52" stroke="#053b52"></path><path d="M1431.2 66L1310.4 68L1357.3 148Z" fill="#053b52" stroke="#053b52"></path><path d="M1310.4 68L1333.3 0L1200.4 0Z" fill="#001122" stroke="#001122"></path><path d="M294.8 599L385.8 578L266.9 494Z" fill="#00ff3e" stroke="#00ff3e"></path><path d="M1546.2 167L1431.2 66L1357.3 148Z" fill="#00baaa" stroke="#00baaa"></path><path d="M1546.2 167L1357.3 148L1527.2 232Z" fill="#02536b" stroke="#02536b"></path><path d="M1408.3 1080L1429.2 1080L1343.3 1030Z" fill="#00baaa" stroke="#00baaa"></path><path d="M333.8 609L345.8 737L417.8 693Z" fill="#05263a" stroke="#05263a"></path><path d="M1429.2 1080L1519.2 1000L1343.3 1030Z" fill="#02536b" stroke="#02536b"></path><path d="M1628.1 905L1663.1 799L1577.2 870Z" fill="#00ff3e" stroke="#00ff3e"></path><path d="M381.8 253L359.8 349L434.8 332Z" fill="#05263a" stroke="#05263a"></path><path d="M266.9 494L385.8 578L392.8 470Z" fill="#00a0a9" stroke="#00a0a9"></path><path d="M1624.2 398L1606.2 269L1514.2 312Z" fill="#00baaa" stroke="#00baaa"></path><path d="M1606.2 269L1546.2 167L1527.2 232Z" fill="#053b52" stroke="#053b52"></path><path d="M764.6 0L623.6 0L682.6 68Z" fill="#008597" stroke="#008597"></path><path d="M1743.1 659L1512.2 682L1603.2 779Z" fill="#006b82" stroke="#006b82"></path><path d="M1743.1 659L1689.1 563L1512.2 682Z" fill="#00d399" stroke="#00d399"></path><path d="M1624.2 398L1660.1 336L1606.2 269Z" fill="#00a0a9" stroke="#00a0a9"></path><path d="M415.8 177L381.8 253L478.8 179Z" fill="#00ff3e" stroke="#00ff3e"></path><path d="M478.8 179L381.8 253L525.7 275Z" fill="#00d399" stroke="#00d399"></path><path d="M328.8 815L411.8 943L384.8 796Z" fill="#00baaa" stroke="#00baaa"></path><path d="M384.8 796L411.8 943L584.7 902Z" fill="#001122" stroke="#001122"></path><path d="M535.7 990L451.8 1080L613.7 1080Z" fill="#008597" stroke="#008597"></path><path d="M1709.1 447L1660.1 336L1624.2 398Z" fill="#02536b" stroke="#02536b"></path><path d="M1606.2 269L1637.1 150L1546.2 167Z" fill="#00a0a9" stroke="#00a0a9"></path><path d="M1628.1 905L1577.2 870L1529.2 959Z" fill="#00baaa" stroke="#00baaa"></path><path d="M1577.2 870L1663.1 799L1603.2 779Z" fill="#05263a" stroke="#05263a"></path><path d="M386.8 71L415.8 177L478.8 179Z" fill="#006b82" stroke="#006b82"></path><path d="M333.8 609L229.9 704L345.8 737Z" fill="#00d399" stroke="#00d399"></path><path d="M345.8 737L328.8 815L384.8 796Z" fill="#053b52" stroke="#053b52"></path><path d="M266.9 494L392.8 470L383.8 428Z" fill="#053b52" stroke="#053b52"></path><path d="M266.9 494L383.8 428L251.9 390Z" fill="#006b82" stroke="#006b82"></path><path d="M231.9 818L328.8 815L345.8 737Z" fill="#008597" stroke="#008597"></path><path d="M1519.2 1000L1628.1 905L1529.2 959Z" fill="#008597" stroke="#008597"></path><path d="M1693.1 1080L1628.1 905L1519.2 1000Z" fill="#00a0a9" stroke="#00a0a9"></path><path d="M1689.1 563L1709.1 447L1603.2 506Z" fill="#00ea78" stroke="#00ea78"></path><path d="M1837.1 480L1709.1 447L1689.1 563Z" fill="#006b82" stroke="#006b82"></path><path d="M623.6 0L538.7 0L603.7 169Z" fill="#00ff3e" stroke="#00ff3e"></path><path d="M251.9 390L359.8 349L186.9 257Z" fill="#00ea78" stroke="#00ea78"></path><path d="M251.9 390L383.8 428L359.8 349Z" fill="#00d399" stroke="#00d399"></path><path d="M294.8 599L229.9 704L333.8 609Z" fill="#00ff3e" stroke="#00ff3e"></path><path d="M1429.2 1080L1532.2 1080L1519.2 1000Z" fill="#006b82" stroke="#006b82"></path><path d="M370.8 989L451.8 1080L411.8 943Z" fill="#02536b" stroke="#02536b"></path><path d="M411.8 943L451.8 1080L535.7 990Z" fill="#00ea78" stroke="#00ea78"></path><path d="M266.9 494L251.9 603L294.8 599Z" fill="#05263a" stroke="#05263a"></path><path d="M1631.2 51L1482.2 0L1546.2 167Z" fill="#008597" stroke="#008597"></path><path d="M1546.2 167L1482.2 0L1431.2 66Z" fill="#00ff3e" stroke="#00ff3e"></path><path d="M1431.2 66L1482.2 0L1333.3 0Z" fill="#008597" stroke="#008597"></path><path d="M1734.1 838L1743.1 659L1663.1 799Z" fill="#00baaa" stroke="#00baaa"></path><path d="M1663.1 799L1743.1 659L1603.2 779Z" fill="#00baaa" stroke="#00baaa"></path><path d="M231.9 818L370.8 989L328.8 815Z" fill="#00d399" stroke="#00d399"></path><path d="M328.8 815L370.8 989L411.8 943Z" fill="#001122" stroke="#001122"></path><path d="M1743.1 659L1754.1 611L1689.1 563Z" fill="#001122" stroke="#001122"></path><path d="M1745.1 188L1606.2 269L1660.1 336Z" fill="#00baaa" stroke="#00baaa"></path><path d="M1745.1 188L1637.1 150L1606.2 269Z" fill="#00a0a9" stroke="#00a0a9"></path><path d="M1758.1 385L1660.1 336L1709.1 447Z" fill="#05263a" stroke="#05263a"></path><path d="M186.9 257L359.8 349L381.8 253Z" fill="#00d399" stroke="#00d399"></path><path d="M266.9 494L141.9 561L251.9 603Z" fill="#00a0a9" stroke="#00a0a9"></path><path d="M186.9 257L381.8 253L214.9 149Z" fill="#00ff3e" stroke="#00ff3e"></path><path d="M147.9 684L229.9 704L251.9 603Z" fill="#00ea78" stroke="#00ea78"></path><path d="M251.9 603L229.9 704L294.8 599Z" fill="#001122" stroke="#001122"></path><path d="M1837.1 480L1758.1 385L1709.1 447Z" fill="#001122" stroke="#001122"></path><path d="M1747.1 959L1734.1 838L1628.1 905Z" fill="#00ea78" stroke="#00ea78"></path><path d="M1628.1 905L1734.1 838L1663.1 799Z" fill="#00baaa" stroke="#00baaa"></path><path d="M1920 583L1837.1 480L1754.1 611Z" fill="#00ff3e" stroke="#00ff3e"></path><path d="M538.7 0L457.8 0L478.8 179Z" fill="#053b52" stroke="#053b52"></path><path d="M457.8 0L386.8 71L478.8 179Z" fill="#006b82" stroke="#006b82"></path><path d="M1637.1 150L1639.1 88L1546.2 167Z" fill="#001122" stroke="#001122"></path><path d="M1761.1 95L1639.1 88L1637.1 150Z" fill="#00a0a9" stroke="#00a0a9"></path><path d="M229.9 704L231.9 818L345.8 737Z" fill="#006b82" stroke="#006b82"></path><path d="M1668.1 0L1631.2 51L1639.1 88Z" fill="#00a0a9" stroke="#00a0a9"></path><path d="M1639.1 88L1631.2 51L1546.2 167Z" fill="#00ff3e" stroke="#00ff3e"></path><path d="M147.9 684L200.9 810L229.9 704Z" fill="#008597" stroke="#008597"></path><path d="M229.9 704L200.9 810L231.9 818Z" fill="#00ff3e" stroke="#00ff3e"></path><path d="M224.9 1020L270.8 1080L370.8 989Z" fill="#006b82" stroke="#006b82"></path><path d="M370.8 989L270.8 1080L451.8 1080Z" fill="#00d399" stroke="#00d399"></path><path d="M1668.1 0L1612.2 0L1631.2 51Z" fill="#00ea78" stroke="#00ea78"></path><path d="M1631.2 51L1612.2 0L1482.2 0Z" fill="#00ff3e" stroke="#00ff3e"></path><path d="M1758.1 385L1745.1 188L1660.1 336Z" fill="#00a0a9" stroke="#00a0a9"></path><path d="M1693.1 1080L1747.1 959L1628.1 905Z" fill="#001122" stroke="#001122"></path><path d="M1920 583L1754.1 611L1920 607Z" fill="#00a0a9" stroke="#00a0a9"></path><path d="M1851.1 812L1743.1 659L1734.1 838Z" fill="#02536b" stroke="#02536b"></path><path d="M1754.1 611L1837.1 480L1689.1 563Z" fill="#02536b" stroke="#02536b"></path><path d="M1758.1 385L1847.1 382L1745.1 188Z" fill="#02536b" stroke="#02536b"></path><path d="M141.9 364L266.9 494L251.9 390Z" fill="#00a0a9" stroke="#00a0a9"></path><path d="M141.9 364L141.9 561L266.9 494Z" fill="#008597" stroke="#008597"></path><path d="M141.9 561L147.9 684L251.9 603Z" fill="#008597" stroke="#008597"></path><path d="M1532.2 1080L1693.1 1080L1519.2 1000Z" fill="#053b52" stroke="#053b52"></path><path d="M214.9 149L415.8 177L386.8 71Z" fill="#053b52" stroke="#053b52"></path><path d="M214.9 149L381.8 253L415.8 177Z" fill="#00baaa" stroke="#00baaa"></path><path d="M1837.1 480L1847.1 382L1758.1 385Z" fill="#00baaa" stroke="#00baaa"></path><path d="M1761.1 95L1668.1 0L1639.1 88Z" fill="#006b82" stroke="#006b82"></path><path d="M1761.1 95L1637.1 150L1745.1 188Z" fill="#053b52" stroke="#053b52"></path><path d="M186.9 257L141.9 364L251.9 390Z" fill="#00baaa" stroke="#00baaa"></path><path d="M1865.1 854L1734.1 838L1747.1 959Z" fill="#006b82" stroke="#006b82"></path><path d="M1865.1 854L1851.1 812L1734.1 838Z" fill="#053b52" stroke="#053b52"></path><path d="M1837.1 480L1920 456L1847.1 382Z" fill="#05263a" stroke="#05263a"></path><path d="M457.8 0L319.8 0L386.8 71Z" fill="#001122" stroke="#001122"></path><path d="M224.9 1020L231.9 818L122.9 902Z" fill="#00ff3e" stroke="#00ff3e"></path><path d="M224.9 1020L370.8 989L231.9 818Z" fill="#001122" stroke="#001122"></path><path d="M319.8 0L214.9 149L386.8 71Z" fill="#00a0a9" stroke="#00a0a9"></path><path d="M186.9 257L0 290L141.9 364Z" fill="#053b52" stroke="#053b52"></path><path d="M122.9 902L231.9 818L200.9 810Z" fill="#00a0a9" stroke="#00a0a9"></path><path d="M1920 152L1761.1 95L1745.1 188Z" fill="#006b82" stroke="#006b82"></path><path d="M224.9 1020L248.9 1080L270.8 1080Z" fill="#00ea78" stroke="#00ea78"></path><path d="M109.9 132L163.9 215L214.9 149Z" fill="#001122" stroke="#001122"></path><path d="M214.9 149L163.9 215L186.9 257Z" fill="#053b52" stroke="#053b52"></path><path d="M1920 1008L1865.1 854L1747.1 959Z" fill="#053b52" stroke="#053b52"></path><path d="M1920 607L1754.1 611L1743.1 659Z" fill="#00ea78" stroke="#00ea78"></path><path d="M1920 607L1743.1 659L1920 781Z" fill="#05263a" stroke="#05263a"></path><path d="M1847.1 382L1920 271L1745.1 188Z" fill="#00d399" stroke="#00d399"></path><path d="M1920 781L1743.1 659L1851.1 812Z" fill="#00baaa" stroke="#00baaa"></path><path d="M1920 583L1920 456L1837.1 480Z" fill="#001122" stroke="#001122"></path><path d="M61.9 809L122.9 902L200.9 810Z" fill="#00ea78" stroke="#00ea78"></path><path d="M224.9 1020L159.9 1080L248.9 1080Z" fill="#00a0a9" stroke="#00a0a9"></path><path d="M61.9 809L200.9 810L147.9 684Z" fill="#00a0a9" stroke="#00a0a9"></path><path d="M61.9 809L147.9 684L0 792Z" fill="#00ea78" stroke="#00ea78"></path><path d="M1920 824L1920 781L1851.1 812Z" fill="#00d399" stroke="#00d399"></path><path d="M1920 1008L1920 824L1865.1 854Z" fill="#001122" stroke="#001122"></path><path d="M1865.1 854L1920 824L1851.1 812Z" fill="#05263a" stroke="#05263a"></path><path d="M0 404L50.9 419L0 290Z" fill="#05263a" stroke="#05263a"></path><path d="M141.9 364L50.9 419L141.9 561Z" fill="#008597" stroke="#008597"></path><path d="M0 606L147.9 684L141.9 561Z" fill="#006b82" stroke="#006b82"></path><path d="M1920 456L1920 271L1847.1 382Z" fill="#001122" stroke="#001122"></path><path d="M86.9 983L224.9 1020L122.9 902Z" fill="#00d399" stroke="#00d399"></path><path d="M86.9 983L159.9 1080L224.9 1020Z" fill="#001122" stroke="#001122"></path><path d="M1693.1 1080L1838.1 1080L1747.1 959Z" fill="#006b82" stroke="#006b82"></path><path d="M319.8 0L194.9 0L214.9 149Z" fill="#00ea78" stroke="#00ea78"></path><path d="M0 290L50.9 419L141.9 364Z" fill="#006b82" stroke="#006b82"></path><path d="M194.9 0L109.9 132L214.9 149Z" fill="#02536b" stroke="#02536b"></path><path d="M0 493L0 606L141.9 561Z" fill="#053b52" stroke="#053b52"></path><path d="M0 493L141.9 561L50.9 419Z" fill="#00a0a9" stroke="#00a0a9"></path><path d="M0 872L86.9 983L122.9 902Z" fill="#001122" stroke="#001122"></path><path d="M0 872L122.9 902L61.9 809Z" fill="#05263a" stroke="#05263a"></path><path d="M0 404L0 493L50.9 419Z" fill="#02536b" stroke="#02536b"></path><path d="M1920 271L1920 178L1745.1 188Z" fill="#001122" stroke="#001122"></path><path d="M1761.1 95L1859.1 0L1668.1 0Z" fill="#008597" stroke="#008597"></path><path d="M0 290L186.9 257L163.9 215Z" fill="#00ff3e" stroke="#00ff3e"></path><path d="M1920 178L1920 152L1745.1 188Z" fill="#00a0a9" stroke="#00a0a9"></path><path d="M1838.1 1080L1920 1008L1747.1 959Z" fill="#00ea78" stroke="#00ea78"></path><path d="M0 606L0 792L147.9 684Z" fill="#053b52" stroke="#053b52"></path><path d="M1920 152L1859.1 0L1761.1 95Z" fill="#053b52" stroke="#053b52"></path><path d="M0 247L0 290L163.9 215Z" fill="#00d399" stroke="#00d399"></path><path d="M0 247L163.9 215L109.9 132Z" fill="#00ea78" stroke="#00ea78"></path><path d="M0 792L0 872L61.9 809Z" fill="#02536b" stroke="#02536b"></path><path d="M86.9 983L0 1080L159.9 1080Z" fill="#008597" stroke="#008597"></path><path d="M0 118L0 247L109.9 132Z" fill="#02536b" stroke="#02536b"></path><path d="M1838.1 1080L1920 1080L1920 1008Z" fill="#006b82" stroke="#006b82"></path><path d="M194.9 0L98.9 0L109.9 132Z" fill="#00a0a9" stroke="#00a0a9"></path><path d="M1920 152L1920 0L1859.1 0Z" fill="#006b82" stroke="#006b82"></path><path d="M98.9 0L0 118L109.9 132Z" fill="#008597" stroke="#008597"></path><path d="M0 872L0 1029L86.9 983Z" fill="#008597" stroke="#008597"></path><path d="M0 1029L0 1080L86.9 983Z" fill="#00ff3e" stroke="#00ff3e"></path><path d="M98.9 0L0 0L0 118Z" fill="#006b82" stroke="#006b82"></path></g></svg>