<svg id="visual" viewBox="0 0 1920 1080" width="1920" height="1080" xmlns="http://www.w3.org/2000/svg" xmlns:xlink="http://www.w3.org/1999/xlink" version="1.1"><g stroke-width="1" stroke-linejoin="bevel"><path d="M969.5 568L970.5 447L931.5 559Z" fill="#00ea78" stroke="#00ea78"></path><path d="M1173.4 495L976.5 428L970.5 447Z" fill="#001122" stroke="#001122"></path><path d="M821.5 583L872.6 597L931.5 559Z" fill="#053b52" stroke="#053b52"></path><path d="M821.5 583L931.5 559L763.6 424Z" fill="#006b82" stroke="#006b82"></path><path d="M931.5 559L872.6 597L969.5 568Z" fill="#02536b" stroke="#02536b"></path><path d="M763.6 424L931.5 559L970.5 447Z" fill="#006b82" stroke="#006b82"></path><path d="M941.5 812L1091.5 663L969.5 568Z" fill="#053b52" stroke="#053b52"></path><path d="M969.5 568L1173.4 495L970.5 447Z" fill="#00baaa" stroke="#00baaa"></path><path d="M941.5 812L969.5 568L872.6 597Z" fill="#00ea78" stroke="#00ea78"></path><path d="M1091.5 663L1173.4 495L969.5 568Z" fill="#05263a" stroke="#05263a"></path><path d="M976.5 428L763.6 424L970.5 447Z" fill="#008597" stroke="#008597"></path><path d="M1183.4 433L1105.4 339L976.5 428Z" fill="#00d399" stroke="#00d399"></path><path d="M976.5 428L825.5 273L763.6 424Z" fill="#05263a" stroke="#05263a"></path><path d="M763.6 424L748.6 576L821.5 583Z" fill="#053b52" stroke="#053b52"></path><path d="M821.5 583L815.6 720L872.6 597Z" fill="#00ea78" stroke="#00ea78"></path><path d="M1015.5 283L972.5 279L976.5 428Z" fill="#02536b" stroke="#02536b"></path><path d="M1105.4 339L1015.5 283L976.5 428Z" fill="#00d399" stroke="#00d399"></path><path d="M1173.4 495L1183.4 433L976.5 428Z" fill="#00a0a9" stroke="#00a0a9"></path><path d="M1173.4 495L1193.4 471L1183.4 433Z" fill="#00ff3e" stroke="#00ff3e"></path><path d="M1313.3 463L1193.4 471L1173.4 495Z" fill="#006b82" stroke="#006b82"></path><path d="M748.6 576L815.6 720L821.5 583Z" fill="#00ea78" stroke="#00ea78"></path><path d="M1131.4 778L1152.4 691L1091.5 663Z" fill="#05263a" stroke="#05263a"></path><path d="M1091.5 663L1152.4 691L1173.4 495Z" fill="#001122" stroke="#001122"></path><path d="M972.5 279L825.5 273L976.5 428Z" fill="#006b82" stroke="#006b82"></path><path d="M815.6 720L941.5 812L872.6 597Z" fill="#00baaa" stroke="#00baaa"></path><path d="M850.6 198L774.6 253L825.5 273Z" fill="#00d399" stroke="#00d399"></path><path d="M825.5 273L706.6 288L763.6 424Z" fill="#00baaa" stroke="#00baaa"></path><path d="M763.6 424L637.6 535L748.6 576Z" fill="#05263a" stroke="#05263a"></path><path d="M850.6 198L825.5 273L972.5 279Z" fill="#001122" stroke="#001122"></path><path d="M961.5 827L1131.4 778L1091.5 663Z" fill="#006b82" stroke="#006b82"></path><path d="M889.5 907L961.5 827L941.5 812Z" fill="#00a0a9" stroke="#00a0a9"></path><path d="M941.5 812L961.5 827L1091.5 663Z" fill="#006b82" stroke="#006b82"></path><path d="M706.6 288L653.6 418L763.6 424Z" fill="#00baaa" stroke="#00baaa"></path><path d="M748.6 576L603.7 616L815.6 720Z" fill="#00ff3e" stroke="#00ff3e"></path><path d="M653.6 418L637.6 535L763.6 424Z" fill="#00ea78" stroke="#00ea78"></path><path d="M980.5 146L850.6 198L972.5 279Z" fill="#006b82" stroke="#006b82"></path><path d="M820.5 842L839.6 818L815.6 720Z" fill="#053b52" stroke="#053b52"></path><path d="M815.6 720L839.6 818L941.5 812Z" fill="#02536b" stroke="#02536b"></path><path d="M622.6 308L706.6 288L695.6 177Z" fill="#00ff3e" stroke="#00ff3e"></path><path d="M774.6 253L706.6 288L825.5 273Z" fill="#053b52" stroke="#053b52"></path><path d="M1097.5 899L1148.4 791L1131.4 778Z" fill="#02536b" stroke="#02536b"></path><path d="M1131.4 778L1226.4 749L1152.4 691Z" fill="#001122" stroke="#001122"></path><path d="M1313.3 463L1277.4 375L1193.4 471Z" fill="#00baaa" stroke="#00baaa"></path><path d="M1313.3 463L1173.4 495L1279.4 668Z" fill="#00d399" stroke="#00d399"></path><path d="M1193.4 471L1277.4 375L1183.4 433Z" fill="#008597" stroke="#008597"></path><path d="M1183.4 433L1277.4 375L1105.4 339Z" fill="#05263a" stroke="#05263a"></path><path d="M1174.4 176L980.5 146L1015.5 283Z" fill="#006b82" stroke="#006b82"></path><path d="M1015.5 283L980.5 146L972.5 279Z" fill="#00a0a9" stroke="#00a0a9"></path><path d="M1279.4 668L1173.4 495L1152.4 691Z" fill="#006b82" stroke="#006b82"></path><path d="M1226.4 749L1279.4 668L1152.4 691Z" fill="#00baaa" stroke="#00baaa"></path><path d="M1148.4 791L1226.4 749L1131.4 778Z" fill="#00baaa" stroke="#00baaa"></path><path d="M1174.4 176L1015.5 283L1105.4 339Z" fill="#05263a" stroke="#05263a"></path><path d="M737.6 868L820.5 842L815.6 720Z" fill="#00ea78" stroke="#00ea78"></path><path d="M839.6 818L889.5 907L941.5 812Z" fill="#001122" stroke="#001122"></path><path d="M1313.3 463L1309.4 393L1277.4 375Z" fill="#00baaa" stroke="#00baaa"></path><path d="M1277.4 375L1174.4 176L1105.4 339Z" fill="#00ea78" stroke="#00ea78"></path><path d="M889.5 907L1040.5 868L961.5 827Z" fill="#053b52" stroke="#053b52"></path><path d="M961.5 827L1040.5 868L1131.4 778Z" fill="#006b82" stroke="#006b82"></path><path d="M1148.4 791L1195.4 809L1226.4 749Z" fill="#00ea78" stroke="#00ea78"></path><path d="M576.7 640L603.7 616L451.8 490Z" fill="#00baaa" stroke="#00baaa"></path><path d="M637.6 535L603.7 616L748.6 576Z" fill="#00ea78" stroke="#00ea78"></path><path d="M1097.5 899L1195.4 809L1148.4 791Z" fill="#05263a" stroke="#05263a"></path><path d="M1412.3 688L1411.2 601L1279.4 668Z" fill="#00ff3e" stroke="#00ff3e"></path><path d="M1249.4 153L1174.4 176L1277.4 375Z" fill="#00ea78" stroke="#00ea78"></path><path d="M695.6 177L706.6 288L774.6 253Z" fill="#05263a" stroke="#05263a"></path><path d="M706.6 288L622.6 308L653.6 418Z" fill="#05263a" stroke="#05263a"></path><path d="M653.6 418L522.7 401L637.6 535Z" fill="#006b82" stroke="#006b82"></path><path d="M820.5 842L889.5 907L839.6 818Z" fill="#00a0a9" stroke="#00a0a9"></path><path d="M451.8 490L603.7 616L637.6 535Z" fill="#001122" stroke="#001122"></path><path d="M609.7 790L647.6 820L815.6 720Z" fill="#00d399" stroke="#00d399"></path><path d="M820.5 842L857.6 985L889.5 907Z" fill="#008597" stroke="#008597"></path><path d="M1051.4 1080L1097.5 899L1040.5 868Z" fill="#00ff3e" stroke="#00ff3e"></path><path d="M1040.5 868L1097.5 899L1131.4 778Z" fill="#053b52" stroke="#053b52"></path><path d="M622.6 308L563.7 377L653.6 418Z" fill="#00a0a9" stroke="#00a0a9"></path><path d="M839.6 65L695.6 177L850.6 198Z" fill="#05263a" stroke="#05263a"></path><path d="M850.6 198L695.6 177L774.6 253Z" fill="#053b52" stroke="#053b52"></path><path d="M465.8 273L522.7 401L563.7 377Z" fill="#02536b" stroke="#02536b"></path><path d="M647.6 820L737.6 868L815.6 720Z" fill="#00a0a9" stroke="#00a0a9"></path><path d="M1055.4 80L975.5 81L980.5 146Z" fill="#001122" stroke="#001122"></path><path d="M980.5 146L839.6 65L850.6 198Z" fill="#001122" stroke="#001122"></path><path d="M1174.4 176L1055.4 80L980.5 146Z" fill="#008597" stroke="#008597"></path><path d="M1055.4 80L968.5 64L975.5 81Z" fill="#05263a" stroke="#05263a"></path><path d="M975.5 81L839.6 65L980.5 146Z" fill="#001122" stroke="#001122"></path><path d="M609.7 790L815.6 720L603.7 616Z" fill="#053b52" stroke="#053b52"></path><path d="M1405.3 425L1376.3 337L1309.4 393Z" fill="#001122" stroke="#001122"></path><path d="M1309.4 393L1376.3 337L1277.4 375Z" fill="#001122" stroke="#001122"></path><path d="M1174.4 176L1240.4 83L1055.4 80Z" fill="#02536b" stroke="#02536b"></path><path d="M1405.3 425L1309.4 393L1313.3 463Z" fill="#00d399" stroke="#00d399"></path><path d="M1411.2 601L1405.3 425L1313.3 463Z" fill="#00ff3e" stroke="#00ff3e"></path><path d="M576.7 640L609.7 790L603.7 616Z" fill="#00a0a9" stroke="#00a0a9"></path><path d="M490.8 242L563.7 377L622.6 308Z" fill="#02536b" stroke="#02536b"></path><path d="M563.7 377L522.7 401L653.6 418Z" fill="#001122" stroke="#001122"></path><path d="M576.7 640L400.8 688L609.7 790Z" fill="#00d399" stroke="#00d399"></path><path d="M1376.3 337L1249.4 153L1277.4 375Z" fill="#001122" stroke="#001122"></path><path d="M1434.2 598L1411.2 601L1412.3 688Z" fill="#00a0a9" stroke="#00a0a9"></path><path d="M1279.4 668L1411.2 601L1313.3 463Z" fill="#05263a" stroke="#05263a"></path><path d="M968.5 64L839.6 65L975.5 81Z" fill="#00a0a9" stroke="#00a0a9"></path><path d="M647.6 820L701.6 888L737.6 868Z" fill="#05263a" stroke="#05263a"></path><path d="M737.6 868L857.6 985L820.5 842Z" fill="#05263a" stroke="#05263a"></path><path d="M643.7 906L701.6 888L647.6 820Z" fill="#00d399" stroke="#00d399"></path><path d="M1412.3 688L1279.4 668L1226.4 749Z" fill="#00ff3e" stroke="#00ff3e"></path><path d="M1411.2 601L1434.2 598L1405.3 425Z" fill="#00d399" stroke="#00d399"></path><path d="M1412.3 688L1226.4 749L1437.3 822Z" fill="#00d399" stroke="#00d399"></path><path d="M1450.2 698L1412.3 688L1437.3 822Z" fill="#05263a" stroke="#05263a"></path><path d="M747.6 1045L857.6 985L737.6 868Z" fill="#05263a" stroke="#05263a"></path><path d="M889.5 907L984.5 1080L1040.5 868Z" fill="#008597" stroke="#008597"></path><path d="M612.6 0L611.7 151L695.6 177Z" fill="#053b52" stroke="#053b52"></path><path d="M695.6 177L611.7 151L622.6 308Z" fill="#006b82" stroke="#006b82"></path><path d="M1306.3 71L1240.4 83L1249.4 153Z" fill="#00d399" stroke="#00d399"></path><path d="M1249.4 153L1240.4 83L1174.4 176Z" fill="#00d399" stroke="#00d399"></path><path d="M1071.5 0L914.5 0L968.5 64Z" fill="#00ea78" stroke="#00ea78"></path><path d="M1071.5 0L968.5 64L1055.4 80Z" fill="#008597" stroke="#008597"></path><path d="M968.5 64L914.5 0L839.6 65Z" fill="#00ea78" stroke="#00ea78"></path><path d="M612.6 0L590.7 138L611.7 151Z" fill="#006b82" stroke="#006b82"></path><path d="M609.7 790L643.7 906L647.6 820Z" fill="#00baaa" stroke="#00baaa"></path><path d="M701.6 888L747.6 1045L737.6 868Z" fill="#02536b" stroke="#02536b"></path><path d="M302.9 365L451.8 490L522.7 401Z" fill="#006b82" stroke="#006b82"></path><path d="M522.7 401L451.8 490L637.6 535Z" fill="#00d399" stroke="#00d399"></path><path d="M609.7 790L613.7 957L643.7 906Z" fill="#00ea78" stroke="#00ea78"></path><path d="M1613.2 539L1474.2 436L1434.2 598Z" fill="#00ff3e" stroke="#00ff3e"></path><path d="M1434.2 598L1474.2 436L1405.3 425Z" fill="#05263a" stroke="#05263a"></path><path d="M1405.3 425L1474.2 436L1376.3 337Z" fill="#00ff3e" stroke="#00ff3e"></path><path d="M1376.3 337L1426.3 202L1249.4 153Z" fill="#053b52" stroke="#053b52"></path><path d="M1090.4 0L1071.5 0L1055.4 80Z" fill="#008597" stroke="#008597"></path><path d="M1279.3 928L1226.4 749L1195.4 809Z" fill="#006b82" stroke="#006b82"></path><path d="M1412.3 688L1450.2 698L1434.2 598Z" fill="#00a0a9" stroke="#00a0a9"></path><path d="M1240.4 83L1090.4 0L1055.4 80Z" fill="#00ea78" stroke="#00ea78"></path><path d="M824.6 0L695.6 177L839.6 65Z" fill="#00ea78" stroke="#00ea78"></path><path d="M611.7 151L490.8 242L622.6 308Z" fill="#001122" stroke="#001122"></path><path d="M1232.4 969L1195.4 809L1097.5 899Z" fill="#05263a" stroke="#05263a"></path><path d="M1232.4 969L1279.3 928L1195.4 809Z" fill="#006b82" stroke="#006b82"></path><path d="M914.5 0L824.6 0L839.6 65Z" fill="#00d399" stroke="#00d399"></path><path d="M1159.4 1022L1232.4 969L1097.5 899Z" fill="#00a0a9" stroke="#00a0a9"></path><path d="M1489.2 287L1434.2 246L1376.3 337Z" fill="#008597" stroke="#008597"></path><path d="M590.7 138L490.8 242L611.7 151Z" fill="#02536b" stroke="#02536b"></path><path d="M490.8 242L465.8 273L563.7 377Z" fill="#00a0a9" stroke="#00a0a9"></path><path d="M1051.4 1080L1159.4 1022L1097.5 899Z" fill="#00ea78" stroke="#00ea78"></path><path d="M1503.2 700L1503.2 633L1450.2 698Z" fill="#05263a" stroke="#05263a"></path><path d="M1450.2 698L1503.2 633L1434.2 598Z" fill="#02536b" stroke="#02536b"></path><path d="M1515.2 190L1426.3 202L1434.2 246Z" fill="#02536b" stroke="#02536b"></path><path d="M1434.2 246L1426.3 202L1376.3 337Z" fill="#00ff3e" stroke="#00ff3e"></path><path d="M1426.3 202L1306.3 71L1249.4 153Z" fill="#001122" stroke="#001122"></path><path d="M1240.4 83L1211.4 0L1090.4 0Z" fill="#008597" stroke="#008597"></path><path d="M377.8 557L416.8 620L451.8 490Z" fill="#00ea78" stroke="#00ea78"></path><path d="M451.8 490L416.8 620L576.7 640Z" fill="#00ff3e" stroke="#00ff3e"></path><path d="M1310.3 0L1211.4 0L1240.4 83Z" fill="#05263a" stroke="#05263a"></path><path d="M1279.3 928L1437.3 822L1226.4 749Z" fill="#00ea78" stroke="#00ea78"></path><path d="M1336.3 982L1437.3 822L1279.3 928Z" fill="#008597" stroke="#008597"></path><path d="M1336.3 982L1279.3 928L1232.4 969Z" fill="#001122" stroke="#001122"></path><path d="M517.8 989L613.7 957L609.7 790Z" fill="#00d399" stroke="#00d399"></path><path d="M643.7 906L613.7 957L701.6 888Z" fill="#00d399" stroke="#00d399"></path><path d="M857.6 985L984.5 1080L889.5 907Z" fill="#00ff3e" stroke="#00ff3e"></path><path d="M1474.2 436L1489.2 287L1376.3 337Z" fill="#00baaa" stroke="#00baaa"></path><path d="M1633.2 382L1489.2 287L1474.2 436Z" fill="#05263a" stroke="#05263a"></path><path d="M1437.3 822L1503.2 700L1450.2 698Z" fill="#00a0a9" stroke="#00a0a9"></path><path d="M846.5 1080L984.5 1080L857.6 985Z" fill="#00ea78" stroke="#00ea78"></path><path d="M984.5 1080L1051.4 1080L1040.5 868Z" fill="#00a0a9" stroke="#00a0a9"></path><path d="M613.7 957L747.6 1045L701.6 888Z" fill="#001122" stroke="#001122"></path><path d="M747.6 1045L846.5 1080L857.6 985Z" fill="#00ff3e" stroke="#00ff3e"></path><path d="M337.8 546L377.8 557L451.8 490Z" fill="#006b82" stroke="#006b82"></path><path d="M416.8 620L400.8 688L576.7 640Z" fill="#001122" stroke="#001122"></path><path d="M346.8 655L400.8 688L416.8 620Z" fill="#00baaa" stroke="#00baaa"></path><path d="M1170.4 1080L1232.4 969L1159.4 1022Z" fill="#02536b" stroke="#02536b"></path><path d="M1338.3 1080L1336.3 982L1232.4 969Z" fill="#006b82" stroke="#006b82"></path><path d="M1051.4 1080L1170.4 1080L1159.4 1022Z" fill="#006b82" stroke="#006b82"></path><path d="M1548.2 0L1310.3 0L1306.3 71Z" fill="#00baaa" stroke="#00baaa"></path><path d="M1306.3 71L1310.3 0L1240.4 83Z" fill="#008597" stroke="#008597"></path><path d="M1543.2 131L1306.3 71L1426.3 202Z" fill="#00ea78" stroke="#00ea78"></path><path d="M600.6 1080L734.6 1080L747.6 1045Z" fill="#00a0a9" stroke="#00a0a9"></path><path d="M747.6 1045L734.6 1080L846.5 1080Z" fill="#00ff3e" stroke="#00ff3e"></path><path d="M824.6 0L612.6 0L695.6 177Z" fill="#008597" stroke="#008597"></path><path d="M590.7 138L458.8 106L490.8 242Z" fill="#053b52" stroke="#053b52"></path><path d="M490.8 242L350.8 235L465.8 273Z" fill="#02536b" stroke="#02536b"></path><path d="M421.8 819L424.8 824L609.7 790Z" fill="#006b82" stroke="#006b82"></path><path d="M613.7 957L600.6 1080L747.6 1045Z" fill="#008597" stroke="#008597"></path><path d="M400.8 688L421.8 819L609.7 790Z" fill="#00baaa" stroke="#00baaa"></path><path d="M296.9 817L421.8 819L400.8 688Z" fill="#05263a" stroke="#05263a"></path><path d="M1336.3 982L1470.2 875L1437.3 822Z" fill="#02536b" stroke="#02536b"></path><path d="M1437.3 822L1562.2 886L1503.2 700Z" fill="#006b82" stroke="#006b82"></path><path d="M302.9 365L337.8 546L451.8 490Z" fill="#00baaa" stroke="#00baaa"></path><path d="M377.8 557L346.8 655L416.8 620Z" fill="#006b82" stroke="#006b82"></path><path d="M337.8 546L346.8 655L377.8 557Z" fill="#008597" stroke="#008597"></path><path d="M1623.1 190L1515.2 190L1489.2 287Z" fill="#05263a" stroke="#05263a"></path><path d="M1489.2 287L1515.2 190L1434.2 246Z" fill="#053b52" stroke="#053b52"></path><path d="M1613.2 539L1434.2 598L1503.2 633Z" fill="#05263a" stroke="#05263a"></path><path d="M504.7 0L458.8 106L590.7 138Z" fill="#008597" stroke="#008597"></path><path d="M465.8 273L310.8 337L522.7 401Z" fill="#001122" stroke="#001122"></path><path d="M1695.1 513L1613.2 539L1710.1 672Z" fill="#001122" stroke="#001122"></path><path d="M1710.1 672L1613.2 539L1503.2 633Z" fill="#006b82" stroke="#006b82"></path><path d="M338.8 942L517.8 989L424.8 824Z" fill="#00ea78" stroke="#00ea78"></path><path d="M424.8 824L517.8 989L609.7 790Z" fill="#00ff3e" stroke="#00ff3e"></path><path d="M1336.3 982L1395.2 1019L1470.2 875Z" fill="#00d399" stroke="#00d399"></path><path d="M1338.3 1080L1395.2 1019L1336.3 982Z" fill="#00baaa" stroke="#00baaa"></path><path d="M355.8 176L350.8 235L490.8 242Z" fill="#00baaa" stroke="#00baaa"></path><path d="M350.8 235L310.8 337L465.8 273Z" fill="#006b82" stroke="#006b82"></path><path d="M337.8 546L273.9 611L346.8 655Z" fill="#00a0a9" stroke="#00a0a9"></path><path d="M310.8 337L302.9 365L522.7 401Z" fill="#00a0a9" stroke="#00a0a9"></path><path d="M586.7 1080L600.6 1080L613.7 957Z" fill="#001122" stroke="#001122"></path><path d="M1613.2 539L1633.2 382L1474.2 436Z" fill="#00a0a9" stroke="#00a0a9"></path><path d="M1170.4 1080L1338.3 1080L1232.4 969Z" fill="#006b82" stroke="#006b82"></path><path d="M458.8 106L355.8 176L490.8 242Z" fill="#00ea78" stroke="#00ea78"></path><path d="M612.6 0L504.7 0L590.7 138Z" fill="#05263a" stroke="#05263a"></path><path d="M517.8 989L586.7 1080L613.7 957Z" fill="#00baaa" stroke="#00baaa"></path><path d="M1557.2 138L1543.2 131L1515.2 190Z" fill="#00a0a9" stroke="#00a0a9"></path><path d="M1515.2 190L1543.2 131L1426.3 202Z" fill="#05263a" stroke="#05263a"></path><path d="M1613.2 539L1645.2 389L1633.2 382Z" fill="#05263a" stroke="#05263a"></path><path d="M1623.1 190L1557.2 138L1515.2 190Z" fill="#006b82" stroke="#006b82"></path><path d="M297.9 147L355.8 176L458.8 106Z" fill="#00ea78" stroke="#00ea78"></path><path d="M271.9 290L268.8 363L310.8 337Z" fill="#00ff3e" stroke="#00ff3e"></path><path d="M310.8 337L268.8 363L302.9 365Z" fill="#05263a" stroke="#05263a"></path><path d="M190.9 466L273.9 611L337.8 546Z" fill="#00d399" stroke="#00d399"></path><path d="M346.8 655L296.9 817L400.8 688Z" fill="#02536b" stroke="#02536b"></path><path d="M421.8 819L296.9 817L424.8 824Z" fill="#006b82" stroke="#006b82"></path><path d="M1623.1 190L1489.2 287L1633.2 382Z" fill="#02536b" stroke="#02536b"></path><path d="M1543.2 131L1548.2 0L1306.3 71Z" fill="#053b52" stroke="#053b52"></path><path d="M164.9 685L267.9 637L273.9 611Z" fill="#053b52" stroke="#053b52"></path><path d="M273.9 611L267.9 637L346.8 655Z" fill="#00a0a9" stroke="#00a0a9"></path><path d="M1464.2 1080L1470.2 875L1395.2 1019Z" fill="#006b82" stroke="#006b82"></path><path d="M1589.2 1022L1562.2 886L1470.2 875Z" fill="#001122" stroke="#001122"></path><path d="M1470.2 875L1562.2 886L1437.3 822Z" fill="#05263a" stroke="#05263a"></path><path d="M1613.2 539L1695.1 513L1645.2 389Z" fill="#008597" stroke="#008597"></path><path d="M271.9 290L310.8 337L350.8 235Z" fill="#053b52" stroke="#053b52"></path><path d="M302.9 365L190.9 466L337.8 546Z" fill="#05263a" stroke="#05263a"></path><path d="M504.7 0L452.8 0L458.8 106Z" fill="#05263a" stroke="#05263a"></path><path d="M297.9 147L271.9 290L350.8 235Z" fill="#008597" stroke="#008597"></path><path d="M297.9 147L350.8 235L355.8 176Z" fill="#00ea78" stroke="#00ea78"></path><path d="M1710.1 672L1503.2 633L1503.2 700Z" fill="#006b82" stroke="#006b82"></path><path d="M1747.1 232L1623.1 190L1633.2 382Z" fill="#053b52" stroke="#053b52"></path><path d="M1747.1 232L1633.2 382L1645.2 389Z" fill="#02536b" stroke="#02536b"></path><path d="M267.9 637L296.9 817L346.8 655Z" fill="#05263a" stroke="#05263a"></path><path d="M517.8 989L437.8 1080L586.7 1080Z" fill="#053b52" stroke="#053b52"></path><path d="M310.8 0L297.9 147L458.8 106Z" fill="#00ea78" stroke="#00ea78"></path><path d="M197.9 806L283.8 844L296.9 817Z" fill="#00ea78" stroke="#00ea78"></path><path d="M296.9 817L283.8 844L424.8 824Z" fill="#05263a" stroke="#05263a"></path><path d="M1338.3 1080L1464.2 1080L1395.2 1019Z" fill="#05263a" stroke="#05263a"></path><path d="M283.8 844L338.8 942L424.8 824Z" fill="#02536b" stroke="#02536b"></path><path d="M1765.1 786L1710.1 672L1562.2 886Z" fill="#00baaa" stroke="#00baaa"></path><path d="M1562.2 886L1710.1 672L1503.2 700Z" fill="#00a0a9" stroke="#00a0a9"></path><path d="M1760.1 375L1726.1 415L1782.1 370Z" fill="#02536b" stroke="#02536b"></path><path d="M1695.1 513L1726.1 415L1645.2 389Z" fill="#00baaa" stroke="#00baaa"></path><path d="M202.9 275L268.8 363L271.9 290Z" fill="#001122" stroke="#001122"></path><path d="M79.9 362L190.9 466L268.8 363Z" fill="#053b52" stroke="#053b52"></path><path d="M268.8 363L190.9 466L302.9 365Z" fill="#00a0a9" stroke="#00a0a9"></path><path d="M267.9 637L197.9 806L296.9 817Z" fill="#00a0a9" stroke="#00a0a9"></path><path d="M1587.2 0L1548.2 0L1543.2 131Z" fill="#00baaa" stroke="#00baaa"></path><path d="M1587.2 0L1543.2 131L1557.2 138Z" fill="#00baaa" stroke="#00baaa"></path><path d="M1587.2 0L1557.2 138L1668.1 82Z" fill="#006b82" stroke="#006b82"></path><path d="M419.8 1080L437.8 1080L517.8 989Z" fill="#053b52" stroke="#053b52"></path><path d="M338.8 942L419.8 1080L517.8 989Z" fill="#001122" stroke="#001122"></path><path d="M297.9 147L202.9 275L271.9 290Z" fill="#00d399" stroke="#00d399"></path><path d="M1668.1 82L1557.2 138L1623.1 190Z" fill="#008597" stroke="#008597"></path><path d="M297.9 147L192.9 271L202.9 275Z" fill="#00a0a9" stroke="#00a0a9"></path><path d="M202.9 275L79.9 362L268.8 363Z" fill="#02536b" stroke="#02536b"></path><path d="M1782.1 370L1726.1 415L1920 493Z" fill="#00d399" stroke="#00d399"></path><path d="M1726.1 415L1760.1 375L1645.2 389Z" fill="#05263a" stroke="#05263a"></path><path d="M1589.2 1022L1621.1 978L1562.2 886Z" fill="#00ea78" stroke="#00ea78"></path><path d="M1464.2 1080L1589.2 1022L1470.2 875Z" fill="#00a0a9" stroke="#00a0a9"></path><path d="M44.9 734L164.9 685L0 620Z" fill="#053b52" stroke="#053b52"></path><path d="M190.9 466L164.9 685L273.9 611Z" fill="#006b82" stroke="#006b82"></path><path d="M283.8 844L279.9 981L338.8 942Z" fill="#00ff3e" stroke="#00ff3e"></path><path d="M338.8 942L279.9 981L419.8 1080Z" fill="#00ea78" stroke="#00ea78"></path><path d="M164.9 685L197.9 806L267.9 637Z" fill="#001122" stroke="#001122"></path><path d="M1747.1 232L1668.1 82L1623.1 190Z" fill="#00ff3e" stroke="#00ff3e"></path><path d="M1668.1 82L1613.1 0L1587.2 0Z" fill="#00a0a9" stroke="#00a0a9"></path><path d="M452.8 0L310.8 0L458.8 106Z" fill="#00ff3e" stroke="#00ff3e"></path><path d="M297.9 147L154.9 74L192.9 271Z" fill="#053b52" stroke="#053b52"></path><path d="M1760.1 375L1747.1 232L1645.2 389Z" fill="#001122" stroke="#001122"></path><path d="M1801.1 607L1726.1 415L1695.1 513Z" fill="#008597" stroke="#008597"></path><path d="M1772.1 249L1747.1 232L1760.1 375Z" fill="#008597" stroke="#008597"></path><path d="M186.9 873L279.9 981L283.8 844Z" fill="#00baaa" stroke="#00baaa"></path><path d="M1857.1 743L1795.1 616L1710.1 672Z" fill="#00ff3e" stroke="#00ff3e"></path><path d="M1710.1 672L1795.1 616L1695.1 513Z" fill="#00d399" stroke="#00d399"></path><path d="M1920 638L1801.1 607L1795.1 616Z" fill="#00ff3e" stroke="#00ff3e"></path><path d="M1795.1 616L1801.1 607L1695.1 513Z" fill="#008597" stroke="#008597"></path><path d="M1738.1 868L1562.2 886L1621.1 978Z" fill="#00ea78" stroke="#00ea78"></path><path d="M1738.1 868L1765.1 786L1562.2 886Z" fill="#02536b" stroke="#02536b"></path><path d="M1782.1 370L1772.1 249L1760.1 375Z" fill="#02536b" stroke="#02536b"></path><path d="M1747.1 232L1800.1 163L1668.1 82Z" fill="#001122" stroke="#001122"></path><path d="M1745.1 1022L1738.1 868L1621.1 978Z" fill="#008597" stroke="#008597"></path><path d="M84.9 904L186.9 873L197.9 806Z" fill="#00d399" stroke="#00d399"></path><path d="M197.9 806L186.9 873L283.8 844Z" fill="#00ea78" stroke="#00ea78"></path><path d="M1920 1016L1783.1 828L1738.1 868Z" fill="#00baaa" stroke="#00baaa"></path><path d="M1738.1 868L1783.1 828L1765.1 786Z" fill="#053b52" stroke="#053b52"></path><path d="M1765.1 786L1857.1 743L1710.1 672Z" fill="#00d399" stroke="#00d399"></path><path d="M61.9 294L79.9 362L192.9 271Z" fill="#00d399" stroke="#00d399"></path><path d="M192.9 271L79.9 362L202.9 275Z" fill="#00ea78" stroke="#00ea78"></path><path d="M164.9 685L44.9 734L197.9 806Z" fill="#001122" stroke="#001122"></path><path d="M1464.2 1080L1658.2 1080L1589.2 1022Z" fill="#02536b" stroke="#02536b"></path><path d="M1589.2 1022L1658.2 1080L1621.1 978Z" fill="#00ea78" stroke="#00ea78"></path><path d="M1920 344L1772.1 249L1782.1 370Z" fill="#00ff3e" stroke="#00ff3e"></path><path d="M1920 144L1800.1 163L1772.1 249Z" fill="#00ea78" stroke="#00ea78"></path><path d="M1772.1 249L1800.1 163L1747.1 232Z" fill="#008597" stroke="#008597"></path><path d="M1668.1 82L1818.1 0L1613.1 0Z" fill="#008597" stroke="#008597"></path><path d="M160.9 1080L259.9 1080L279.9 981Z" fill="#02536b" stroke="#02536b"></path><path d="M279.9 981L259.9 1080L419.8 1080Z" fill="#05263a" stroke="#05263a"></path><path d="M195.9 0L154.9 74L297.9 147Z" fill="#001122" stroke="#001122"></path><path d="M310.8 0L195.9 0L297.9 147Z" fill="#05263a" stroke="#05263a"></path><path d="M1920 837L1857.1 743L1783.1 828Z" fill="#053b52" stroke="#053b52"></path><path d="M1783.1 828L1857.1 743L1765.1 786Z" fill="#00ff3e" stroke="#00ff3e"></path><path d="M1801.1 607L1920 493L1726.1 415Z" fill="#00a0a9" stroke="#00a0a9"></path><path d="M0 183L61.9 294L192.9 271Z" fill="#008597" stroke="#008597"></path><path d="M0 568L164.9 685L190.9 466Z" fill="#00ea78" stroke="#00ea78"></path><path d="M195.9 0L186.9 0L154.9 74Z" fill="#05263a" stroke="#05263a"></path><path d="M1658.2 1080L1745.1 1022L1621.1 978Z" fill="#02536b" stroke="#02536b"></path><path d="M1699.1 1080L1745.1 1022L1658.2 1080Z" fill="#053b52" stroke="#053b52"></path><path d="M0 568L190.9 466L79.9 362Z" fill="#00ea78" stroke="#00ea78"></path><path d="M186.9 873L160.9 1080L279.9 981Z" fill="#00a0a9" stroke="#00a0a9"></path><path d="M1920 581L1920 493L1801.1 607Z" fill="#008597" stroke="#008597"></path><path d="M1920 638L1920 581L1801.1 607Z" fill="#008597" stroke="#008597"></path><path d="M44.9 734L84.9 904L197.9 806Z" fill="#001122" stroke="#001122"></path><path d="M1920 679L1920 638L1795.1 616Z" fill="#006b82" stroke="#006b82"></path><path d="M1920 679L1795.1 616L1857.1 743Z" fill="#00d399" stroke="#00d399"></path><path d="M0 387L0 568L79.9 362Z" fill="#05263a" stroke="#05263a"></path><path d="M44.9 734L0 761L84.9 904Z" fill="#053b52" stroke="#053b52"></path><path d="M1920 493L1920 344L1782.1 370Z" fill="#00ff3e" stroke="#00ff3e"></path><path d="M0 568L0 620L164.9 685Z" fill="#053b52" stroke="#053b52"></path><path d="M0 363L79.9 362L61.9 294Z" fill="#05263a" stroke="#05263a"></path><path d="M0 363L0 387L79.9 362Z" fill="#008597" stroke="#008597"></path><path d="M0 363L61.9 294L0 281Z" fill="#00ff3e" stroke="#00ff3e"></path><path d="M1920 837L1920 679L1857.1 743Z" fill="#00ff3e" stroke="#00ff3e"></path><path d="M0 281L61.9 294L0 183Z" fill="#00ff3e" stroke="#00ff3e"></path><path d="M84.9 904L160.9 1080L186.9 873Z" fill="#05263a" stroke="#05263a"></path><path d="M0 183L192.9 271L154.9 74Z" fill="#00baaa" stroke="#00baaa"></path><path d="M1920 82L1818.1 0L1800.1 163Z" fill="#00ea78" stroke="#00ea78"></path><path d="M1800.1 163L1818.1 0L1668.1 82Z" fill="#00ea78" stroke="#00ea78"></path><path d="M0 620L0 761L44.9 734Z" fill="#053b52" stroke="#053b52"></path><path d="M84.9 904L0 1080L160.9 1080Z" fill="#008597" stroke="#008597"></path><path d="M1920 1016L1738.1 868L1745.1 1022Z" fill="#00ea78" stroke="#00ea78"></path><path d="M1920 1016L1920 837L1783.1 828Z" fill="#00a0a9" stroke="#00a0a9"></path><path d="M0 0L0 183L154.9 74Z" fill="#053b52" stroke="#053b52"></path><path d="M1920 344L1920 144L1772.1 249Z" fill="#02536b" stroke="#02536b"></path><path d="M1699.1 1080L1833.1 1080L1745.1 1022Z" fill="#00d399" stroke="#00d399"></path><path d="M0 761L0 903L84.9 904Z" fill="#053b52" stroke="#053b52"></path><path d="M1920 144L1920 82L1800.1 163Z" fill="#006b82" stroke="#006b82"></path><path d="M0 903L0 934L84.9 904Z" fill="#00ea78" stroke="#00ea78"></path><path d="M1920 82L1920 0L1818.1 0Z" fill="#006b82" stroke="#006b82"></path><path d="M1833.1 1080L1920 1016L1745.1 1022Z" fill="#02536b" stroke="#02536b"></path><path d="M186.9 0L0 0L154.9 74Z" fill="#008597" stroke="#008597"></path><path d="M1833.1 1080L1920 1080L1920 1016Z" fill="#008597" stroke="#008597"></path><path d="M0 934L0 1080L84.9 904Z" fill="#006b82" stroke="#006b82"></path></g></svg>