<svg id="visual" viewBox="0 0 960 540" width="960" height="540" xmlns="http://www.w3.org/2000/svg" xmlns:xlink="http://www.w3.org/1999/xlink" version="1.1"><g stroke-width="1" stroke-linejoin="bevel"><path d="M451 267.6L517 279.6L457 208.4Z" fill="#3150ab" stroke="#3150ab"></path><path d="M517 279.6L483 184.3L457 208.4Z" fill="#4154b9" stroke="#4154b9"></path><path d="M517 279.6L566 191.3L483 184.3Z" fill="#8a60ea" stroke="#8a60ea"></path><path d="M483 184.3L433 163.3L457 208.4Z" fill="#004181" stroke="#004181"></path><path d="M457 208.4L366 259.4L451 267.6Z" fill="#b362ff" stroke="#b362ff"></path><path d="M508 56.1L433 163.3L483 184.3Z" fill="#b362ff" stroke="#b362ff"></path><path d="M451 267.6L474 347.7L517 279.6Z" fill="#645bd3" stroke="#645bd3"></path><path d="M517 279.6L600 213.4L566 191.3Z" fill="#9e61f5" stroke="#9e61f5"></path><path d="M658 320.6L600 213.4L517 279.6Z" fill="#8a60ea" stroke="#8a60ea"></path><path d="M366 259.4L422 345.6L451 267.6Z" fill="#10468f" stroke="#10468f"></path><path d="M451 267.6L422 345.6L474 347.7Z" fill="#4154b9" stroke="#4154b9"></path><path d="M433 163.3L366 259.4L457 208.4Z" fill="#645bd3" stroke="#645bd3"></path><path d="M315 159.3L333 255.4L366 259.4Z" fill="#645bd3" stroke="#645bd3"></path><path d="M366 259.4L358 387.7L422 345.6Z" fill="#004181" stroke="#004181"></path><path d="M644 127.3L595 95.1L566 191.3Z" fill="#775edf" stroke="#775edf"></path><path d="M566 191.3L595 95.1L483 184.3Z" fill="#004181" stroke="#004181"></path><path d="M599 416.7L598 389.7L575 447.9Z" fill="#775edf" stroke="#775edf"></path><path d="M474 347.7L598 389.7L517 279.6Z" fill="#214b9d" stroke="#214b9d"></path><path d="M598 389.7L658 320.6L517 279.6Z" fill="#645bd3" stroke="#645bd3"></path><path d="M600 213.4L644 127.3L566 191.3Z" fill="#5258c6" stroke="#5258c6"></path><path d="M595 95.1L508 56.1L483 184.3Z" fill="#214b9d" stroke="#214b9d"></path><path d="M433 163.3L315 159.3L366 259.4Z" fill="#b362ff" stroke="#b362ff"></path><path d="M658 320.6L673 204.4L600 213.4Z" fill="#8a60ea" stroke="#8a60ea"></path><path d="M673 204.4L644 127.3L600 213.4Z" fill="#645bd3" stroke="#645bd3"></path><path d="M374 78.1L353 106.1L433 163.3Z" fill="#10468f" stroke="#10468f"></path><path d="M353 106.1L315 159.3L433 163.3Z" fill="#775edf" stroke="#775edf"></path><path d="M282 337.6L358 387.7L366 259.4Z" fill="#214b9d" stroke="#214b9d"></path><path d="M422 345.6L513 481.9L474 347.7Z" fill="#775edf" stroke="#775edf"></path><path d="M508 56.1L374 78.1L433 163.3Z" fill="#9e61f5" stroke="#9e61f5"></path><path d="M575 447.9L598 389.7L474 347.7Z" fill="#9e61f5" stroke="#9e61f5"></path><path d="M598 389.7L706 370.7L658 320.6Z" fill="#4154b9" stroke="#4154b9"></path><path d="M315 159.3L272 273.6L333 255.4Z" fill="#8a60ea" stroke="#8a60ea"></path><path d="M333 255.4L282 337.6L366 259.4Z" fill="#10468f" stroke="#10468f"></path><path d="M513 481.9L575 447.9L474 347.7Z" fill="#9e61f5" stroke="#9e61f5"></path><path d="M272 273.6L282 337.6L333 255.4Z" fill="#8a60ea" stroke="#8a60ea"></path><path d="M731 128.3L659 78.1L644 127.3Z" fill="#8a60ea" stroke="#8a60ea"></path><path d="M644 127.3L659 78.1L595 95.1Z" fill="#4154b9" stroke="#4154b9"></path><path d="M595 95.1L564 0L508 56.1Z" fill="#5258c6" stroke="#5258c6"></path><path d="M363 480.9L513 481.9L422 345.6Z" fill="#5258c6" stroke="#5258c6"></path><path d="M564 0L456 0L508 56.1Z" fill="#10468f" stroke="#10468f"></path><path d="M508 56.1L456 0L374 78.1Z" fill="#5258c6" stroke="#5258c6"></path><path d="M602 540L608 461.9L575 447.9Z" fill="#645bd3" stroke="#645bd3"></path><path d="M575 447.9L608 461.9L599 416.7Z" fill="#4154b9" stroke="#4154b9"></path><path d="M599 416.7L706 370.7L598 389.7Z" fill="#3150ab" stroke="#3150ab"></path><path d="M315 159.3L241 267.4L272 273.6Z" fill="#3150ab" stroke="#3150ab"></path><path d="M272 273.6L241 267.4L282 337.6Z" fill="#b362ff" stroke="#b362ff"></path><path d="M717 452.9L706 370.7L599 416.7Z" fill="#9e61f5" stroke="#9e61f5"></path><path d="M658 320.6L758 254.4L673 204.4Z" fill="#8a60ea" stroke="#8a60ea"></path><path d="M673 204.4L731 128.3L644 127.3Z" fill="#214b9d" stroke="#214b9d"></path><path d="M610 0L564 0L595 95.1Z" fill="#10468f" stroke="#10468f"></path><path d="M282 337.6L288 395.7L358 387.7Z" fill="#5258c6" stroke="#5258c6"></path><path d="M358 387.7L363 480.9L422 345.6Z" fill="#5258c6" stroke="#5258c6"></path><path d="M200 388.7L288 395.7L282 337.6Z" fill="#214b9d" stroke="#214b9d"></path><path d="M706 370.7L723 342.6L658 320.6Z" fill="#8a60ea" stroke="#8a60ea"></path><path d="M456 0L383 0L374 78.1Z" fill="#10468f" stroke="#10468f"></path><path d="M374 78.1L355 0L353 106.1Z" fill="#b362ff" stroke="#b362ff"></path><path d="M353 106.1L236 122.3L315 159.3Z" fill="#9e61f5" stroke="#9e61f5"></path><path d="M315 159.3L236 122.3L241 267.4Z" fill="#645bd3" stroke="#645bd3"></path><path d="M758 254.4L731 128.3L673 204.4Z" fill="#8a60ea" stroke="#8a60ea"></path><path d="M659 78.1L610 0L595 95.1Z" fill="#775edf" stroke="#775edf"></path><path d="M723 342.6L758 254.4L658 320.6Z" fill="#8a60ea" stroke="#8a60ea"></path><path d="M758 0L610 0L659 78.1Z" fill="#9e61f5" stroke="#9e61f5"></path><path d="M331 485.9L363 480.9L358 387.7Z" fill="#004181" stroke="#004181"></path><path d="M723 342.6L765 265.4L758 254.4Z" fill="#10468f" stroke="#10468f"></path><path d="M811 156.3L762 107.1L731 128.3Z" fill="#004181" stroke="#004181"></path><path d="M383 0L355 0L374 78.1Z" fill="#004181" stroke="#004181"></path><path d="M256 0L236 122.3L353 106.1Z" fill="#5258c6" stroke="#5258c6"></path><path d="M179 176.3L202 270.4L241 267.4Z" fill="#3150ab" stroke="#3150ab"></path><path d="M241 267.4L202 270.4L282 337.6Z" fill="#214b9d" stroke="#214b9d"></path><path d="M236 474.9L331 485.9L288 395.7Z" fill="#645bd3" stroke="#645bd3"></path><path d="M288 395.7L331 485.9L358 387.7Z" fill="#9e61f5" stroke="#9e61f5"></path><path d="M434 540L446 540L513 481.9Z" fill="#775edf" stroke="#775edf"></path><path d="M434 540L513 481.9L363 480.9Z" fill="#5258c6" stroke="#5258c6"></path><path d="M513 481.9L602 540L575 447.9Z" fill="#3150ab" stroke="#3150ab"></path><path d="M348 540L434 540L363 480.9Z" fill="#8a60ea" stroke="#8a60ea"></path><path d="M811 156.3L731 128.3L758 254.4Z" fill="#3150ab" stroke="#3150ab"></path><path d="M731 128.3L762 107.1L659 78.1Z" fill="#10468f" stroke="#10468f"></path><path d="M706 370.7L800 367.7L723 342.6Z" fill="#645bd3" stroke="#645bd3"></path><path d="M723 342.6L800 367.7L765 265.4Z" fill="#775edf" stroke="#775edf"></path><path d="M608 461.9L717 452.9L599 416.7Z" fill="#4154b9" stroke="#4154b9"></path><path d="M676 540L717 452.9L608 461.9Z" fill="#775edf" stroke="#775edf"></path><path d="M256 0L204 108.1L236 122.3Z" fill="#8a60ea" stroke="#8a60ea"></path><path d="M236 122.3L179 176.3L241 267.4Z" fill="#004181" stroke="#004181"></path><path d="M204 108.1L179 176.3L236 122.3Z" fill="#775edf" stroke="#775edf"></path><path d="M446 540L602 540L513 481.9Z" fill="#775edf" stroke="#775edf"></path><path d="M153 288.6L200 388.7L202 270.4Z" fill="#8a60ea" stroke="#8a60ea"></path><path d="M202 270.4L200 388.7L282 337.6Z" fill="#214b9d" stroke="#214b9d"></path><path d="M236 540L348 540L331 485.9Z" fill="#8a60ea" stroke="#8a60ea"></path><path d="M331 485.9L348 540L363 480.9Z" fill="#004181" stroke="#004181"></path><path d="M765 265.4L811 156.3L758 254.4Z" fill="#4154b9" stroke="#4154b9"></path><path d="M865 308.6L811 156.3L765 265.4Z" fill="#9e61f5" stroke="#9e61f5"></path><path d="M811 156.3L786 86.1L762 107.1Z" fill="#3150ab" stroke="#3150ab"></path><path d="M762 107.1L758 0L659 78.1Z" fill="#9e61f5" stroke="#9e61f5"></path><path d="M717 452.9L800 367.7L706 370.7Z" fill="#4154b9" stroke="#4154b9"></path><path d="M355 0L256 0L353 106.1Z" fill="#645bd3" stroke="#645bd3"></path><path d="M106 251.4L153 288.6L202 270.4Z" fill="#4154b9" stroke="#4154b9"></path><path d="M100 414.7L190 410.7L200 388.7Z" fill="#004181" stroke="#004181"></path><path d="M200 388.7L190 410.7L288 395.7Z" fill="#004181" stroke="#004181"></path><path d="M190 410.7L236 474.9L288 395.7Z" fill="#b362ff" stroke="#b362ff"></path><path d="M602 540L676 540L608 461.9Z" fill="#8a60ea" stroke="#8a60ea"></path><path d="M717 452.9L776 482.9L800 367.7Z" fill="#775edf" stroke="#775edf"></path><path d="M676 540L688 540L717 452.9Z" fill="#214b9d" stroke="#214b9d"></path><path d="M865 308.6L841 322.6L888 397.7Z" fill="#10468f" stroke="#10468f"></path><path d="M800 367.7L841 322.6L765 265.4Z" fill="#5258c6" stroke="#5258c6"></path><path d="M827 0L758 0L786 86.1Z" fill="#8a60ea" stroke="#8a60ea"></path><path d="M786 86.1L758 0L762 107.1Z" fill="#3150ab" stroke="#3150ab"></path><path d="M256 0L180 51.1L204 108.1Z" fill="#214b9d" stroke="#214b9d"></path><path d="M204 108.1L108 132.3L179 176.3Z" fill="#3150ab" stroke="#3150ab"></path><path d="M179 176.3L106 251.4L202 270.4Z" fill="#b362ff" stroke="#b362ff"></path><path d="M688 540L776 482.9L717 452.9Z" fill="#775edf" stroke="#775edf"></path><path d="M888 397.7L841 322.6L800 367.7Z" fill="#775edf" stroke="#775edf"></path><path d="M841 322.6L865 308.6L765 265.4Z" fill="#4154b9" stroke="#4154b9"></path><path d="M873 51.1L827 0L786 86.1Z" fill="#b362ff" stroke="#b362ff"></path><path d="M100 414.7L156 455.9L190 410.7Z" fill="#004181" stroke="#004181"></path><path d="M108 132.3L106 251.4L179 176.3Z" fill="#3150ab" stroke="#3150ab"></path><path d="M151 540L236 540L236 474.9Z" fill="#8a60ea" stroke="#8a60ea"></path><path d="M236 474.9L236 540L331 485.9Z" fill="#9e61f5" stroke="#9e61f5"></path><path d="M156 455.9L236 474.9L190 410.7Z" fill="#645bd3" stroke="#645bd3"></path><path d="M100 414.7L200 388.7L153 288.6Z" fill="#b362ff" stroke="#b362ff"></path><path d="M119 55.1L108 132.3L204 108.1Z" fill="#214b9d" stroke="#214b9d"></path><path d="M873 51.1L786 86.1L811 156.3Z" fill="#5258c6" stroke="#5258c6"></path><path d="M180 51.1L119 55.1L204 108.1Z" fill="#9e61f5" stroke="#9e61f5"></path><path d="M146 0L119 55.1L180 51.1Z" fill="#775edf" stroke="#775edf"></path><path d="M786 540L857 438.9L776 482.9Z" fill="#9e61f5" stroke="#9e61f5"></path><path d="M776 482.9L857 438.9L800 367.7Z" fill="#645bd3" stroke="#645bd3"></path><path d="M256 0L146 0L180 51.1Z" fill="#645bd3" stroke="#645bd3"></path><path d="M688 540L786 540L776 482.9Z" fill="#645bd3" stroke="#645bd3"></path><path d="M960 205.4L912 194.4L960 309.6Z" fill="#10468f" stroke="#10468f"></path><path d="M865 308.6L912 194.4L811 156.3Z" fill="#3150ab" stroke="#3150ab"></path><path d="M44 320.6L153 288.6L106 251.4Z" fill="#3150ab" stroke="#3150ab"></path><path d="M44 320.6L100 414.7L153 288.6Z" fill="#5258c6" stroke="#5258c6"></path><path d="M156 455.9L151 540L236 474.9Z" fill="#775edf" stroke="#775edf"></path><path d="M865 308.6L888 397.7L960 367.7Z" fill="#10468f" stroke="#10468f"></path><path d="M857 438.9L888 397.7L800 367.7Z" fill="#004181" stroke="#004181"></path><path d="M906 128.3L873 51.1L811 156.3Z" fill="#9e61f5" stroke="#9e61f5"></path><path d="M912 194.4L906 128.3L811 156.3Z" fill="#5258c6" stroke="#5258c6"></path><path d="M146 0L112 0L119 55.1Z" fill="#8a60ea" stroke="#8a60ea"></path><path d="M0 116.3L0 202.4L108 132.3Z" fill="#4154b9" stroke="#4154b9"></path><path d="M92 540L151 540L156 455.9Z" fill="#775edf" stroke="#775edf"></path><path d="M0 202.4L44 320.6L106 251.4Z" fill="#214b9d" stroke="#214b9d"></path><path d="M100 414.7L63 486.9L156 455.9Z" fill="#3150ab" stroke="#3150ab"></path><path d="M0 202.4L106 251.4L108 132.3Z" fill="#3150ab" stroke="#3150ab"></path><path d="M960 73.1L893 0L873 51.1Z" fill="#214b9d" stroke="#214b9d"></path><path d="M873 51.1L893 0L827 0Z" fill="#3150ab" stroke="#3150ab"></path><path d="M960 309.6L912 194.4L865 308.6Z" fill="#10468f" stroke="#10468f"></path><path d="M912 194.4L960 146.3L906 128.3Z" fill="#8a60ea" stroke="#8a60ea"></path><path d="M906 128.3L960 73.1L873 51.1Z" fill="#9e61f5" stroke="#9e61f5"></path><path d="M960 367.7L960 309.6L865 308.6Z" fill="#5258c6" stroke="#5258c6"></path><path d="M960 367.7L888 397.7L960 484.9Z" fill="#004181" stroke="#004181"></path><path d="M960 205.4L960 146.3L912 194.4Z" fill="#5258c6" stroke="#5258c6"></path><path d="M960 484.9L888 397.7L857 438.9Z" fill="#8a60ea" stroke="#8a60ea"></path><path d="M0 116.3L108 132.3L0 72.1Z" fill="#214b9d" stroke="#214b9d"></path><path d="M0 399.7L63 486.9L100 414.7Z" fill="#4154b9" stroke="#4154b9"></path><path d="M0 399.7L100 414.7L44 320.6Z" fill="#004181" stroke="#004181"></path><path d="M63 486.9L92 540L156 455.9Z" fill="#b362ff" stroke="#b362ff"></path><path d="M0 202.4L0 329.6L44 320.6Z" fill="#775edf" stroke="#775edf"></path><path d="M960 146.3L960 73.1L906 128.3Z" fill="#9e61f5" stroke="#9e61f5"></path><path d="M786 540L896 540L857 438.9Z" fill="#5258c6" stroke="#5258c6"></path><path d="M0 72.1L108 132.3L119 55.1Z" fill="#8a60ea" stroke="#8a60ea"></path><path d="M0 329.6L0 399.7L44 320.6Z" fill="#4154b9" stroke="#4154b9"></path><path d="M63 486.9L0 540L92 540Z" fill="#004181" stroke="#004181"></path><path d="M0 0L0 72.1L119 55.1Z" fill="#4154b9" stroke="#4154b9"></path><path d="M960 73.1L960 0L893 0Z" fill="#775edf" stroke="#775edf"></path><path d="M896 540L960 484.9L857 438.9Z" fill="#10468f" stroke="#10468f"></path><path d="M112 0L0 0L119 55.1Z" fill="#b362ff" stroke="#b362ff"></path><path d="M0 399.7L0 500.9L63 486.9Z" fill="#4154b9" stroke="#4154b9"></path><path d="M896 540L960 540L960 484.9Z" fill="#5258c6" stroke="#5258c6"></path><path d="M0 500.9L0 540L63 486.9Z" fill="#8a60ea" stroke="#8a60ea"></path></g></svg>