<svg id="visual" viewBox="0 0 1920 1080" width="1920" height="1080" xmlns="http://www.w3.org/2000/svg" xmlns:xlink="http://www.w3.org/1999/xlink" version="1.1"><g stroke-width="1" stroke-linejoin="bevel"><path d="M922.5 580L851.5 737L960.5 659Z" fill="#001122" stroke="#001122"></path><path d="M702.6 599L745.6 724L851.5 737Z" fill="#00ea78" stroke="#00ea78"></path><path d="M887.6 482L882.5 486L922.5 580Z" fill="#00ff3e" stroke="#00ff3e"></path><path d="M922.5 580L702.6 599L851.5 737Z" fill="#006b82" stroke="#006b82"></path><path d="M882.5 486L793.6 506L922.5 580Z" fill="#02536b" stroke="#02536b"></path><path d="M987.5 483L887.6 482L922.5 580Z" fill="#00ff3e" stroke="#00ff3e"></path><path d="M882.5 486L887.6 482L793.6 506Z" fill="#00d399" stroke="#00d399"></path><path d="M816.6 895L987.5 788L851.5 737Z" fill="#05263a" stroke="#05263a"></path><path d="M851.5 737L987.5 788L960.5 659Z" fill="#001122" stroke="#001122"></path><path d="M793.6 506L702.6 599L922.5 580Z" fill="#00d399" stroke="#00d399"></path><path d="M987.5 788L994.5 787L960.5 659Z" fill="#00ff3e" stroke="#00ff3e"></path><path d="M1134.4 538L987.5 483L960.5 659Z" fill="#00d399" stroke="#00d399"></path><path d="M960.5 659L987.5 483L922.5 580Z" fill="#001122" stroke="#001122"></path><path d="M702.6 599L665.6 687L745.6 724Z" fill="#02536b" stroke="#02536b"></path><path d="M716.6 991L816.6 895L608.6 952Z" fill="#00baaa" stroke="#00baaa"></path><path d="M745.6 724L816.6 895L851.5 737Z" fill="#008597" stroke="#008597"></path><path d="M987.5 788L975.5 891L994.5 787Z" fill="#00ff3e" stroke="#00ff3e"></path><path d="M1104.5 853L1123.4 713L994.5 787Z" fill="#05263a" stroke="#05263a"></path><path d="M994.5 787L1123.4 713L960.5 659Z" fill="#02536b" stroke="#02536b"></path><path d="M816.6 895L975.5 891L987.5 788Z" fill="#00baaa" stroke="#00baaa"></path><path d="M702.6 599L608.7 671L665.6 687Z" fill="#00d399" stroke="#00d399"></path><path d="M608.6 952L816.6 895L745.6 724Z" fill="#00ea78" stroke="#00ea78"></path><path d="M583.7 581L608.7 671L702.6 599Z" fill="#053b52" stroke="#053b52"></path><path d="M987.5 483L936.5 393L887.6 482Z" fill="#00d399" stroke="#00d399"></path><path d="M887.6 482L697.6 353L793.6 506Z" fill="#00baaa" stroke="#00baaa"></path><path d="M940.5 376L936.5 393L1050.5 371Z" fill="#02536b" stroke="#02536b"></path><path d="M697.6 353L637.6 516L793.6 506Z" fill="#02536b" stroke="#02536b"></path><path d="M793.6 506L637.6 516L702.6 599Z" fill="#00ff3e" stroke="#00ff3e"></path><path d="M816.6 895L919.5 931L975.5 891Z" fill="#00a0a9" stroke="#00a0a9"></path><path d="M1055.4 384L936.5 393L987.5 483Z" fill="#02536b" stroke="#02536b"></path><path d="M936.5 393L697.6 353L887.6 482Z" fill="#02536b" stroke="#02536b"></path><path d="M1123.4 713L1134.4 538L960.5 659Z" fill="#001122" stroke="#001122"></path><path d="M583.7 581L589.6 682L608.7 671Z" fill="#00a0a9" stroke="#00a0a9"></path><path d="M608.7 671L589.6 682L665.6 687Z" fill="#00a0a9" stroke="#00a0a9"></path><path d="M637.6 516L608.6 534L702.6 599Z" fill="#053b52" stroke="#053b52"></path><path d="M716.6 991L832.6 947L816.6 895Z" fill="#00a0a9" stroke="#00a0a9"></path><path d="M816.6 895L832.6 947L919.5 931Z" fill="#00ff3e" stroke="#00ff3e"></path><path d="M608.6 534L583.7 581L702.6 599Z" fill="#00ff3e" stroke="#00ff3e"></path><path d="M1044.4 919L1104.5 853L975.5 891Z" fill="#006b82" stroke="#006b82"></path><path d="M975.5 891L1104.5 853L994.5 787Z" fill="#001122" stroke="#001122"></path><path d="M919.5 931L1040.5 920L975.5 891Z" fill="#00ea78" stroke="#00ea78"></path><path d="M1044.4 919L1040.5 920L1027.5 1080Z" fill="#00a0a9" stroke="#00a0a9"></path><path d="M1040.5 920L1044.4 919L975.5 891Z" fill="#001122" stroke="#001122"></path><path d="M1134.4 538L1055.4 384L987.5 483Z" fill="#001122" stroke="#001122"></path><path d="M1065.4 287L1050.5 371L1055.4 384Z" fill="#00d399" stroke="#00d399"></path><path d="M1055.4 384L1050.5 371L936.5 393Z" fill="#00a0a9" stroke="#00a0a9"></path><path d="M534.8 447L551.7 529L608.6 534Z" fill="#00ea78" stroke="#00ea78"></path><path d="M608.6 534L551.7 529L583.7 581Z" fill="#006b82" stroke="#006b82"></path><path d="M583.7 581L460.8 712L589.6 682Z" fill="#008597" stroke="#008597"></path><path d="M534.8 447L608.6 534L637.6 516Z" fill="#00a0a9" stroke="#00a0a9"></path><path d="M1123.4 713L1211.4 585L1134.4 538Z" fill="#001122" stroke="#001122"></path><path d="M1289.4 404L1065.4 287L1055.4 384Z" fill="#001122" stroke="#001122"></path><path d="M1239.4 781L1211.4 585L1123.4 713Z" fill="#00ff3e" stroke="#00ff3e"></path><path d="M812.6 227L697.6 353L940.5 376Z" fill="#008597" stroke="#008597"></path><path d="M940.5 376L697.6 353L936.5 393Z" fill="#00d399" stroke="#00d399"></path><path d="M1119.4 929L1199.4 823L1104.5 853Z" fill="#008597" stroke="#008597"></path><path d="M1104.5 853L1199.4 823L1123.4 713Z" fill="#00ea78" stroke="#00ea78"></path><path d="M1027.5 1080L1119.4 929L1044.4 919Z" fill="#00ff3e" stroke="#00ff3e"></path><path d="M1044.4 919L1119.4 929L1104.5 853Z" fill="#00a0a9" stroke="#00a0a9"></path><path d="M987.5 1080L1040.5 920L919.5 931Z" fill="#00ea78" stroke="#00ea78"></path><path d="M551.7 857L745.6 724L665.6 687Z" fill="#053b52" stroke="#053b52"></path><path d="M832.6 947L872.6 1080L919.5 931Z" fill="#00baaa" stroke="#00baaa"></path><path d="M1119.4 929L1208.4 822L1199.4 823Z" fill="#001122" stroke="#001122"></path><path d="M1199.4 823L1239.4 781L1123.4 713Z" fill="#05263a" stroke="#05263a"></path><path d="M499.8 814L551.7 857L589.6 682Z" fill="#00ff3e" stroke="#00ff3e"></path><path d="M589.6 682L551.7 857L665.6 687Z" fill="#00ea78" stroke="#00ea78"></path><path d="M1050.5 371L952.5 279L940.5 376Z" fill="#00ff3e" stroke="#00ff3e"></path><path d="M1208.4 822L1239.4 781L1199.4 823Z" fill="#00baaa" stroke="#00baaa"></path><path d="M812.6 227L671.6 315L697.6 353Z" fill="#00d399" stroke="#00d399"></path><path d="M697.6 353L534.8 447L637.6 516Z" fill="#008597" stroke="#008597"></path><path d="M544.7 351L534.8 447L697.6 353Z" fill="#006b82" stroke="#006b82"></path><path d="M460.8 712L499.8 814L589.6 682Z" fill="#053b52" stroke="#053b52"></path><path d="M551.7 857L608.6 952L745.6 724Z" fill="#05263a" stroke="#05263a"></path><path d="M460.8 712L583.7 581L387.8 621Z" fill="#006b82" stroke="#006b82"></path><path d="M551.7 857L558.7 975L608.6 952Z" fill="#00a0a9" stroke="#00a0a9"></path><path d="M1289.4 404L1055.4 384L1134.4 538Z" fill="#00ea78" stroke="#00ea78"></path><path d="M1050.5 371L1065.4 287L952.5 279Z" fill="#006b82" stroke="#006b82"></path><path d="M387.8 621L583.7 581L551.7 529Z" fill="#00d399" stroke="#00d399"></path><path d="M1384.2 886L1276.3 784L1208.4 822Z" fill="#00a0a9" stroke="#00a0a9"></path><path d="M1208.4 822L1276.3 784L1239.4 781Z" fill="#00ea78" stroke="#00ea78"></path><path d="M1239.4 781L1311.4 619L1211.4 585Z" fill="#00baaa" stroke="#00baaa"></path><path d="M635.6 1080L872.6 1080L716.6 991Z" fill="#008597" stroke="#008597"></path><path d="M716.6 991L872.6 1080L832.6 947Z" fill="#00d399" stroke="#00d399"></path><path d="M790.6 195L812.6 227L854.5 165Z" fill="#00ea78" stroke="#00ea78"></path><path d="M952.5 279L812.6 227L940.5 376Z" fill="#006b82" stroke="#006b82"></path><path d="M417.8 390L479.7 469L534.8 447Z" fill="#00ff3e" stroke="#00ff3e"></path><path d="M534.8 447L479.7 469L551.7 529Z" fill="#008597" stroke="#008597"></path><path d="M1276.3 784L1311.4 619L1239.4 781Z" fill="#008597" stroke="#008597"></path><path d="M1297.4 413L1289.4 404L1134.4 538Z" fill="#008597" stroke="#008597"></path><path d="M872.6 1080L987.5 1080L919.5 931Z" fill="#00baaa" stroke="#00baaa"></path><path d="M1119.4 929L1286.3 1080L1208.4 822Z" fill="#02536b" stroke="#02536b"></path><path d="M671.6 315L544.7 351L697.6 353Z" fill="#00ff3e" stroke="#00ff3e"></path><path d="M579.7 240L544.7 351L671.6 315Z" fill="#00baaa" stroke="#00baaa"></path><path d="M537.8 989L558.7 975L482.8 942Z" fill="#053b52" stroke="#053b52"></path><path d="M608.6 952L635.6 1080L716.6 991Z" fill="#02536b" stroke="#02536b"></path><path d="M558.7 975L551.7 857L482.8 942Z" fill="#001122" stroke="#001122"></path><path d="M1272.4 185L1063.4 243L1065.4 287Z" fill="#05263a" stroke="#05263a"></path><path d="M1065.4 287L1063.4 243L952.5 279Z" fill="#008597" stroke="#008597"></path><path d="M987.5 1080L1027.5 1080L1040.5 920Z" fill="#053b52" stroke="#053b52"></path><path d="M854.5 165L812.6 227L952.5 279Z" fill="#00a0a9" stroke="#00a0a9"></path><path d="M812.6 227L790.6 195L671.6 315Z" fill="#008597" stroke="#008597"></path><path d="M482.8 942L551.7 857L499.8 814Z" fill="#00ff3e" stroke="#00ff3e"></path><path d="M558.7 975L635.6 1080L608.6 952Z" fill="#05263a" stroke="#05263a"></path><path d="M1063.4 243L946.5 178L952.5 279Z" fill="#001122" stroke="#001122"></path><path d="M1297.4 413L1134.4 538L1211.4 585Z" fill="#00d399" stroke="#00d399"></path><path d="M282.9 947L482.8 942L499.8 814Z" fill="#006b82" stroke="#006b82"></path><path d="M334.8 606L387.8 621L479.7 469Z" fill="#006b82" stroke="#006b82"></path><path d="M479.7 469L387.8 621L551.7 529Z" fill="#02536b" stroke="#02536b"></path><path d="M460.8 712L367.8 704L499.8 814Z" fill="#00d399" stroke="#00d399"></path><path d="M1333.3 492L1297.4 413L1211.4 585Z" fill="#00baaa" stroke="#00baaa"></path><path d="M1311.4 619L1333.3 492L1211.4 585Z" fill="#05263a" stroke="#05263a"></path><path d="M946.5 178L854.5 165L952.5 279Z" fill="#006b82" stroke="#006b82"></path><path d="M631.7 197L671.6 315L790.6 195Z" fill="#00ff3e" stroke="#00ff3e"></path><path d="M631.7 197L619.6 234L671.6 315Z" fill="#00ff3e" stroke="#00ff3e"></path><path d="M520.8 1080L635.6 1080L537.8 989Z" fill="#006b82" stroke="#006b82"></path><path d="M537.8 989L635.6 1080L558.7 975Z" fill="#00baaa" stroke="#00baaa"></path><path d="M1027.5 1080L1157.4 1059L1119.4 929Z" fill="#00d399" stroke="#00d399"></path><path d="M631.7 197L579.7 240L619.6 234Z" fill="#006b82" stroke="#006b82"></path><path d="M619.6 234L579.7 240L671.6 315Z" fill="#001122" stroke="#001122"></path><path d="M544.7 351L417.8 390L534.8 447Z" fill="#001122" stroke="#001122"></path><path d="M1276.3 784L1379.3 667L1311.4 619Z" fill="#00a0a9" stroke="#00a0a9"></path><path d="M1311.4 619L1403.2 554L1333.3 492Z" fill="#00ff3e" stroke="#00ff3e"></path><path d="M1419.2 724L1379.3 667L1276.3 784Z" fill="#00a0a9" stroke="#00a0a9"></path><path d="M387.8 621L367.8 704L460.8 712Z" fill="#00baaa" stroke="#00baaa"></path><path d="M1027.5 1080L1158.4 1080L1157.4 1059Z" fill="#00a0a9" stroke="#00a0a9"></path><path d="M1157.4 1059L1218.4 1080L1119.4 929Z" fill="#00ff3e" stroke="#00ff3e"></path><path d="M614.6 43L631.7 197L790.6 195Z" fill="#053b52" stroke="#053b52"></path><path d="M529.8 245L417.8 390L544.7 351Z" fill="#02536b" stroke="#02536b"></path><path d="M387.8 621L334.8 606L367.8 704Z" fill="#05263a" stroke="#05263a"></path><path d="M521.8 175L529.8 245L579.7 240Z" fill="#008597" stroke="#008597"></path><path d="M579.7 240L529.8 245L544.7 351Z" fill="#008597" stroke="#008597"></path><path d="M1379.3 667L1403.2 554L1311.4 619Z" fill="#006b82" stroke="#006b82"></path><path d="M1333.3 492L1357.3 395L1297.4 413Z" fill="#006b82" stroke="#006b82"></path><path d="M280.9 551L334.8 606L479.7 469Z" fill="#00d399" stroke="#00d399"></path><path d="M1403.2 554L1402.3 516L1333.3 492Z" fill="#00ea78" stroke="#00ea78"></path><path d="M1297.4 413L1357.3 395L1289.4 404Z" fill="#001122" stroke="#001122"></path><path d="M1447.2 467L1357.3 395L1333.3 492Z" fill="#00d399" stroke="#00d399"></path><path d="M1289.4 404L1272.4 185L1065.4 287Z" fill="#00d399" stroke="#00d399"></path><path d="M845.6 0L814.5 58L946.5 178Z" fill="#006b82" stroke="#006b82"></path><path d="M1158.4 1080L1218.4 1080L1157.4 1059Z" fill="#001122" stroke="#001122"></path><path d="M1429.3 841L1419.2 724L1276.3 784Z" fill="#00ea78" stroke="#00ea78"></path><path d="M1379.3 667L1491.2 662L1403.2 554Z" fill="#00a0a9" stroke="#00a0a9"></path><path d="M1403.2 554L1447.2 467L1402.3 516Z" fill="#02536b" stroke="#02536b"></path><path d="M505.7 1080L520.8 1080L537.8 989Z" fill="#00a0a9" stroke="#00a0a9"></path><path d="M505.7 1080L537.8 989L482.8 942Z" fill="#00baaa" stroke="#00baaa"></path><path d="M1286.3 1080L1384.2 886L1208.4 822Z" fill="#02536b" stroke="#02536b"></path><path d="M399.8 1080L505.7 1080L482.8 942Z" fill="#05263a" stroke="#05263a"></path><path d="M1492.2 408L1373.2 346L1357.3 395Z" fill="#006b82" stroke="#006b82"></path><path d="M1357.3 395L1373.2 346L1289.4 404Z" fill="#00ea78" stroke="#00ea78"></path><path d="M1545.2 894L1429.3 841L1384.2 886Z" fill="#02536b" stroke="#02536b"></path><path d="M1384.2 886L1429.3 841L1276.3 784Z" fill="#00ff3e" stroke="#00ff3e"></path><path d="M1606.2 607L1447.2 467L1403.2 554Z" fill="#008597" stroke="#008597"></path><path d="M614.6 43L521.8 175L631.7 197Z" fill="#00ea78" stroke="#00ea78"></path><path d="M631.7 197L521.8 175L579.7 240Z" fill="#00ff3e" stroke="#00ff3e"></path><path d="M529.8 245L370.8 280L417.8 390Z" fill="#00d399" stroke="#00d399"></path><path d="M1218.4 1080L1286.3 1080L1119.4 929Z" fill="#006b82" stroke="#006b82"></path><path d="M946.5 178L814.5 58L854.5 165Z" fill="#05263a" stroke="#05263a"></path><path d="M854.5 165L814.5 58L790.6 195Z" fill="#00ff3e" stroke="#00ff3e"></path><path d="M1179.4 117L946.5 178L1063.4 243Z" fill="#00ff3e" stroke="#00ff3e"></path><path d="M417.8 390L280.9 551L479.7 469Z" fill="#00ea78" stroke="#00ea78"></path><path d="M334.8 606L270.8 691L367.8 704Z" fill="#001122" stroke="#001122"></path><path d="M367.8 704L282.9 947L499.8 814Z" fill="#00ff3e" stroke="#00ff3e"></path><path d="M195.9 395L280.9 551L417.8 390Z" fill="#00d399" stroke="#00d399"></path><path d="M1402.3 516L1447.2 467L1333.3 492Z" fill="#00ea78" stroke="#00ea78"></path><path d="M1491.2 662L1379.3 667L1419.2 724Z" fill="#05263a" stroke="#05263a"></path><path d="M280.9 551L270.8 691L334.8 606Z" fill="#00a0a9" stroke="#00a0a9"></path><path d="M1334.4 205L1272.4 185L1289.4 404Z" fill="#008597" stroke="#008597"></path><path d="M1272.4 185L1179.4 117L1063.4 243Z" fill="#008597" stroke="#008597"></path><path d="M1559.2 844L1491.2 662L1419.2 724Z" fill="#00ea78" stroke="#00ea78"></path><path d="M521.8 175L370.8 280L529.8 245Z" fill="#053b52" stroke="#053b52"></path><path d="M370.8 280L338.8 313L417.8 390Z" fill="#00a0a9" stroke="#00a0a9"></path><path d="M1342.3 137L1256.3 148L1272.4 185Z" fill="#001122" stroke="#001122"></path><path d="M1272.4 185L1256.3 148L1179.4 117Z" fill="#008597" stroke="#008597"></path><path d="M1334.4 205L1289.4 404L1373.2 346Z" fill="#00ff3e" stroke="#00ff3e"></path><path d="M155.9 685L246.8 766L270.8 691Z" fill="#00a0a9" stroke="#00a0a9"></path><path d="M270.8 691L246.8 766L367.8 704Z" fill="#00ea78" stroke="#00ea78"></path><path d="M282.9 947L399.8 1080L482.8 942Z" fill="#00a0a9" stroke="#00a0a9"></path><path d="M1502.2 218L1334.4 205L1373.2 346Z" fill="#006b82" stroke="#006b82"></path><path d="M1010.5 0L845.6 0L946.5 178Z" fill="#008597" stroke="#008597"></path><path d="M814.5 58L614.6 43L790.6 195Z" fill="#00d399" stroke="#00d399"></path><path d="M845.6 0L842.5 0L814.5 58Z" fill="#00baaa" stroke="#00baaa"></path><path d="M246.8 766L282.9 947L367.8 704Z" fill="#00ff3e" stroke="#00ff3e"></path><path d="M662.6 0L614.6 43L814.5 58Z" fill="#001122" stroke="#001122"></path><path d="M521.8 175L406.8 128L370.8 280Z" fill="#00d399" stroke="#00d399"></path><path d="M1550.2 416L1492.2 408L1447.2 467Z" fill="#008597" stroke="#008597"></path><path d="M1447.2 467L1492.2 408L1357.3 395Z" fill="#053b52" stroke="#053b52"></path><path d="M1180.4 0L1010.5 0L1179.4 117Z" fill="#00ff3e" stroke="#00ff3e"></path><path d="M1179.4 117L1010.5 0L946.5 178Z" fill="#00ff3e" stroke="#00ff3e"></path><path d="M195.9 395L206.9 513L280.9 551Z" fill="#00ea78" stroke="#00ea78"></path><path d="M280.9 551L163.9 672L270.8 691Z" fill="#00d399" stroke="#00d399"></path><path d="M842.5 0L662.6 0L814.5 58Z" fill="#008597" stroke="#008597"></path><path d="M1286.3 1080L1444.3 1040L1384.2 886Z" fill="#00a0a9" stroke="#00a0a9"></path><path d="M1429.3 841L1559.2 844L1419.2 724Z" fill="#00ff3e" stroke="#00ff3e"></path><path d="M662.6 0L629.7 0L614.6 43Z" fill="#00baaa" stroke="#00baaa"></path><path d="M443.8 0L406.8 128L521.8 175Z" fill="#00baaa" stroke="#00baaa"></path><path d="M370.8 280L189.9 222L338.8 313Z" fill="#05263a" stroke="#05263a"></path><path d="M1334.4 205L1342.3 137L1272.4 185Z" fill="#006b82" stroke="#006b82"></path><path d="M1290.4 0L1180.4 0L1179.4 117Z" fill="#02536b" stroke="#02536b"></path><path d="M1488.2 137L1342.3 137L1334.4 205Z" fill="#00a0a9" stroke="#00a0a9"></path><path d="M443.8 0L521.8 175L614.6 43Z" fill="#00d399" stroke="#00d399"></path><path d="M338.8 313L195.9 395L417.8 390Z" fill="#00d399" stroke="#00d399"></path><path d="M206.9 513L163.9 672L280.9 551Z" fill="#006b82" stroke="#006b82"></path><path d="M186.9 900L246.8 996L282.9 947Z" fill="#053b52" stroke="#053b52"></path><path d="M1545.2 894L1559.2 844L1429.3 841Z" fill="#02536b" stroke="#02536b"></path><path d="M1606.2 607L1550.2 416L1447.2 467Z" fill="#00baaa" stroke="#00baaa"></path><path d="M1444.3 1040L1545.2 894L1384.2 886Z" fill="#001122" stroke="#001122"></path><path d="M186.9 900L282.9 947L246.8 766Z" fill="#00ea78" stroke="#00ea78"></path><path d="M282.9 947L246.8 996L399.8 1080Z" fill="#00ff3e" stroke="#00ff3e"></path><path d="M1606.2 607L1403.2 554L1491.2 662Z" fill="#02536b" stroke="#02536b"></path><path d="M1492.2 408L1502.2 218L1373.2 346Z" fill="#05263a" stroke="#05263a"></path><path d="M0 682L155.9 685L163.9 672Z" fill="#053b52" stroke="#053b52"></path><path d="M163.9 672L155.9 685L270.8 691Z" fill="#001122" stroke="#001122"></path><path d="M1290.4 0L1179.4 117L1256.3 148Z" fill="#00d399" stroke="#00d399"></path><path d="M189.9 222L195.9 395L338.8 313Z" fill="#008597" stroke="#008597"></path><path d="M206.9 513L97.9 524L163.9 672Z" fill="#05263a" stroke="#05263a"></path><path d="M155.9 685L150.9 739L246.8 766Z" fill="#008597" stroke="#008597"></path><path d="M150.9 739L186.9 900L246.8 766Z" fill="#00ff3e" stroke="#00ff3e"></path><path d="M1643.2 672L1606.2 607L1491.2 662Z" fill="#02536b" stroke="#02536b"></path><path d="M1286.3 1080L1495.2 1063L1444.3 1040Z" fill="#053b52" stroke="#053b52"></path><path d="M1444.3 1040L1495.2 1063L1545.2 894Z" fill="#008597" stroke="#008597"></path><path d="M1550.2 416L1502.2 218L1492.2 408Z" fill="#006b82" stroke="#006b82"></path><path d="M1342.3 137L1290.4 0L1256.3 148Z" fill="#00d399" stroke="#00d399"></path><path d="M1629.1 380L1502.2 218L1550.2 416Z" fill="#00ea78" stroke="#00ea78"></path><path d="M1559.2 844L1643.2 672L1491.2 662Z" fill="#02536b" stroke="#02536b"></path><path d="M1606.2 607L1635.1 464L1550.2 416Z" fill="#00d399" stroke="#00d399"></path><path d="M1690.1 735L1643.2 672L1559.2 844Z" fill="#00ea78" stroke="#00ea78"></path><path d="M1610.1 947L1559.2 844L1545.2 894Z" fill="#02536b" stroke="#02536b"></path><path d="M1311.3 0L1290.4 0L1342.3 137Z" fill="#05263a" stroke="#05263a"></path><path d="M629.7 0L443.8 0L614.6 43Z" fill="#05263a" stroke="#05263a"></path><path d="M406.8 128L189.9 222L370.8 280Z" fill="#008597" stroke="#008597"></path><path d="M1721.1 614L1635.1 464L1606.2 607Z" fill="#00d399" stroke="#00d399"></path><path d="M1427.2 62L1311.3 0L1342.3 137Z" fill="#053b52" stroke="#053b52"></path><path d="M39.9 404L97.9 524L195.9 395Z" fill="#053b52" stroke="#053b52"></path><path d="M195.9 395L97.9 524L206.9 513Z" fill="#00d399" stroke="#00d399"></path><path d="M33.9 728L60.9 854L150.9 739Z" fill="#00d399" stroke="#00d399"></path><path d="M170.9 1080L246.8 996L186.9 900Z" fill="#00ea78" stroke="#00ea78"></path><path d="M1286.3 1080L1535.2 1080L1495.2 1063Z" fill="#00ea78" stroke="#00ea78"></path><path d="M1495.2 1063L1610.1 947L1545.2 894Z" fill="#02536b" stroke="#02536b"></path><path d="M1535.2 1080L1610.1 947L1495.2 1063Z" fill="#02536b" stroke="#02536b"></path><path d="M170.9 1080L194.9 1080L246.8 996Z" fill="#006b82" stroke="#006b82"></path><path d="M246.8 996L194.9 1080L399.8 1080Z" fill="#05263a" stroke="#05263a"></path><path d="M170.9 1080L186.9 900L64.9 1020Z" fill="#001122" stroke="#001122"></path><path d="M373.8 0L335.8 57L406.8 128Z" fill="#053b52" stroke="#053b52"></path><path d="M1658.2 187L1488.2 137L1502.2 218Z" fill="#02536b" stroke="#02536b"></path><path d="M1502.2 218L1488.2 137L1334.4 205Z" fill="#001122" stroke="#001122"></path><path d="M1635.1 464L1629.1 380L1550.2 416Z" fill="#02536b" stroke="#02536b"></path><path d="M335.8 57L189.9 222L406.8 128Z" fill="#00ea78" stroke="#00ea78"></path><path d="M1488.2 137L1427.2 62L1342.3 137Z" fill="#00a0a9" stroke="#00a0a9"></path><path d="M1610.1 947L1690.1 735L1559.2 844Z" fill="#006b82" stroke="#006b82"></path><path d="M1643.2 672L1721.1 614L1606.2 607Z" fill="#008597" stroke="#008597"></path><path d="M1635.1 464L1652.2 376L1629.1 380Z" fill="#05263a" stroke="#05263a"></path><path d="M443.8 0L373.8 0L406.8 128Z" fill="#00ff3e" stroke="#00ff3e"></path><path d="M158.9 146L144.9 237L189.9 222Z" fill="#02536b" stroke="#02536b"></path><path d="M60.9 854L186.9 900L150.9 739Z" fill="#00d399" stroke="#00d399"></path><path d="M1775.1 509L1652.2 376L1635.1 464Z" fill="#00ea78" stroke="#00ea78"></path><path d="M1629.1 380L1658.2 187L1502.2 218Z" fill="#00baaa" stroke="#00baaa"></path><path d="M33.9 728L150.9 739L155.9 685Z" fill="#05263a" stroke="#05263a"></path><path d="M158.9 146L189.9 222L335.8 57Z" fill="#02536b" stroke="#02536b"></path><path d="M189.9 222L144.9 237L195.9 395Z" fill="#001122" stroke="#001122"></path><path d="M0 682L33.9 728L155.9 685Z" fill="#02536b" stroke="#02536b"></path><path d="M0 682L163.9 672L97.9 524Z" fill="#00d399" stroke="#00d399"></path><path d="M1723.1 711L1721.1 614L1643.2 672Z" fill="#02536b" stroke="#02536b"></path><path d="M1782.1 913L1723.1 711L1690.1 735Z" fill="#00ff3e" stroke="#00ff3e"></path><path d="M1690.1 735L1723.1 711L1643.2 672Z" fill="#02536b" stroke="#02536b"></path><path d="M52.9 271L39.9 404L195.9 395Z" fill="#00d399" stroke="#00d399"></path><path d="M0 454L0 682L97.9 524Z" fill="#05263a" stroke="#05263a"></path><path d="M33.9 728L0 732L60.9 854Z" fill="#053b52" stroke="#053b52"></path><path d="M167.9 0L158.9 146L335.8 57Z" fill="#00a0a9" stroke="#00a0a9"></path><path d="M144.9 237L52.9 271L195.9 395Z" fill="#053b52" stroke="#053b52"></path><path d="M0 682L0 732L33.9 728Z" fill="#02536b" stroke="#02536b"></path><path d="M60.9 854L64.9 1020L186.9 900Z" fill="#00d399" stroke="#00d399"></path><path d="M1535.2 1080L1642.2 1080L1610.1 947Z" fill="#00baaa" stroke="#00baaa"></path><path d="M1610.1 947L1737.1 951L1690.1 735Z" fill="#008597" stroke="#008597"></path><path d="M1920 638L1753.1 572L1721.1 614Z" fill="#006b82" stroke="#006b82"></path><path d="M1721.1 614L1753.1 572L1635.1 464Z" fill="#001122" stroke="#001122"></path><path d="M0 926L64.9 1020L60.9 854Z" fill="#00a0a9" stroke="#00a0a9"></path><path d="M0 403L0 454L39.9 404Z" fill="#006b82" stroke="#006b82"></path><path d="M39.9 404L0 454L97.9 524Z" fill="#053b52" stroke="#053b52"></path><path d="M0 183L52.9 271L144.9 237Z" fill="#008597" stroke="#008597"></path><path d="M0 365L0 403L39.9 404Z" fill="#00baaa" stroke="#00baaa"></path><path d="M1775.1 509L1720.1 314L1652.2 376Z" fill="#053b52" stroke="#053b52"></path><path d="M1652.2 376L1658.2 187L1629.1 380Z" fill="#053b52" stroke="#053b52"></path><path d="M1488.2 137L1528.2 0L1427.2 62Z" fill="#00ea78" stroke="#00ea78"></path><path d="M1720.1 314L1658.2 187L1652.2 376Z" fill="#00ff3e" stroke="#00ff3e"></path><path d="M1753.1 572L1775.1 509L1635.1 464Z" fill="#053b52" stroke="#053b52"></path><path d="M1920 545L1775.1 509L1753.1 572Z" fill="#00ff3e" stroke="#00ff3e"></path><path d="M1920 638L1721.1 614L1723.1 711Z" fill="#05263a" stroke="#05263a"></path><path d="M1743.1 1016L1737.1 951L1610.1 947Z" fill="#05263a" stroke="#05263a"></path><path d="M0 732L0 926L60.9 854Z" fill="#00ea78" stroke="#00ea78"></path><path d="M52.9 271L0 365L39.9 404Z" fill="#053b52" stroke="#053b52"></path><path d="M1605.2 0L1528.2 0L1488.2 137Z" fill="#00baaa" stroke="#00baaa"></path><path d="M1427.2 62L1528.2 0L1311.3 0Z" fill="#02536b" stroke="#02536b"></path><path d="M0 926L0 978L64.9 1020Z" fill="#00a0a9" stroke="#00a0a9"></path><path d="M1642.2 1080L1743.1 1016L1610.1 947Z" fill="#02536b" stroke="#02536b"></path><path d="M1737.1 951L1782.1 913L1690.1 735Z" fill="#05263a" stroke="#05263a"></path><path d="M1743.1 1016L1782.1 913L1737.1 951Z" fill="#00a0a9" stroke="#00a0a9"></path><path d="M1642.2 1080L1724.1 1080L1743.1 1016Z" fill="#001122" stroke="#001122"></path><path d="M1920 750L1886.1 748L1920 877Z" fill="#00baaa" stroke="#00baaa"></path><path d="M158.9 146L0 183L144.9 237Z" fill="#00ff3e" stroke="#00ff3e"></path><path d="M52.9 271L0 183L0 365Z" fill="#00baaa" stroke="#00baaa"></path><path d="M373.8 0L167.9 0L335.8 57Z" fill="#006b82" stroke="#006b82"></path><path d="M0 978L0 1080L64.9 1020Z" fill="#00a0a9" stroke="#00a0a9"></path><path d="M64.9 1020L0 1080L170.9 1080Z" fill="#006b82" stroke="#006b82"></path><path d="M1658.2 187L1605.2 0L1488.2 137Z" fill="#05263a" stroke="#05263a"></path><path d="M1752.1 115L1605.2 0L1658.2 187Z" fill="#001122" stroke="#001122"></path><path d="M0 159L0 183L158.9 146Z" fill="#001122" stroke="#001122"></path><path d="M1863.1 350L1784.1 238L1720.1 314Z" fill="#00a0a9" stroke="#00a0a9"></path><path d="M1720.1 314L1784.1 238L1658.2 187Z" fill="#00ff3e" stroke="#00ff3e"></path><path d="M1863.1 350L1720.1 314L1775.1 509Z" fill="#00d399" stroke="#00d399"></path><path d="M23.9 83L0 159L158.9 146Z" fill="#00d399" stroke="#00d399"></path><path d="M1886.1 748L1782.1 913L1920 877Z" fill="#02536b" stroke="#02536b"></path><path d="M1782.1 913L1886.1 748L1723.1 711Z" fill="#053b52" stroke="#053b52"></path><path d="M167.9 0L23.9 83L158.9 146Z" fill="#05263a" stroke="#05263a"></path><path d="M1784.1 238L1752.1 115L1658.2 187Z" fill="#00d399" stroke="#00d399"></path><path d="M1920 487L1863.1 350L1775.1 509Z" fill="#053b52" stroke="#053b52"></path><path d="M1920 66L1811.1 44L1752.1 115Z" fill="#05263a" stroke="#05263a"></path><path d="M1886.1 748L1920 638L1723.1 711Z" fill="#006b82" stroke="#006b82"></path><path d="M1920 877L1782.1 913L1920 914Z" fill="#00d399" stroke="#00d399"></path><path d="M1886.1 748L1920 750L1920 638Z" fill="#053b52" stroke="#053b52"></path><path d="M1920 638L1920 545L1753.1 572Z" fill="#053b52" stroke="#053b52"></path><path d="M1920 545L1920 487L1775.1 509Z" fill="#00d399" stroke="#00d399"></path><path d="M1920 487L1888.1 346L1863.1 350Z" fill="#05263a" stroke="#05263a"></path><path d="M1863.1 350L1920 262L1784.1 238Z" fill="#008597" stroke="#008597"></path><path d="M167.9 0L30.9 0L23.9 83Z" fill="#00ff3e" stroke="#00ff3e"></path><path d="M23.9 83L0 0L0 159Z" fill="#00d399" stroke="#00d399"></path><path d="M1862.1 1080L1782.1 913L1743.1 1016Z" fill="#001122" stroke="#001122"></path><path d="M1724.1 1080L1862.1 1080L1743.1 1016Z" fill="#00a0a9" stroke="#00a0a9"></path><path d="M1862.1 1080L1920 914L1782.1 913Z" fill="#00baaa" stroke="#00baaa"></path><path d="M1752.1 115L1745.1 0L1605.2 0Z" fill="#05263a" stroke="#05263a"></path><path d="M1778.1 0L1745.1 0L1811.1 44Z" fill="#00baaa" stroke="#00baaa"></path><path d="M30.9 0L0 0L23.9 83Z" fill="#001122" stroke="#001122"></path><path d="M1920 487L1920 309L1888.1 346Z" fill="#00baaa" stroke="#00baaa"></path><path d="M1888.1 346L1920 309L1863.1 350Z" fill="#001122" stroke="#001122"></path><path d="M1811.1 44L1745.1 0L1752.1 115Z" fill="#00ea78" stroke="#00ea78"></path><path d="M1920 309L1920 262L1863.1 350Z" fill="#00d399" stroke="#00d399"></path><path d="M1920 66L1752.1 115L1784.1 238Z" fill="#00ff3e" stroke="#00ff3e"></path><path d="M1862.1 1080L1920 1080L1920 914Z" fill="#00baaa" stroke="#00baaa"></path><path d="M1920 262L1920 66L1784.1 238Z" fill="#00a0a9" stroke="#00a0a9"></path><path d="M1811.1 44L1920 0L1778.1 0Z" fill="#053b52" stroke="#053b52"></path><path d="M1920 66L1920 0L1811.1 44Z" fill="#00ff3e" stroke="#00ff3e"></path></g></svg>