<svg id="visual" viewBox="0 0 960 540" width="960" height="540" xmlns="http://www.w3.org/2000/svg" xmlns:xlink="http://www.w3.org/1999/xlink" version="1.1"><g stroke-width="1" stroke-linejoin="bevel"><path d="M526 276.6L550 210.4L494 208.4Z" fill="#645bd3" stroke="#645bd3"></path><path d="M623 311.6L608 202.4L550 210.4Z" fill="#3150ab" stroke="#3150ab"></path><path d="M550 210.4L571 148.3L494 208.4Z" fill="#004181" stroke="#004181"></path><path d="M494 208.4L459 315.6L526 276.6Z" fill="#214b9d" stroke="#214b9d"></path><path d="M608 202.4L571 148.3L550 210.4Z" fill="#5258c6" stroke="#5258c6"></path><path d="M456 130.3L421 185.3L494 208.4Z" fill="#9e61f5" stroke="#9e61f5"></path><path d="M494 208.4L387 221.4L459 315.6Z" fill="#214b9d" stroke="#214b9d"></path><path d="M571 148.3L456 130.3L494 208.4Z" fill="#004181" stroke="#004181"></path><path d="M600 345.7L623 311.6L526 276.6Z" fill="#9e61f5" stroke="#9e61f5"></path><path d="M526 276.6L623 311.6L550 210.4Z" fill="#9e61f5" stroke="#9e61f5"></path><path d="M723 245.4L626 155.3L608 202.4Z" fill="#004181" stroke="#004181"></path><path d="M608 202.4L626 155.3L571 148.3Z" fill="#645bd3" stroke="#645bd3"></path><path d="M571 148.3L494 60.1L456 130.3Z" fill="#8a60ea" stroke="#8a60ea"></path><path d="M512 416.7L600 345.7L526 276.6Z" fill="#10468f" stroke="#10468f"></path><path d="M361 121.3L387 221.4L421 185.3Z" fill="#5258c6" stroke="#5258c6"></path><path d="M421 185.3L387 221.4L494 208.4Z" fill="#004181" stroke="#004181"></path><path d="M387 221.4L398 304.6L459 315.6Z" fill="#8a60ea" stroke="#8a60ea"></path><path d="M459 315.6L512 416.7L526 276.6Z" fill="#b362ff" stroke="#b362ff"></path><path d="M387 221.4L344 255.4L398 304.6Z" fill="#214b9d" stroke="#214b9d"></path><path d="M361 121.3L344 255.4L387 221.4Z" fill="#5258c6" stroke="#5258c6"></path><path d="M597 55.1L494 60.1L571 148.3Z" fill="#4154b9" stroke="#4154b9"></path><path d="M456 130.3L378 105.1L421 185.3Z" fill="#214b9d" stroke="#214b9d"></path><path d="M456 435.9L459 315.6L372 403.7Z" fill="#9e61f5" stroke="#9e61f5"></path><path d="M456 435.9L512 416.7L459 315.6Z" fill="#10468f" stroke="#10468f"></path><path d="M344 255.4L345 312.6L398 304.6Z" fill="#5258c6" stroke="#5258c6"></path><path d="M494 60.1L378 105.1L456 130.3Z" fill="#5258c6" stroke="#5258c6"></path><path d="M626 155.3L597 55.1L571 148.3Z" fill="#645bd3" stroke="#645bd3"></path><path d="M378 105.1L361 121.3L421 185.3Z" fill="#10468f" stroke="#10468f"></path><path d="M700 343.7L723 245.4L623 311.6Z" fill="#3150ab" stroke="#3150ab"></path><path d="M623 311.6L723 245.4L608 202.4Z" fill="#4154b9" stroke="#4154b9"></path><path d="M626 155.3L684 70.1L597 55.1Z" fill="#10468f" stroke="#10468f"></path><path d="M602 491.9L656 390.7L600 345.7Z" fill="#645bd3" stroke="#645bd3"></path><path d="M600 345.7L656 390.7L623 311.6Z" fill="#3150ab" stroke="#3150ab"></path><path d="M656 390.7L700 343.7L623 311.6Z" fill="#b362ff" stroke="#b362ff"></path><path d="M372 403.7L459 315.6L398 304.6Z" fill="#775edf" stroke="#775edf"></path><path d="M602 491.9L662 457.9L656 390.7Z" fill="#214b9d" stroke="#214b9d"></path><path d="M345 312.6L372 403.7L398 304.6Z" fill="#645bd3" stroke="#645bd3"></path><path d="M700 343.7L751 267.6L723 245.4Z" fill="#3150ab" stroke="#3150ab"></path><path d="M752 156.3L684 70.1L626 155.3Z" fill="#214b9d" stroke="#214b9d"></path><path d="M752 156.3L626 155.3L723 245.4Z" fill="#4154b9" stroke="#4154b9"></path><path d="M630 0L553 0L597 55.1Z" fill="#5258c6" stroke="#5258c6"></path><path d="M597 55.1L553 0L494 60.1Z" fill="#8a60ea" stroke="#8a60ea"></path><path d="M389 0L343 72.1L378 105.1Z" fill="#3150ab" stroke="#3150ab"></path><path d="M684 70.1L654 36.1L597 55.1Z" fill="#8a60ea" stroke="#8a60ea"></path><path d="M455 0L378 105.1L494 60.1Z" fill="#9e61f5" stroke="#9e61f5"></path><path d="M378 105.1L343 72.1L361 121.3Z" fill="#645bd3" stroke="#645bd3"></path><path d="M199 210.4L249 267.6L344 255.4Z" fill="#214b9d" stroke="#214b9d"></path><path d="M751 267.6L752 156.3L723 245.4Z" fill="#3150ab" stroke="#3150ab"></path><path d="M553 0L455 0L494 60.1Z" fill="#645bd3" stroke="#645bd3"></path><path d="M345 312.6L311 371.7L372 403.7Z" fill="#8a60ea" stroke="#8a60ea"></path><path d="M249 267.6L311 371.7L345 312.6Z" fill="#775edf" stroke="#775edf"></path><path d="M249 267.6L345 312.6L344 255.4Z" fill="#9e61f5" stroke="#9e61f5"></path><path d="M654 36.1L630 0L597 55.1Z" fill="#004181" stroke="#004181"></path><path d="M722 0L630 0L654 36.1Z" fill="#645bd3" stroke="#645bd3"></path><path d="M722 0L654 36.1L684 70.1Z" fill="#004181" stroke="#004181"></path><path d="M602 491.9L600 345.7L512 416.7Z" fill="#5258c6" stroke="#5258c6"></path><path d="M656 390.7L735 491.9L700 343.7Z" fill="#645bd3" stroke="#645bd3"></path><path d="M700 343.7L781 303.6L751 267.6Z" fill="#214b9d" stroke="#214b9d"></path><path d="M569 540L602 491.9L512 416.7Z" fill="#004181" stroke="#004181"></path><path d="M500 540L512 416.7L456 435.9Z" fill="#775edf" stroke="#775edf"></path><path d="M810 423.7L781 303.6L700 343.7Z" fill="#8a60ea" stroke="#8a60ea"></path><path d="M751 267.6L812 167.3L752 156.3Z" fill="#8a60ea" stroke="#8a60ea"></path><path d="M455 0L389 0L378 105.1Z" fill="#b362ff" stroke="#b362ff"></path><path d="M199 210.4L344 255.4L195 188.4Z" fill="#b362ff" stroke="#b362ff"></path><path d="M292 461.9L389 498.9L372 403.7Z" fill="#645bd3" stroke="#645bd3"></path><path d="M372 403.7L389 498.9L456 435.9Z" fill="#10468f" stroke="#10468f"></path><path d="M827 244.4L812 167.3L751 267.6Z" fill="#5258c6" stroke="#5258c6"></path><path d="M752 156.3L757 53.1L684 70.1Z" fill="#004181" stroke="#004181"></path><path d="M812 167.3L757 53.1L752 156.3Z" fill="#645bd3" stroke="#645bd3"></path><path d="M389 498.9L500 540L456 435.9Z" fill="#004181" stroke="#004181"></path><path d="M894 335.6L827 244.4L781 303.6Z" fill="#8a60ea" stroke="#8a60ea"></path><path d="M781 303.6L827 244.4L751 267.6Z" fill="#10468f" stroke="#10468f"></path><path d="M602 491.9L630 540L662 457.9Z" fill="#004181" stroke="#004181"></path><path d="M500 540L569 540L512 416.7Z" fill="#004181" stroke="#004181"></path><path d="M757 53.1L722 0L684 70.1Z" fill="#4154b9" stroke="#4154b9"></path><path d="M249 267.6L234 365.7L311 371.7Z" fill="#3150ab" stroke="#3150ab"></path><path d="M311 371.7L292 461.9L372 403.7Z" fill="#645bd3" stroke="#645bd3"></path><path d="M277 459.9L292 461.9L311 371.7Z" fill="#775edf" stroke="#775edf"></path><path d="M569 540L630 540L602 491.9Z" fill="#b362ff" stroke="#b362ff"></path><path d="M662 457.9L735 491.9L656 390.7Z" fill="#10468f" stroke="#10468f"></path><path d="M195 188.4L361 121.3L205 135.3Z" fill="#8a60ea" stroke="#8a60ea"></path><path d="M195 188.4L344 255.4L361 121.3Z" fill="#8a60ea" stroke="#8a60ea"></path><path d="M249 267.6L182 327.6L234 365.7Z" fill="#004181" stroke="#004181"></path><path d="M205 135.3L361 121.3L220 89.1Z" fill="#214b9d" stroke="#214b9d"></path><path d="M234 365.7L277 459.9L311 371.7Z" fill="#9e61f5" stroke="#9e61f5"></path><path d="M292 461.9L364 540L389 498.9Z" fill="#775edf" stroke="#775edf"></path><path d="M389 498.9L364 540L500 540Z" fill="#214b9d" stroke="#214b9d"></path><path d="M220 89.1L361 121.3L343 72.1Z" fill="#8a60ea" stroke="#8a60ea"></path><path d="M700 540L735 491.9L662 457.9Z" fill="#10468f" stroke="#10468f"></path><path d="M277 0L220 89.1L343 72.1Z" fill="#3150ab" stroke="#3150ab"></path><path d="M389 0L277 0L343 72.1Z" fill="#004181" stroke="#004181"></path><path d="M300 540L364 540L292 461.9Z" fill="#9e61f5" stroke="#9e61f5"></path><path d="M735 491.9L810 423.7L700 343.7Z" fill="#10468f" stroke="#10468f"></path><path d="M199 210.4L182 327.6L249 267.6Z" fill="#8a60ea" stroke="#8a60ea"></path><path d="M234 365.7L187 458.9L277 459.9Z" fill="#b362ff" stroke="#b362ff"></path><path d="M119 322.6L182 327.6L199 210.4Z" fill="#004181" stroke="#004181"></path><path d="M630 540L700 540L662 457.9Z" fill="#3150ab" stroke="#3150ab"></path><path d="M735 491.9L806 447.9L810 423.7Z" fill="#004181" stroke="#004181"></path><path d="M795 540L806 447.9L735 491.9Z" fill="#214b9d" stroke="#214b9d"></path><path d="M182 327.6L185 358.7L234 365.7Z" fill="#004181" stroke="#004181"></path><path d="M806 447.9L837 420.7L810 423.7Z" fill="#775edf" stroke="#775edf"></path><path d="M810 423.7L837 420.7L781 303.6Z" fill="#214b9d" stroke="#214b9d"></path><path d="M205 135.3L155 170.3L195 188.4Z" fill="#9e61f5" stroke="#9e61f5"></path><path d="M195 188.4L155 170.3L199 210.4Z" fill="#5258c6" stroke="#5258c6"></path><path d="M73 374.7L187 458.9L185 358.7Z" fill="#3150ab" stroke="#3150ab"></path><path d="M110 144.3L155 170.3L205 135.3Z" fill="#214b9d" stroke="#214b9d"></path><path d="M193 61.1L205 135.3L220 89.1Z" fill="#8a60ea" stroke="#8a60ea"></path><path d="M224 0L193 61.1L220 89.1Z" fill="#4154b9" stroke="#4154b9"></path><path d="M218 540L300 540L277 459.9Z" fill="#10468f" stroke="#10468f"></path><path d="M277 459.9L300 540L292 461.9Z" fill="#214b9d" stroke="#214b9d"></path><path d="M812 167.3L855 60.1L757 53.1Z" fill="#5258c6" stroke="#5258c6"></path><path d="M757 53.1L828 0L722 0Z" fill="#3150ab" stroke="#3150ab"></path><path d="M904 184.3L855 60.1L812 167.3Z" fill="#8a60ea" stroke="#8a60ea"></path><path d="M904 184.3L812 167.3L827 244.4Z" fill="#10468f" stroke="#10468f"></path><path d="M277 0L224 0L220 89.1Z" fill="#9e61f5" stroke="#9e61f5"></path><path d="M837 420.7L894 335.6L781 303.6Z" fill="#004181" stroke="#004181"></path><path d="M922 204.4L904 184.3L827 244.4Z" fill="#775edf" stroke="#775edf"></path><path d="M855 60.1L828 0L757 53.1Z" fill="#214b9d" stroke="#214b9d"></path><path d="M185 358.7L187 458.9L234 365.7Z" fill="#214b9d" stroke="#214b9d"></path><path d="M119 322.6L185 358.7L182 327.6Z" fill="#004181" stroke="#004181"></path><path d="M960 254.4L922 204.4L827 244.4Z" fill="#9e61f5" stroke="#9e61f5"></path><path d="M960 73.1L882 0L855 60.1Z" fill="#8a60ea" stroke="#8a60ea"></path><path d="M855 60.1L882 0L828 0Z" fill="#004181" stroke="#004181"></path><path d="M960 396.7L960 350.6L894 335.6Z" fill="#9e61f5" stroke="#9e61f5"></path><path d="M806 447.9L865 494.9L837 420.7Z" fill="#3150ab" stroke="#3150ab"></path><path d="M700 540L795 540L735 491.9Z" fill="#8a60ea" stroke="#8a60ea"></path><path d="M155 170.3L119 322.6L199 210.4Z" fill="#3150ab" stroke="#3150ab"></path><path d="M193 61.1L110 144.3L205 135.3Z" fill="#214b9d" stroke="#214b9d"></path><path d="M155 170.3L48 197.4L119 322.6Z" fill="#9e61f5" stroke="#9e61f5"></path><path d="M89 80.1L110 144.3L193 61.1Z" fill="#645bd3" stroke="#645bd3"></path><path d="M224 0L170 0L193 61.1Z" fill="#8a60ea" stroke="#8a60ea"></path><path d="M168 540L218 540L187 458.9Z" fill="#004181" stroke="#004181"></path><path d="M187 458.9L218 540L277 459.9Z" fill="#004181" stroke="#004181"></path><path d="M795 540L865 494.9L806 447.9Z" fill="#10468f" stroke="#10468f"></path><path d="M894 335.6L960 254.4L827 244.4Z" fill="#3150ab" stroke="#3150ab"></path><path d="M960 118.3L855 60.1L904 184.3Z" fill="#214b9d" stroke="#214b9d"></path><path d="M960 350.6L960 254.4L894 335.6Z" fill="#004181" stroke="#004181"></path><path d="M922 204.4L960 118.3L904 184.3Z" fill="#004181" stroke="#004181"></path><path d="M795 540L846 540L865 494.9Z" fill="#3150ab" stroke="#3150ab"></path><path d="M960 396.7L837 420.7L960 440.9Z" fill="#9e61f5" stroke="#9e61f5"></path><path d="M960 396.7L894 335.6L837 420.7Z" fill="#10468f" stroke="#10468f"></path><path d="M960 254.4L960 118.3L922 204.4Z" fill="#10468f" stroke="#10468f"></path><path d="M170 0L89 80.1L193 61.1Z" fill="#5258c6" stroke="#5258c6"></path><path d="M0 270.6L73 374.7L119 322.6Z" fill="#b362ff" stroke="#b362ff"></path><path d="M87 540L168 540L187 458.9Z" fill="#10468f" stroke="#10468f"></path><path d="M960 440.9L837 420.7L865 494.9Z" fill="#9e61f5" stroke="#9e61f5"></path><path d="M48 197.4L155 170.3L110 144.3Z" fill="#214b9d" stroke="#214b9d"></path><path d="M119 322.6L73 374.7L185 358.7Z" fill="#775edf" stroke="#775edf"></path><path d="M960 118.3L960 73.1L855 60.1Z" fill="#775edf" stroke="#775edf"></path><path d="M0 140.3L48 197.4L110 144.3Z" fill="#10468f" stroke="#10468f"></path><path d="M960 540L960 440.9L865 494.9Z" fill="#9e61f5" stroke="#9e61f5"></path><path d="M0 420.7L66 429.9L73 374.7Z" fill="#b362ff" stroke="#b362ff"></path><path d="M73 374.7L66 429.9L187 458.9Z" fill="#645bd3" stroke="#645bd3"></path><path d="M960 73.1L960 0L882 0Z" fill="#8a60ea" stroke="#8a60ea"></path><path d="M0 140.3L0 221.4L48 197.4Z" fill="#8a60ea" stroke="#8a60ea"></path><path d="M170 0L81 0L89 80.1Z" fill="#4154b9" stroke="#4154b9"></path><path d="M0 140.3L110 144.3L89 80.1Z" fill="#5258c6" stroke="#5258c6"></path><path d="M48 197.4L0 270.6L119 322.6Z" fill="#645bd3" stroke="#645bd3"></path><path d="M0 221.4L0 270.6L48 197.4Z" fill="#5258c6" stroke="#5258c6"></path><path d="M66 429.9L87 540L187 458.9Z" fill="#645bd3" stroke="#645bd3"></path><path d="M0 540L87 540L66 429.9Z" fill="#645bd3" stroke="#645bd3"></path><path d="M0 88.1L0 140.3L89 80.1Z" fill="#214b9d" stroke="#214b9d"></path><path d="M846 540L960 540L865 494.9Z" fill="#3150ab" stroke="#3150ab"></path><path d="M81 0L0 88.1L89 80.1Z" fill="#9e61f5" stroke="#9e61f5"></path><path d="M0 270.6L0 420.7L73 374.7Z" fill="#4154b9" stroke="#4154b9"></path><path d="M0 420.7L0 420.9L66 429.9Z" fill="#775edf" stroke="#775edf"></path><path d="M81 0L0 0L0 88.1Z" fill="#4154b9" stroke="#4154b9"></path><path d="M0 420.9L0 540L66 429.9Z" fill="#645bd3" stroke="#645bd3"></path></g></svg>